<?xml version="1.0" encoding="utf-8" standalone="no"?>
<!DOCTYPE svg PUBLIC "-//W3C//DTD SVG 1.1//EN"
  "http://www.w3.org/Graphics/SVG/1.1/DTD/svg11.dtd">
<svg xmlns:xlink="http://www.w3.org/1999/xlink" width="432pt" height="432pt" viewBox="0 0 432 432" xmlns="http://www.w3.org/2000/svg" version="1.1">
 <metadata>
  <rdf:RDF xmlns:dc="http://purl.org/dc/elements/1.1/" xmlns:cc="http://creativecommons.org/ns#" xmlns:rdf="http://www.w3.org/1999/02/22-rdf-syntax-ns#">
   <cc:Work>
    <dc:type rdf:resource="http://purl.org/dc/dcmitype/StillImage"/>
    <dc:date>2025-06-17T23:40:23.381057</dc:date>
    <dc:format>image/svg+xml</dc:format>
    <dc:creator>
     <cc:Agent>
      <dc:title>Matplotlib v3.10.1, https://matplotlib.org/</dc:title>
     </cc:Agent>
    </dc:creator>
   </cc:Work>
  </rdf:RDF>
 </metadata>
 <defs>
  <style type="text/css">*{stroke-linejoin: round; stroke-linecap: butt}</style>
 </defs>
 <g id="figure_1">
  <g id="patch_1">
   <path d="M 0 432 
L 432 432 
L 432 0 
L 0 0 
z
" style="fill: #ffffff"/>
  </g>
  <g id="axes_1">
   <g id="patch_2">
    <path d="M 0 432 
L 432 432 
L 432 0 
L 0 0 
z
" style="fill: #ffffff"/>
   </g>
   <g id="PathCollection_1">
    <defs>
     <path id="C0_0_df484add7c" d="M 0 3.535534 
C 0.937635 3.535534 1.836992 3.163008 2.5 2.5 
C 3.163008 1.836992 3.535534 0.937635 3.535534 -0 
C 3.535534 -0.937635 3.163008 -1.836992 2.5 -2.5 
C 1.836992 -3.163008 0.937635 -3.535534 0 -3.535534 
C -0.937635 -3.535534 -1.836992 -3.163008 -2.5 -2.5 
C -3.163008 -1.836992 -3.535534 -0.937635 -3.535534 0 
C -3.535534 0.937635 -3.163008 1.836992 -2.5 2.5 
C -1.836992 3.163008 -0.937635 3.535534 0 3.535534 
z
"/>
    </defs>
    <g clip-path="url(#p6641e87e91)">
     <use xlink:href="#C0_0_df484add7c" x="169.285233" y="177.910995" style="fill: #0057ff; stroke: #000000"/>
    </g>
    <g clip-path="url(#p6641e87e91)">
     <use xlink:href="#C0_0_df484add7c" x="231.867236" y="282.044674" style="fill: #84ff00; stroke: #000000"/>
    </g>
    <g clip-path="url(#p6641e87e91)">
     <use xlink:href="#C0_0_df484add7c" x="334.800904" y="335.185919" style="fill: #d600ff; stroke: #000000"/>
    </g>
    <g clip-path="url(#p6641e87e91)">
     <use xlink:href="#C0_0_df484add7c" x="213.763689" y="196.45655" style="fill: #e800ff; stroke: #000000"/>
    </g>
    <g clip-path="url(#p6641e87e91)">
     <use xlink:href="#C0_0_df484add7c" x="149.520055" y="208.477264" style="fill: #0074ff; stroke: #000000"/>
    </g>
    <g clip-path="url(#p6641e87e91)">
     <use xlink:href="#C0_0_df484add7c" x="133.205525" y="113.889835" style="fill: #ff6a00; stroke: #000000"/>
    </g>
    <g clip-path="url(#p6641e87e91)">
     <use xlink:href="#C0_0_df484add7c" x="162.118485" y="144.159624" style="fill: #00bbff; stroke: #000000"/>
    </g>
    <g clip-path="url(#p6641e87e91)">
     <use xlink:href="#C0_0_df484add7c" x="299.238424" y="127.117898" style="fill: #00ffa9; stroke: #000000"/>
    </g>
    <g clip-path="url(#p6641e87e91)">
     <use xlink:href="#C0_0_df484add7c" x="285.682477" y="41.185058" style="fill: #00ffb5; stroke: #000000"/>
    </g>
    <g clip-path="url(#p6641e87e91)">
     <use xlink:href="#C0_0_df484add7c" x="328.639981" y="63.832232" style="fill: #00ffde; stroke: #000000"/>
    </g>
    <g clip-path="url(#p6641e87e91)">
     <use xlink:href="#C0_0_df484add7c" x="219.502248" y="367.55392" style="fill: #0022ff; stroke: #000000"/>
    </g>
    <g clip-path="url(#p6641e87e91)">
     <use xlink:href="#C0_0_df484add7c" x="318.727045" y="372.929672" style="fill: #6c00ff; stroke: #000000"/>
    </g>
    <g clip-path="url(#p6641e87e91)">
     <use xlink:href="#C0_0_df484add7c" x="181.338993" y="110.712634" style="fill: #ff0c00; stroke: #000000"/>
    </g>
    <g clip-path="url(#p6641e87e91)">
     <use xlink:href="#C0_0_df484add7c" x="308.875663" y="185.130496" style="fill: #43ff00; stroke: #000000"/>
    </g>
    <g clip-path="url(#p6641e87e91)">
     <use xlink:href="#C0_0_df484add7c" x="158.501758" y="94.361083" style="fill: #ff5300; stroke: #000000"/>
    </g>
    <g clip-path="url(#p6641e87e91)">
     <use xlink:href="#C0_0_df484add7c" x="336.360752" y="285.709024" style="fill: #7800ff; stroke: #000000"/>
    </g>
    <g clip-path="url(#p6641e87e91)">
     <use xlink:href="#C0_0_df484add7c" x="107.152542" y="292.121034" style="fill: #ff8800; stroke: #000000"/>
    </g>
    <g clip-path="url(#p6641e87e91)">
     <use xlink:href="#C0_0_df484add7c" x="305.385667" y="234.246697" style="fill: #0eff00; stroke: #000000"/>
    </g>
    <g clip-path="url(#p6641e87e91)">
     <use xlink:href="#C0_0_df484add7c" x="130.093148" y="257.920394" style="fill: #ff007c; stroke: #000000"/>
    </g>
    <g clip-path="url(#p6641e87e91)">
     <use xlink:href="#C0_0_df484add7c" x="110.866054" y="248.182134" style="fill: #ff006b; stroke: #000000"/>
    </g>
    <g clip-path="url(#p6641e87e91)">
     <use xlink:href="#C0_0_df484add7c" x="24.283472" y="217.535185" style="fill: #ffe600; stroke: #000000"/>
    </g>
    <g clip-path="url(#p6641e87e91)">
     <use xlink:href="#C0_0_df484add7c" x="228.14626" y="95.372383" style="fill: #00f0ff; stroke: #000000"/>
    </g>
    <g clip-path="url(#p6641e87e91)">
     <use xlink:href="#C0_0_df484add7c" x="139.516005" y="377.584537" style="fill: #ffb700; stroke: #000000"/>
    </g>
    <g clip-path="url(#p6641e87e91)">
     <use xlink:href="#C0_0_df484add7c" x="316.166705" y="269.625484" style="fill: #5a00ff; stroke: #000000"/>
    </g>
    <g clip-path="url(#p6641e87e91)">
     <use xlink:href="#C0_0_df484add7c" x="176.739258" y="348.844302" style="fill: #3d00ff; stroke: #000000"/>
    </g>
    <g clip-path="url(#p6641e87e91)">
     <use xlink:href="#C0_0_df484add7c" x="40.678751" y="258.299709" style="fill: #ffa500; stroke: #000000"/>
    </g>
    <g clip-path="url(#p6641e87e91)">
     <use xlink:href="#C0_0_df484add7c" x="350.312123" y="308.056574" style="fill: #8400ff; stroke: #000000"/>
    </g>
    <g clip-path="url(#p6641e87e91)">
     <use xlink:href="#C0_0_df484add7c" x="153.790149" y="330.269739" style="fill: #2500ff; stroke: #000000"/>
    </g>
    <g clip-path="url(#p6641e87e91)">
     <use xlink:href="#C0_0_df484add7c" x="343.043972" y="191.791251" style="fill: #61ff00; stroke: #000000"/>
    </g>
    <g clip-path="url(#p6641e87e91)">
     <use xlink:href="#C0_0_df484add7c" x="133.284614" y="146.242979" style="fill: #0086ff; stroke: #000000"/>
    </g>
    <g clip-path="url(#p6641e87e91)">
     <use xlink:href="#C0_0_df484add7c" x="126.703709" y="227.877454" style="fill: #ff0047; stroke: #000000"/>
    </g>
    <g clip-path="url(#p6641e87e91)">
     <use xlink:href="#C0_0_df484add7c" x="85.300233" y="243.839006" style="fill: #ff0035; stroke: #000000"/>
    </g>
    <g clip-path="url(#p6641e87e91)">
     <use xlink:href="#C0_0_df484add7c" x="121.036122" y="61.468248" style="fill: #ff7c00; stroke: #000000"/>
    </g>
    <g clip-path="url(#p6641e87e91)">
     <use xlink:href="#C0_0_df484add7c" x="180.796419" y="392.991664" style="fill: #ffd500; stroke: #000000"/>
    </g>
    <g clip-path="url(#p6641e87e91)">
     <use xlink:href="#C0_0_df484add7c" x="389.193322" y="311.99816" style="fill: #37ff00; stroke: #000000"/>
    </g>
    <g clip-path="url(#p6641e87e91)">
     <use xlink:href="#C0_0_df484add7c" x="228.080303" y="403.919344" style="fill: #1300ff; stroke: #000000"/>
    </g>
    <g clip-path="url(#p6641e87e91)">
     <use xlink:href="#C0_0_df484add7c" x="270.929984" y="165.620486" style="fill: #00ff4b; stroke: #000000"/>
    </g>
    <g clip-path="url(#p6641e87e91)">
     <use xlink:href="#C0_0_df484add7c" x="243.156838" y="157.361396" style="fill: #00ff39; stroke: #000000"/>
    </g>
    <g clip-path="url(#p6641e87e91)">
     <use xlink:href="#C0_0_df484add7c" x="114.623327" y="351.205002" style="fill: #f8fd00; stroke: #000000"/>
    </g>
    <g clip-path="url(#p6641e87e91)">
     <use xlink:href="#C0_0_df484add7c" x="169.332531" y="255.115491" style="fill: #d7ff00; stroke: #000000"/>
    </g>
    <g clip-path="url(#p6641e87e91)">
     <use xlink:href="#C0_0_df484add7c" x="292.34585" y="263.383799" style="fill: #ad00ff; stroke: #000000"/>
    </g>
    <g clip-path="url(#p6641e87e91)">
     <use xlink:href="#C0_0_df484add7c" x="146.226809" y="277.427893" style="fill: #ff008e; stroke: #000000"/>
    </g>
    <g clip-path="url(#p6641e87e91)">
     <use xlink:href="#C0_0_df484add7c" x="105.220991" y="97.001188" style="fill: #ff2900; stroke: #000000"/>
    </g>
    <g clip-path="url(#p6641e87e91)">
     <use xlink:href="#C0_0_df484add7c" x="347.575806" y="157.139354" style="fill: #00ff9d; stroke: #000000"/>
    </g>
    <g clip-path="url(#p6641e87e91)">
     <use xlink:href="#C0_0_df484add7c" x="74.458015" y="82.840553" style="fill: #ff3500; stroke: #000000"/>
    </g>
    <g clip-path="url(#p6641e87e91)">
     <use xlink:href="#C0_0_df484add7c" x="236.056704" y="44.79332" style="fill: #00fff0; stroke: #000000"/>
    </g>
    <g clip-path="url(#p6641e87e91)">
     <use xlink:href="#C0_0_df484add7c" x="217.922934" y="168.487799" style="fill: #ff00ac; stroke: #000000"/>
    </g>
    <g clip-path="url(#p6641e87e91)">
     <use xlink:href="#C0_0_df484add7c" x="265.694887" y="194.550454" style="fill: #f400ff; stroke: #000000"/>
    </g>
    <g clip-path="url(#p6641e87e91)">
     <use xlink:href="#C0_0_df484add7c" x="258.557365" y="75.504707" style="fill: #00e5ff; stroke: #000000"/>
    </g>
    <g clip-path="url(#p6641e87e91)">
     <use xlink:href="#C0_0_df484add7c" x="206.966715" y="225.710164" style="fill: #fc00f5; stroke: #000000"/>
    </g>
    <g clip-path="url(#p6641e87e91)">
     <use xlink:href="#C0_0_df484add7c" x="327.304949" y="135.052425" style="fill: #00ff8c; stroke: #000000"/>
    </g>
    <g clip-path="url(#p6641e87e91)">
     <use xlink:href="#C0_0_df484add7c" x="299.07115" y="161.299905" style="fill: #00ff2d; stroke: #000000"/>
    </g>
    <g clip-path="url(#p6641e87e91)">
     <use xlink:href="#C0_0_df484add7c" x="204.629154" y="78.714822" style="fill: #00ffc7; stroke: #000000"/>
    </g>
    <g clip-path="url(#p6641e87e91)">
     <use xlink:href="#C0_0_df484add7c" x="301.408985" y="211.625148" style="fill: #00ff1b; stroke: #000000"/>
    </g>
    <g clip-path="url(#p6641e87e91)">
     <use xlink:href="#C0_0_df484add7c" x="300.24075" y="90.583365" style="fill: #00c7ff; stroke: #000000"/>
    </g>
    <g clip-path="url(#p6641e87e91)">
     <use xlink:href="#C0_0_df484add7c" x="63.662248" y="210.835506" style="fill: #ff0059; stroke: #000000"/>
    </g>
    <g clip-path="url(#p6641e87e91)">
     <use xlink:href="#C0_0_df484add7c" x="200.599792" y="325.619174" style="fill: #0800ff; stroke: #000000"/>
    </g>
    <g clip-path="url(#p6641e87e91)">
     <use xlink:href="#C0_0_df484add7c" x="162.977485" y="227.513779" style="fill: #009eff; stroke: #000000"/>
    </g>
    <g clip-path="url(#p6641e87e91)">
     <use xlink:href="#C0_0_df484add7c" x="139.305609" y="181.086126" style="fill: #004bff; stroke: #000000"/>
    </g>
    <g clip-path="url(#p6641e87e91)">
     <use xlink:href="#C0_0_df484add7c" x="392.507193" y="224.229041" style="fill: #4fff00; stroke: #000000"/>
    </g>
    <g clip-path="url(#p6641e87e91)">
     <use xlink:href="#C0_0_df484add7c" x="164.781355" y="60.064826" style="fill: #ff4100; stroke: #000000"/>
    </g>
    <g clip-path="url(#p6641e87e91)">
     <use xlink:href="#C0_0_df484add7c" x="351.007107" y="246.642879" style="fill: #04ff08; stroke: #000000"/>
    </g>
    <g clip-path="url(#p6641e87e91)">
     <use xlink:href="#C0_0_df484add7c" x="209.580911" y="273.525401" style="fill: #a7ff00; stroke: #000000"/>
    </g>
    <g clip-path="url(#p6641e87e91)">
     <use xlink:href="#C0_0_df484add7c" x="297.383625" y="310.877985" style="fill: #bf00ff; stroke: #000000"/>
    </g>
    <g clip-path="url(#p6641e87e91)">
     <use xlink:href="#C0_0_df484add7c" x="266.729323" y="106.777157" style="fill: #00fffc; stroke: #000000"/>
    </g>
    <g clip-path="url(#p6641e87e91)">
     <use xlink:href="#C0_0_df484add7c" x="349.031164" y="103.950821" style="fill: #00ff62; stroke: #000000"/>
    </g>
    <g clip-path="url(#p6641e87e91)">
     <use xlink:href="#C0_0_df484add7c" x="272.274279" y="296.857015" style="fill: #a100ff; stroke: #000000"/>
    </g>
    <g clip-path="url(#p6641e87e91)">
     <use xlink:href="#C0_0_df484add7c" x="94.657727" y="325.263114" style="fill: #ff9a00; stroke: #000000"/>
    </g>
    <g clip-path="url(#p6641e87e91)">
     <use xlink:href="#C0_0_df484add7c" x="309.028613" y="330.022546" style="fill: #cb00ff; stroke: #000000"/>
    </g>
    <g clip-path="url(#p6641e87e91)">
     <use xlink:href="#C0_0_df484add7c" x="190.989228" y="159.930433" style="fill: #0092ff; stroke: #000000"/>
    </g>
    <g clip-path="url(#p6641e87e91)">
     <use xlink:href="#C0_0_df484add7c" x="55.489913" y="125.594729" style="fill: #ff1800; stroke: #000000"/>
    </g>
    <g clip-path="url(#p6641e87e91)">
     <use xlink:href="#C0_0_df484add7c" x="232.449773" y="228.06976" style="fill: #ff00c9; stroke: #000000"/>
    </g>
    <g clip-path="url(#p6641e87e91)">
     <use xlink:href="#C0_0_df484add7c" x="200.473142" y="131.659189" style="fill: #00d9ff; stroke: #000000"/>
    </g>
    <g clip-path="url(#p6641e87e91)">
     <use xlink:href="#C0_0_df484add7c" x="188.269163" y="299.706885" style="fill: #72ff00; stroke: #000000"/>
    </g>
    <g clip-path="url(#p6641e87e91)">
     <use xlink:href="#C0_0_df484add7c" x="382.189087" y="267.587847" style="fill: #25ff00; stroke: #000000"/>
    </g>
    <g clip-path="url(#p6641e87e91)">
     <use xlink:href="#C0_0_df484add7c" x="235.203481" y="251.349225" style="fill: #ff00e7; stroke: #000000"/>
    </g>
    <g clip-path="url(#p6641e87e91)">
     <use xlink:href="#C0_0_df484add7c" x="110.7005" y="176.620496" style="fill: #00afff; stroke: #000000"/>
    </g>
    <g clip-path="url(#p6641e87e91)">
     <use xlink:href="#C0_0_df484add7c" x="194.59341" y="30.404122" style="fill: #ff5f00; stroke: #000000"/>
    </g>
    <g clip-path="url(#p6641e87e91)">
     <use xlink:href="#C0_0_df484add7c" x="96.21809" y="129.705513" style="fill: #ff0000; stroke: #000000"/>
    </g>
    <g clip-path="url(#p6641e87e91)">
     <use xlink:href="#C0_0_df484add7c" x="53.834355" y="306.160589" style="fill: #fef100; stroke: #000000"/>
    </g>
    <g clip-path="url(#p6641e87e91)">
     <use xlink:href="#C0_0_df484add7c" x="226.793929" y="125.821328" style="fill: #00ffd3; stroke: #000000"/>
    </g>
    <g clip-path="url(#p6641e87e91)">
     <use xlink:href="#C0_0_df484add7c" x="260.058141" y="133.561553" style="fill: #00ff57; stroke: #000000"/>
    </g>
    <g clip-path="url(#p6641e87e91)">
     <use xlink:href="#C0_0_df484add7c" x="226.160333" y="333.544265" style="fill: #4f00ff; stroke: #000000"/>
    </g>
    <g clip-path="url(#p6641e87e91)">
     <use xlink:href="#C0_0_df484add7c" x="263.092663" y="244.511543" style="fill: #ff00bd; stroke: #000000"/>
    </g>
    <g clip-path="url(#p6641e87e91)">
     <use xlink:href="#C0_0_df484add7c" x="239.866384" y="195.753603" style="fill: #ff00a0; stroke: #000000"/>
    </g>
    <g clip-path="url(#p6641e87e91)">
     <use xlink:href="#C0_0_df484add7c" x="268.372766" y="383.089356" style="fill: #3100ff; stroke: #000000"/>
    </g>
    <g clip-path="url(#p6641e87e91)">
     <use xlink:href="#C0_0_df484add7c" x="384.538354" y="136.576045" style="fill: #00ff80; stroke: #000000"/>
    </g>
    <g clip-path="url(#p6641e87e91)">
     <use xlink:href="#C0_0_df484add7c" x="191.403793" y="247.433981" style="fill: #96ff00; stroke: #000000"/>
    </g>
    <g clip-path="url(#p6641e87e91)">
     <use xlink:href="#C0_0_df484add7c" x="39.684317" y="171.469831" style="fill: #00ff74; stroke: #000000"/>
    </g>
    <g clip-path="url(#p6641e87e91)">
     <use xlink:href="#C0_0_df484add7c" x="109.210341" y="210.823487" style="fill: #ff0018; stroke: #000000"/>
    </g>
    <g clip-path="url(#p6641e87e91)">
     <use xlink:href="#C0_0_df484add7c" x="83.294164" y="165.54068" style="fill: #003fff; stroke: #000000"/>
    </g>
    <g clip-path="url(#p6641e87e91)">
     <use xlink:href="#C0_0_df484add7c" x="255.998933" y="334.35543" style="fill: #0016ff; stroke: #000000"/>
    </g>
    <g clip-path="url(#p6641e87e91)">
     <use xlink:href="#C0_0_df484add7c" x="269.463747" y="219.596069" style="fill: #ff00db; stroke: #000000"/>
    </g>
    <g clip-path="url(#p6641e87e91)">
     <use xlink:href="#C0_0_df484add7c" x="342.364437" y="221.338669" style="fill: #00ff10; stroke: #000000"/>
    </g>
    <g clip-path="url(#p6641e87e91)">
     <use xlink:href="#C0_0_df484add7c" x="384.067054" y="185.259873" style="fill: #1aff00; stroke: #000000"/>
    </g>
    <g clip-path="url(#p6641e87e91)">
     <use xlink:href="#C0_0_df484add7c" x="140.623807" y="308.787826" style="fill: #002dff; stroke: #000000"/>
    </g>
    <g clip-path="url(#p6641e87e91)">
     <use xlink:href="#C0_0_df484add7c" x="185.535615" y="203.078478" style="fill: #0069ff; stroke: #000000"/>
    </g>
    <g clip-path="url(#p6641e87e91)">
     <use xlink:href="#C0_0_df484add7c" x="79.948544" y="276.067002" style="fill: #ffc300; stroke: #000000"/>
    </g>
   </g>
   <g id="matplotlib.axis_1">
    <g id="xtick_1">
     <g id="line2d_1">
      <path d="M 0 432 
L 0 0 
" clip-path="url(#p6641e87e91)" style="fill: none; stroke-dasharray: 1.85,0.8; stroke-dashoffset: 0; stroke: #808080; stroke-width: 0.5"/>
     </g>
     <g id="line2d_2">
      <defs>
       <path id="m2730c611f6" d="M 0 0 
L 0 3.5 
" style="stroke: #000000; stroke-width: 0.8"/>
      </defs>
      <g>
       <use xlink:href="#m2730c611f6" x="0" y="432" style="stroke: #000000; stroke-width: 0.8"/>
      </g>
     </g>
     <g id="text_1">
      <!-- −1.0 -->
      <g transform="translate(-12.141406 446.598437) scale(0.1 -0.1)">
       <defs>
        <path id="DejaVuSans-2212" d="M 678 2272 
L 4684 2272 
L 4684 1741 
L 678 1741 
L 678 2272 
z
" transform="scale(0.015625)"/>
        <path id="DejaVuSans-31" d="M 794 531 
L 1825 531 
L 1825 4091 
L 703 3866 
L 703 4441 
L 1819 4666 
L 2450 4666 
L 2450 531 
L 3481 531 
L 3481 0 
L 794 0 
L 794 531 
z
" transform="scale(0.015625)"/>
        <path id="DejaVuSans-2e" d="M 684 794 
L 1344 794 
L 1344 0 
L 684 0 
L 684 794 
z
" transform="scale(0.015625)"/>
        <path id="DejaVuSans-30" d="M 2034 4250 
Q 1547 4250 1301 3770 
Q 1056 3291 1056 2328 
Q 1056 1369 1301 889 
Q 1547 409 2034 409 
Q 2525 409 2770 889 
Q 3016 1369 3016 2328 
Q 3016 3291 2770 3770 
Q 2525 4250 2034 4250 
z
M 2034 4750 
Q 2819 4750 3233 4129 
Q 3647 3509 3647 2328 
Q 3647 1150 3233 529 
Q 2819 -91 2034 -91 
Q 1250 -91 836 529 
Q 422 1150 422 2328 
Q 422 3509 836 4129 
Q 1250 4750 2034 4750 
z
" transform="scale(0.015625)"/>
       </defs>
       <use xlink:href="#DejaVuSans-2212"/>
       <use xlink:href="#DejaVuSans-31" transform="translate(83.789062 0)"/>
       <use xlink:href="#DejaVuSans-2e" transform="translate(147.412109 0)"/>
       <use xlink:href="#DejaVuSans-30" transform="translate(179.199219 0)"/>
      </g>
     </g>
    </g>
    <g id="xtick_2">
     <g id="line2d_3">
      <path d="M 43.2 432 
L 43.2 0 
" clip-path="url(#p6641e87e91)" style="fill: none; stroke-dasharray: 1.85,0.8; stroke-dashoffset: 0; stroke: #808080; stroke-width: 0.5"/>
     </g>
     <g id="line2d_4">
      <g>
       <use xlink:href="#m2730c611f6" x="43.2" y="432" style="stroke: #000000; stroke-width: 0.8"/>
      </g>
     </g>
     <g id="text_2">
      <!-- −0.8 -->
      <g transform="translate(31.058594 446.598437) scale(0.1 -0.1)">
       <defs>
        <path id="DejaVuSans-38" d="M 2034 2216 
Q 1584 2216 1326 1975 
Q 1069 1734 1069 1313 
Q 1069 891 1326 650 
Q 1584 409 2034 409 
Q 2484 409 2743 651 
Q 3003 894 3003 1313 
Q 3003 1734 2745 1975 
Q 2488 2216 2034 2216 
z
M 1403 2484 
Q 997 2584 770 2862 
Q 544 3141 544 3541 
Q 544 4100 942 4425 
Q 1341 4750 2034 4750 
Q 2731 4750 3128 4425 
Q 3525 4100 3525 3541 
Q 3525 3141 3298 2862 
Q 3072 2584 2669 2484 
Q 3125 2378 3379 2068 
Q 3634 1759 3634 1313 
Q 3634 634 3220 271 
Q 2806 -91 2034 -91 
Q 1263 -91 848 271 
Q 434 634 434 1313 
Q 434 1759 690 2068 
Q 947 2378 1403 2484 
z
M 1172 3481 
Q 1172 3119 1398 2916 
Q 1625 2713 2034 2713 
Q 2441 2713 2670 2916 
Q 2900 3119 2900 3481 
Q 2900 3844 2670 4047 
Q 2441 4250 2034 4250 
Q 1625 4250 1398 4047 
Q 1172 3844 1172 3481 
z
" transform="scale(0.015625)"/>
       </defs>
       <use xlink:href="#DejaVuSans-2212"/>
       <use xlink:href="#DejaVuSans-30" transform="translate(83.789062 0)"/>
       <use xlink:href="#DejaVuSans-2e" transform="translate(147.412109 0)"/>
       <use xlink:href="#DejaVuSans-38" transform="translate(179.199219 0)"/>
      </g>
     </g>
    </g>
    <g id="xtick_3">
     <g id="line2d_5">
      <path d="M 86.4 432 
L 86.4 0 
" clip-path="url(#p6641e87e91)" style="fill: none; stroke-dasharray: 1.85,0.8; stroke-dashoffset: 0; stroke: #808080; stroke-width: 0.5"/>
     </g>
     <g id="line2d_6">
      <g>
       <use xlink:href="#m2730c611f6" x="86.4" y="432" style="stroke: #000000; stroke-width: 0.8"/>
      </g>
     </g>
     <g id="text_3">
      <!-- −0.6 -->
      <g transform="translate(74.258594 446.598437) scale(0.1 -0.1)">
       <defs>
        <path id="DejaVuSans-36" d="M 2113 2584 
Q 1688 2584 1439 2293 
Q 1191 2003 1191 1497 
Q 1191 994 1439 701 
Q 1688 409 2113 409 
Q 2538 409 2786 701 
Q 3034 994 3034 1497 
Q 3034 2003 2786 2293 
Q 2538 2584 2113 2584 
z
M 3366 4563 
L 3366 3988 
Q 3128 4100 2886 4159 
Q 2644 4219 2406 4219 
Q 1781 4219 1451 3797 
Q 1122 3375 1075 2522 
Q 1259 2794 1537 2939 
Q 1816 3084 2150 3084 
Q 2853 3084 3261 2657 
Q 3669 2231 3669 1497 
Q 3669 778 3244 343 
Q 2819 -91 2113 -91 
Q 1303 -91 875 529 
Q 447 1150 447 2328 
Q 447 3434 972 4092 
Q 1497 4750 2381 4750 
Q 2619 4750 2861 4703 
Q 3103 4656 3366 4563 
z
" transform="scale(0.015625)"/>
       </defs>
       <use xlink:href="#DejaVuSans-2212"/>
       <use xlink:href="#DejaVuSans-30" transform="translate(83.789062 0)"/>
       <use xlink:href="#DejaVuSans-2e" transform="translate(147.412109 0)"/>
       <use xlink:href="#DejaVuSans-36" transform="translate(179.199219 0)"/>
      </g>
     </g>
    </g>
    <g id="xtick_4">
     <g id="line2d_7">
      <path d="M 129.6 432 
L 129.6 0 
" clip-path="url(#p6641e87e91)" style="fill: none; stroke-dasharray: 1.85,0.8; stroke-dashoffset: 0; stroke: #808080; stroke-width: 0.5"/>
     </g>
     <g id="line2d_8">
      <g>
       <use xlink:href="#m2730c611f6" x="129.6" y="432" style="stroke: #000000; stroke-width: 0.8"/>
      </g>
     </g>
     <g id="text_4">
      <!-- −0.4 -->
      <g transform="translate(117.458594 446.598437) scale(0.1 -0.1)">
       <defs>
        <path id="DejaVuSans-34" d="M 2419 4116 
L 825 1625 
L 2419 1625 
L 2419 4116 
z
M 2253 4666 
L 3047 4666 
L 3047 1625 
L 3713 1625 
L 3713 1100 
L 3047 1100 
L 3047 0 
L 2419 0 
L 2419 1100 
L 313 1100 
L 313 1709 
L 2253 4666 
z
" transform="scale(0.015625)"/>
       </defs>
       <use xlink:href="#DejaVuSans-2212"/>
       <use xlink:href="#DejaVuSans-30" transform="translate(83.789062 0)"/>
       <use xlink:href="#DejaVuSans-2e" transform="translate(147.412109 0)"/>
       <use xlink:href="#DejaVuSans-34" transform="translate(179.199219 0)"/>
      </g>
     </g>
    </g>
    <g id="xtick_5">
     <g id="line2d_9">
      <path d="M 172.8 432 
L 172.8 0 
" clip-path="url(#p6641e87e91)" style="fill: none; stroke-dasharray: 1.85,0.8; stroke-dashoffset: 0; stroke: #808080; stroke-width: 0.5"/>
     </g>
     <g id="line2d_10">
      <g>
       <use xlink:href="#m2730c611f6" x="172.8" y="432" style="stroke: #000000; stroke-width: 0.8"/>
      </g>
     </g>
     <g id="text_5">
      <!-- −0.2 -->
      <g transform="translate(160.658594 446.598437) scale(0.1 -0.1)">
       <defs>
        <path id="DejaVuSans-32" d="M 1228 531 
L 3431 531 
L 3431 0 
L 469 0 
L 469 531 
Q 828 903 1448 1529 
Q 2069 2156 2228 2338 
Q 2531 2678 2651 2914 
Q 2772 3150 2772 3378 
Q 2772 3750 2511 3984 
Q 2250 4219 1831 4219 
Q 1534 4219 1204 4116 
Q 875 4013 500 3803 
L 500 4441 
Q 881 4594 1212 4672 
Q 1544 4750 1819 4750 
Q 2544 4750 2975 4387 
Q 3406 4025 3406 3419 
Q 3406 3131 3298 2873 
Q 3191 2616 2906 2266 
Q 2828 2175 2409 1742 
Q 1991 1309 1228 531 
z
" transform="scale(0.015625)"/>
       </defs>
       <use xlink:href="#DejaVuSans-2212"/>
       <use xlink:href="#DejaVuSans-30" transform="translate(83.789062 0)"/>
       <use xlink:href="#DejaVuSans-2e" transform="translate(147.412109 0)"/>
       <use xlink:href="#DejaVuSans-32" transform="translate(179.199219 0)"/>
      </g>
     </g>
    </g>
    <g id="xtick_6">
     <g id="line2d_11">
      <path d="M 216 432 
L 216 0 
" clip-path="url(#p6641e87e91)" style="fill: none; stroke-dasharray: 1.85,0.8; stroke-dashoffset: 0; stroke: #808080; stroke-width: 0.5"/>
     </g>
     <g id="line2d_12">
      <g>
       <use xlink:href="#m2730c611f6" x="216" y="432" style="stroke: #000000; stroke-width: 0.8"/>
      </g>
     </g>
     <g id="text_6">
      <!-- 0.0 -->
      <g transform="translate(208.048437 446.598437) scale(0.1 -0.1)">
       <use xlink:href="#DejaVuSans-30"/>
       <use xlink:href="#DejaVuSans-2e" transform="translate(63.623047 0)"/>
       <use xlink:href="#DejaVuSans-30" transform="translate(95.410156 0)"/>
      </g>
     </g>
    </g>
    <g id="xtick_7">
     <g id="line2d_13">
      <path d="M 259.2 432 
L 259.2 0 
" clip-path="url(#p6641e87e91)" style="fill: none; stroke-dasharray: 1.85,0.8; stroke-dashoffset: 0; stroke: #808080; stroke-width: 0.5"/>
     </g>
     <g id="line2d_14">
      <g>
       <use xlink:href="#m2730c611f6" x="259.2" y="432" style="stroke: #000000; stroke-width: 0.8"/>
      </g>
     </g>
     <g id="text_7">
      <!-- 0.2 -->
      <g transform="translate(251.248437 446.598437) scale(0.1 -0.1)">
       <use xlink:href="#DejaVuSans-30"/>
       <use xlink:href="#DejaVuSans-2e" transform="translate(63.623047 0)"/>
       <use xlink:href="#DejaVuSans-32" transform="translate(95.410156 0)"/>
      </g>
     </g>
    </g>
    <g id="xtick_8">
     <g id="line2d_15">
      <path d="M 302.4 432 
L 302.4 0 
" clip-path="url(#p6641e87e91)" style="fill: none; stroke-dasharray: 1.85,0.8; stroke-dashoffset: 0; stroke: #808080; stroke-width: 0.5"/>
     </g>
     <g id="line2d_16">
      <g>
       <use xlink:href="#m2730c611f6" x="302.4" y="432" style="stroke: #000000; stroke-width: 0.8"/>
      </g>
     </g>
     <g id="text_8">
      <!-- 0.4 -->
      <g transform="translate(294.448437 446.598437) scale(0.1 -0.1)">
       <use xlink:href="#DejaVuSans-30"/>
       <use xlink:href="#DejaVuSans-2e" transform="translate(63.623047 0)"/>
       <use xlink:href="#DejaVuSans-34" transform="translate(95.410156 0)"/>
      </g>
     </g>
    </g>
    <g id="xtick_9">
     <g id="line2d_17">
      <path d="M 345.6 432 
L 345.6 0 
" clip-path="url(#p6641e87e91)" style="fill: none; stroke-dasharray: 1.85,0.8; stroke-dashoffset: 0; stroke: #808080; stroke-width: 0.5"/>
     </g>
     <g id="line2d_18">
      <g>
       <use xlink:href="#m2730c611f6" x="345.6" y="432" style="stroke: #000000; stroke-width: 0.8"/>
      </g>
     </g>
     <g id="text_9">
      <!-- 0.6 -->
      <g transform="translate(337.648437 446.598437) scale(0.1 -0.1)">
       <use xlink:href="#DejaVuSans-30"/>
       <use xlink:href="#DejaVuSans-2e" transform="translate(63.623047 0)"/>
       <use xlink:href="#DejaVuSans-36" transform="translate(95.410156 0)"/>
      </g>
     </g>
    </g>
    <g id="xtick_10">
     <g id="line2d_19">
      <path d="M 388.8 432 
L 388.8 0 
" clip-path="url(#p6641e87e91)" style="fill: none; stroke-dasharray: 1.85,0.8; stroke-dashoffset: 0; stroke: #808080; stroke-width: 0.5"/>
     </g>
     <g id="line2d_20">
      <g>
       <use xlink:href="#m2730c611f6" x="388.8" y="432" style="stroke: #000000; stroke-width: 0.8"/>
      </g>
     </g>
     <g id="text_10">
      <!-- 0.8 -->
      <g transform="translate(380.848437 446.598437) scale(0.1 -0.1)">
       <use xlink:href="#DejaVuSans-30"/>
       <use xlink:href="#DejaVuSans-2e" transform="translate(63.623047 0)"/>
       <use xlink:href="#DejaVuSans-38" transform="translate(95.410156 0)"/>
      </g>
     </g>
    </g>
    <g id="xtick_11">
     <g id="line2d_21">
      <path d="M 432 432 
L 432 0 
" clip-path="url(#p6641e87e91)" style="fill: none; stroke-dasharray: 1.85,0.8; stroke-dashoffset: 0; stroke: #808080; stroke-width: 0.5"/>
     </g>
     <g id="line2d_22">
      <g>
       <use xlink:href="#m2730c611f6" x="432" y="432" style="stroke: #000000; stroke-width: 0.8"/>
      </g>
     </g>
     <g id="text_11">
      <!-- 1.0 -->
      <g transform="translate(424.048437 446.598437) scale(0.1 -0.1)">
       <use xlink:href="#DejaVuSans-31"/>
       <use xlink:href="#DejaVuSans-2e" transform="translate(63.623047 0)"/>
       <use xlink:href="#DejaVuSans-30" transform="translate(95.410156 0)"/>
      </g>
     </g>
    </g>
   </g>
   <g id="matplotlib.axis_2">
    <g id="ytick_1">
     <g id="line2d_23">
      <path d="M 0 432 
L 432 432 
" clip-path="url(#p6641e87e91)" style="fill: none; stroke-dasharray: 1.85,0.8; stroke-dashoffset: 0; stroke: #808080; stroke-width: 0.5"/>
     </g>
     <g id="line2d_24">
      <defs>
       <path id="m3aec124629" d="M 0 0 
L -3.5 0 
" style="stroke: #000000; stroke-width: 0.8"/>
      </defs>
      <g>
       <use xlink:href="#m3aec124629" x="0" y="432" style="stroke: #000000; stroke-width: 0.8"/>
      </g>
     </g>
     <g id="text_12">
      <!-- −1.0 -->
      <g transform="translate(-31.282813 435.799219) scale(0.1 -0.1)">
       <use xlink:href="#DejaVuSans-2212"/>
       <use xlink:href="#DejaVuSans-31" transform="translate(83.789062 0)"/>
       <use xlink:href="#DejaVuSans-2e" transform="translate(147.412109 0)"/>
       <use xlink:href="#DejaVuSans-30" transform="translate(179.199219 0)"/>
      </g>
     </g>
    </g>
    <g id="ytick_2">
     <g id="line2d_25">
      <path d="M 0 388.8 
L 432 388.8 
" clip-path="url(#p6641e87e91)" style="fill: none; stroke-dasharray: 1.85,0.8; stroke-dashoffset: 0; stroke: #808080; stroke-width: 0.5"/>
     </g>
     <g id="line2d_26">
      <g>
       <use xlink:href="#m3aec124629" x="0" y="388.8" style="stroke: #000000; stroke-width: 0.8"/>
      </g>
     </g>
     <g id="text_13">
      <!-- −0.8 -->
      <g transform="translate(-31.282813 392.599219) scale(0.1 -0.1)">
       <use xlink:href="#DejaVuSans-2212"/>
       <use xlink:href="#DejaVuSans-30" transform="translate(83.789062 0)"/>
       <use xlink:href="#DejaVuSans-2e" transform="translate(147.412109 0)"/>
       <use xlink:href="#DejaVuSans-38" transform="translate(179.199219 0)"/>
      </g>
     </g>
    </g>
    <g id="ytick_3">
     <g id="line2d_27">
      <path d="M 0 345.6 
L 432 345.6 
" clip-path="url(#p6641e87e91)" style="fill: none; stroke-dasharray: 1.85,0.8; stroke-dashoffset: 0; stroke: #808080; stroke-width: 0.5"/>
     </g>
     <g id="line2d_28">
      <g>
       <use xlink:href="#m3aec124629" x="0" y="345.6" style="stroke: #000000; stroke-width: 0.8"/>
      </g>
     </g>
     <g id="text_14">
      <!-- −0.6 -->
      <g transform="translate(-31.282813 349.399219) scale(0.1 -0.1)">
       <use xlink:href="#DejaVuSans-2212"/>
       <use xlink:href="#DejaVuSans-30" transform="translate(83.789062 0)"/>
       <use xlink:href="#DejaVuSans-2e" transform="translate(147.412109 0)"/>
       <use xlink:href="#DejaVuSans-36" transform="translate(179.199219 0)"/>
      </g>
     </g>
    </g>
    <g id="ytick_4">
     <g id="line2d_29">
      <path d="M 0 302.4 
L 432 302.4 
" clip-path="url(#p6641e87e91)" style="fill: none; stroke-dasharray: 1.85,0.8; stroke-dashoffset: 0; stroke: #808080; stroke-width: 0.5"/>
     </g>
     <g id="line2d_30">
      <g>
       <use xlink:href="#m3aec124629" x="0" y="302.4" style="stroke: #000000; stroke-width: 0.8"/>
      </g>
     </g>
     <g id="text_15">
      <!-- −0.4 -->
      <g transform="translate(-31.282813 306.199219) scale(0.1 -0.1)">
       <use xlink:href="#DejaVuSans-2212"/>
       <use xlink:href="#DejaVuSans-30" transform="translate(83.789062 0)"/>
       <use xlink:href="#DejaVuSans-2e" transform="translate(147.412109 0)"/>
       <use xlink:href="#DejaVuSans-34" transform="translate(179.199219 0)"/>
      </g>
     </g>
    </g>
    <g id="ytick_5">
     <g id="line2d_31">
      <path d="M 0 259.2 
L 432 259.2 
" clip-path="url(#p6641e87e91)" style="fill: none; stroke-dasharray: 1.85,0.8; stroke-dashoffset: 0; stroke: #808080; stroke-width: 0.5"/>
     </g>
     <g id="line2d_32">
      <g>
       <use xlink:href="#m3aec124629" x="0" y="259.2" style="stroke: #000000; stroke-width: 0.8"/>
      </g>
     </g>
     <g id="text_16">
      <!-- −0.2 -->
      <g transform="translate(-31.282813 262.999219) scale(0.1 -0.1)">
       <use xlink:href="#DejaVuSans-2212"/>
       <use xlink:href="#DejaVuSans-30" transform="translate(83.789062 0)"/>
       <use xlink:href="#DejaVuSans-2e" transform="translate(147.412109 0)"/>
       <use xlink:href="#DejaVuSans-32" transform="translate(179.199219 0)"/>
      </g>
     </g>
    </g>
    <g id="ytick_6">
     <g id="line2d_33">
      <path d="M 0 216 
L 432 216 
" clip-path="url(#p6641e87e91)" style="fill: none; stroke-dasharray: 1.85,0.8; stroke-dashoffset: 0; stroke: #808080; stroke-width: 0.5"/>
     </g>
     <g id="line2d_34">
      <g>
       <use xlink:href="#m3aec124629" x="0" y="216" style="stroke: #000000; stroke-width: 0.8"/>
      </g>
     </g>
     <g id="text_17">
      <!-- 0.0 -->
      <g transform="translate(-22.903125 219.799219) scale(0.1 -0.1)">
       <use xlink:href="#DejaVuSans-30"/>
       <use xlink:href="#DejaVuSans-2e" transform="translate(63.623047 0)"/>
       <use xlink:href="#DejaVuSans-30" transform="translate(95.410156 0)"/>
      </g>
     </g>
    </g>
    <g id="ytick_7">
     <g id="line2d_35">
      <path d="M 0 172.8 
L 432 172.8 
" clip-path="url(#p6641e87e91)" style="fill: none; stroke-dasharray: 1.85,0.8; stroke-dashoffset: 0; stroke: #808080; stroke-width: 0.5"/>
     </g>
     <g id="line2d_36">
      <g>
       <use xlink:href="#m3aec124629" x="0" y="172.8" style="stroke: #000000; stroke-width: 0.8"/>
      </g>
     </g>
     <g id="text_18">
      <!-- 0.2 -->
      <g transform="translate(-22.903125 176.599219) scale(0.1 -0.1)">
       <use xlink:href="#DejaVuSans-30"/>
       <use xlink:href="#DejaVuSans-2e" transform="translate(63.623047 0)"/>
       <use xlink:href="#DejaVuSans-32" transform="translate(95.410156 0)"/>
      </g>
     </g>
    </g>
    <g id="ytick_8">
     <g id="line2d_37">
      <path d="M 0 129.6 
L 432 129.6 
" clip-path="url(#p6641e87e91)" style="fill: none; stroke-dasharray: 1.85,0.8; stroke-dashoffset: 0; stroke: #808080; stroke-width: 0.5"/>
     </g>
     <g id="line2d_38">
      <g>
       <use xlink:href="#m3aec124629" x="0" y="129.6" style="stroke: #000000; stroke-width: 0.8"/>
      </g>
     </g>
     <g id="text_19">
      <!-- 0.4 -->
      <g transform="translate(-22.903125 133.399219) scale(0.1 -0.1)">
       <use xlink:href="#DejaVuSans-30"/>
       <use xlink:href="#DejaVuSans-2e" transform="translate(63.623047 0)"/>
       <use xlink:href="#DejaVuSans-34" transform="translate(95.410156 0)"/>
      </g>
     </g>
    </g>
    <g id="ytick_9">
     <g id="line2d_39">
      <path d="M 0 86.4 
L 432 86.4 
" clip-path="url(#p6641e87e91)" style="fill: none; stroke-dasharray: 1.85,0.8; stroke-dashoffset: 0; stroke: #808080; stroke-width: 0.5"/>
     </g>
     <g id="line2d_40">
      <g>
       <use xlink:href="#m3aec124629" x="0" y="86.4" style="stroke: #000000; stroke-width: 0.8"/>
      </g>
     </g>
     <g id="text_20">
      <!-- 0.6 -->
      <g transform="translate(-22.903125 90.199219) scale(0.1 -0.1)">
       <use xlink:href="#DejaVuSans-30"/>
       <use xlink:href="#DejaVuSans-2e" transform="translate(63.623047 0)"/>
       <use xlink:href="#DejaVuSans-36" transform="translate(95.410156 0)"/>
      </g>
     </g>
    </g>
    <g id="ytick_10">
     <g id="line2d_41">
      <path d="M 0 43.2 
L 432 43.2 
" clip-path="url(#p6641e87e91)" style="fill: none; stroke-dasharray: 1.85,0.8; stroke-dashoffset: 0; stroke: #808080; stroke-width: 0.5"/>
     </g>
     <g id="line2d_42">
      <g>
       <use xlink:href="#m3aec124629" x="0" y="43.2" style="stroke: #000000; stroke-width: 0.8"/>
      </g>
     </g>
     <g id="text_21">
      <!-- 0.8 -->
      <g transform="translate(-22.903125 46.999219) scale(0.1 -0.1)">
       <use xlink:href="#DejaVuSans-30"/>
       <use xlink:href="#DejaVuSans-2e" transform="translate(63.623047 0)"/>
       <use xlink:href="#DejaVuSans-38" transform="translate(95.410156 0)"/>
      </g>
     </g>
    </g>
    <g id="ytick_11">
     <g id="line2d_43">
      <path d="M 0 0 
L 432 0 
" clip-path="url(#p6641e87e91)" style="fill: none; stroke-dasharray: 1.85,0.8; stroke-dashoffset: 0; stroke: #808080; stroke-width: 0.5"/>
     </g>
     <g id="line2d_44">
      <g>
       <use xlink:href="#m3aec124629" x="0" y="0" style="stroke: #000000; stroke-width: 0.8"/>
      </g>
     </g>
     <g id="text_22">
      <!-- 1.0 -->
      <g transform="translate(-22.903125 3.799219) scale(0.1 -0.1)">
       <use xlink:href="#DejaVuSans-31"/>
       <use xlink:href="#DejaVuSans-2e" transform="translate(63.623047 0)"/>
       <use xlink:href="#DejaVuSans-30" transform="translate(95.410156 0)"/>
      </g>
     </g>
    </g>
   </g>
   <g id="patch_3">
    <path d="M 0 432 
L 0 0 
" style="fill: none; stroke: #000000; stroke-width: 0.8; stroke-linejoin: miter; stroke-linecap: square"/>
   </g>
   <g id="patch_4">
    <path d="M 432 432 
L 432 0 
" style="fill: none; stroke: #000000; stroke-width: 0.8; stroke-linejoin: miter; stroke-linecap: square"/>
   </g>
   <g id="patch_5">
    <path d="M 0 432 
L 432 432 
" style="fill: none; stroke: #000000; stroke-width: 0.8; stroke-linejoin: miter; stroke-linecap: square"/>
   </g>
   <g id="patch_6">
    <path d="M 0 0 
L 432 0 
" style="fill: none; stroke: #000000; stroke-width: 0.8; stroke-linejoin: miter; stroke-linecap: square"/>
   </g>
  </g>
 </g>
 <defs>
  <clipPath id="p6641e87e91">
   <rect x="0" y="0" width="432" height="432"/>
  </clipPath>
 </defs>
</svg>
