<?xml version="1.0" encoding="utf-8" standalone="no"?>
<!DOCTYPE svg PUBLIC "-//W3C//DTD SVG 1.1//EN"
  "http://www.w3.org/Graphics/SVG/1.1/DTD/svg11.dtd">
<svg xmlns:xlink="http://www.w3.org/1999/xlink" width="432pt" height="432pt" viewBox="0 0 432 432" xmlns="http://www.w3.org/2000/svg" version="1.1">
 <metadata>
  <rdf:RDF xmlns:dc="http://purl.org/dc/elements/1.1/" xmlns:cc="http://creativecommons.org/ns#" xmlns:rdf="http://www.w3.org/1999/02/22-rdf-syntax-ns#">
   <cc:Work>
    <dc:type rdf:resource="http://purl.org/dc/dcmitype/StillImage"/>
    <dc:date>2025-06-17T23:40:23.859624</dc:date>
    <dc:format>image/svg+xml</dc:format>
    <dc:creator>
     <cc:Agent>
      <dc:title>Matplotlib v3.10.1, https://matplotlib.org/</dc:title>
     </cc:Agent>
    </dc:creator>
   </cc:Work>
  </rdf:RDF>
 </metadata>
 <defs>
  <style type="text/css">*{stroke-linejoin: round; stroke-linecap: butt}</style>
 </defs>
 <g id="figure_1">
  <g id="patch_1">
   <path d="M 0 432 
L 432 432 
L 432 0 
L 0 0 
z
" style="fill: #ffffff"/>
  </g>
  <g id="axes_1">
   <g id="patch_2">
    <path d="M 0 432 
L 432 432 
L 432 0 
L 0 0 
z
" style="fill: #ffffff"/>
   </g>
   <g id="PathCollection_1">
    <defs>
     <path id="C0_0_565fa4bf8e" d="M 0 3.535534 
C 0.937635 3.535534 1.836992 3.163008 2.5 2.5 
C 3.163008 1.836992 3.535534 0.937635 3.535534 -0 
C 3.535534 -0.937635 3.163008 -1.836992 2.5 -2.5 
C 1.836992 -3.163008 0.937635 -3.535534 0 -3.535534 
C -0.937635 -3.535534 -1.836992 -3.163008 -2.5 -2.5 
C -3.163008 -1.836992 -3.535534 -0.937635 -3.535534 0 
C -3.535534 0.937635 -3.163008 1.836992 -2.5 2.5 
C -1.836992 3.163008 -0.937635 3.535534 0 3.535534 
z
"/>
    </defs>
    <g clip-path="url(#p311dc82585)">
     <use xlink:href="#C0_0_565fa4bf8e" x="231.998614" y="282.000501" style="fill: #84ff00; stroke: #000000"/>
    </g>
    <g clip-path="url(#p311dc82585)">
     <use xlink:href="#C0_0_565fa4bf8e" x="24.265833" y="217.688059" style="fill: #ffe600; stroke: #000000"/>
    </g>
    <g clip-path="url(#p311dc82585)">
     <use xlink:href="#C0_0_565fa4bf8e" x="200.743577" y="325.568191" style="fill: #0800ff; stroke: #000000"/>
    </g>
    <g clip-path="url(#p311dc82585)">
     <use xlink:href="#C0_0_565fa4bf8e" x="105.22663" y="96.923966" style="fill: #ff2900; stroke: #000000"/>
    </g>
    <g clip-path="url(#p311dc82585)">
     <use xlink:href="#C0_0_565fa4bf8e" x="228.025507" y="95.520454" style="fill: #00f0ff; stroke: #000000"/>
    </g>
    <g clip-path="url(#p311dc82585)">
     <use xlink:href="#C0_0_565fa4bf8e" x="382.414058" y="267.596582" style="fill: #25ff00; stroke: #000000"/>
    </g>
    <g clip-path="url(#p311dc82585)">
     <use xlink:href="#C0_0_565fa4bf8e" x="226.856411" y="125.820878" style="fill: #00ffd3; stroke: #000000"/>
    </g>
    <g clip-path="url(#p311dc82585)">
     <use xlink:href="#C0_0_565fa4bf8e" x="308.811631" y="185.120113" style="fill: #43ff00; stroke: #000000"/>
    </g>
    <g clip-path="url(#p311dc82585)">
     <use xlink:href="#C0_0_565fa4bf8e" x="213.693266" y="196.445174" style="fill: #e800ff; stroke: #000000"/>
    </g>
    <g clip-path="url(#p311dc82585)">
     <use xlink:href="#C0_0_565fa4bf8e" x="349.015444" y="104.040223" style="fill: #00ff62; stroke: #000000"/>
    </g>
    <g clip-path="url(#p311dc82585)">
     <use xlink:href="#C0_0_565fa4bf8e" x="190.99304" y="159.923281" style="fill: #0092ff; stroke: #000000"/>
    </g>
    <g clip-path="url(#p311dc82585)">
     <use xlink:href="#C0_0_565fa4bf8e" x="263.129004" y="244.482034" style="fill: #ff00bd; stroke: #000000"/>
    </g>
    <g clip-path="url(#p311dc82585)">
     <use xlink:href="#C0_0_565fa4bf8e" x="269.511673" y="219.422302" style="fill: #ff00db; stroke: #000000"/>
    </g>
    <g clip-path="url(#p311dc82585)">
     <use xlink:href="#C0_0_565fa4bf8e" x="384.576437" y="136.628283" style="fill: #00ff80; stroke: #000000"/>
    </g>
    <g clip-path="url(#p311dc82585)">
     <use xlink:href="#C0_0_565fa4bf8e" x="219.515768" y="367.671208" style="fill: #0022ff; stroke: #000000"/>
    </g>
    <g clip-path="url(#p311dc82585)">
     <use xlink:href="#C0_0_565fa4bf8e" x="133.497585" y="146.167218" style="fill: #0086ff; stroke: #000000"/>
    </g>
    <g clip-path="url(#p311dc82585)">
     <use xlink:href="#C0_0_565fa4bf8e" x="162.304742" y="144.165237" style="fill: #00bbff; stroke: #000000"/>
    </g>
    <g clip-path="url(#p311dc82585)">
     <use xlink:href="#C0_0_565fa4bf8e" x="188.159105" y="299.655393" style="fill: #72ff00; stroke: #000000"/>
    </g>
    <g clip-path="url(#p311dc82585)">
     <use xlink:href="#C0_0_565fa4bf8e" x="243.37364" y="302.668141" style="fill: #e8ff00; stroke: #000000"/>
    </g>
    <g clip-path="url(#p311dc82585)">
     <use xlink:href="#C0_0_565fa4bf8e" x="342.480347" y="221.282734" style="fill: #00ff10; stroke: #000000"/>
    </g>
    <g clip-path="url(#p311dc82585)">
     <use xlink:href="#C0_0_565fa4bf8e" x="200.464694" y="131.728422" style="fill: #00d9ff; stroke: #000000"/>
    </g>
    <g clip-path="url(#p311dc82585)">
     <use xlink:href="#C0_0_565fa4bf8e" x="258.572602" y="75.445677" style="fill: #00e5ff; stroke: #000000"/>
    </g>
    <g clip-path="url(#p311dc82585)">
     <use xlink:href="#C0_0_565fa4bf8e" x="209.564845" y="273.577852" style="fill: #a7ff00; stroke: #000000"/>
    </g>
    <g clip-path="url(#p311dc82585)">
     <use xlink:href="#C0_0_565fa4bf8e" x="297.568118" y="310.86952" style="fill: #bf00ff; stroke: #000000"/>
    </g>
    <g clip-path="url(#p311dc82585)">
     <use xlink:href="#C0_0_565fa4bf8e" x="146.404781" y="277.391561" style="fill: #ff008e; stroke: #000000"/>
    </g>
    <g clip-path="url(#p311dc82585)">
     <use xlink:href="#C0_0_565fa4bf8e" x="285.502477" y="41.243392" style="fill: #00ffb5; stroke: #000000"/>
    </g>
    <g clip-path="url(#p311dc82585)">
     <use xlink:href="#C0_0_565fa4bf8e" x="109.258634" y="210.676994" style="fill: #ff0018; stroke: #000000"/>
    </g>
    <g clip-path="url(#p311dc82585)">
     <use xlink:href="#C0_0_565fa4bf8e" x="316.252463" y="269.633157" style="fill: #5a00ff; stroke: #000000"/>
    </g>
    <g clip-path="url(#p311dc82585)">
     <use xlink:href="#C0_0_565fa4bf8e" x="114.826095" y="351.33604" style="fill: #f8fd00; stroke: #000000"/>
    </g>
    <g clip-path="url(#p311dc82585)">
     <use xlink:href="#C0_0_565fa4bf8e" x="235.132608" y="251.290215" style="fill: #ff00e7; stroke: #000000"/>
    </g>
    <g clip-path="url(#p311dc82585)">
     <use xlink:href="#C0_0_565fa4bf8e" x="206.935552" y="225.645528" style="fill: #fc00f5; stroke: #000000"/>
    </g>
    <g clip-path="url(#p311dc82585)">
     <use xlink:href="#C0_0_565fa4bf8e" x="292.166076" y="263.437692" style="fill: #ad00ff; stroke: #000000"/>
    </g>
    <g clip-path="url(#p311dc82585)">
     <use xlink:href="#C0_0_565fa4bf8e" x="336.433494" y="285.836592" style="fill: #7800ff; stroke: #000000"/>
    </g>
    <g clip-path="url(#p311dc82585)">
     <use xlink:href="#C0_0_565fa4bf8e" x="272.219833" y="296.888274" style="fill: #a100ff; stroke: #000000"/>
    </g>
    <g clip-path="url(#p311dc82585)">
     <use xlink:href="#C0_0_565fa4bf8e" x="107.18366" y="292.222756" style="fill: #ff8800; stroke: #000000"/>
    </g>
    <g clip-path="url(#p311dc82585)">
     <use xlink:href="#C0_0_565fa4bf8e" x="268.388331" y="383.17711" style="fill: #3100ff; stroke: #000000"/>
    </g>
    <g clip-path="url(#p311dc82585)">
     <use xlink:href="#C0_0_565fa4bf8e" x="239.974534" y="195.590101" style="fill: #ff00a0; stroke: #000000"/>
    </g>
    <g clip-path="url(#p311dc82585)">
     <use xlink:href="#C0_0_565fa4bf8e" x="94.81508" y="325.175735" style="fill: #ff9a00; stroke: #000000"/>
    </g>
    <g clip-path="url(#p311dc82585)">
     <use xlink:href="#C0_0_565fa4bf8e" x="175.343017" y="284.46322" style="fill: #cbff00; stroke: #000000"/>
    </g>
    <g clip-path="url(#p311dc82585)">
     <use xlink:href="#C0_0_565fa4bf8e" x="185.552667" y="203.109041" style="fill: #0069ff; stroke: #000000"/>
    </g>
    <g clip-path="url(#p311dc82585)">
     <use xlink:href="#C0_0_565fa4bf8e" x="169.270887" y="255.036737" style="fill: #d7ff00; stroke: #000000"/>
    </g>
    <g clip-path="url(#p311dc82585)">
     <use xlink:href="#C0_0_565fa4bf8e" x="153.764934" y="330.328666" style="fill: #2500ff; stroke: #000000"/>
    </g>
    <g clip-path="url(#p311dc82585)">
     <use xlink:href="#C0_0_565fa4bf8e" x="350.347502" y="308.1133" style="fill: #8400ff; stroke: #000000"/>
    </g>
    <g clip-path="url(#p311dc82585)">
     <use xlink:href="#C0_0_565fa4bf8e" x="176.682671" y="348.902946" style="fill: #3d00ff; stroke: #000000"/>
    </g>
    <g clip-path="url(#p311dc82585)">
     <use xlink:href="#C0_0_565fa4bf8e" x="392.665409" y="224.208871" style="fill: #4fff00; stroke: #000000"/>
    </g>
    <g clip-path="url(#p311dc82585)">
     <use xlink:href="#C0_0_565fa4bf8e" x="305.3939" y="234.247154" style="fill: #0eff00; stroke: #000000"/>
    </g>
    <g clip-path="url(#p311dc82585)">
     <use xlink:href="#C0_0_565fa4bf8e" x="389.226963" y="311.908958" style="fill: #37ff00; stroke: #000000"/>
    </g>
    <g clip-path="url(#p311dc82585)">
     <use xlink:href="#C0_0_565fa4bf8e" x="96.251783" y="129.698245" style="fill: #ff0000; stroke: #000000"/>
    </g>
    <g clip-path="url(#p311dc82585)">
     <use xlink:href="#C0_0_565fa4bf8e" x="299.234394" y="127.128448" style="fill: #00ffa9; stroke: #000000"/>
    </g>
    <g clip-path="url(#p311dc82585)">
     <use xlink:href="#C0_0_565fa4bf8e" x="266.803661" y="106.767089" style="fill: #00fffc; stroke: #000000"/>
    </g>
    <g clip-path="url(#p311dc82585)">
     <use xlink:href="#C0_0_565fa4bf8e" x="260.011796" y="133.408718" style="fill: #00ff57; stroke: #000000"/>
    </g>
    <g clip-path="url(#p311dc82585)">
     <use xlink:href="#C0_0_565fa4bf8e" x="164.800368" y="60.122724" style="fill: #ff4100; stroke: #000000"/>
    </g>
    <g clip-path="url(#p311dc82585)">
     <use xlink:href="#C0_0_565fa4bf8e" x="298.97741" y="161.337267" style="fill: #00ff2d; stroke: #000000"/>
    </g>
    <g clip-path="url(#p311dc82585)">
     <use xlink:href="#C0_0_565fa4bf8e" x="226.080303" y="333.662634" style="fill: #4f00ff; stroke: #000000"/>
    </g>
    <g clip-path="url(#p311dc82585)">
     <use xlink:href="#C0_0_565fa4bf8e" x="194.693653" y="30.400299" style="fill: #ff5f00; stroke: #000000"/>
    </g>
    <g clip-path="url(#p311dc82585)">
     <use xlink:href="#C0_0_565fa4bf8e" x="126.763421" y="227.828352" style="fill: #ff0047; stroke: #000000"/>
    </g>
    <g clip-path="url(#p311dc82585)">
     <use xlink:href="#C0_0_565fa4bf8e" x="217.944513" y="168.453417" style="fill: #ff00ac; stroke: #000000"/>
    </g>
    <g clip-path="url(#p311dc82585)">
     <use xlink:href="#C0_0_565fa4bf8e" x="204.670714" y="78.731302" style="fill: #00ffc7; stroke: #000000"/>
    </g>
    <g clip-path="url(#p311dc82585)">
     <use xlink:href="#C0_0_565fa4bf8e" x="149.697267" y="208.701977" style="fill: #0074ff; stroke: #000000"/>
    </g>
    <g clip-path="url(#p311dc82585)">
     <use xlink:href="#C0_0_565fa4bf8e" x="83.370176" y="165.623444" style="fill: #003fff; stroke: #000000"/>
    </g>
    <g clip-path="url(#p311dc82585)">
     <use xlink:href="#C0_0_565fa4bf8e" x="328.554816" y="63.820799" style="fill: #00ffde; stroke: #000000"/>
    </g>
    <g clip-path="url(#p311dc82585)">
     <use xlink:href="#C0_0_565fa4bf8e" x="53.937172" y="306.289361" style="fill: #fef100; stroke: #000000"/>
    </g>
    <g clip-path="url(#p311dc82585)">
     <use xlink:href="#C0_0_565fa4bf8e" x="270.864459" y="165.628559" style="fill: #00ff4b; stroke: #000000"/>
    </g>
    <g clip-path="url(#p311dc82585)">
     <use xlink:href="#C0_0_565fa4bf8e" x="55.47019" y="125.588697" style="fill: #ff1800; stroke: #000000"/>
    </g>
    <g clip-path="url(#p311dc82585)">
     <use xlink:href="#C0_0_565fa4bf8e" x="158.633323" y="94.228037" style="fill: #ff5300; stroke: #000000"/>
    </g>
    <g clip-path="url(#p311dc82585)">
     <use xlink:href="#C0_0_565fa4bf8e" x="139.498419" y="377.482595" style="fill: #ffb700; stroke: #000000"/>
    </g>
    <g clip-path="url(#p311dc82585)">
     <use xlink:href="#C0_0_565fa4bf8e" x="265.686676" y="194.559427" style="fill: #f400ff; stroke: #000000"/>
    </g>
    <g clip-path="url(#p311dc82585)">
     <use xlink:href="#C0_0_565fa4bf8e" x="191.386834" y="247.46358" style="fill: #96ff00; stroke: #000000"/>
    </g>
    <g clip-path="url(#p311dc82585)">
     <use xlink:href="#C0_0_565fa4bf8e" x="40.641981" y="258.462244" style="fill: #ffa500; stroke: #000000"/>
    </g>
    <g clip-path="url(#p311dc82585)">
     <use xlink:href="#C0_0_565fa4bf8e" x="300.335346" y="90.468614" style="fill: #00c7ff; stroke: #000000"/>
    </g>
    <g clip-path="url(#p311dc82585)">
     <use xlink:href="#C0_0_565fa4bf8e" x="162.939675" y="227.605475" style="fill: #009eff; stroke: #000000"/>
    </g>
    <g clip-path="url(#p311dc82585)">
     <use xlink:href="#C0_0_565fa4bf8e" x="140.66115" y="308.895972" style="fill: #002dff; stroke: #000000"/>
    </g>
    <g clip-path="url(#p311dc82585)">
     <use xlink:href="#C0_0_565fa4bf8e" x="133.400446" y="113.802191" style="fill: #ff6a00; stroke: #000000"/>
    </g>
    <g clip-path="url(#p311dc82585)">
     <use xlink:href="#C0_0_565fa4bf8e" x="121.064974" y="61.518884" style="fill: #ff7c00; stroke: #000000"/>
    </g>
    <g clip-path="url(#p311dc82585)">
     <use xlink:href="#C0_0_565fa4bf8e" x="130.088661" y="257.86127" style="fill: #ff007c; stroke: #000000"/>
    </g>
    <g clip-path="url(#p311dc82585)">
     <use xlink:href="#C0_0_565fa4bf8e" x="169.289452" y="177.896733" style="fill: #0057ff; stroke: #000000"/>
    </g>
    <g clip-path="url(#p311dc82585)">
     <use xlink:href="#C0_0_565fa4bf8e" x="181.158475" y="110.556227" style="fill: #ff0c00; stroke: #000000"/>
    </g>
    <g clip-path="url(#p311dc82585)">
     <use xlink:href="#C0_0_565fa4bf8e" x="318.761672" y="373.086215" style="fill: #6c00ff; stroke: #000000"/>
    </g>
    <g clip-path="url(#p311dc82585)">
     <use xlink:href="#C0_0_565fa4bf8e" x="347.540452" y="157.113341" style="fill: #00ff9d; stroke: #000000"/>
    </g>
    <g clip-path="url(#p311dc82585)">
     <use xlink:href="#C0_0_565fa4bf8e" x="342.93522" y="191.725637" style="fill: #61ff00; stroke: #000000"/>
    </g>
    <g clip-path="url(#p311dc82585)">
     <use xlink:href="#C0_0_565fa4bf8e" x="275.4818" y="351.10225" style="fill: #0408ff; stroke: #000000"/>
    </g>
    <g clip-path="url(#p311dc82585)">
     <use xlink:href="#C0_0_565fa4bf8e" x="63.720596" y="210.786457" style="fill: #ff0059; stroke: #000000"/>
    </g>
    <g clip-path="url(#p311dc82585)">
     <use xlink:href="#C0_0_565fa4bf8e" x="39.704311" y="171.570101" style="fill: #00ff74; stroke: #000000"/>
    </g>
    <g clip-path="url(#p311dc82585)">
     <use xlink:href="#C0_0_565fa4bf8e" x="301.359012" y="211.714786" style="fill: #00ff1b; stroke: #000000"/>
    </g>
    <g clip-path="url(#p311dc82585)">
     <use xlink:href="#C0_0_565fa4bf8e" x="266.520091" y="272.474286" style="fill: #9500ff; stroke: #000000"/>
    </g>
    <g clip-path="url(#p311dc82585)">
     <use xlink:href="#C0_0_565fa4bf8e" x="256.070986" y="334.264522" style="fill: #0016ff; stroke: #000000"/>
    </g>
    <g clip-path="url(#p311dc82585)">
     <use xlink:href="#C0_0_565fa4bf8e" x="243.48478" y="157.29273" style="fill: #00ff39; stroke: #000000"/>
    </g>
    <g clip-path="url(#p311dc82585)">
     <use xlink:href="#C0_0_565fa4bf8e" x="110.630294" y="248.190557" style="fill: #ff006b; stroke: #000000"/>
    </g>
    <g clip-path="url(#p311dc82585)">
     <use xlink:href="#C0_0_565fa4bf8e" x="80.071638" y="276.068135" style="fill: #ffc300; stroke: #000000"/>
    </g>
    <g clip-path="url(#p311dc82585)">
     <use xlink:href="#C0_0_565fa4bf8e" x="139.329324" y="181.124235" style="fill: #004bff; stroke: #000000"/>
    </g>
    <g clip-path="url(#p311dc82585)">
     <use xlink:href="#C0_0_565fa4bf8e" x="228.15313" y="403.947875" style="fill: #1300ff; stroke: #000000"/>
    </g>
    <g clip-path="url(#p311dc82585)">
     <use xlink:href="#C0_0_565fa4bf8e" x="110.735164" y="176.633625" style="fill: #00afff; stroke: #000000"/>
    </g>
    <g clip-path="url(#p311dc82585)">
     <use xlink:href="#C0_0_565fa4bf8e" x="180.878842" y="393.034009" style="fill: #ffd500; stroke: #000000"/>
    </g>
    <g clip-path="url(#p311dc82585)">
     <use xlink:href="#C0_0_565fa4bf8e" x="85.348011" y="243.773728" style="fill: #ff0035; stroke: #000000"/>
    </g>
    <g clip-path="url(#p311dc82585)">
     <use xlink:href="#C0_0_565fa4bf8e" x="350.981538" y="246.581383" style="fill: #04ff08; stroke: #000000"/>
    </g>
    <g clip-path="url(#p311dc82585)">
     <use xlink:href="#C0_0_565fa4bf8e" x="327.339814" y="135.053127" style="fill: #00ff8c; stroke: #000000"/>
    </g>
    <g clip-path="url(#p311dc82585)">
     <use xlink:href="#C0_0_565fa4bf8e" x="232.40159" y="228.000344" style="fill: #ff00c9; stroke: #000000"/>
    </g>
    <g clip-path="url(#p311dc82585)">
     <use xlink:href="#C0_0_565fa4bf8e" x="384.233059" y="185.306482" style="fill: #1aff00; stroke: #000000"/>
    </g>
    <g clip-path="url(#p311dc82585)">
     <use xlink:href="#C0_0_565fa4bf8e" x="236.091509" y="44.716317" style="fill: #00fff0; stroke: #000000"/>
    </g>
   </g>
   <g id="matplotlib.axis_1">
    <g id="xtick_1">
     <g id="line2d_1">
      <path d="M 0 432 
L 0 0 
" clip-path="url(#p311dc82585)" style="fill: none; stroke-dasharray: 1.85,0.8; stroke-dashoffset: 0; stroke: #808080; stroke-width: 0.5"/>
     </g>
     <g id="line2d_2">
      <defs>
       <path id="mcb01af0ed8" d="M 0 0 
L 0 3.5 
" style="stroke: #000000; stroke-width: 0.8"/>
      </defs>
      <g>
       <use xlink:href="#mcb01af0ed8" x="0" y="432" style="stroke: #000000; stroke-width: 0.8"/>
      </g>
     </g>
     <g id="text_1">
      <!-- −1.0 -->
      <g transform="translate(-12.141406 446.598437) scale(0.1 -0.1)">
       <defs>
        <path id="DejaVuSans-2212" d="M 678 2272 
L 4684 2272 
L 4684 1741 
L 678 1741 
L 678 2272 
z
" transform="scale(0.015625)"/>
        <path id="DejaVuSans-31" d="M 794 531 
L 1825 531 
L 1825 4091 
L 703 3866 
L 703 4441 
L 1819 4666 
L 2450 4666 
L 2450 531 
L 3481 531 
L 3481 0 
L 794 0 
L 794 531 
z
" transform="scale(0.015625)"/>
        <path id="DejaVuSans-2e" d="M 684 794 
L 1344 794 
L 1344 0 
L 684 0 
L 684 794 
z
" transform="scale(0.015625)"/>
        <path id="DejaVuSans-30" d="M 2034 4250 
Q 1547 4250 1301 3770 
Q 1056 3291 1056 2328 
Q 1056 1369 1301 889 
Q 1547 409 2034 409 
Q 2525 409 2770 889 
Q 3016 1369 3016 2328 
Q 3016 3291 2770 3770 
Q 2525 4250 2034 4250 
z
M 2034 4750 
Q 2819 4750 3233 4129 
Q 3647 3509 3647 2328 
Q 3647 1150 3233 529 
Q 2819 -91 2034 -91 
Q 1250 -91 836 529 
Q 422 1150 422 2328 
Q 422 3509 836 4129 
Q 1250 4750 2034 4750 
z
" transform="scale(0.015625)"/>
       </defs>
       <use xlink:href="#DejaVuSans-2212"/>
       <use xlink:href="#DejaVuSans-31" transform="translate(83.789062 0)"/>
       <use xlink:href="#DejaVuSans-2e" transform="translate(147.412109 0)"/>
       <use xlink:href="#DejaVuSans-30" transform="translate(179.199219 0)"/>
      </g>
     </g>
    </g>
    <g id="xtick_2">
     <g id="line2d_3">
      <path d="M 43.2 432 
L 43.2 0 
" clip-path="url(#p311dc82585)" style="fill: none; stroke-dasharray: 1.85,0.8; stroke-dashoffset: 0; stroke: #808080; stroke-width: 0.5"/>
     </g>
     <g id="line2d_4">
      <g>
       <use xlink:href="#mcb01af0ed8" x="43.2" y="432" style="stroke: #000000; stroke-width: 0.8"/>
      </g>
     </g>
     <g id="text_2">
      <!-- −0.8 -->
      <g transform="translate(31.058594 446.598437) scale(0.1 -0.1)">
       <defs>
        <path id="DejaVuSans-38" d="M 2034 2216 
Q 1584 2216 1326 1975 
Q 1069 1734 1069 1313 
Q 1069 891 1326 650 
Q 1584 409 2034 409 
Q 2484 409 2743 651 
Q 3003 894 3003 1313 
Q 3003 1734 2745 1975 
Q 2488 2216 2034 2216 
z
M 1403 2484 
Q 997 2584 770 2862 
Q 544 3141 544 3541 
Q 544 4100 942 4425 
Q 1341 4750 2034 4750 
Q 2731 4750 3128 4425 
Q 3525 4100 3525 3541 
Q 3525 3141 3298 2862 
Q 3072 2584 2669 2484 
Q 3125 2378 3379 2068 
Q 3634 1759 3634 1313 
Q 3634 634 3220 271 
Q 2806 -91 2034 -91 
Q 1263 -91 848 271 
Q 434 634 434 1313 
Q 434 1759 690 2068 
Q 947 2378 1403 2484 
z
M 1172 3481 
Q 1172 3119 1398 2916 
Q 1625 2713 2034 2713 
Q 2441 2713 2670 2916 
Q 2900 3119 2900 3481 
Q 2900 3844 2670 4047 
Q 2441 4250 2034 4250 
Q 1625 4250 1398 4047 
Q 1172 3844 1172 3481 
z
" transform="scale(0.015625)"/>
       </defs>
       <use xlink:href="#DejaVuSans-2212"/>
       <use xlink:href="#DejaVuSans-30" transform="translate(83.789062 0)"/>
       <use xlink:href="#DejaVuSans-2e" transform="translate(147.412109 0)"/>
       <use xlink:href="#DejaVuSans-38" transform="translate(179.199219 0)"/>
      </g>
     </g>
    </g>
    <g id="xtick_3">
     <g id="line2d_5">
      <path d="M 86.4 432 
L 86.4 0 
" clip-path="url(#p311dc82585)" style="fill: none; stroke-dasharray: 1.85,0.8; stroke-dashoffset: 0; stroke: #808080; stroke-width: 0.5"/>
     </g>
     <g id="line2d_6">
      <g>
       <use xlink:href="#mcb01af0ed8" x="86.4" y="432" style="stroke: #000000; stroke-width: 0.8"/>
      </g>
     </g>
     <g id="text_3">
      <!-- −0.6 -->
      <g transform="translate(74.258594 446.598437) scale(0.1 -0.1)">
       <defs>
        <path id="DejaVuSans-36" d="M 2113 2584 
Q 1688 2584 1439 2293 
Q 1191 2003 1191 1497 
Q 1191 994 1439 701 
Q 1688 409 2113 409 
Q 2538 409 2786 701 
Q 3034 994 3034 1497 
Q 3034 2003 2786 2293 
Q 2538 2584 2113 2584 
z
M 3366 4563 
L 3366 3988 
Q 3128 4100 2886 4159 
Q 2644 4219 2406 4219 
Q 1781 4219 1451 3797 
Q 1122 3375 1075 2522 
Q 1259 2794 1537 2939 
Q 1816 3084 2150 3084 
Q 2853 3084 3261 2657 
Q 3669 2231 3669 1497 
Q 3669 778 3244 343 
Q 2819 -91 2113 -91 
Q 1303 -91 875 529 
Q 447 1150 447 2328 
Q 447 3434 972 4092 
Q 1497 4750 2381 4750 
Q 2619 4750 2861 4703 
Q 3103 4656 3366 4563 
z
" transform="scale(0.015625)"/>
       </defs>
       <use xlink:href="#DejaVuSans-2212"/>
       <use xlink:href="#DejaVuSans-30" transform="translate(83.789062 0)"/>
       <use xlink:href="#DejaVuSans-2e" transform="translate(147.412109 0)"/>
       <use xlink:href="#DejaVuSans-36" transform="translate(179.199219 0)"/>
      </g>
     </g>
    </g>
    <g id="xtick_4">
     <g id="line2d_7">
      <path d="M 129.6 432 
L 129.6 0 
" clip-path="url(#p311dc82585)" style="fill: none; stroke-dasharray: 1.85,0.8; stroke-dashoffset: 0; stroke: #808080; stroke-width: 0.5"/>
     </g>
     <g id="line2d_8">
      <g>
       <use xlink:href="#mcb01af0ed8" x="129.6" y="432" style="stroke: #000000; stroke-width: 0.8"/>
      </g>
     </g>
     <g id="text_4">
      <!-- −0.4 -->
      <g transform="translate(117.458594 446.598437) scale(0.1 -0.1)">
       <defs>
        <path id="DejaVuSans-34" d="M 2419 4116 
L 825 1625 
L 2419 1625 
L 2419 4116 
z
M 2253 4666 
L 3047 4666 
L 3047 1625 
L 3713 1625 
L 3713 1100 
L 3047 1100 
L 3047 0 
L 2419 0 
L 2419 1100 
L 313 1100 
L 313 1709 
L 2253 4666 
z
" transform="scale(0.015625)"/>
       </defs>
       <use xlink:href="#DejaVuSans-2212"/>
       <use xlink:href="#DejaVuSans-30" transform="translate(83.789062 0)"/>
       <use xlink:href="#DejaVuSans-2e" transform="translate(147.412109 0)"/>
       <use xlink:href="#DejaVuSans-34" transform="translate(179.199219 0)"/>
      </g>
     </g>
    </g>
    <g id="xtick_5">
     <g id="line2d_9">
      <path d="M 172.8 432 
L 172.8 0 
" clip-path="url(#p311dc82585)" style="fill: none; stroke-dasharray: 1.85,0.8; stroke-dashoffset: 0; stroke: #808080; stroke-width: 0.5"/>
     </g>
     <g id="line2d_10">
      <g>
       <use xlink:href="#mcb01af0ed8" x="172.8" y="432" style="stroke: #000000; stroke-width: 0.8"/>
      </g>
     </g>
     <g id="text_5">
      <!-- −0.2 -->
      <g transform="translate(160.658594 446.598437) scale(0.1 -0.1)">
       <defs>
        <path id="DejaVuSans-32" d="M 1228 531 
L 3431 531 
L 3431 0 
L 469 0 
L 469 531 
Q 828 903 1448 1529 
Q 2069 2156 2228 2338 
Q 2531 2678 2651 2914 
Q 2772 3150 2772 3378 
Q 2772 3750 2511 3984 
Q 2250 4219 1831 4219 
Q 1534 4219 1204 4116 
Q 875 4013 500 3803 
L 500 4441 
Q 881 4594 1212 4672 
Q 1544 4750 1819 4750 
Q 2544 4750 2975 4387 
Q 3406 4025 3406 3419 
Q 3406 3131 3298 2873 
Q 3191 2616 2906 2266 
Q 2828 2175 2409 1742 
Q 1991 1309 1228 531 
z
" transform="scale(0.015625)"/>
       </defs>
       <use xlink:href="#DejaVuSans-2212"/>
       <use xlink:href="#DejaVuSans-30" transform="translate(83.789062 0)"/>
       <use xlink:href="#DejaVuSans-2e" transform="translate(147.412109 0)"/>
       <use xlink:href="#DejaVuSans-32" transform="translate(179.199219 0)"/>
      </g>
     </g>
    </g>
    <g id="xtick_6">
     <g id="line2d_11">
      <path d="M 216 432 
L 216 0 
" clip-path="url(#p311dc82585)" style="fill: none; stroke-dasharray: 1.85,0.8; stroke-dashoffset: 0; stroke: #808080; stroke-width: 0.5"/>
     </g>
     <g id="line2d_12">
      <g>
       <use xlink:href="#mcb01af0ed8" x="216" y="432" style="stroke: #000000; stroke-width: 0.8"/>
      </g>
     </g>
     <g id="text_6">
      <!-- 0.0 -->
      <g transform="translate(208.048437 446.598437) scale(0.1 -0.1)">
       <use xlink:href="#DejaVuSans-30"/>
       <use xlink:href="#DejaVuSans-2e" transform="translate(63.623047 0)"/>
       <use xlink:href="#DejaVuSans-30" transform="translate(95.410156 0)"/>
      </g>
     </g>
    </g>
    <g id="xtick_7">
     <g id="line2d_13">
      <path d="M 259.2 432 
L 259.2 0 
" clip-path="url(#p311dc82585)" style="fill: none; stroke-dasharray: 1.85,0.8; stroke-dashoffset: 0; stroke: #808080; stroke-width: 0.5"/>
     </g>
     <g id="line2d_14">
      <g>
       <use xlink:href="#mcb01af0ed8" x="259.2" y="432" style="stroke: #000000; stroke-width: 0.8"/>
      </g>
     </g>
     <g id="text_7">
      <!-- 0.2 -->
      <g transform="translate(251.248437 446.598437) scale(0.1 -0.1)">
       <use xlink:href="#DejaVuSans-30"/>
       <use xlink:href="#DejaVuSans-2e" transform="translate(63.623047 0)"/>
       <use xlink:href="#DejaVuSans-32" transform="translate(95.410156 0)"/>
      </g>
     </g>
    </g>
    <g id="xtick_8">
     <g id="line2d_15">
      <path d="M 302.4 432 
L 302.4 0 
" clip-path="url(#p311dc82585)" style="fill: none; stroke-dasharray: 1.85,0.8; stroke-dashoffset: 0; stroke: #808080; stroke-width: 0.5"/>
     </g>
     <g id="line2d_16">
      <g>
       <use xlink:href="#mcb01af0ed8" x="302.4" y="432" style="stroke: #000000; stroke-width: 0.8"/>
      </g>
     </g>
     <g id="text_8">
      <!-- 0.4 -->
      <g transform="translate(294.448437 446.598437) scale(0.1 -0.1)">
       <use xlink:href="#DejaVuSans-30"/>
       <use xlink:href="#DejaVuSans-2e" transform="translate(63.623047 0)"/>
       <use xlink:href="#DejaVuSans-34" transform="translate(95.410156 0)"/>
      </g>
     </g>
    </g>
    <g id="xtick_9">
     <g id="line2d_17">
      <path d="M 345.6 432 
L 345.6 0 
" clip-path="url(#p311dc82585)" style="fill: none; stroke-dasharray: 1.85,0.8; stroke-dashoffset: 0; stroke: #808080; stroke-width: 0.5"/>
     </g>
     <g id="line2d_18">
      <g>
       <use xlink:href="#mcb01af0ed8" x="345.6" y="432" style="stroke: #000000; stroke-width: 0.8"/>
      </g>
     </g>
     <g id="text_9">
      <!-- 0.6 -->
      <g transform="translate(337.648437 446.598437) scale(0.1 -0.1)">
       <use xlink:href="#DejaVuSans-30"/>
       <use xlink:href="#DejaVuSans-2e" transform="translate(63.623047 0)"/>
       <use xlink:href="#DejaVuSans-36" transform="translate(95.410156 0)"/>
      </g>
     </g>
    </g>
    <g id="xtick_10">
     <g id="line2d_19">
      <path d="M 388.8 432 
L 388.8 0 
" clip-path="url(#p311dc82585)" style="fill: none; stroke-dasharray: 1.85,0.8; stroke-dashoffset: 0; stroke: #808080; stroke-width: 0.5"/>
     </g>
     <g id="line2d_20">
      <g>
       <use xlink:href="#mcb01af0ed8" x="388.8" y="432" style="stroke: #000000; stroke-width: 0.8"/>
      </g>
     </g>
     <g id="text_10">
      <!-- 0.8 -->
      <g transform="translate(380.848437 446.598437) scale(0.1 -0.1)">
       <use xlink:href="#DejaVuSans-30"/>
       <use xlink:href="#DejaVuSans-2e" transform="translate(63.623047 0)"/>
       <use xlink:href="#DejaVuSans-38" transform="translate(95.410156 0)"/>
      </g>
     </g>
    </g>
    <g id="xtick_11">
     <g id="line2d_21">
      <path d="M 432 432 
L 432 0 
" clip-path="url(#p311dc82585)" style="fill: none; stroke-dasharray: 1.85,0.8; stroke-dashoffset: 0; stroke: #808080; stroke-width: 0.5"/>
     </g>
     <g id="line2d_22">
      <g>
       <use xlink:href="#mcb01af0ed8" x="432" y="432" style="stroke: #000000; stroke-width: 0.8"/>
      </g>
     </g>
     <g id="text_11">
      <!-- 1.0 -->
      <g transform="translate(424.048437 446.598437) scale(0.1 -0.1)">
       <use xlink:href="#DejaVuSans-31"/>
       <use xlink:href="#DejaVuSans-2e" transform="translate(63.623047 0)"/>
       <use xlink:href="#DejaVuSans-30" transform="translate(95.410156 0)"/>
      </g>
     </g>
    </g>
   </g>
   <g id="matplotlib.axis_2">
    <g id="ytick_1">
     <g id="line2d_23">
      <path d="M 0 432 
L 432 432 
" clip-path="url(#p311dc82585)" style="fill: none; stroke-dasharray: 1.85,0.8; stroke-dashoffset: 0; stroke: #808080; stroke-width: 0.5"/>
     </g>
     <g id="line2d_24">
      <defs>
       <path id="me532dab71e" d="M 0 0 
L -3.5 0 
" style="stroke: #000000; stroke-width: 0.8"/>
      </defs>
      <g>
       <use xlink:href="#me532dab71e" x="0" y="432" style="stroke: #000000; stroke-width: 0.8"/>
      </g>
     </g>
     <g id="text_12">
      <!-- −1.0 -->
      <g transform="translate(-31.282813 435.799219) scale(0.1 -0.1)">
       <use xlink:href="#DejaVuSans-2212"/>
       <use xlink:href="#DejaVuSans-31" transform="translate(83.789062 0)"/>
       <use xlink:href="#DejaVuSans-2e" transform="translate(147.412109 0)"/>
       <use xlink:href="#DejaVuSans-30" transform="translate(179.199219 0)"/>
      </g>
     </g>
    </g>
    <g id="ytick_2">
     <g id="line2d_25">
      <path d="M 0 388.8 
L 432 388.8 
" clip-path="url(#p311dc82585)" style="fill: none; stroke-dasharray: 1.85,0.8; stroke-dashoffset: 0; stroke: #808080; stroke-width: 0.5"/>
     </g>
     <g id="line2d_26">
      <g>
       <use xlink:href="#me532dab71e" x="0" y="388.8" style="stroke: #000000; stroke-width: 0.8"/>
      </g>
     </g>
     <g id="text_13">
      <!-- −0.8 -->
      <g transform="translate(-31.282813 392.599219) scale(0.1 -0.1)">
       <use xlink:href="#DejaVuSans-2212"/>
       <use xlink:href="#DejaVuSans-30" transform="translate(83.789062 0)"/>
       <use xlink:href="#DejaVuSans-2e" transform="translate(147.412109 0)"/>
       <use xlink:href="#DejaVuSans-38" transform="translate(179.199219 0)"/>
      </g>
     </g>
    </g>
    <g id="ytick_3">
     <g id="line2d_27">
      <path d="M 0 345.6 
L 432 345.6 
" clip-path="url(#p311dc82585)" style="fill: none; stroke-dasharray: 1.85,0.8; stroke-dashoffset: 0; stroke: #808080; stroke-width: 0.5"/>
     </g>
     <g id="line2d_28">
      <g>
       <use xlink:href="#me532dab71e" x="0" y="345.6" style="stroke: #000000; stroke-width: 0.8"/>
      </g>
     </g>
     <g id="text_14">
      <!-- −0.6 -->
      <g transform="translate(-31.282813 349.399219) scale(0.1 -0.1)">
       <use xlink:href="#DejaVuSans-2212"/>
       <use xlink:href="#DejaVuSans-30" transform="translate(83.789062 0)"/>
       <use xlink:href="#DejaVuSans-2e" transform="translate(147.412109 0)"/>
       <use xlink:href="#DejaVuSans-36" transform="translate(179.199219 0)"/>
      </g>
     </g>
    </g>
    <g id="ytick_4">
     <g id="line2d_29">
      <path d="M 0 302.4 
L 432 302.4 
" clip-path="url(#p311dc82585)" style="fill: none; stroke-dasharray: 1.85,0.8; stroke-dashoffset: 0; stroke: #808080; stroke-width: 0.5"/>
     </g>
     <g id="line2d_30">
      <g>
       <use xlink:href="#me532dab71e" x="0" y="302.4" style="stroke: #000000; stroke-width: 0.8"/>
      </g>
     </g>
     <g id="text_15">
      <!-- −0.4 -->
      <g transform="translate(-31.282813 306.199219) scale(0.1 -0.1)">
       <use xlink:href="#DejaVuSans-2212"/>
       <use xlink:href="#DejaVuSans-30" transform="translate(83.789062 0)"/>
       <use xlink:href="#DejaVuSans-2e" transform="translate(147.412109 0)"/>
       <use xlink:href="#DejaVuSans-34" transform="translate(179.199219 0)"/>
      </g>
     </g>
    </g>
    <g id="ytick_5">
     <g id="line2d_31">
      <path d="M 0 259.2 
L 432 259.2 
" clip-path="url(#p311dc82585)" style="fill: none; stroke-dasharray: 1.85,0.8; stroke-dashoffset: 0; stroke: #808080; stroke-width: 0.5"/>
     </g>
     <g id="line2d_32">
      <g>
       <use xlink:href="#me532dab71e" x="0" y="259.2" style="stroke: #000000; stroke-width: 0.8"/>
      </g>
     </g>
     <g id="text_16">
      <!-- −0.2 -->
      <g transform="translate(-31.282813 262.999219) scale(0.1 -0.1)">
       <use xlink:href="#DejaVuSans-2212"/>
       <use xlink:href="#DejaVuSans-30" transform="translate(83.789062 0)"/>
       <use xlink:href="#DejaVuSans-2e" transform="translate(147.412109 0)"/>
       <use xlink:href="#DejaVuSans-32" transform="translate(179.199219 0)"/>
      </g>
     </g>
    </g>
    <g id="ytick_6">
     <g id="line2d_33">
      <path d="M 0 216 
L 432 216 
" clip-path="url(#p311dc82585)" style="fill: none; stroke-dasharray: 1.85,0.8; stroke-dashoffset: 0; stroke: #808080; stroke-width: 0.5"/>
     </g>
     <g id="line2d_34">
      <g>
       <use xlink:href="#me532dab71e" x="0" y="216" style="stroke: #000000; stroke-width: 0.8"/>
      </g>
     </g>
     <g id="text_17">
      <!-- 0.0 -->
      <g transform="translate(-22.903125 219.799219) scale(0.1 -0.1)">
       <use xlink:href="#DejaVuSans-30"/>
       <use xlink:href="#DejaVuSans-2e" transform="translate(63.623047 0)"/>
       <use xlink:href="#DejaVuSans-30" transform="translate(95.410156 0)"/>
      </g>
     </g>
    </g>
    <g id="ytick_7">
     <g id="line2d_35">
      <path d="M 0 172.8 
L 432 172.8 
" clip-path="url(#p311dc82585)" style="fill: none; stroke-dasharray: 1.85,0.8; stroke-dashoffset: 0; stroke: #808080; stroke-width: 0.5"/>
     </g>
     <g id="line2d_36">
      <g>
       <use xlink:href="#me532dab71e" x="0" y="172.8" style="stroke: #000000; stroke-width: 0.8"/>
      </g>
     </g>
     <g id="text_18">
      <!-- 0.2 -->
      <g transform="translate(-22.903125 176.599219) scale(0.1 -0.1)">
       <use xlink:href="#DejaVuSans-30"/>
       <use xlink:href="#DejaVuSans-2e" transform="translate(63.623047 0)"/>
       <use xlink:href="#DejaVuSans-32" transform="translate(95.410156 0)"/>
      </g>
     </g>
    </g>
    <g id="ytick_8">
     <g id="line2d_37">
      <path d="M 0 129.6 
L 432 129.6 
" clip-path="url(#p311dc82585)" style="fill: none; stroke-dasharray: 1.85,0.8; stroke-dashoffset: 0; stroke: #808080; stroke-width: 0.5"/>
     </g>
     <g id="line2d_38">
      <g>
       <use xlink:href="#me532dab71e" x="0" y="129.6" style="stroke: #000000; stroke-width: 0.8"/>
      </g>
     </g>
     <g id="text_19">
      <!-- 0.4 -->
      <g transform="translate(-22.903125 133.399219) scale(0.1 -0.1)">
       <use xlink:href="#DejaVuSans-30"/>
       <use xlink:href="#DejaVuSans-2e" transform="translate(63.623047 0)"/>
       <use xlink:href="#DejaVuSans-34" transform="translate(95.410156 0)"/>
      </g>
     </g>
    </g>
    <g id="ytick_9">
     <g id="line2d_39">
      <path d="M 0 86.4 
L 432 86.4 
" clip-path="url(#p311dc82585)" style="fill: none; stroke-dasharray: 1.85,0.8; stroke-dashoffset: 0; stroke: #808080; stroke-width: 0.5"/>
     </g>
     <g id="line2d_40">
      <g>
       <use xlink:href="#me532dab71e" x="0" y="86.4" style="stroke: #000000; stroke-width: 0.8"/>
      </g>
     </g>
     <g id="text_20">
      <!-- 0.6 -->
      <g transform="translate(-22.903125 90.199219) scale(0.1 -0.1)">
       <use xlink:href="#DejaVuSans-30"/>
       <use xlink:href="#DejaVuSans-2e" transform="translate(63.623047 0)"/>
       <use xlink:href="#DejaVuSans-36" transform="translate(95.410156 0)"/>
      </g>
     </g>
    </g>
    <g id="ytick_10">
     <g id="line2d_41">
      <path d="M 0 43.2 
L 432 43.2 
" clip-path="url(#p311dc82585)" style="fill: none; stroke-dasharray: 1.85,0.8; stroke-dashoffset: 0; stroke: #808080; stroke-width: 0.5"/>
     </g>
     <g id="line2d_42">
      <g>
       <use xlink:href="#me532dab71e" x="0" y="43.2" style="stroke: #000000; stroke-width: 0.8"/>
      </g>
     </g>
     <g id="text_21">
      <!-- 0.8 -->
      <g transform="translate(-22.903125 46.999219) scale(0.1 -0.1)">
       <use xlink:href="#DejaVuSans-30"/>
       <use xlink:href="#DejaVuSans-2e" transform="translate(63.623047 0)"/>
       <use xlink:href="#DejaVuSans-38" transform="translate(95.410156 0)"/>
      </g>
     </g>
    </g>
    <g id="ytick_11">
     <g id="line2d_43">
      <path d="M 0 0 
L 432 0 
" clip-path="url(#p311dc82585)" style="fill: none; stroke-dasharray: 1.85,0.8; stroke-dashoffset: 0; stroke: #808080; stroke-width: 0.5"/>
     </g>
     <g id="line2d_44">
      <g>
       <use xlink:href="#me532dab71e" x="0" y="0" style="stroke: #000000; stroke-width: 0.8"/>
      </g>
     </g>
     <g id="text_22">
      <!-- 1.0 -->
      <g transform="translate(-22.903125 3.799219) scale(0.1 -0.1)">
       <use xlink:href="#DejaVuSans-31"/>
       <use xlink:href="#DejaVuSans-2e" transform="translate(63.623047 0)"/>
       <use xlink:href="#DejaVuSans-30" transform="translate(95.410156 0)"/>
      </g>
     </g>
    </g>
   </g>
   <g id="patch_3">
    <path d="M 0 432 
L 0 0 
" style="fill: none; stroke: #000000; stroke-width: 0.8; stroke-linejoin: miter; stroke-linecap: square"/>
   </g>
   <g id="patch_4">
    <path d="M 432 432 
L 432 0 
" style="fill: none; stroke: #000000; stroke-width: 0.8; stroke-linejoin: miter; stroke-linecap: square"/>
   </g>
   <g id="patch_5">
    <path d="M 0 432 
L 432 432 
" style="fill: none; stroke: #000000; stroke-width: 0.8; stroke-linejoin: miter; stroke-linecap: square"/>
   </g>
   <g id="patch_6">
    <path d="M 0 0 
L 432 0 
" style="fill: none; stroke: #000000; stroke-width: 0.8; stroke-linejoin: miter; stroke-linecap: square"/>
   </g>
  </g>
 </g>
 <defs>
  <clipPath id="p311dc82585">
   <rect x="0" y="0" width="432" height="432"/>
  </clipPath>
 </defs>
</svg>
