<?xml version="1.0" encoding="utf-8" standalone="no"?>
<!DOCTYPE svg PUBLIC "-//W3C//DTD SVG 1.1//EN"
  "http://www.w3.org/Graphics/SVG/1.1/DTD/svg11.dtd">
<svg xmlns:xlink="http://www.w3.org/1999/xlink" width="432pt" height="432pt" viewBox="0 0 432 432" xmlns="http://www.w3.org/2000/svg" version="1.1">
 <metadata>
  <rdf:RDF xmlns:dc="http://purl.org/dc/elements/1.1/" xmlns:cc="http://creativecommons.org/ns#" xmlns:rdf="http://www.w3.org/1999/02/22-rdf-syntax-ns#">
   <cc:Work>
    <dc:type rdf:resource="http://purl.org/dc/dcmitype/StillImage"/>
    <dc:date>2025-06-17T23:40:24.334201</dc:date>
    <dc:format>image/svg+xml</dc:format>
    <dc:creator>
     <cc:Agent>
      <dc:title>Matplotlib v3.10.1, https://matplotlib.org/</dc:title>
     </cc:Agent>
    </dc:creator>
   </cc:Work>
  </rdf:RDF>
 </metadata>
 <defs>
  <style type="text/css">*{stroke-linejoin: round; stroke-linecap: butt}</style>
 </defs>
 <g id="figure_1">
  <g id="patch_1">
   <path d="M 0 432 
L 432 432 
L 432 0 
L 0 0 
z
" style="fill: #ffffff"/>
  </g>
  <g id="axes_1">
   <g id="patch_2">
    <path d="M 0 432 
L 432 432 
L 432 0 
L 0 0 
z
" style="fill: #ffffff"/>
   </g>
   <g id="PathCollection_1">
    <defs>
     <path id="C0_0_04d88e0ff8" d="M 0 3.535534 
C 0.937635 3.535534 1.836992 3.163008 2.5 2.5 
C 3.163008 1.836992 3.535534 0.937635 3.535534 -0 
C 3.535534 -0.937635 3.163008 -1.836992 2.5 -2.5 
C 1.836992 -3.163008 0.937635 -3.535534 0 -3.535534 
C -0.937635 -3.535534 -1.836992 -3.163008 -2.5 -2.5 
C -3.163008 -1.836992 -3.535534 -0.937635 -3.535534 0 
C -3.535534 0.937635 -3.163008 1.836992 -2.5 2.5 
C -1.836992 3.163008 -0.937635 3.535534 0 3.535534 
z
"/>
    </defs>
    <g clip-path="url(#p3919b6da4e)">
     <use xlink:href="#C0_0_04d88e0ff8" x="347.601452" y="157.038907" style="fill: #00ff9d; stroke: #000000"/>
    </g>
    <g clip-path="url(#p3919b6da4e)">
     <use xlink:href="#C0_0_04d88e0ff8" x="256.123041" y="334.253476" style="fill: #0016ff; stroke: #000000"/>
    </g>
    <g clip-path="url(#p3919b6da4e)">
     <use xlink:href="#C0_0_04d88e0ff8" x="146.274573" y="277.384081" style="fill: #ff008e; stroke: #000000"/>
    </g>
    <g clip-path="url(#p3919b6da4e)">
     <use xlink:href="#C0_0_04d88e0ff8" x="126.637417" y="227.850506" style="fill: #ff0047; stroke: #000000"/>
    </g>
    <g clip-path="url(#p3919b6da4e)">
     <use xlink:href="#C0_0_04d88e0ff8" x="190.951357" y="159.882334" style="fill: #0092ff; stroke: #000000"/>
    </g>
    <g clip-path="url(#p3919b6da4e)">
     <use xlink:href="#C0_0_04d88e0ff8" x="266.766807" y="272.471711" style="fill: #9500ff; stroke: #000000"/>
    </g>
    <g clip-path="url(#p3919b6da4e)">
     <use xlink:href="#C0_0_04d88e0ff8" x="175.367752" y="284.338207" style="fill: #cbff00; stroke: #000000"/>
    </g>
    <g clip-path="url(#p3919b6da4e)">
     <use xlink:href="#C0_0_04d88e0ff8" x="236.077896" y="44.789766" style="fill: #00fff0; stroke: #000000"/>
    </g>
    <g clip-path="url(#p3919b6da4e)">
     <use xlink:href="#C0_0_04d88e0ff8" x="209.6796" y="273.481936" style="fill: #a7ff00; stroke: #000000"/>
    </g>
    <g clip-path="url(#p3919b6da4e)">
     <use xlink:href="#C0_0_04d88e0ff8" x="272.230428" y="296.90814" style="fill: #a100ff; stroke: #000000"/>
    </g>
    <g clip-path="url(#p3919b6da4e)">
     <use xlink:href="#C0_0_04d88e0ff8" x="176.823062" y="349.00714" style="fill: #3d00ff; stroke: #000000"/>
    </g>
    <g clip-path="url(#p3919b6da4e)">
     <use xlink:href="#C0_0_04d88e0ff8" x="232.39128" y="227.96695" style="fill: #ff00c9; stroke: #000000"/>
    </g>
    <g clip-path="url(#p3919b6da4e)">
     <use xlink:href="#C0_0_04d88e0ff8" x="162.175075" y="144.16928" style="fill: #00bbff; stroke: #000000"/>
    </g>
    <g clip-path="url(#p3919b6da4e)">
     <use xlink:href="#C0_0_04d88e0ff8" x="269.41389" y="219.56582" style="fill: #ff00db; stroke: #000000"/>
    </g>
    <g clip-path="url(#p3919b6da4e)">
     <use xlink:href="#C0_0_04d88e0ff8" x="158.483238" y="94.28914" style="fill: #ff5300; stroke: #000000"/>
    </g>
    <g clip-path="url(#p3919b6da4e)">
     <use xlink:href="#C0_0_04d88e0ff8" x="235.277506" y="251.339975" style="fill: #ff00e7; stroke: #000000"/>
    </g>
    <g clip-path="url(#p3919b6da4e)">
     <use xlink:href="#C0_0_04d88e0ff8" x="299.172126" y="127.207415" style="fill: #00ffa9; stroke: #000000"/>
    </g>
    <g clip-path="url(#p3919b6da4e)">
     <use xlink:href="#C0_0_04d88e0ff8" x="149.612205" y="208.557857" style="fill: #0074ff; stroke: #000000"/>
    </g>
    <g clip-path="url(#p3919b6da4e)">
     <use xlink:href="#C0_0_04d88e0ff8" x="318.617463" y="373.190743" style="fill: #6c00ff; stroke: #000000"/>
    </g>
    <g clip-path="url(#p3919b6da4e)">
     <use xlink:href="#C0_0_04d88e0ff8" x="39.792463" y="171.473062" style="fill: #00ff74; stroke: #000000"/>
    </g>
    <g clip-path="url(#p3919b6da4e)">
     <use xlink:href="#C0_0_04d88e0ff8" x="181.169486" y="110.591233" style="fill: #ff0c00; stroke: #000000"/>
    </g>
    <g clip-path="url(#p3919b6da4e)">
     <use xlink:href="#C0_0_04d88e0ff8" x="334.743161" y="335.233709" style="fill: #d600ff; stroke: #000000"/>
    </g>
    <g clip-path="url(#p3919b6da4e)">
     <use xlink:href="#C0_0_04d88e0ff8" x="188.288012" y="299.684876" style="fill: #72ff00; stroke: #000000"/>
    </g>
    <g clip-path="url(#p3919b6da4e)">
     <use xlink:href="#C0_0_04d88e0ff8" x="268.40147" y="383.110406" style="fill: #3100ff; stroke: #000000"/>
    </g>
    <g clip-path="url(#p3919b6da4e)">
     <use xlink:href="#C0_0_04d88e0ff8" x="225.934075" y="333.412262" style="fill: #4f00ff; stroke: #000000"/>
    </g>
    <g clip-path="url(#p3919b6da4e)">
     <use xlink:href="#C0_0_04d88e0ff8" x="96.325438" y="129.802503" style="fill: #ff0000; stroke: #000000"/>
    </g>
    <g clip-path="url(#p3919b6da4e)">
     <use xlink:href="#C0_0_04d88e0ff8" x="194.649003" y="30.518655" style="fill: #ff5f00; stroke: #000000"/>
    </g>
    <g clip-path="url(#p3919b6da4e)">
     <use xlink:href="#C0_0_04d88e0ff8" x="217.884917" y="168.454341" style="fill: #ff00ac; stroke: #000000"/>
    </g>
    <g clip-path="url(#p3919b6da4e)">
     <use xlink:href="#C0_0_04d88e0ff8" x="55.440501" y="125.591948" style="fill: #ff1800; stroke: #000000"/>
    </g>
    <g clip-path="url(#p3919b6da4e)">
     <use xlink:href="#C0_0_04d88e0ff8" x="297.408749" y="310.856768" style="fill: #bf00ff; stroke: #000000"/>
    </g>
    <g clip-path="url(#p3919b6da4e)">
     <use xlink:href="#C0_0_04d88e0ff8" x="299.04376" y="161.412307" style="fill: #00ff2d; stroke: #000000"/>
    </g>
    <g clip-path="url(#p3919b6da4e)">
     <use xlink:href="#C0_0_04d88e0ff8" x="271.088387" y="165.591525" style="fill: #00ff4b; stroke: #000000"/>
    </g>
    <g clip-path="url(#p3919b6da4e)">
     <use xlink:href="#C0_0_04d88e0ff8" x="305.445952" y="234.280752" style="fill: #0eff00; stroke: #000000"/>
    </g>
    <g clip-path="url(#p3919b6da4e)">
     <use xlink:href="#C0_0_04d88e0ff8" x="226.844451" y="125.911373" style="fill: #00ffd3; stroke: #000000"/>
    </g>
    <g clip-path="url(#p3919b6da4e)">
     <use xlink:href="#C0_0_04d88e0ff8" x="348.899315" y="103.974781" style="fill: #00ff62; stroke: #000000"/>
    </g>
    <g clip-path="url(#p3919b6da4e)">
     <use xlink:href="#C0_0_04d88e0ff8" x="300.206806" y="90.56135" style="fill: #00c7ff; stroke: #000000"/>
    </g>
    <g clip-path="url(#p3919b6da4e)">
     <use xlink:href="#C0_0_04d88e0ff8" x="133.288302" y="113.822919" style="fill: #ff6a00; stroke: #000000"/>
    </g>
    <g clip-path="url(#p3919b6da4e)">
     <use xlink:href="#C0_0_04d88e0ff8" x="228.081478" y="95.433692" style="fill: #00f0ff; stroke: #000000"/>
    </g>
    <g clip-path="url(#p3919b6da4e)">
     <use xlink:href="#C0_0_04d88e0ff8" x="342.465541" y="221.427479" style="fill: #00ff10; stroke: #000000"/>
    </g>
    <g clip-path="url(#p3919b6da4e)">
     <use xlink:href="#C0_0_04d88e0ff8" x="384.229943" y="185.272548" style="fill: #1aff00; stroke: #000000"/>
    </g>
    <g clip-path="url(#p3919b6da4e)">
     <use xlink:href="#C0_0_04d88e0ff8" x="53.848196" y="306.383552" style="fill: #fef100; stroke: #000000"/>
    </g>
    <g clip-path="url(#p3919b6da4e)">
     <use xlink:href="#C0_0_04d88e0ff8" x="169.382996" y="255.008886" style="fill: #d7ff00; stroke: #000000"/>
    </g>
    <g clip-path="url(#p3919b6da4e)">
     <use xlink:href="#C0_0_04d88e0ff8" x="105.124032" y="96.966195" style="fill: #ff2900; stroke: #000000"/>
    </g>
    <g clip-path="url(#p3919b6da4e)">
     <use xlink:href="#C0_0_04d88e0ff8" x="130.091294" y="257.930214" style="fill: #ff007c; stroke: #000000"/>
    </g>
    <g clip-path="url(#p3919b6da4e)">
     <use xlink:href="#C0_0_04d88e0ff8" x="343.005824" y="191.704901" style="fill: #61ff00; stroke: #000000"/>
    </g>
    <g clip-path="url(#p3919b6da4e)">
     <use xlink:href="#C0_0_04d88e0ff8" x="263.082907" y="244.601333" style="fill: #ff00bd; stroke: #000000"/>
    </g>
    <g clip-path="url(#p3919b6da4e)">
     <use xlink:href="#C0_0_04d88e0ff8" x="213.694356" y="196.366605" style="fill: #e800ff; stroke: #000000"/>
    </g>
    <g clip-path="url(#p3919b6da4e)">
     <use xlink:href="#C0_0_04d88e0ff8" x="336.359825" y="285.815002" style="fill: #7800ff; stroke: #000000"/>
    </g>
    <g clip-path="url(#p3919b6da4e)">
     <use xlink:href="#C0_0_04d88e0ff8" x="169.222086" y="177.883359" style="fill: #0057ff; stroke: #000000"/>
    </g>
    <g clip-path="url(#p3919b6da4e)">
     <use xlink:href="#C0_0_04d88e0ff8" x="180.803892" y="393.08431" style="fill: #ffd500; stroke: #000000"/>
    </g>
    <g clip-path="url(#p3919b6da4e)">
     <use xlink:href="#C0_0_04d88e0ff8" x="94.700767" y="325.244871" style="fill: #ff9a00; stroke: #000000"/>
    </g>
    <g clip-path="url(#p3919b6da4e)">
     <use xlink:href="#C0_0_04d88e0ff8" x="107.000081" y="292.22817" style="fill: #ff8800; stroke: #000000"/>
    </g>
    <g clip-path="url(#p3919b6da4e)">
     <use xlink:href="#C0_0_04d88e0ff8" x="382.404093" y="267.50186" style="fill: #25ff00; stroke: #000000"/>
    </g>
    <g clip-path="url(#p3919b6da4e)">
     <use xlink:href="#C0_0_04d88e0ff8" x="85.207858" y="243.879065" style="fill: #ff0035; stroke: #000000"/>
    </g>
    <g clip-path="url(#p3919b6da4e)">
     <use xlink:href="#C0_0_04d88e0ff8" x="258.430012" y="75.492489" style="fill: #00e5ff; stroke: #000000"/>
    </g>
    <g clip-path="url(#p3919b6da4e)">
     <use xlink:href="#C0_0_04d88e0ff8" x="140.733595" y="308.906581" style="fill: #002dff; stroke: #000000"/>
    </g>
    <g clip-path="url(#p3919b6da4e)">
     <use xlink:href="#C0_0_04d88e0ff8" x="265.650994" y="194.619998" style="fill: #f400ff; stroke: #000000"/>
    </g>
    <g clip-path="url(#p3919b6da4e)">
     <use xlink:href="#C0_0_04d88e0ff8" x="162.953928" y="227.476009" style="fill: #009eff; stroke: #000000"/>
    </g>
    <g clip-path="url(#p3919b6da4e)">
     <use xlink:href="#C0_0_04d88e0ff8" x="275.353749" y="351.089002" style="fill: #0408ff; stroke: #000000"/>
    </g>
    <g clip-path="url(#p3919b6da4e)">
     <use xlink:href="#C0_0_04d88e0ff8" x="74.682368" y="82.981337" style="fill: #ff3500; stroke: #000000"/>
    </g>
    <g clip-path="url(#p3919b6da4e)">
     <use xlink:href="#C0_0_04d88e0ff8" x="83.314673" y="165.743465" style="fill: #003fff; stroke: #000000"/>
    </g>
    <g clip-path="url(#p3919b6da4e)">
     <use xlink:href="#C0_0_04d88e0ff8" x="185.462114" y="203.143663" style="fill: #0069ff; stroke: #000000"/>
    </g>
    <g clip-path="url(#p3919b6da4e)">
     <use xlink:href="#C0_0_04d88e0ff8" x="384.548126" y="136.612196" style="fill: #00ff80; stroke: #000000"/>
    </g>
    <g clip-path="url(#p3919b6da4e)">
     <use xlink:href="#C0_0_04d88e0ff8" x="219.513081" y="367.546981" style="fill: #0022ff; stroke: #000000"/>
    </g>
    <g clip-path="url(#p3919b6da4e)">
     <use xlink:href="#C0_0_04d88e0ff8" x="285.500784" y="41.221995" style="fill: #00ffb5; stroke: #000000"/>
    </g>
    <g clip-path="url(#p3919b6da4e)">
     <use xlink:href="#C0_0_04d88e0ff8" x="206.829858" y="225.679339" style="fill: #fc00f5; stroke: #000000"/>
    </g>
    <g clip-path="url(#p3919b6da4e)">
     <use xlink:href="#C0_0_04d88e0ff8" x="204.584168" y="78.763784" style="fill: #00ffc7; stroke: #000000"/>
    </g>
    <g clip-path="url(#p3919b6da4e)">
     <use xlink:href="#C0_0_04d88e0ff8" x="191.427561" y="247.380358" style="fill: #96ff00; stroke: #000000"/>
    </g>
    <g clip-path="url(#p3919b6da4e)">
     <use xlink:href="#C0_0_04d88e0ff8" x="328.469174" y="63.863349" style="fill: #00ffde; stroke: #000000"/>
    </g>
    <g clip-path="url(#p3919b6da4e)">
     <use xlink:href="#C0_0_04d88e0ff8" x="327.253567" y="135.044282" style="fill: #00ff8c; stroke: #000000"/>
    </g>
    <g clip-path="url(#p3919b6da4e)">
     <use xlink:href="#C0_0_04d88e0ff8" x="114.731654" y="351.295292" style="fill: #f8fd00; stroke: #000000"/>
    </g>
    <g clip-path="url(#p3919b6da4e)">
     <use xlink:href="#C0_0_04d88e0ff8" x="350.302402" y="308.152889" style="fill: #8400ff; stroke: #000000"/>
    </g>
    <g clip-path="url(#p3919b6da4e)">
     <use xlink:href="#C0_0_04d88e0ff8" x="243.178455" y="302.621007" style="fill: #e8ff00; stroke: #000000"/>
    </g>
    <g clip-path="url(#p3919b6da4e)">
     <use xlink:href="#C0_0_04d88e0ff8" x="228.097848" y="403.963607" style="fill: #1300ff; stroke: #000000"/>
    </g>
    <g clip-path="url(#p3919b6da4e)">
     <use xlink:href="#C0_0_04d88e0ff8" x="217.288463" y="302.47517" style="fill: #b9ff00; stroke: #000000"/>
    </g>
    <g clip-path="url(#p3919b6da4e)">
     <use xlink:href="#C0_0_04d88e0ff8" x="80.041615" y="276.054462" style="fill: #ffc300; stroke: #000000"/>
    </g>
    <g clip-path="url(#p3919b6da4e)">
     <use xlink:href="#C0_0_04d88e0ff8" x="24.345141" y="217.553126" style="fill: #ffe600; stroke: #000000"/>
    </g>
    <g clip-path="url(#p3919b6da4e)">
     <use xlink:href="#C0_0_04d88e0ff8" x="40.614738" y="258.513897" style="fill: #ffa500; stroke: #000000"/>
    </g>
    <g clip-path="url(#p3919b6da4e)">
     <use xlink:href="#C0_0_04d88e0ff8" x="86.400278" y="204.021402" style="fill: #ff0024; stroke: #000000"/>
    </g>
    <g clip-path="url(#p3919b6da4e)">
     <use xlink:href="#C0_0_04d88e0ff8" x="389.222122" y="312.086396" style="fill: #37ff00; stroke: #000000"/>
    </g>
    <g clip-path="url(#p3919b6da4e)">
     <use xlink:href="#C0_0_04d88e0ff8" x="164.78729" y="60.153288" style="fill: #ff4100; stroke: #000000"/>
    </g>
    <g clip-path="url(#p3919b6da4e)">
     <use xlink:href="#C0_0_04d88e0ff8" x="243.233983" y="157.346217" style="fill: #00ff39; stroke: #000000"/>
    </g>
    <g clip-path="url(#p3919b6da4e)">
     <use xlink:href="#C0_0_04d88e0ff8" x="139.438114" y="181.020125" style="fill: #004bff; stroke: #000000"/>
    </g>
    <g clip-path="url(#p3919b6da4e)">
     <use xlink:href="#C0_0_04d88e0ff8" x="110.579575" y="176.667546" style="fill: #00afff; stroke: #000000"/>
    </g>
    <g clip-path="url(#p3919b6da4e)">
     <use xlink:href="#C0_0_04d88e0ff8" x="309.242467" y="330.061183" style="fill: #cb00ff; stroke: #000000"/>
    </g>
    <g clip-path="url(#p3919b6da4e)">
     <use xlink:href="#C0_0_04d88e0ff8" x="260.068286" y="133.43262" style="fill: #00ff57; stroke: #000000"/>
    </g>
    <g clip-path="url(#p3919b6da4e)">
     <use xlink:href="#C0_0_04d88e0ff8" x="301.370889" y="211.628016" style="fill: #00ff1b; stroke: #000000"/>
    </g>
    <g clip-path="url(#p3919b6da4e)">
     <use xlink:href="#C0_0_04d88e0ff8" x="63.675702" y="210.7376" style="fill: #ff0059; stroke: #000000"/>
    </g>
    <g clip-path="url(#p3919b6da4e)">
     <use xlink:href="#C0_0_04d88e0ff8" x="308.826269" y="185.071627" style="fill: #43ff00; stroke: #000000"/>
    </g>
    <g clip-path="url(#p3919b6da4e)">
     <use xlink:href="#C0_0_04d88e0ff8" x="292.362742" y="263.413411" style="fill: #ad00ff; stroke: #000000"/>
    </g>
    <g clip-path="url(#p3919b6da4e)">
     <use xlink:href="#C0_0_04d88e0ff8" x="266.788092" y="106.737825" style="fill: #00fffc; stroke: #000000"/>
    </g>
    <g clip-path="url(#p3919b6da4e)">
     <use xlink:href="#C0_0_04d88e0ff8" x="350.977753" y="246.599823" style="fill: #04ff08; stroke: #000000"/>
    </g>
    <g clip-path="url(#p3919b6da4e)">
     <use xlink:href="#C0_0_04d88e0ff8" x="139.66649" y="377.492329" style="fill: #ffb700; stroke: #000000"/>
    </g>
    <g clip-path="url(#p3919b6da4e)">
     <use xlink:href="#C0_0_04d88e0ff8" x="239.918383" y="195.767743" style="fill: #ff00a0; stroke: #000000"/>
    </g>
    <g clip-path="url(#p3919b6da4e)">
     <use xlink:href="#C0_0_04d88e0ff8" x="231.875298" y="282.039009" style="fill: #84ff00; stroke: #000000"/>
    </g>
    <g clip-path="url(#p3919b6da4e)">
     <use xlink:href="#C0_0_04d88e0ff8" x="200.397025" y="131.631605" style="fill: #00d9ff; stroke: #000000"/>
    </g>
    <g clip-path="url(#p3919b6da4e)">
     <use xlink:href="#C0_0_04d88e0ff8" x="133.405171" y="146.177177" style="fill: #0086ff; stroke: #000000"/>
    </g>
    <g clip-path="url(#p3919b6da4e)">
     <use xlink:href="#C0_0_04d88e0ff8" x="316.185206" y="269.595396" style="fill: #5a00ff; stroke: #000000"/>
    </g>
    <g clip-path="url(#p3919b6da4e)">
     <use xlink:href="#C0_0_04d88e0ff8" x="109.226892" y="210.704931" style="fill: #ff0018; stroke: #000000"/>
    </g>
    <g clip-path="url(#p3919b6da4e)">
     <use xlink:href="#C0_0_04d88e0ff8" x="121.041716" y="61.48653" style="fill: #ff7c00; stroke: #000000"/>
    </g>
    <g clip-path="url(#p3919b6da4e)">
     <use xlink:href="#C0_0_04d88e0ff8" x="200.688186" y="325.6046" style="fill: #0800ff; stroke: #000000"/>
    </g>
    <g clip-path="url(#p3919b6da4e)">
     <use xlink:href="#C0_0_04d88e0ff8" x="153.789582" y="330.316177" style="fill: #2500ff; stroke: #000000"/>
    </g>
    <g clip-path="url(#p3919b6da4e)">
     <use xlink:href="#C0_0_04d88e0ff8" x="392.555782" y="224.457755" style="fill: #4fff00; stroke: #000000"/>
    </g>
   </g>
   <g id="matplotlib.axis_1">
    <g id="xtick_1">
     <g id="line2d_1">
      <path d="M 0 432 
L 0 0 
" clip-path="url(#p3919b6da4e)" style="fill: none; stroke-dasharray: 1.85,0.8; stroke-dashoffset: 0; stroke: #808080; stroke-width: 0.5"/>
     </g>
     <g id="line2d_2">
      <defs>
       <path id="m38235d630b" d="M 0 0 
L 0 3.5 
" style="stroke: #000000; stroke-width: 0.8"/>
      </defs>
      <g>
       <use xlink:href="#m38235d630b" x="0" y="432" style="stroke: #000000; stroke-width: 0.8"/>
      </g>
     </g>
     <g id="text_1">
      <!-- −1.0 -->
      <g transform="translate(-12.141406 446.598437) scale(0.1 -0.1)">
       <defs>
        <path id="DejaVuSans-2212" d="M 678 2272 
L 4684 2272 
L 4684 1741 
L 678 1741 
L 678 2272 
z
" transform="scale(0.015625)"/>
        <path id="DejaVuSans-31" d="M 794 531 
L 1825 531 
L 1825 4091 
L 703 3866 
L 703 4441 
L 1819 4666 
L 2450 4666 
L 2450 531 
L 3481 531 
L 3481 0 
L 794 0 
L 794 531 
z
" transform="scale(0.015625)"/>
        <path id="DejaVuSans-2e" d="M 684 794 
L 1344 794 
L 1344 0 
L 684 0 
L 684 794 
z
" transform="scale(0.015625)"/>
        <path id="DejaVuSans-30" d="M 2034 4250 
Q 1547 4250 1301 3770 
Q 1056 3291 1056 2328 
Q 1056 1369 1301 889 
Q 1547 409 2034 409 
Q 2525 409 2770 889 
Q 3016 1369 3016 2328 
Q 3016 3291 2770 3770 
Q 2525 4250 2034 4250 
z
M 2034 4750 
Q 2819 4750 3233 4129 
Q 3647 3509 3647 2328 
Q 3647 1150 3233 529 
Q 2819 -91 2034 -91 
Q 1250 -91 836 529 
Q 422 1150 422 2328 
Q 422 3509 836 4129 
Q 1250 4750 2034 4750 
z
" transform="scale(0.015625)"/>
       </defs>
       <use xlink:href="#DejaVuSans-2212"/>
       <use xlink:href="#DejaVuSans-31" transform="translate(83.789062 0)"/>
       <use xlink:href="#DejaVuSans-2e" transform="translate(147.412109 0)"/>
       <use xlink:href="#DejaVuSans-30" transform="translate(179.199219 0)"/>
      </g>
     </g>
    </g>
    <g id="xtick_2">
     <g id="line2d_3">
      <path d="M 43.2 432 
L 43.2 0 
" clip-path="url(#p3919b6da4e)" style="fill: none; stroke-dasharray: 1.85,0.8; stroke-dashoffset: 0; stroke: #808080; stroke-width: 0.5"/>
     </g>
     <g id="line2d_4">
      <g>
       <use xlink:href="#m38235d630b" x="43.2" y="432" style="stroke: #000000; stroke-width: 0.8"/>
      </g>
     </g>
     <g id="text_2">
      <!-- −0.8 -->
      <g transform="translate(31.058594 446.598437) scale(0.1 -0.1)">
       <defs>
        <path id="DejaVuSans-38" d="M 2034 2216 
Q 1584 2216 1326 1975 
Q 1069 1734 1069 1313 
Q 1069 891 1326 650 
Q 1584 409 2034 409 
Q 2484 409 2743 651 
Q 3003 894 3003 1313 
Q 3003 1734 2745 1975 
Q 2488 2216 2034 2216 
z
M 1403 2484 
Q 997 2584 770 2862 
Q 544 3141 544 3541 
Q 544 4100 942 4425 
Q 1341 4750 2034 4750 
Q 2731 4750 3128 4425 
Q 3525 4100 3525 3541 
Q 3525 3141 3298 2862 
Q 3072 2584 2669 2484 
Q 3125 2378 3379 2068 
Q 3634 1759 3634 1313 
Q 3634 634 3220 271 
Q 2806 -91 2034 -91 
Q 1263 -91 848 271 
Q 434 634 434 1313 
Q 434 1759 690 2068 
Q 947 2378 1403 2484 
z
M 1172 3481 
Q 1172 3119 1398 2916 
Q 1625 2713 2034 2713 
Q 2441 2713 2670 2916 
Q 2900 3119 2900 3481 
Q 2900 3844 2670 4047 
Q 2441 4250 2034 4250 
Q 1625 4250 1398 4047 
Q 1172 3844 1172 3481 
z
" transform="scale(0.015625)"/>
       </defs>
       <use xlink:href="#DejaVuSans-2212"/>
       <use xlink:href="#DejaVuSans-30" transform="translate(83.789062 0)"/>
       <use xlink:href="#DejaVuSans-2e" transform="translate(147.412109 0)"/>
       <use xlink:href="#DejaVuSans-38" transform="translate(179.199219 0)"/>
      </g>
     </g>
    </g>
    <g id="xtick_3">
     <g id="line2d_5">
      <path d="M 86.4 432 
L 86.4 0 
" clip-path="url(#p3919b6da4e)" style="fill: none; stroke-dasharray: 1.85,0.8; stroke-dashoffset: 0; stroke: #808080; stroke-width: 0.5"/>
     </g>
     <g id="line2d_6">
      <g>
       <use xlink:href="#m38235d630b" x="86.4" y="432" style="stroke: #000000; stroke-width: 0.8"/>
      </g>
     </g>
     <g id="text_3">
      <!-- −0.6 -->
      <g transform="translate(74.258594 446.598437) scale(0.1 -0.1)">
       <defs>
        <path id="DejaVuSans-36" d="M 2113 2584 
Q 1688 2584 1439 2293 
Q 1191 2003 1191 1497 
Q 1191 994 1439 701 
Q 1688 409 2113 409 
Q 2538 409 2786 701 
Q 3034 994 3034 1497 
Q 3034 2003 2786 2293 
Q 2538 2584 2113 2584 
z
M 3366 4563 
L 3366 3988 
Q 3128 4100 2886 4159 
Q 2644 4219 2406 4219 
Q 1781 4219 1451 3797 
Q 1122 3375 1075 2522 
Q 1259 2794 1537 2939 
Q 1816 3084 2150 3084 
Q 2853 3084 3261 2657 
Q 3669 2231 3669 1497 
Q 3669 778 3244 343 
Q 2819 -91 2113 -91 
Q 1303 -91 875 529 
Q 447 1150 447 2328 
Q 447 3434 972 4092 
Q 1497 4750 2381 4750 
Q 2619 4750 2861 4703 
Q 3103 4656 3366 4563 
z
" transform="scale(0.015625)"/>
       </defs>
       <use xlink:href="#DejaVuSans-2212"/>
       <use xlink:href="#DejaVuSans-30" transform="translate(83.789062 0)"/>
       <use xlink:href="#DejaVuSans-2e" transform="translate(147.412109 0)"/>
       <use xlink:href="#DejaVuSans-36" transform="translate(179.199219 0)"/>
      </g>
     </g>
    </g>
    <g id="xtick_4">
     <g id="line2d_7">
      <path d="M 129.6 432 
L 129.6 0 
" clip-path="url(#p3919b6da4e)" style="fill: none; stroke-dasharray: 1.85,0.8; stroke-dashoffset: 0; stroke: #808080; stroke-width: 0.5"/>
     </g>
     <g id="line2d_8">
      <g>
       <use xlink:href="#m38235d630b" x="129.6" y="432" style="stroke: #000000; stroke-width: 0.8"/>
      </g>
     </g>
     <g id="text_4">
      <!-- −0.4 -->
      <g transform="translate(117.458594 446.598437) scale(0.1 -0.1)">
       <defs>
        <path id="DejaVuSans-34" d="M 2419 4116 
L 825 1625 
L 2419 1625 
L 2419 4116 
z
M 2253 4666 
L 3047 4666 
L 3047 1625 
L 3713 1625 
L 3713 1100 
L 3047 1100 
L 3047 0 
L 2419 0 
L 2419 1100 
L 313 1100 
L 313 1709 
L 2253 4666 
z
" transform="scale(0.015625)"/>
       </defs>
       <use xlink:href="#DejaVuSans-2212"/>
       <use xlink:href="#DejaVuSans-30" transform="translate(83.789062 0)"/>
       <use xlink:href="#DejaVuSans-2e" transform="translate(147.412109 0)"/>
       <use xlink:href="#DejaVuSans-34" transform="translate(179.199219 0)"/>
      </g>
     </g>
    </g>
    <g id="xtick_5">
     <g id="line2d_9">
      <path d="M 172.8 432 
L 172.8 0 
" clip-path="url(#p3919b6da4e)" style="fill: none; stroke-dasharray: 1.85,0.8; stroke-dashoffset: 0; stroke: #808080; stroke-width: 0.5"/>
     </g>
     <g id="line2d_10">
      <g>
       <use xlink:href="#m38235d630b" x="172.8" y="432" style="stroke: #000000; stroke-width: 0.8"/>
      </g>
     </g>
     <g id="text_5">
      <!-- −0.2 -->
      <g transform="translate(160.658594 446.598437) scale(0.1 -0.1)">
       <defs>
        <path id="DejaVuSans-32" d="M 1228 531 
L 3431 531 
L 3431 0 
L 469 0 
L 469 531 
Q 828 903 1448 1529 
Q 2069 2156 2228 2338 
Q 2531 2678 2651 2914 
Q 2772 3150 2772 3378 
Q 2772 3750 2511 3984 
Q 2250 4219 1831 4219 
Q 1534 4219 1204 4116 
Q 875 4013 500 3803 
L 500 4441 
Q 881 4594 1212 4672 
Q 1544 4750 1819 4750 
Q 2544 4750 2975 4387 
Q 3406 4025 3406 3419 
Q 3406 3131 3298 2873 
Q 3191 2616 2906 2266 
Q 2828 2175 2409 1742 
Q 1991 1309 1228 531 
z
" transform="scale(0.015625)"/>
       </defs>
       <use xlink:href="#DejaVuSans-2212"/>
       <use xlink:href="#DejaVuSans-30" transform="translate(83.789062 0)"/>
       <use xlink:href="#DejaVuSans-2e" transform="translate(147.412109 0)"/>
       <use xlink:href="#DejaVuSans-32" transform="translate(179.199219 0)"/>
      </g>
     </g>
    </g>
    <g id="xtick_6">
     <g id="line2d_11">
      <path d="M 216 432 
L 216 0 
" clip-path="url(#p3919b6da4e)" style="fill: none; stroke-dasharray: 1.85,0.8; stroke-dashoffset: 0; stroke: #808080; stroke-width: 0.5"/>
     </g>
     <g id="line2d_12">
      <g>
       <use xlink:href="#m38235d630b" x="216" y="432" style="stroke: #000000; stroke-width: 0.8"/>
      </g>
     </g>
     <g id="text_6">
      <!-- 0.0 -->
      <g transform="translate(208.048437 446.598437) scale(0.1 -0.1)">
       <use xlink:href="#DejaVuSans-30"/>
       <use xlink:href="#DejaVuSans-2e" transform="translate(63.623047 0)"/>
       <use xlink:href="#DejaVuSans-30" transform="translate(95.410156 0)"/>
      </g>
     </g>
    </g>
    <g id="xtick_7">
     <g id="line2d_13">
      <path d="M 259.2 432 
L 259.2 0 
" clip-path="url(#p3919b6da4e)" style="fill: none; stroke-dasharray: 1.85,0.8; stroke-dashoffset: 0; stroke: #808080; stroke-width: 0.5"/>
     </g>
     <g id="line2d_14">
      <g>
       <use xlink:href="#m38235d630b" x="259.2" y="432" style="stroke: #000000; stroke-width: 0.8"/>
      </g>
     </g>
     <g id="text_7">
      <!-- 0.2 -->
      <g transform="translate(251.248437 446.598437) scale(0.1 -0.1)">
       <use xlink:href="#DejaVuSans-30"/>
       <use xlink:href="#DejaVuSans-2e" transform="translate(63.623047 0)"/>
       <use xlink:href="#DejaVuSans-32" transform="translate(95.410156 0)"/>
      </g>
     </g>
    </g>
    <g id="xtick_8">
     <g id="line2d_15">
      <path d="M 302.4 432 
L 302.4 0 
" clip-path="url(#p3919b6da4e)" style="fill: none; stroke-dasharray: 1.85,0.8; stroke-dashoffset: 0; stroke: #808080; stroke-width: 0.5"/>
     </g>
     <g id="line2d_16">
      <g>
       <use xlink:href="#m38235d630b" x="302.4" y="432" style="stroke: #000000; stroke-width: 0.8"/>
      </g>
     </g>
     <g id="text_8">
      <!-- 0.4 -->
      <g transform="translate(294.448437 446.598437) scale(0.1 -0.1)">
       <use xlink:href="#DejaVuSans-30"/>
       <use xlink:href="#DejaVuSans-2e" transform="translate(63.623047 0)"/>
       <use xlink:href="#DejaVuSans-34" transform="translate(95.410156 0)"/>
      </g>
     </g>
    </g>
    <g id="xtick_9">
     <g id="line2d_17">
      <path d="M 345.6 432 
L 345.6 0 
" clip-path="url(#p3919b6da4e)" style="fill: none; stroke-dasharray: 1.85,0.8; stroke-dashoffset: 0; stroke: #808080; stroke-width: 0.5"/>
     </g>
     <g id="line2d_18">
      <g>
       <use xlink:href="#m38235d630b" x="345.6" y="432" style="stroke: #000000; stroke-width: 0.8"/>
      </g>
     </g>
     <g id="text_9">
      <!-- 0.6 -->
      <g transform="translate(337.648437 446.598437) scale(0.1 -0.1)">
       <use xlink:href="#DejaVuSans-30"/>
       <use xlink:href="#DejaVuSans-2e" transform="translate(63.623047 0)"/>
       <use xlink:href="#DejaVuSans-36" transform="translate(95.410156 0)"/>
      </g>
     </g>
    </g>
    <g id="xtick_10">
     <g id="line2d_19">
      <path d="M 388.8 432 
L 388.8 0 
" clip-path="url(#p3919b6da4e)" style="fill: none; stroke-dasharray: 1.85,0.8; stroke-dashoffset: 0; stroke: #808080; stroke-width: 0.5"/>
     </g>
     <g id="line2d_20">
      <g>
       <use xlink:href="#m38235d630b" x="388.8" y="432" style="stroke: #000000; stroke-width: 0.8"/>
      </g>
     </g>
     <g id="text_10">
      <!-- 0.8 -->
      <g transform="translate(380.848437 446.598437) scale(0.1 -0.1)">
       <use xlink:href="#DejaVuSans-30"/>
       <use xlink:href="#DejaVuSans-2e" transform="translate(63.623047 0)"/>
       <use xlink:href="#DejaVuSans-38" transform="translate(95.410156 0)"/>
      </g>
     </g>
    </g>
    <g id="xtick_11">
     <g id="line2d_21">
      <path d="M 432 432 
L 432 0 
" clip-path="url(#p3919b6da4e)" style="fill: none; stroke-dasharray: 1.85,0.8; stroke-dashoffset: 0; stroke: #808080; stroke-width: 0.5"/>
     </g>
     <g id="line2d_22">
      <g>
       <use xlink:href="#m38235d630b" x="432" y="432" style="stroke: #000000; stroke-width: 0.8"/>
      </g>
     </g>
     <g id="text_11">
      <!-- 1.0 -->
      <g transform="translate(424.048437 446.598437) scale(0.1 -0.1)">
       <use xlink:href="#DejaVuSans-31"/>
       <use xlink:href="#DejaVuSans-2e" transform="translate(63.623047 0)"/>
       <use xlink:href="#DejaVuSans-30" transform="translate(95.410156 0)"/>
      </g>
     </g>
    </g>
   </g>
   <g id="matplotlib.axis_2">
    <g id="ytick_1">
     <g id="line2d_23">
      <path d="M 0 432 
L 432 432 
" clip-path="url(#p3919b6da4e)" style="fill: none; stroke-dasharray: 1.85,0.8; stroke-dashoffset: 0; stroke: #808080; stroke-width: 0.5"/>
     </g>
     <g id="line2d_24">
      <defs>
       <path id="m2d642272a4" d="M 0 0 
L -3.5 0 
" style="stroke: #000000; stroke-width: 0.8"/>
      </defs>
      <g>
       <use xlink:href="#m2d642272a4" x="0" y="432" style="stroke: #000000; stroke-width: 0.8"/>
      </g>
     </g>
     <g id="text_12">
      <!-- −1.0 -->
      <g transform="translate(-31.282813 435.799219) scale(0.1 -0.1)">
       <use xlink:href="#DejaVuSans-2212"/>
       <use xlink:href="#DejaVuSans-31" transform="translate(83.789062 0)"/>
       <use xlink:href="#DejaVuSans-2e" transform="translate(147.412109 0)"/>
       <use xlink:href="#DejaVuSans-30" transform="translate(179.199219 0)"/>
      </g>
     </g>
    </g>
    <g id="ytick_2">
     <g id="line2d_25">
      <path d="M 0 388.8 
L 432 388.8 
" clip-path="url(#p3919b6da4e)" style="fill: none; stroke-dasharray: 1.85,0.8; stroke-dashoffset: 0; stroke: #808080; stroke-width: 0.5"/>
     </g>
     <g id="line2d_26">
      <g>
       <use xlink:href="#m2d642272a4" x="0" y="388.8" style="stroke: #000000; stroke-width: 0.8"/>
      </g>
     </g>
     <g id="text_13">
      <!-- −0.8 -->
      <g transform="translate(-31.282813 392.599219) scale(0.1 -0.1)">
       <use xlink:href="#DejaVuSans-2212"/>
       <use xlink:href="#DejaVuSans-30" transform="translate(83.789062 0)"/>
       <use xlink:href="#DejaVuSans-2e" transform="translate(147.412109 0)"/>
       <use xlink:href="#DejaVuSans-38" transform="translate(179.199219 0)"/>
      </g>
     </g>
    </g>
    <g id="ytick_3">
     <g id="line2d_27">
      <path d="M 0 345.6 
L 432 345.6 
" clip-path="url(#p3919b6da4e)" style="fill: none; stroke-dasharray: 1.85,0.8; stroke-dashoffset: 0; stroke: #808080; stroke-width: 0.5"/>
     </g>
     <g id="line2d_28">
      <g>
       <use xlink:href="#m2d642272a4" x="0" y="345.6" style="stroke: #000000; stroke-width: 0.8"/>
      </g>
     </g>
     <g id="text_14">
      <!-- −0.6 -->
      <g transform="translate(-31.282813 349.399219) scale(0.1 -0.1)">
       <use xlink:href="#DejaVuSans-2212"/>
       <use xlink:href="#DejaVuSans-30" transform="translate(83.789062 0)"/>
       <use xlink:href="#DejaVuSans-2e" transform="translate(147.412109 0)"/>
       <use xlink:href="#DejaVuSans-36" transform="translate(179.199219 0)"/>
      </g>
     </g>
    </g>
    <g id="ytick_4">
     <g id="line2d_29">
      <path d="M 0 302.4 
L 432 302.4 
" clip-path="url(#p3919b6da4e)" style="fill: none; stroke-dasharray: 1.85,0.8; stroke-dashoffset: 0; stroke: #808080; stroke-width: 0.5"/>
     </g>
     <g id="line2d_30">
      <g>
       <use xlink:href="#m2d642272a4" x="0" y="302.4" style="stroke: #000000; stroke-width: 0.8"/>
      </g>
     </g>
     <g id="text_15">
      <!-- −0.4 -->
      <g transform="translate(-31.282813 306.199219) scale(0.1 -0.1)">
       <use xlink:href="#DejaVuSans-2212"/>
       <use xlink:href="#DejaVuSans-30" transform="translate(83.789062 0)"/>
       <use xlink:href="#DejaVuSans-2e" transform="translate(147.412109 0)"/>
       <use xlink:href="#DejaVuSans-34" transform="translate(179.199219 0)"/>
      </g>
     </g>
    </g>
    <g id="ytick_5">
     <g id="line2d_31">
      <path d="M 0 259.2 
L 432 259.2 
" clip-path="url(#p3919b6da4e)" style="fill: none; stroke-dasharray: 1.85,0.8; stroke-dashoffset: 0; stroke: #808080; stroke-width: 0.5"/>
     </g>
     <g id="line2d_32">
      <g>
       <use xlink:href="#m2d642272a4" x="0" y="259.2" style="stroke: #000000; stroke-width: 0.8"/>
      </g>
     </g>
     <g id="text_16">
      <!-- −0.2 -->
      <g transform="translate(-31.282813 262.999219) scale(0.1 -0.1)">
       <use xlink:href="#DejaVuSans-2212"/>
       <use xlink:href="#DejaVuSans-30" transform="translate(83.789062 0)"/>
       <use xlink:href="#DejaVuSans-2e" transform="translate(147.412109 0)"/>
       <use xlink:href="#DejaVuSans-32" transform="translate(179.199219 0)"/>
      </g>
     </g>
    </g>
    <g id="ytick_6">
     <g id="line2d_33">
      <path d="M 0 216 
L 432 216 
" clip-path="url(#p3919b6da4e)" style="fill: none; stroke-dasharray: 1.85,0.8; stroke-dashoffset: 0; stroke: #808080; stroke-width: 0.5"/>
     </g>
     <g id="line2d_34">
      <g>
       <use xlink:href="#m2d642272a4" x="0" y="216" style="stroke: #000000; stroke-width: 0.8"/>
      </g>
     </g>
     <g id="text_17">
      <!-- 0.0 -->
      <g transform="translate(-22.903125 219.799219) scale(0.1 -0.1)">
       <use xlink:href="#DejaVuSans-30"/>
       <use xlink:href="#DejaVuSans-2e" transform="translate(63.623047 0)"/>
       <use xlink:href="#DejaVuSans-30" transform="translate(95.410156 0)"/>
      </g>
     </g>
    </g>
    <g id="ytick_7">
     <g id="line2d_35">
      <path d="M 0 172.8 
L 432 172.8 
" clip-path="url(#p3919b6da4e)" style="fill: none; stroke-dasharray: 1.85,0.8; stroke-dashoffset: 0; stroke: #808080; stroke-width: 0.5"/>
     </g>
     <g id="line2d_36">
      <g>
       <use xlink:href="#m2d642272a4" x="0" y="172.8" style="stroke: #000000; stroke-width: 0.8"/>
      </g>
     </g>
     <g id="text_18">
      <!-- 0.2 -->
      <g transform="translate(-22.903125 176.599219) scale(0.1 -0.1)">
       <use xlink:href="#DejaVuSans-30"/>
       <use xlink:href="#DejaVuSans-2e" transform="translate(63.623047 0)"/>
       <use xlink:href="#DejaVuSans-32" transform="translate(95.410156 0)"/>
      </g>
     </g>
    </g>
    <g id="ytick_8">
     <g id="line2d_37">
      <path d="M 0 129.6 
L 432 129.6 
" clip-path="url(#p3919b6da4e)" style="fill: none; stroke-dasharray: 1.85,0.8; stroke-dashoffset: 0; stroke: #808080; stroke-width: 0.5"/>
     </g>
     <g id="line2d_38">
      <g>
       <use xlink:href="#m2d642272a4" x="0" y="129.6" style="stroke: #000000; stroke-width: 0.8"/>
      </g>
     </g>
     <g id="text_19">
      <!-- 0.4 -->
      <g transform="translate(-22.903125 133.399219) scale(0.1 -0.1)">
       <use xlink:href="#DejaVuSans-30"/>
       <use xlink:href="#DejaVuSans-2e" transform="translate(63.623047 0)"/>
       <use xlink:href="#DejaVuSans-34" transform="translate(95.410156 0)"/>
      </g>
     </g>
    </g>
    <g id="ytick_9">
     <g id="line2d_39">
      <path d="M 0 86.4 
L 432 86.4 
" clip-path="url(#p3919b6da4e)" style="fill: none; stroke-dasharray: 1.85,0.8; stroke-dashoffset: 0; stroke: #808080; stroke-width: 0.5"/>
     </g>
     <g id="line2d_40">
      <g>
       <use xlink:href="#m2d642272a4" x="0" y="86.4" style="stroke: #000000; stroke-width: 0.8"/>
      </g>
     </g>
     <g id="text_20">
      <!-- 0.6 -->
      <g transform="translate(-22.903125 90.199219) scale(0.1 -0.1)">
       <use xlink:href="#DejaVuSans-30"/>
       <use xlink:href="#DejaVuSans-2e" transform="translate(63.623047 0)"/>
       <use xlink:href="#DejaVuSans-36" transform="translate(95.410156 0)"/>
      </g>
     </g>
    </g>
    <g id="ytick_10">
     <g id="line2d_41">
      <path d="M 0 43.2 
L 432 43.2 
" clip-path="url(#p3919b6da4e)" style="fill: none; stroke-dasharray: 1.85,0.8; stroke-dashoffset: 0; stroke: #808080; stroke-width: 0.5"/>
     </g>
     <g id="line2d_42">
      <g>
       <use xlink:href="#m2d642272a4" x="0" y="43.2" style="stroke: #000000; stroke-width: 0.8"/>
      </g>
     </g>
     <g id="text_21">
      <!-- 0.8 -->
      <g transform="translate(-22.903125 46.999219) scale(0.1 -0.1)">
       <use xlink:href="#DejaVuSans-30"/>
       <use xlink:href="#DejaVuSans-2e" transform="translate(63.623047 0)"/>
       <use xlink:href="#DejaVuSans-38" transform="translate(95.410156 0)"/>
      </g>
     </g>
    </g>
    <g id="ytick_11">
     <g id="line2d_43">
      <path d="M 0 0 
L 432 0 
" clip-path="url(#p3919b6da4e)" style="fill: none; stroke-dasharray: 1.85,0.8; stroke-dashoffset: 0; stroke: #808080; stroke-width: 0.5"/>
     </g>
     <g id="line2d_44">
      <g>
       <use xlink:href="#m2d642272a4" x="0" y="0" style="stroke: #000000; stroke-width: 0.8"/>
      </g>
     </g>
     <g id="text_22">
      <!-- 1.0 -->
      <g transform="translate(-22.903125 3.799219) scale(0.1 -0.1)">
       <use xlink:href="#DejaVuSans-31"/>
       <use xlink:href="#DejaVuSans-2e" transform="translate(63.623047 0)"/>
       <use xlink:href="#DejaVuSans-30" transform="translate(95.410156 0)"/>
      </g>
     </g>
    </g>
   </g>
   <g id="patch_3">
    <path d="M 0 432 
L 0 0 
" style="fill: none; stroke: #000000; stroke-width: 0.8; stroke-linejoin: miter; stroke-linecap: square"/>
   </g>
   <g id="patch_4">
    <path d="M 432 432 
L 432 0 
" style="fill: none; stroke: #000000; stroke-width: 0.8; stroke-linejoin: miter; stroke-linecap: square"/>
   </g>
   <g id="patch_5">
    <path d="M 0 432 
L 432 432 
" style="fill: none; stroke: #000000; stroke-width: 0.8; stroke-linejoin: miter; stroke-linecap: square"/>
   </g>
   <g id="patch_6">
    <path d="M 0 0 
L 432 0 
" style="fill: none; stroke: #000000; stroke-width: 0.8; stroke-linejoin: miter; stroke-linecap: square"/>
   </g>
  </g>
 </g>
 <defs>
  <clipPath id="p3919b6da4e">
   <rect x="0" y="0" width="432" height="432"/>
  </clipPath>
 </defs>
</svg>
