<?xml version="1.0" encoding="utf-8" standalone="no"?>
<!DOCTYPE svg PUBLIC "-//W3C//DTD SVG 1.1//EN"
  "http://www.w3.org/Graphics/SVG/1.1/DTD/svg11.dtd">
<svg xmlns:xlink="http://www.w3.org/1999/xlink" width="432pt" height="432pt" viewBox="0 0 432 432" xmlns="http://www.w3.org/2000/svg" version="1.1">
 <metadata>
  <rdf:RDF xmlns:dc="http://purl.org/dc/elements/1.1/" xmlns:cc="http://creativecommons.org/ns#" xmlns:rdf="http://www.w3.org/1999/02/22-rdf-syntax-ns#">
   <cc:Work>
    <dc:type rdf:resource="http://purl.org/dc/dcmitype/StillImage"/>
    <dc:date>2025-06-17T23:40:24.573559</dc:date>
    <dc:format>image/svg+xml</dc:format>
    <dc:creator>
     <cc:Agent>
      <dc:title>Matplotlib v3.10.1, https://matplotlib.org/</dc:title>
     </cc:Agent>
    </dc:creator>
   </cc:Work>
  </rdf:RDF>
 </metadata>
 <defs>
  <style type="text/css">*{stroke-linejoin: round; stroke-linecap: butt}</style>
 </defs>
 <g id="figure_1">
  <g id="patch_1">
   <path d="M 0 432 
L 432 432 
L 432 0 
L 0 0 
z
" style="fill: #ffffff"/>
  </g>
  <g id="axes_1">
   <g id="patch_2">
    <path d="M 0 432 
L 432 432 
L 432 0 
L 0 0 
z
" style="fill: #ffffff"/>
   </g>
   <g id="PathCollection_1">
    <defs>
     <path id="C0_0_3aad87fbe3" d="M 0 3.535534 
C 0.937635 3.535534 1.836992 3.163008 2.5 2.5 
C 3.163008 1.836992 3.535534 0.937635 3.535534 -0 
C 3.535534 -0.937635 3.163008 -1.836992 2.5 -2.5 
C 1.836992 -3.163008 0.937635 -3.535534 0 -3.535534 
C -0.937635 -3.535534 -1.836992 -3.163008 -2.5 -2.5 
C -3.163008 -1.836992 -3.535534 -0.937635 -3.535534 0 
C -3.535534 0.937635 -3.163008 1.836992 -2.5 2.5 
C -1.836992 3.163008 -0.937635 3.535534 0 3.535534 
z
"/>
    </defs>
    <g clip-path="url(#p51e8cdd36c)">
     <use xlink:href="#C0_0_3aad87fbe3" x="209.539232" y="273.522028" style="fill: #a7ff00; stroke: #000000"/>
    </g>
    <g clip-path="url(#p51e8cdd36c)">
     <use xlink:href="#C0_0_3aad87fbe3" x="300.160548" y="90.600514" style="fill: #00c7ff; stroke: #000000"/>
    </g>
    <g clip-path="url(#p51e8cdd36c)">
     <use xlink:href="#C0_0_3aad87fbe3" x="217.901052" y="168.468642" style="fill: #ff00ac; stroke: #000000"/>
    </g>
    <g clip-path="url(#p51e8cdd36c)">
     <use xlink:href="#C0_0_3aad87fbe3" x="194.450088" y="30.425983" style="fill: #ff5f00; stroke: #000000"/>
    </g>
    <g clip-path="url(#p51e8cdd36c)">
     <use xlink:href="#C0_0_3aad87fbe3" x="299.095419" y="127.225259" style="fill: #00ffa9; stroke: #000000"/>
    </g>
    <g clip-path="url(#p51e8cdd36c)">
     <use xlink:href="#C0_0_3aad87fbe3" x="297.449813" y="310.848528" style="fill: #bf00ff; stroke: #000000"/>
    </g>
    <g clip-path="url(#p51e8cdd36c)">
     <use xlink:href="#C0_0_3aad87fbe3" x="389.225392" y="311.918627" style="fill: #37ff00; stroke: #000000"/>
    </g>
    <g clip-path="url(#p51e8cdd36c)">
     <use xlink:href="#C0_0_3aad87fbe3" x="153.821653" y="330.310937" style="fill: #2500ff; stroke: #000000"/>
    </g>
    <g clip-path="url(#p51e8cdd36c)">
     <use xlink:href="#C0_0_3aad87fbe3" x="268.32858" y="383.137919" style="fill: #3100ff; stroke: #000000"/>
    </g>
    <g clip-path="url(#p51e8cdd36c)">
     <use xlink:href="#C0_0_3aad87fbe3" x="114.66974" y="351.311437" style="fill: #f8fd00; stroke: #000000"/>
    </g>
    <g clip-path="url(#p51e8cdd36c)">
     <use xlink:href="#C0_0_3aad87fbe3" x="55.410554" y="125.637241" style="fill: #ff1800; stroke: #000000"/>
    </g>
    <g clip-path="url(#p51e8cdd36c)">
     <use xlink:href="#C0_0_3aad87fbe3" x="83.297602" y="165.669037" style="fill: #003fff; stroke: #000000"/>
    </g>
    <g clip-path="url(#p51e8cdd36c)">
     <use xlink:href="#C0_0_3aad87fbe3" x="272.079351" y="296.967176" style="fill: #a100ff; stroke: #000000"/>
    </g>
    <g clip-path="url(#p51e8cdd36c)">
     <use xlink:href="#C0_0_3aad87fbe3" x="169.292269" y="177.706929" style="fill: #0057ff; stroke: #000000"/>
    </g>
    <g clip-path="url(#p51e8cdd36c)">
     <use xlink:href="#C0_0_3aad87fbe3" x="149.649972" y="208.507556" style="fill: #0074ff; stroke: #000000"/>
    </g>
    <g clip-path="url(#p51e8cdd36c)">
     <use xlink:href="#C0_0_3aad87fbe3" x="80.070917" y="276.084969" style="fill: #ffc300; stroke: #000000"/>
    </g>
    <g clip-path="url(#p51e8cdd36c)">
     <use xlink:href="#C0_0_3aad87fbe3" x="140.730505" y="308.819568" style="fill: #002dff; stroke: #000000"/>
    </g>
    <g clip-path="url(#p51e8cdd36c)">
     <use xlink:href="#C0_0_3aad87fbe3" x="348.84698" y="104.084395" style="fill: #00ff62; stroke: #000000"/>
    </g>
    <g clip-path="url(#p51e8cdd36c)">
     <use xlink:href="#C0_0_3aad87fbe3" x="301.328506" y="211.698554" style="fill: #00ff1b; stroke: #000000"/>
    </g>
    <g clip-path="url(#p51e8cdd36c)">
     <use xlink:href="#C0_0_3aad87fbe3" x="164.706419" y="60.199044" style="fill: #ff4100; stroke: #000000"/>
    </g>
    <g clip-path="url(#p51e8cdd36c)">
     <use xlink:href="#C0_0_3aad87fbe3" x="226.211693" y="333.635791" style="fill: #4f00ff; stroke: #000000"/>
    </g>
    <g clip-path="url(#p51e8cdd36c)">
     <use xlink:href="#C0_0_3aad87fbe3" x="265.636543" y="194.509851" style="fill: #f400ff; stroke: #000000"/>
    </g>
    <g clip-path="url(#p51e8cdd36c)">
     <use xlink:href="#C0_0_3aad87fbe3" x="110.738801" y="176.659599" style="fill: #00afff; stroke: #000000"/>
    </g>
    <g clip-path="url(#p51e8cdd36c)">
     <use xlink:href="#C0_0_3aad87fbe3" x="133.47078" y="146.206428" style="fill: #0086ff; stroke: #000000"/>
    </g>
    <g clip-path="url(#p51e8cdd36c)">
     <use xlink:href="#C0_0_3aad87fbe3" x="292.247855" y="263.395023" style="fill: #ad00ff; stroke: #000000"/>
    </g>
    <g clip-path="url(#p51e8cdd36c)">
     <use xlink:href="#C0_0_3aad87fbe3" x="266.734685" y="106.729599" style="fill: #00fffc; stroke: #000000"/>
    </g>
    <g clip-path="url(#p51e8cdd36c)">
     <use xlink:href="#C0_0_3aad87fbe3" x="350.233613" y="308.193759" style="fill: #8400ff; stroke: #000000"/>
    </g>
    <g clip-path="url(#p51e8cdd36c)">
     <use xlink:href="#C0_0_3aad87fbe3" x="181.114582" y="110.572951" style="fill: #ff0c00; stroke: #000000"/>
    </g>
    <g clip-path="url(#p51e8cdd36c)">
     <use xlink:href="#C0_0_3aad87fbe3" x="133.31223" y="113.81533" style="fill: #ff6a00; stroke: #000000"/>
    </g>
    <g clip-path="url(#p51e8cdd36c)">
     <use xlink:href="#C0_0_3aad87fbe3" x="228.046623" y="95.374791" style="fill: #00f0ff; stroke: #000000"/>
    </g>
    <g clip-path="url(#p51e8cdd36c)">
     <use xlink:href="#C0_0_3aad87fbe3" x="94.697072" y="325.143883" style="fill: #ff9a00; stroke: #000000"/>
    </g>
    <g clip-path="url(#p51e8cdd36c)">
     <use xlink:href="#C0_0_3aad87fbe3" x="270.897592" y="165.618562" style="fill: #00ff4b; stroke: #000000"/>
    </g>
    <g clip-path="url(#p51e8cdd36c)">
     <use xlink:href="#C0_0_3aad87fbe3" x="139.710193" y="377.618461" style="fill: #ffb700; stroke: #000000"/>
    </g>
    <g clip-path="url(#p51e8cdd36c)">
     <use xlink:href="#C0_0_3aad87fbe3" x="175.346419" y="284.406063" style="fill: #cbff00; stroke: #000000"/>
    </g>
    <g clip-path="url(#p51e8cdd36c)">
     <use xlink:href="#C0_0_3aad87fbe3" x="228.155005" y="403.984799" style="fill: #1300ff; stroke: #000000"/>
    </g>
    <g clip-path="url(#p51e8cdd36c)">
     <use xlink:href="#C0_0_3aad87fbe3" x="239.846097" y="195.619608" style="fill: #ff00a0; stroke: #000000"/>
    </g>
    <g clip-path="url(#p51e8cdd36c)">
     <use xlink:href="#C0_0_3aad87fbe3" x="188.132905" y="299.598964" style="fill: #72ff00; stroke: #000000"/>
    </g>
    <g clip-path="url(#p51e8cdd36c)">
     <use xlink:href="#C0_0_3aad87fbe3" x="285.401186" y="41.213511" style="fill: #00ffb5; stroke: #000000"/>
    </g>
    <g clip-path="url(#p51e8cdd36c)">
     <use xlink:href="#C0_0_3aad87fbe3" x="328.572364" y="63.809881" style="fill: #00ffde; stroke: #000000"/>
    </g>
    <g clip-path="url(#p51e8cdd36c)">
     <use xlink:href="#C0_0_3aad87fbe3" x="316.166564" y="269.637458" style="fill: #5a00ff; stroke: #000000"/>
    </g>
    <g clip-path="url(#p51e8cdd36c)">
     <use xlink:href="#C0_0_3aad87fbe3" x="235.148338" y="251.263905" style="fill: #ff00e7; stroke: #000000"/>
    </g>
    <g clip-path="url(#p51e8cdd36c)">
     <use xlink:href="#C0_0_3aad87fbe3" x="200.559644" y="325.572749" style="fill: #0800ff; stroke: #000000"/>
    </g>
    <g clip-path="url(#p51e8cdd36c)">
     <use xlink:href="#C0_0_3aad87fbe3" x="106.997519" y="292.329731" style="fill: #ff8800; stroke: #000000"/>
    </g>
    <g clip-path="url(#p51e8cdd36c)">
     <use xlink:href="#C0_0_3aad87fbe3" x="180.783155" y="393.010384" style="fill: #ffd500; stroke: #000000"/>
    </g>
    <g clip-path="url(#p51e8cdd36c)">
     <use xlink:href="#C0_0_3aad87fbe3" x="213.693134" y="196.574169" style="fill: #e800ff; stroke: #000000"/>
    </g>
    <g clip-path="url(#p51e8cdd36c)">
     <use xlink:href="#C0_0_3aad87fbe3" x="260.010978" y="133.46713" style="fill: #00ff57; stroke: #000000"/>
    </g>
    <g clip-path="url(#p51e8cdd36c)">
     <use xlink:href="#C0_0_3aad87fbe3" x="275.335371" y="351.287966" style="fill: #0408ff; stroke: #000000"/>
    </g>
    <g clip-path="url(#p51e8cdd36c)">
     <use xlink:href="#C0_0_3aad87fbe3" x="347.519737" y="157.134533" style="fill: #00ff9d; stroke: #000000"/>
    </g>
    <g clip-path="url(#p51e8cdd36c)">
     <use xlink:href="#C0_0_3aad87fbe3" x="190.940531" y="159.973119" style="fill: #0092ff; stroke: #000000"/>
    </g>
    <g clip-path="url(#p51e8cdd36c)">
     <use xlink:href="#C0_0_3aad87fbe3" x="308.759727" y="185.15379" style="fill: #43ff00; stroke: #000000"/>
    </g>
    <g clip-path="url(#p51e8cdd36c)">
     <use xlink:href="#C0_0_3aad87fbe3" x="256.016781" y="334.240588" style="fill: #0016ff; stroke: #000000"/>
    </g>
    <g clip-path="url(#p51e8cdd36c)">
     <use xlink:href="#C0_0_3aad87fbe3" x="162.92327" y="227.586292" style="fill: #009eff; stroke: #000000"/>
    </g>
    <g clip-path="url(#p51e8cdd36c)">
     <use xlink:href="#C0_0_3aad87fbe3" x="109.302884" y="210.71794" style="fill: #ff0018; stroke: #000000"/>
    </g>
    <g clip-path="url(#p51e8cdd36c)">
     <use xlink:href="#C0_0_3aad87fbe3" x="39.726532" y="171.478927" style="fill: #00ff74; stroke: #000000"/>
    </g>
    <g clip-path="url(#p51e8cdd36c)">
     <use xlink:href="#C0_0_3aad87fbe3" x="86.336961" y="204.184947" style="fill: #ff0024; stroke: #000000"/>
    </g>
    <g clip-path="url(#p51e8cdd36c)">
     <use xlink:href="#C0_0_3aad87fbe3" x="305.445122" y="234.220441" style="fill: #0eff00; stroke: #000000"/>
    </g>
    <g clip-path="url(#p51e8cdd36c)">
     <use xlink:href="#C0_0_3aad87fbe3" x="336.307747" y="285.984908" style="fill: #7800ff; stroke: #000000"/>
    </g>
    <g clip-path="url(#p51e8cdd36c)">
     <use xlink:href="#C0_0_3aad87fbe3" x="185.497364" y="203.072801" style="fill: #0069ff; stroke: #000000"/>
    </g>
    <g clip-path="url(#p51e8cdd36c)">
     <use xlink:href="#C0_0_3aad87fbe3" x="105.20885" y="96.938797" style="fill: #ff2900; stroke: #000000"/>
    </g>
    <g clip-path="url(#p51e8cdd36c)">
     <use xlink:href="#C0_0_3aad87fbe3" x="126.714729" y="227.891219" style="fill: #ff0047; stroke: #000000"/>
    </g>
    <g clip-path="url(#p51e8cdd36c)">
     <use xlink:href="#C0_0_3aad87fbe3" x="169.303453" y="255.015384" style="fill: #d7ff00; stroke: #000000"/>
    </g>
    <g clip-path="url(#p51e8cdd36c)">
     <use xlink:href="#C0_0_3aad87fbe3" x="120.986542" y="61.508224" style="fill: #ff7c00; stroke: #000000"/>
    </g>
    <g clip-path="url(#p51e8cdd36c)">
     <use xlink:href="#C0_0_3aad87fbe3" x="96.259933" y="129.720756" style="fill: #ff0000; stroke: #000000"/>
    </g>
    <g clip-path="url(#p51e8cdd36c)">
     <use xlink:href="#C0_0_3aad87fbe3" x="243.238846" y="302.579705" style="fill: #e8ff00; stroke: #000000"/>
    </g>
    <g clip-path="url(#p51e8cdd36c)">
     <use xlink:href="#C0_0_3aad87fbe3" x="350.927117" y="246.696958" style="fill: #04ff08; stroke: #000000"/>
    </g>
    <g clip-path="url(#p51e8cdd36c)">
     <use xlink:href="#C0_0_3aad87fbe3" x="146.216374" y="277.361518" style="fill: #ff008e; stroke: #000000"/>
    </g>
    <g clip-path="url(#p51e8cdd36c)">
     <use xlink:href="#C0_0_3aad87fbe3" x="191.459899" y="247.40949" style="fill: #96ff00; stroke: #000000"/>
    </g>
    <g clip-path="url(#p51e8cdd36c)">
     <use xlink:href="#C0_0_3aad87fbe3" x="342.365596" y="221.494053" style="fill: #00ff10; stroke: #000000"/>
    </g>
    <g clip-path="url(#p51e8cdd36c)">
     <use xlink:href="#C0_0_3aad87fbe3" x="176.798652" y="348.945535" style="fill: #3d00ff; stroke: #000000"/>
    </g>
    <g clip-path="url(#p51e8cdd36c)">
     <use xlink:href="#C0_0_3aad87fbe3" x="309.168753" y="330.105587" style="fill: #cb00ff; stroke: #000000"/>
    </g>
    <g clip-path="url(#p51e8cdd36c)">
     <use xlink:href="#C0_0_3aad87fbe3" x="206.874505" y="225.607167" style="fill: #fc00f5; stroke: #000000"/>
    </g>
    <g clip-path="url(#p51e8cdd36c)">
     <use xlink:href="#C0_0_3aad87fbe3" x="263.0993" y="244.468297" style="fill: #ff00bd; stroke: #000000"/>
    </g>
    <g clip-path="url(#p51e8cdd36c)">
     <use xlink:href="#C0_0_3aad87fbe3" x="392.572879" y="224.186135" style="fill: #4fff00; stroke: #000000"/>
    </g>
    <g clip-path="url(#p51e8cdd36c)">
     <use xlink:href="#C0_0_3aad87fbe3" x="382.270918" y="267.674998" style="fill: #25ff00; stroke: #000000"/>
    </g>
    <g clip-path="url(#p51e8cdd36c)">
     <use xlink:href="#C0_0_3aad87fbe3" x="219.586015" y="367.622439" style="fill: #0022ff; stroke: #000000"/>
    </g>
    <g clip-path="url(#p51e8cdd36c)">
     <use xlink:href="#C0_0_3aad87fbe3" x="63.653712" y="210.665259" style="fill: #ff0059; stroke: #000000"/>
    </g>
    <g clip-path="url(#p51e8cdd36c)">
     <use xlink:href="#C0_0_3aad87fbe3" x="226.745403" y="125.886809" style="fill: #00ffd3; stroke: #000000"/>
    </g>
    <g clip-path="url(#p51e8cdd36c)">
     <use xlink:href="#C0_0_3aad87fbe3" x="269.424267" y="219.579784" style="fill: #ff00db; stroke: #000000"/>
    </g>
    <g clip-path="url(#p51e8cdd36c)">
     <use xlink:href="#C0_0_3aad87fbe3" x="200.335424" y="131.689817" style="fill: #00d9ff; stroke: #000000"/>
    </g>
    <g clip-path="url(#p51e8cdd36c)">
     <use xlink:href="#C0_0_3aad87fbe3" x="162.180689" y="144.1021" style="fill: #00bbff; stroke: #000000"/>
    </g>
    <g clip-path="url(#p51e8cdd36c)">
     <use xlink:href="#C0_0_3aad87fbe3" x="53.807679" y="306.246025" style="fill: #fef100; stroke: #000000"/>
    </g>
    <g clip-path="url(#p51e8cdd36c)">
     <use xlink:href="#C0_0_3aad87fbe3" x="139.53038" y="180.847235" style="fill: #004bff; stroke: #000000"/>
    </g>
    <g clip-path="url(#p51e8cdd36c)">
     <use xlink:href="#C0_0_3aad87fbe3" x="231.967617" y="281.966944" style="fill: #84ff00; stroke: #000000"/>
    </g>
    <g clip-path="url(#p51e8cdd36c)">
     <use xlink:href="#C0_0_3aad87fbe3" x="24.315349" y="217.647967" style="fill: #ffe600; stroke: #000000"/>
    </g>
    <g clip-path="url(#p51e8cdd36c)">
     <use xlink:href="#C0_0_3aad87fbe3" x="40.685034" y="258.581633" style="fill: #ffa500; stroke: #000000"/>
    </g>
    <g clip-path="url(#p51e8cdd36c)">
     <use xlink:href="#C0_0_3aad87fbe3" x="318.650499" y="373.148502" style="fill: #6c00ff; stroke: #000000"/>
    </g>
    <g clip-path="url(#p51e8cdd36c)">
     <use xlink:href="#C0_0_3aad87fbe3" x="342.87198" y="191.81078" style="fill: #61ff00; stroke: #000000"/>
    </g>
    <g clip-path="url(#p51e8cdd36c)">
     <use xlink:href="#C0_0_3aad87fbe3" x="204.624133" y="78.730581" style="fill: #00ffc7; stroke: #000000"/>
    </g>
    <g clip-path="url(#p51e8cdd36c)">
     <use xlink:href="#C0_0_3aad87fbe3" x="158.526844" y="94.205236" style="fill: #ff5300; stroke: #000000"/>
    </g>
    <g clip-path="url(#p51e8cdd36c)">
     <use xlink:href="#C0_0_3aad87fbe3" x="258.417672" y="75.665241" style="fill: #00e5ff; stroke: #000000"/>
    </g>
    <g clip-path="url(#p51e8cdd36c)">
     <use xlink:href="#C0_0_3aad87fbe3" x="327.229337" y="135.126789" style="fill: #00ff8c; stroke: #000000"/>
    </g>
    <g clip-path="url(#p51e8cdd36c)">
     <use xlink:href="#C0_0_3aad87fbe3" x="384.133834" y="185.213293" style="fill: #1aff00; stroke: #000000"/>
    </g>
    <g clip-path="url(#p51e8cdd36c)">
     <use xlink:href="#C0_0_3aad87fbe3" x="85.329987" y="243.80615" style="fill: #ff0035; stroke: #000000"/>
    </g>
    <g clip-path="url(#p51e8cdd36c)">
     <use xlink:href="#C0_0_3aad87fbe3" x="130.152918" y="258.025364" style="fill: #ff007c; stroke: #000000"/>
    </g>
    <g clip-path="url(#p51e8cdd36c)">
     <use xlink:href="#C0_0_3aad87fbe3" x="266.301625" y="272.401358" style="fill: #9500ff; stroke: #000000"/>
    </g>
    <g clip-path="url(#p51e8cdd36c)">
     <use xlink:href="#C0_0_3aad87fbe3" x="298.917196" y="161.381156" style="fill: #00ff2d; stroke: #000000"/>
    </g>
    <g clip-path="url(#p51e8cdd36c)">
     <use xlink:href="#C0_0_3aad87fbe3" x="334.695319" y="335.302923" style="fill: #d600ff; stroke: #000000"/>
    </g>
    <g clip-path="url(#p51e8cdd36c)">
     <use xlink:href="#C0_0_3aad87fbe3" x="384.431354" y="136.670512" style="fill: #00ff80; stroke: #000000"/>
    </g>
    <g clip-path="url(#p51e8cdd36c)">
     <use xlink:href="#C0_0_3aad87fbe3" x="236.0142" y="44.849723" style="fill: #00fff0; stroke: #000000"/>
    </g>
    <g clip-path="url(#p51e8cdd36c)">
     <use xlink:href="#C0_0_3aad87fbe3" x="74.558669" y="82.997842" style="fill: #ff3500; stroke: #000000"/>
    </g>
    <g clip-path="url(#p51e8cdd36c)">
     <use xlink:href="#C0_0_3aad87fbe3" x="243.298823" y="157.513053" style="fill: #00ff39; stroke: #000000"/>
    </g>
    <g clip-path="url(#p51e8cdd36c)">
     <use xlink:href="#C0_0_3aad87fbe3" x="232.494839" y="227.998871" style="fill: #ff00c9; stroke: #000000"/>
    </g>
   </g>
   <g id="matplotlib.axis_1">
    <g id="xtick_1">
     <g id="line2d_1">
      <path d="M 0 432 
L 0 0 
" clip-path="url(#p51e8cdd36c)" style="fill: none; stroke-dasharray: 1.85,0.8; stroke-dashoffset: 0; stroke: #808080; stroke-width: 0.5"/>
     </g>
     <g id="line2d_2">
      <defs>
       <path id="ma726b26bb7" d="M 0 0 
L 0 3.5 
" style="stroke: #000000; stroke-width: 0.8"/>
      </defs>
      <g>
       <use xlink:href="#ma726b26bb7" x="0" y="432" style="stroke: #000000; stroke-width: 0.8"/>
      </g>
     </g>
     <g id="text_1">
      <!-- −1.0 -->
      <g transform="translate(-12.141406 446.598437) scale(0.1 -0.1)">
       <defs>
        <path id="DejaVuSans-2212" d="M 678 2272 
L 4684 2272 
L 4684 1741 
L 678 1741 
L 678 2272 
z
" transform="scale(0.015625)"/>
        <path id="DejaVuSans-31" d="M 794 531 
L 1825 531 
L 1825 4091 
L 703 3866 
L 703 4441 
L 1819 4666 
L 2450 4666 
L 2450 531 
L 3481 531 
L 3481 0 
L 794 0 
L 794 531 
z
" transform="scale(0.015625)"/>
        <path id="DejaVuSans-2e" d="M 684 794 
L 1344 794 
L 1344 0 
L 684 0 
L 684 794 
z
" transform="scale(0.015625)"/>
        <path id="DejaVuSans-30" d="M 2034 4250 
Q 1547 4250 1301 3770 
Q 1056 3291 1056 2328 
Q 1056 1369 1301 889 
Q 1547 409 2034 409 
Q 2525 409 2770 889 
Q 3016 1369 3016 2328 
Q 3016 3291 2770 3770 
Q 2525 4250 2034 4250 
z
M 2034 4750 
Q 2819 4750 3233 4129 
Q 3647 3509 3647 2328 
Q 3647 1150 3233 529 
Q 2819 -91 2034 -91 
Q 1250 -91 836 529 
Q 422 1150 422 2328 
Q 422 3509 836 4129 
Q 1250 4750 2034 4750 
z
" transform="scale(0.015625)"/>
       </defs>
       <use xlink:href="#DejaVuSans-2212"/>
       <use xlink:href="#DejaVuSans-31" transform="translate(83.789062 0)"/>
       <use xlink:href="#DejaVuSans-2e" transform="translate(147.412109 0)"/>
       <use xlink:href="#DejaVuSans-30" transform="translate(179.199219 0)"/>
      </g>
     </g>
    </g>
    <g id="xtick_2">
     <g id="line2d_3">
      <path d="M 43.2 432 
L 43.2 0 
" clip-path="url(#p51e8cdd36c)" style="fill: none; stroke-dasharray: 1.85,0.8; stroke-dashoffset: 0; stroke: #808080; stroke-width: 0.5"/>
     </g>
     <g id="line2d_4">
      <g>
       <use xlink:href="#ma726b26bb7" x="43.2" y="432" style="stroke: #000000; stroke-width: 0.8"/>
      </g>
     </g>
     <g id="text_2">
      <!-- −0.8 -->
      <g transform="translate(31.058594 446.598437) scale(0.1 -0.1)">
       <defs>
        <path id="DejaVuSans-38" d="M 2034 2216 
Q 1584 2216 1326 1975 
Q 1069 1734 1069 1313 
Q 1069 891 1326 650 
Q 1584 409 2034 409 
Q 2484 409 2743 651 
Q 3003 894 3003 1313 
Q 3003 1734 2745 1975 
Q 2488 2216 2034 2216 
z
M 1403 2484 
Q 997 2584 770 2862 
Q 544 3141 544 3541 
Q 544 4100 942 4425 
Q 1341 4750 2034 4750 
Q 2731 4750 3128 4425 
Q 3525 4100 3525 3541 
Q 3525 3141 3298 2862 
Q 3072 2584 2669 2484 
Q 3125 2378 3379 2068 
Q 3634 1759 3634 1313 
Q 3634 634 3220 271 
Q 2806 -91 2034 -91 
Q 1263 -91 848 271 
Q 434 634 434 1313 
Q 434 1759 690 2068 
Q 947 2378 1403 2484 
z
M 1172 3481 
Q 1172 3119 1398 2916 
Q 1625 2713 2034 2713 
Q 2441 2713 2670 2916 
Q 2900 3119 2900 3481 
Q 2900 3844 2670 4047 
Q 2441 4250 2034 4250 
Q 1625 4250 1398 4047 
Q 1172 3844 1172 3481 
z
" transform="scale(0.015625)"/>
       </defs>
       <use xlink:href="#DejaVuSans-2212"/>
       <use xlink:href="#DejaVuSans-30" transform="translate(83.789062 0)"/>
       <use xlink:href="#DejaVuSans-2e" transform="translate(147.412109 0)"/>
       <use xlink:href="#DejaVuSans-38" transform="translate(179.199219 0)"/>
      </g>
     </g>
    </g>
    <g id="xtick_3">
     <g id="line2d_5">
      <path d="M 86.4 432 
L 86.4 0 
" clip-path="url(#p51e8cdd36c)" style="fill: none; stroke-dasharray: 1.85,0.8; stroke-dashoffset: 0; stroke: #808080; stroke-width: 0.5"/>
     </g>
     <g id="line2d_6">
      <g>
       <use xlink:href="#ma726b26bb7" x="86.4" y="432" style="stroke: #000000; stroke-width: 0.8"/>
      </g>
     </g>
     <g id="text_3">
      <!-- −0.6 -->
      <g transform="translate(74.258594 446.598437) scale(0.1 -0.1)">
       <defs>
        <path id="DejaVuSans-36" d="M 2113 2584 
Q 1688 2584 1439 2293 
Q 1191 2003 1191 1497 
Q 1191 994 1439 701 
Q 1688 409 2113 409 
Q 2538 409 2786 701 
Q 3034 994 3034 1497 
Q 3034 2003 2786 2293 
Q 2538 2584 2113 2584 
z
M 3366 4563 
L 3366 3988 
Q 3128 4100 2886 4159 
Q 2644 4219 2406 4219 
Q 1781 4219 1451 3797 
Q 1122 3375 1075 2522 
Q 1259 2794 1537 2939 
Q 1816 3084 2150 3084 
Q 2853 3084 3261 2657 
Q 3669 2231 3669 1497 
Q 3669 778 3244 343 
Q 2819 -91 2113 -91 
Q 1303 -91 875 529 
Q 447 1150 447 2328 
Q 447 3434 972 4092 
Q 1497 4750 2381 4750 
Q 2619 4750 2861 4703 
Q 3103 4656 3366 4563 
z
" transform="scale(0.015625)"/>
       </defs>
       <use xlink:href="#DejaVuSans-2212"/>
       <use xlink:href="#DejaVuSans-30" transform="translate(83.789062 0)"/>
       <use xlink:href="#DejaVuSans-2e" transform="translate(147.412109 0)"/>
       <use xlink:href="#DejaVuSans-36" transform="translate(179.199219 0)"/>
      </g>
     </g>
    </g>
    <g id="xtick_4">
     <g id="line2d_7">
      <path d="M 129.6 432 
L 129.6 0 
" clip-path="url(#p51e8cdd36c)" style="fill: none; stroke-dasharray: 1.85,0.8; stroke-dashoffset: 0; stroke: #808080; stroke-width: 0.5"/>
     </g>
     <g id="line2d_8">
      <g>
       <use xlink:href="#ma726b26bb7" x="129.6" y="432" style="stroke: #000000; stroke-width: 0.8"/>
      </g>
     </g>
     <g id="text_4">
      <!-- −0.4 -->
      <g transform="translate(117.458594 446.598437) scale(0.1 -0.1)">
       <defs>
        <path id="DejaVuSans-34" d="M 2419 4116 
L 825 1625 
L 2419 1625 
L 2419 4116 
z
M 2253 4666 
L 3047 4666 
L 3047 1625 
L 3713 1625 
L 3713 1100 
L 3047 1100 
L 3047 0 
L 2419 0 
L 2419 1100 
L 313 1100 
L 313 1709 
L 2253 4666 
z
" transform="scale(0.015625)"/>
       </defs>
       <use xlink:href="#DejaVuSans-2212"/>
       <use xlink:href="#DejaVuSans-30" transform="translate(83.789062 0)"/>
       <use xlink:href="#DejaVuSans-2e" transform="translate(147.412109 0)"/>
       <use xlink:href="#DejaVuSans-34" transform="translate(179.199219 0)"/>
      </g>
     </g>
    </g>
    <g id="xtick_5">
     <g id="line2d_9">
      <path d="M 172.8 432 
L 172.8 0 
" clip-path="url(#p51e8cdd36c)" style="fill: none; stroke-dasharray: 1.85,0.8; stroke-dashoffset: 0; stroke: #808080; stroke-width: 0.5"/>
     </g>
     <g id="line2d_10">
      <g>
       <use xlink:href="#ma726b26bb7" x="172.8" y="432" style="stroke: #000000; stroke-width: 0.8"/>
      </g>
     </g>
     <g id="text_5">
      <!-- −0.2 -->
      <g transform="translate(160.658594 446.598437) scale(0.1 -0.1)">
       <defs>
        <path id="DejaVuSans-32" d="M 1228 531 
L 3431 531 
L 3431 0 
L 469 0 
L 469 531 
Q 828 903 1448 1529 
Q 2069 2156 2228 2338 
Q 2531 2678 2651 2914 
Q 2772 3150 2772 3378 
Q 2772 3750 2511 3984 
Q 2250 4219 1831 4219 
Q 1534 4219 1204 4116 
Q 875 4013 500 3803 
L 500 4441 
Q 881 4594 1212 4672 
Q 1544 4750 1819 4750 
Q 2544 4750 2975 4387 
Q 3406 4025 3406 3419 
Q 3406 3131 3298 2873 
Q 3191 2616 2906 2266 
Q 2828 2175 2409 1742 
Q 1991 1309 1228 531 
z
" transform="scale(0.015625)"/>
       </defs>
       <use xlink:href="#DejaVuSans-2212"/>
       <use xlink:href="#DejaVuSans-30" transform="translate(83.789062 0)"/>
       <use xlink:href="#DejaVuSans-2e" transform="translate(147.412109 0)"/>
       <use xlink:href="#DejaVuSans-32" transform="translate(179.199219 0)"/>
      </g>
     </g>
    </g>
    <g id="xtick_6">
     <g id="line2d_11">
      <path d="M 216 432 
L 216 0 
" clip-path="url(#p51e8cdd36c)" style="fill: none; stroke-dasharray: 1.85,0.8; stroke-dashoffset: 0; stroke: #808080; stroke-width: 0.5"/>
     </g>
     <g id="line2d_12">
      <g>
       <use xlink:href="#ma726b26bb7" x="216" y="432" style="stroke: #000000; stroke-width: 0.8"/>
      </g>
     </g>
     <g id="text_6">
      <!-- 0.0 -->
      <g transform="translate(208.048437 446.598437) scale(0.1 -0.1)">
       <use xlink:href="#DejaVuSans-30"/>
       <use xlink:href="#DejaVuSans-2e" transform="translate(63.623047 0)"/>
       <use xlink:href="#DejaVuSans-30" transform="translate(95.410156 0)"/>
      </g>
     </g>
    </g>
    <g id="xtick_7">
     <g id="line2d_13">
      <path d="M 259.2 432 
L 259.2 0 
" clip-path="url(#p51e8cdd36c)" style="fill: none; stroke-dasharray: 1.85,0.8; stroke-dashoffset: 0; stroke: #808080; stroke-width: 0.5"/>
     </g>
     <g id="line2d_14">
      <g>
       <use xlink:href="#ma726b26bb7" x="259.2" y="432" style="stroke: #000000; stroke-width: 0.8"/>
      </g>
     </g>
     <g id="text_7">
      <!-- 0.2 -->
      <g transform="translate(251.248437 446.598437) scale(0.1 -0.1)">
       <use xlink:href="#DejaVuSans-30"/>
       <use xlink:href="#DejaVuSans-2e" transform="translate(63.623047 0)"/>
       <use xlink:href="#DejaVuSans-32" transform="translate(95.410156 0)"/>
      </g>
     </g>
    </g>
    <g id="xtick_8">
     <g id="line2d_15">
      <path d="M 302.4 432 
L 302.4 0 
" clip-path="url(#p51e8cdd36c)" style="fill: none; stroke-dasharray: 1.85,0.8; stroke-dashoffset: 0; stroke: #808080; stroke-width: 0.5"/>
     </g>
     <g id="line2d_16">
      <g>
       <use xlink:href="#ma726b26bb7" x="302.4" y="432" style="stroke: #000000; stroke-width: 0.8"/>
      </g>
     </g>
     <g id="text_8">
      <!-- 0.4 -->
      <g transform="translate(294.448437 446.598437) scale(0.1 -0.1)">
       <use xlink:href="#DejaVuSans-30"/>
       <use xlink:href="#DejaVuSans-2e" transform="translate(63.623047 0)"/>
       <use xlink:href="#DejaVuSans-34" transform="translate(95.410156 0)"/>
      </g>
     </g>
    </g>
    <g id="xtick_9">
     <g id="line2d_17">
      <path d="M 345.6 432 
L 345.6 0 
" clip-path="url(#p51e8cdd36c)" style="fill: none; stroke-dasharray: 1.85,0.8; stroke-dashoffset: 0; stroke: #808080; stroke-width: 0.5"/>
     </g>
     <g id="line2d_18">
      <g>
       <use xlink:href="#ma726b26bb7" x="345.6" y="432" style="stroke: #000000; stroke-width: 0.8"/>
      </g>
     </g>
     <g id="text_9">
      <!-- 0.6 -->
      <g transform="translate(337.648437 446.598437) scale(0.1 -0.1)">
       <use xlink:href="#DejaVuSans-30"/>
       <use xlink:href="#DejaVuSans-2e" transform="translate(63.623047 0)"/>
       <use xlink:href="#DejaVuSans-36" transform="translate(95.410156 0)"/>
      </g>
     </g>
    </g>
    <g id="xtick_10">
     <g id="line2d_19">
      <path d="M 388.8 432 
L 388.8 0 
" clip-path="url(#p51e8cdd36c)" style="fill: none; stroke-dasharray: 1.85,0.8; stroke-dashoffset: 0; stroke: #808080; stroke-width: 0.5"/>
     </g>
     <g id="line2d_20">
      <g>
       <use xlink:href="#ma726b26bb7" x="388.8" y="432" style="stroke: #000000; stroke-width: 0.8"/>
      </g>
     </g>
     <g id="text_10">
      <!-- 0.8 -->
      <g transform="translate(380.848437 446.598437) scale(0.1 -0.1)">
       <use xlink:href="#DejaVuSans-30"/>
       <use xlink:href="#DejaVuSans-2e" transform="translate(63.623047 0)"/>
       <use xlink:href="#DejaVuSans-38" transform="translate(95.410156 0)"/>
      </g>
     </g>
    </g>
    <g id="xtick_11">
     <g id="line2d_21">
      <path d="M 432 432 
L 432 0 
" clip-path="url(#p51e8cdd36c)" style="fill: none; stroke-dasharray: 1.85,0.8; stroke-dashoffset: 0; stroke: #808080; stroke-width: 0.5"/>
     </g>
     <g id="line2d_22">
      <g>
       <use xlink:href="#ma726b26bb7" x="432" y="432" style="stroke: #000000; stroke-width: 0.8"/>
      </g>
     </g>
     <g id="text_11">
      <!-- 1.0 -->
      <g transform="translate(424.048437 446.598437) scale(0.1 -0.1)">
       <use xlink:href="#DejaVuSans-31"/>
       <use xlink:href="#DejaVuSans-2e" transform="translate(63.623047 0)"/>
       <use xlink:href="#DejaVuSans-30" transform="translate(95.410156 0)"/>
      </g>
     </g>
    </g>
   </g>
   <g id="matplotlib.axis_2">
    <g id="ytick_1">
     <g id="line2d_23">
      <path d="M 0 432 
L 432 432 
" clip-path="url(#p51e8cdd36c)" style="fill: none; stroke-dasharray: 1.85,0.8; stroke-dashoffset: 0; stroke: #808080; stroke-width: 0.5"/>
     </g>
     <g id="line2d_24">
      <defs>
       <path id="mbb49dba0e6" d="M 0 0 
L -3.5 0 
" style="stroke: #000000; stroke-width: 0.8"/>
      </defs>
      <g>
       <use xlink:href="#mbb49dba0e6" x="0" y="432" style="stroke: #000000; stroke-width: 0.8"/>
      </g>
     </g>
     <g id="text_12">
      <!-- −1.0 -->
      <g transform="translate(-31.282813 435.799219) scale(0.1 -0.1)">
       <use xlink:href="#DejaVuSans-2212"/>
       <use xlink:href="#DejaVuSans-31" transform="translate(83.789062 0)"/>
       <use xlink:href="#DejaVuSans-2e" transform="translate(147.412109 0)"/>
       <use xlink:href="#DejaVuSans-30" transform="translate(179.199219 0)"/>
      </g>
     </g>
    </g>
    <g id="ytick_2">
     <g id="line2d_25">
      <path d="M 0 388.8 
L 432 388.8 
" clip-path="url(#p51e8cdd36c)" style="fill: none; stroke-dasharray: 1.85,0.8; stroke-dashoffset: 0; stroke: #808080; stroke-width: 0.5"/>
     </g>
     <g id="line2d_26">
      <g>
       <use xlink:href="#mbb49dba0e6" x="0" y="388.8" style="stroke: #000000; stroke-width: 0.8"/>
      </g>
     </g>
     <g id="text_13">
      <!-- −0.8 -->
      <g transform="translate(-31.282813 392.599219) scale(0.1 -0.1)">
       <use xlink:href="#DejaVuSans-2212"/>
       <use xlink:href="#DejaVuSans-30" transform="translate(83.789062 0)"/>
       <use xlink:href="#DejaVuSans-2e" transform="translate(147.412109 0)"/>
       <use xlink:href="#DejaVuSans-38" transform="translate(179.199219 0)"/>
      </g>
     </g>
    </g>
    <g id="ytick_3">
     <g id="line2d_27">
      <path d="M 0 345.6 
L 432 345.6 
" clip-path="url(#p51e8cdd36c)" style="fill: none; stroke-dasharray: 1.85,0.8; stroke-dashoffset: 0; stroke: #808080; stroke-width: 0.5"/>
     </g>
     <g id="line2d_28">
      <g>
       <use xlink:href="#mbb49dba0e6" x="0" y="345.6" style="stroke: #000000; stroke-width: 0.8"/>
      </g>
     </g>
     <g id="text_14">
      <!-- −0.6 -->
      <g transform="translate(-31.282813 349.399219) scale(0.1 -0.1)">
       <use xlink:href="#DejaVuSans-2212"/>
       <use xlink:href="#DejaVuSans-30" transform="translate(83.789062 0)"/>
       <use xlink:href="#DejaVuSans-2e" transform="translate(147.412109 0)"/>
       <use xlink:href="#DejaVuSans-36" transform="translate(179.199219 0)"/>
      </g>
     </g>
    </g>
    <g id="ytick_4">
     <g id="line2d_29">
      <path d="M 0 302.4 
L 432 302.4 
" clip-path="url(#p51e8cdd36c)" style="fill: none; stroke-dasharray: 1.85,0.8; stroke-dashoffset: 0; stroke: #808080; stroke-width: 0.5"/>
     </g>
     <g id="line2d_30">
      <g>
       <use xlink:href="#mbb49dba0e6" x="0" y="302.4" style="stroke: #000000; stroke-width: 0.8"/>
      </g>
     </g>
     <g id="text_15">
      <!-- −0.4 -->
      <g transform="translate(-31.282813 306.199219) scale(0.1 -0.1)">
       <use xlink:href="#DejaVuSans-2212"/>
       <use xlink:href="#DejaVuSans-30" transform="translate(83.789062 0)"/>
       <use xlink:href="#DejaVuSans-2e" transform="translate(147.412109 0)"/>
       <use xlink:href="#DejaVuSans-34" transform="translate(179.199219 0)"/>
      </g>
     </g>
    </g>
    <g id="ytick_5">
     <g id="line2d_31">
      <path d="M 0 259.2 
L 432 259.2 
" clip-path="url(#p51e8cdd36c)" style="fill: none; stroke-dasharray: 1.85,0.8; stroke-dashoffset: 0; stroke: #808080; stroke-width: 0.5"/>
     </g>
     <g id="line2d_32">
      <g>
       <use xlink:href="#mbb49dba0e6" x="0" y="259.2" style="stroke: #000000; stroke-width: 0.8"/>
      </g>
     </g>
     <g id="text_16">
      <!-- −0.2 -->
      <g transform="translate(-31.282813 262.999219) scale(0.1 -0.1)">
       <use xlink:href="#DejaVuSans-2212"/>
       <use xlink:href="#DejaVuSans-30" transform="translate(83.789062 0)"/>
       <use xlink:href="#DejaVuSans-2e" transform="translate(147.412109 0)"/>
       <use xlink:href="#DejaVuSans-32" transform="translate(179.199219 0)"/>
      </g>
     </g>
    </g>
    <g id="ytick_6">
     <g id="line2d_33">
      <path d="M 0 216 
L 432 216 
" clip-path="url(#p51e8cdd36c)" style="fill: none; stroke-dasharray: 1.85,0.8; stroke-dashoffset: 0; stroke: #808080; stroke-width: 0.5"/>
     </g>
     <g id="line2d_34">
      <g>
       <use xlink:href="#mbb49dba0e6" x="0" y="216" style="stroke: #000000; stroke-width: 0.8"/>
      </g>
     </g>
     <g id="text_17">
      <!-- 0.0 -->
      <g transform="translate(-22.903125 219.799219) scale(0.1 -0.1)">
       <use xlink:href="#DejaVuSans-30"/>
       <use xlink:href="#DejaVuSans-2e" transform="translate(63.623047 0)"/>
       <use xlink:href="#DejaVuSans-30" transform="translate(95.410156 0)"/>
      </g>
     </g>
    </g>
    <g id="ytick_7">
     <g id="line2d_35">
      <path d="M 0 172.8 
L 432 172.8 
" clip-path="url(#p51e8cdd36c)" style="fill: none; stroke-dasharray: 1.85,0.8; stroke-dashoffset: 0; stroke: #808080; stroke-width: 0.5"/>
     </g>
     <g id="line2d_36">
      <g>
       <use xlink:href="#mbb49dba0e6" x="0" y="172.8" style="stroke: #000000; stroke-width: 0.8"/>
      </g>
     </g>
     <g id="text_18">
      <!-- 0.2 -->
      <g transform="translate(-22.903125 176.599219) scale(0.1 -0.1)">
       <use xlink:href="#DejaVuSans-30"/>
       <use xlink:href="#DejaVuSans-2e" transform="translate(63.623047 0)"/>
       <use xlink:href="#DejaVuSans-32" transform="translate(95.410156 0)"/>
      </g>
     </g>
    </g>
    <g id="ytick_8">
     <g id="line2d_37">
      <path d="M 0 129.6 
L 432 129.6 
" clip-path="url(#p51e8cdd36c)" style="fill: none; stroke-dasharray: 1.85,0.8; stroke-dashoffset: 0; stroke: #808080; stroke-width: 0.5"/>
     </g>
     <g id="line2d_38">
      <g>
       <use xlink:href="#mbb49dba0e6" x="0" y="129.6" style="stroke: #000000; stroke-width: 0.8"/>
      </g>
     </g>
     <g id="text_19">
      <!-- 0.4 -->
      <g transform="translate(-22.903125 133.399219) scale(0.1 -0.1)">
       <use xlink:href="#DejaVuSans-30"/>
       <use xlink:href="#DejaVuSans-2e" transform="translate(63.623047 0)"/>
       <use xlink:href="#DejaVuSans-34" transform="translate(95.410156 0)"/>
      </g>
     </g>
    </g>
    <g id="ytick_9">
     <g id="line2d_39">
      <path d="M 0 86.4 
L 432 86.4 
" clip-path="url(#p51e8cdd36c)" style="fill: none; stroke-dasharray: 1.85,0.8; stroke-dashoffset: 0; stroke: #808080; stroke-width: 0.5"/>
     </g>
     <g id="line2d_40">
      <g>
       <use xlink:href="#mbb49dba0e6" x="0" y="86.4" style="stroke: #000000; stroke-width: 0.8"/>
      </g>
     </g>
     <g id="text_20">
      <!-- 0.6 -->
      <g transform="translate(-22.903125 90.199219) scale(0.1 -0.1)">
       <use xlink:href="#DejaVuSans-30"/>
       <use xlink:href="#DejaVuSans-2e" transform="translate(63.623047 0)"/>
       <use xlink:href="#DejaVuSans-36" transform="translate(95.410156 0)"/>
      </g>
     </g>
    </g>
    <g id="ytick_10">
     <g id="line2d_41">
      <path d="M 0 43.2 
L 432 43.2 
" clip-path="url(#p51e8cdd36c)" style="fill: none; stroke-dasharray: 1.85,0.8; stroke-dashoffset: 0; stroke: #808080; stroke-width: 0.5"/>
     </g>
     <g id="line2d_42">
      <g>
       <use xlink:href="#mbb49dba0e6" x="0" y="43.2" style="stroke: #000000; stroke-width: 0.8"/>
      </g>
     </g>
     <g id="text_21">
      <!-- 0.8 -->
      <g transform="translate(-22.903125 46.999219) scale(0.1 -0.1)">
       <use xlink:href="#DejaVuSans-30"/>
       <use xlink:href="#DejaVuSans-2e" transform="translate(63.623047 0)"/>
       <use xlink:href="#DejaVuSans-38" transform="translate(95.410156 0)"/>
      </g>
     </g>
    </g>
    <g id="ytick_11">
     <g id="line2d_43">
      <path d="M 0 0 
L 432 0 
" clip-path="url(#p51e8cdd36c)" style="fill: none; stroke-dasharray: 1.85,0.8; stroke-dashoffset: 0; stroke: #808080; stroke-width: 0.5"/>
     </g>
     <g id="line2d_44">
      <g>
       <use xlink:href="#mbb49dba0e6" x="0" y="0" style="stroke: #000000; stroke-width: 0.8"/>
      </g>
     </g>
     <g id="text_22">
      <!-- 1.0 -->
      <g transform="translate(-22.903125 3.799219) scale(0.1 -0.1)">
       <use xlink:href="#DejaVuSans-31"/>
       <use xlink:href="#DejaVuSans-2e" transform="translate(63.623047 0)"/>
       <use xlink:href="#DejaVuSans-30" transform="translate(95.410156 0)"/>
      </g>
     </g>
    </g>
   </g>
   <g id="patch_3">
    <path d="M 0 432 
L 0 0 
" style="fill: none; stroke: #000000; stroke-width: 0.8; stroke-linejoin: miter; stroke-linecap: square"/>
   </g>
   <g id="patch_4">
    <path d="M 432 432 
L 432 0 
" style="fill: none; stroke: #000000; stroke-width: 0.8; stroke-linejoin: miter; stroke-linecap: square"/>
   </g>
   <g id="patch_5">
    <path d="M 0 432 
L 432 432 
" style="fill: none; stroke: #000000; stroke-width: 0.8; stroke-linejoin: miter; stroke-linecap: square"/>
   </g>
   <g id="patch_6">
    <path d="M 0 0 
L 432 0 
" style="fill: none; stroke: #000000; stroke-width: 0.8; stroke-linejoin: miter; stroke-linecap: square"/>
   </g>
  </g>
 </g>
 <defs>
  <clipPath id="p51e8cdd36c">
   <rect x="0" y="0" width="432" height="432"/>
  </clipPath>
 </defs>
</svg>
