<?xml version="1.0" encoding="utf-8" standalone="no"?>
<!DOCTYPE svg PUBLIC "-//W3C//DTD SVG 1.1//EN"
  "http://www.w3.org/Graphics/SVG/1.1/DTD/svg11.dtd">
<svg xmlns:xlink="http://www.w3.org/1999/xlink" width="432pt" height="432pt" viewBox="0 0 432 432" xmlns="http://www.w3.org/2000/svg" version="1.1">
 <metadata>
  <rdf:RDF xmlns:dc="http://purl.org/dc/elements/1.1/" xmlns:cc="http://creativecommons.org/ns#" xmlns:rdf="http://www.w3.org/1999/02/22-rdf-syntax-ns#">
   <cc:Work>
    <dc:type rdf:resource="http://purl.org/dc/dcmitype/StillImage"/>
    <dc:date>2025-06-17T23:40:24.813688</dc:date>
    <dc:format>image/svg+xml</dc:format>
    <dc:creator>
     <cc:Agent>
      <dc:title>Matplotlib v3.10.1, https://matplotlib.org/</dc:title>
     </cc:Agent>
    </dc:creator>
   </cc:Work>
  </rdf:RDF>
 </metadata>
 <defs>
  <style type="text/css">*{stroke-linejoin: round; stroke-linecap: butt}</style>
 </defs>
 <g id="figure_1">
  <g id="patch_1">
   <path d="M 0 432 
L 432 432 
L 432 0 
L 0 0 
z
" style="fill: #ffffff"/>
  </g>
  <g id="axes_1">
   <g id="patch_2">
    <path d="M 0 432 
L 432 432 
L 432 0 
L 0 0 
z
" style="fill: #ffffff"/>
   </g>
   <g id="PathCollection_1">
    <defs>
     <path id="C0_0_8aa246fa5f" d="M 0 3.535534 
C 0.937635 3.535534 1.836992 3.163008 2.5 2.5 
C 3.163008 1.836992 3.535534 0.937635 3.535534 -0 
C 3.535534 -0.937635 3.163008 -1.836992 2.5 -2.5 
C 1.836992 -3.163008 0.937635 -3.535534 0 -3.535534 
C -0.937635 -3.535534 -1.836992 -3.163008 -2.5 -2.5 
C -3.163008 -1.836992 -3.535534 -0.937635 -3.535534 0 
C -3.535534 0.937635 -3.163008 1.836992 -2.5 2.5 
C -1.836992 3.163008 -0.937635 3.535534 0 3.535534 
z
"/>
    </defs>
    <g clip-path="url(#p679cea35bc)">
     <use xlink:href="#C0_0_8aa246fa5f" x="80.067737" y="275.97231" style="fill: #ffc300; stroke: #000000"/>
    </g>
    <g clip-path="url(#p679cea35bc)">
     <use xlink:href="#C0_0_8aa246fa5f" x="175.332556" y="284.339714" style="fill: #cbff00; stroke: #000000"/>
    </g>
    <g clip-path="url(#p679cea35bc)">
     <use xlink:href="#C0_0_8aa246fa5f" x="342.4362" y="221.473795" style="fill: #00ff10; stroke: #000000"/>
    </g>
    <g clip-path="url(#p679cea35bc)">
     <use xlink:href="#C0_0_8aa246fa5f" x="39.695878" y="171.516437" style="fill: #00ff74; stroke: #000000"/>
    </g>
    <g clip-path="url(#p679cea35bc)">
     <use xlink:href="#C0_0_8aa246fa5f" x="219.654334" y="367.473171" style="fill: #0022ff; stroke: #000000"/>
    </g>
    <g clip-path="url(#p679cea35bc)">
     <use xlink:href="#C0_0_8aa246fa5f" x="336.324819" y="285.783028" style="fill: #7800ff; stroke: #000000"/>
    </g>
    <g clip-path="url(#p679cea35bc)">
     <use xlink:href="#C0_0_8aa246fa5f" x="384.574403" y="136.641435" style="fill: #00ff80; stroke: #000000"/>
    </g>
    <g clip-path="url(#p679cea35bc)">
     <use xlink:href="#C0_0_8aa246fa5f" x="348.961925" y="103.916086" style="fill: #00ff62; stroke: #000000"/>
    </g>
    <g clip-path="url(#p679cea35bc)">
     <use xlink:href="#C0_0_8aa246fa5f" x="343.004717" y="191.702674" style="fill: #61ff00; stroke: #000000"/>
    </g>
    <g clip-path="url(#p679cea35bc)">
     <use xlink:href="#C0_0_8aa246fa5f" x="94.653427" y="325.127172" style="fill: #ff9a00; stroke: #000000"/>
    </g>
    <g clip-path="url(#p679cea35bc)">
     <use xlink:href="#C0_0_8aa246fa5f" x="327.306842" y="135.149918" style="fill: #00ff8c; stroke: #000000"/>
    </g>
    <g clip-path="url(#p679cea35bc)">
     <use xlink:href="#C0_0_8aa246fa5f" x="239.926254" y="195.692066" style="fill: #ff00a0; stroke: #000000"/>
    </g>
    <g clip-path="url(#p679cea35bc)">
     <use xlink:href="#C0_0_8aa246fa5f" x="318.637136" y="373.1622" style="fill: #6c00ff; stroke: #000000"/>
    </g>
    <g clip-path="url(#p679cea35bc)">
     <use xlink:href="#C0_0_8aa246fa5f" x="121.065295" y="61.385581" style="fill: #ff7c00; stroke: #000000"/>
    </g>
    <g clip-path="url(#p679cea35bc)">
     <use xlink:href="#C0_0_8aa246fa5f" x="309.293656" y="329.973443" style="fill: #cb00ff; stroke: #000000"/>
    </g>
    <g clip-path="url(#p679cea35bc)">
     <use xlink:href="#C0_0_8aa246fa5f" x="305.429125" y="234.262564" style="fill: #0eff00; stroke: #000000"/>
    </g>
    <g clip-path="url(#p679cea35bc)">
     <use xlink:href="#C0_0_8aa246fa5f" x="218.018454" y="302.375185" style="fill: #b9ff00; stroke: #000000"/>
    </g>
    <g clip-path="url(#p679cea35bc)">
     <use xlink:href="#C0_0_8aa246fa5f" x="266.655313" y="272.445299" style="fill: #9500ff; stroke: #000000"/>
    </g>
    <g clip-path="url(#p679cea35bc)">
     <use xlink:href="#C0_0_8aa246fa5f" x="133.30538" y="113.856065" style="fill: #ff6a00; stroke: #000000"/>
    </g>
    <g clip-path="url(#p679cea35bc)">
     <use xlink:href="#C0_0_8aa246fa5f" x="350.399323" y="308.04079" style="fill: #8400ff; stroke: #000000"/>
    </g>
    <g clip-path="url(#p679cea35bc)">
     <use xlink:href="#C0_0_8aa246fa5f" x="176.863794" y="348.789135" style="fill: #3d00ff; stroke: #000000"/>
    </g>
    <g clip-path="url(#p679cea35bc)">
     <use xlink:href="#C0_0_8aa246fa5f" x="83.365798" y="165.61308" style="fill: #003fff; stroke: #000000"/>
    </g>
    <g clip-path="url(#p679cea35bc)">
     <use xlink:href="#C0_0_8aa246fa5f" x="316.104115" y="269.488286" style="fill: #5a00ff; stroke: #000000"/>
    </g>
    <g clip-path="url(#p679cea35bc)">
     <use xlink:href="#C0_0_8aa246fa5f" x="259.985825" y="133.504332" style="fill: #00ff57; stroke: #000000"/>
    </g>
    <g clip-path="url(#p679cea35bc)">
     <use xlink:href="#C0_0_8aa246fa5f" x="292.236815" y="263.430035" style="fill: #ad00ff; stroke: #000000"/>
    </g>
    <g clip-path="url(#p679cea35bc)">
     <use xlink:href="#C0_0_8aa246fa5f" x="181.100691" y="110.524394" style="fill: #ff0c00; stroke: #000000"/>
    </g>
    <g clip-path="url(#p679cea35bc)">
     <use xlink:href="#C0_0_8aa246fa5f" x="382.355285" y="267.633661" style="fill: #25ff00; stroke: #000000"/>
    </g>
    <g clip-path="url(#p679cea35bc)">
     <use xlink:href="#C0_0_8aa246fa5f" x="169.30626" y="177.88773" style="fill: #0057ff; stroke: #000000"/>
    </g>
    <g clip-path="url(#p679cea35bc)">
     <use xlink:href="#C0_0_8aa246fa5f" x="243.237759" y="157.409599" style="fill: #00ff39; stroke: #000000"/>
    </g>
    <g clip-path="url(#p679cea35bc)">
     <use xlink:href="#C0_0_8aa246fa5f" x="24.275013" y="217.603538" style="fill: #ffe600; stroke: #000000"/>
    </g>
    <g clip-path="url(#p679cea35bc)">
     <use xlink:href="#C0_0_8aa246fa5f" x="162.325074" y="144.089328" style="fill: #00bbff; stroke: #000000"/>
    </g>
    <g clip-path="url(#p679cea35bc)">
     <use xlink:href="#C0_0_8aa246fa5f" x="107.1034" y="292.227166" style="fill: #ff8800; stroke: #000000"/>
    </g>
    <g clip-path="url(#p679cea35bc)">
     <use xlink:href="#C0_0_8aa246fa5f" x="110.672716" y="176.576388" style="fill: #00afff; stroke: #000000"/>
    </g>
    <g clip-path="url(#p679cea35bc)">
     <use xlink:href="#C0_0_8aa246fa5f" x="218.041475" y="168.540047" style="fill: #ff00ac; stroke: #000000"/>
    </g>
    <g clip-path="url(#p679cea35bc)">
     <use xlink:href="#C0_0_8aa246fa5f" x="328.583552" y="63.988233" style="fill: #00ffde; stroke: #000000"/>
    </g>
    <g clip-path="url(#p679cea35bc)">
     <use xlink:href="#C0_0_8aa246fa5f" x="194.589395" y="30.513119" style="fill: #ff5f00; stroke: #000000"/>
    </g>
    <g clip-path="url(#p679cea35bc)">
     <use xlink:href="#C0_0_8aa246fa5f" x="299.029166" y="161.380339" style="fill: #00ff2d; stroke: #000000"/>
    </g>
    <g clip-path="url(#p679cea35bc)">
     <use xlink:href="#C0_0_8aa246fa5f" x="236.1331" y="44.881369" style="fill: #00fff0; stroke: #000000"/>
    </g>
    <g clip-path="url(#p679cea35bc)">
     <use xlink:href="#C0_0_8aa246fa5f" x="191.465203" y="247.523102" style="fill: #96ff00; stroke: #000000"/>
    </g>
    <g clip-path="url(#p679cea35bc)">
     <use xlink:href="#C0_0_8aa246fa5f" x="228.098078" y="95.433344" style="fill: #00f0ff; stroke: #000000"/>
    </g>
    <g clip-path="url(#p679cea35bc)">
     <use xlink:href="#C0_0_8aa246fa5f" x="164.679215" y="60.07026" style="fill: #ff4100; stroke: #000000"/>
    </g>
    <g clip-path="url(#p679cea35bc)">
     <use xlink:href="#C0_0_8aa246fa5f" x="232.447006" y="227.864447" style="fill: #ff00c9; stroke: #000000"/>
    </g>
    <g clip-path="url(#p679cea35bc)">
     <use xlink:href="#C0_0_8aa246fa5f" x="235.186275" y="251.3285" style="fill: #ff00e7; stroke: #000000"/>
    </g>
    <g clip-path="url(#p679cea35bc)">
     <use xlink:href="#C0_0_8aa246fa5f" x="228.014227" y="404.037546" style="fill: #1300ff; stroke: #000000"/>
    </g>
    <g clip-path="url(#p679cea35bc)">
     <use xlink:href="#C0_0_8aa246fa5f" x="266.924367" y="106.614281" style="fill: #00fffc; stroke: #000000"/>
    </g>
    <g clip-path="url(#p679cea35bc)">
     <use xlink:href="#C0_0_8aa246fa5f" x="180.836465" y="393.152133" style="fill: #ffd500; stroke: #000000"/>
    </g>
    <g clip-path="url(#p679cea35bc)">
     <use xlink:href="#C0_0_8aa246fa5f" x="243.212473" y="302.548606" style="fill: #e8ff00; stroke: #000000"/>
    </g>
    <g clip-path="url(#p679cea35bc)">
     <use xlink:href="#C0_0_8aa246fa5f" x="86.507382" y="204.110824" style="fill: #ff0024; stroke: #000000"/>
    </g>
    <g clip-path="url(#p679cea35bc)">
     <use xlink:href="#C0_0_8aa246fa5f" x="191.005527" y="159.922142" style="fill: #0092ff; stroke: #000000"/>
    </g>
    <g clip-path="url(#p679cea35bc)">
     <use xlink:href="#C0_0_8aa246fa5f" x="109.189877" y="210.843429" style="fill: #ff0018; stroke: #000000"/>
    </g>
    <g clip-path="url(#p679cea35bc)">
     <use xlink:href="#C0_0_8aa246fa5f" x="270.81251" y="165.572261" style="fill: #00ff4b; stroke: #000000"/>
    </g>
    <g clip-path="url(#p679cea35bc)">
     <use xlink:href="#C0_0_8aa246fa5f" x="225.975736" y="333.57071" style="fill: #4f00ff; stroke: #000000"/>
    </g>
    <g clip-path="url(#p679cea35bc)">
     <use xlink:href="#C0_0_8aa246fa5f" x="158.527514" y="94.370765" style="fill: #ff5300; stroke: #000000"/>
    </g>
    <g clip-path="url(#p679cea35bc)">
     <use xlink:href="#C0_0_8aa246fa5f" x="269.447757" y="219.560485" style="fill: #ff00db; stroke: #000000"/>
    </g>
    <g clip-path="url(#p679cea35bc)">
     <use xlink:href="#C0_0_8aa246fa5f" x="162.871521" y="227.570068" style="fill: #009eff; stroke: #000000"/>
    </g>
    <g clip-path="url(#p679cea35bc)">
     <use xlink:href="#C0_0_8aa246fa5f" x="188.220922" y="299.64886" style="fill: #72ff00; stroke: #000000"/>
    </g>
    <g clip-path="url(#p679cea35bc)">
     <use xlink:href="#C0_0_8aa246fa5f" x="334.911329" y="335.019695" style="fill: #d600ff; stroke: #000000"/>
    </g>
    <g clip-path="url(#p679cea35bc)">
     <use xlink:href="#C0_0_8aa246fa5f" x="74.595979" y="82.690976" style="fill: #ff3500; stroke: #000000"/>
    </g>
    <g clip-path="url(#p679cea35bc)">
     <use xlink:href="#C0_0_8aa246fa5f" x="204.592224" y="78.739709" style="fill: #00ffc7; stroke: #000000"/>
    </g>
    <g clip-path="url(#p679cea35bc)">
     <use xlink:href="#C0_0_8aa246fa5f" x="392.527458" y="224.472982" style="fill: #4fff00; stroke: #000000"/>
    </g>
    <g clip-path="url(#p679cea35bc)">
     <use xlink:href="#C0_0_8aa246fa5f" x="389.214797" y="311.954875" style="fill: #37ff00; stroke: #000000"/>
    </g>
    <g clip-path="url(#p679cea35bc)">
     <use xlink:href="#C0_0_8aa246fa5f" x="209.581048" y="273.469094" style="fill: #a7ff00; stroke: #000000"/>
    </g>
    <g clip-path="url(#p679cea35bc)">
     <use xlink:href="#C0_0_8aa246fa5f" x="96.241251" y="129.78529" style="fill: #ff0000; stroke: #000000"/>
    </g>
    <g clip-path="url(#p679cea35bc)">
     <use xlink:href="#C0_0_8aa246fa5f" x="40.677425" y="258.446904" style="fill: #ffa500; stroke: #000000"/>
    </g>
    <g clip-path="url(#p679cea35bc)">
     <use xlink:href="#C0_0_8aa246fa5f" x="139.580488" y="377.520228" style="fill: #ffb700; stroke: #000000"/>
    </g>
    <g clip-path="url(#p679cea35bc)">
     <use xlink:href="#C0_0_8aa246fa5f" x="53.846573" y="306.13083" style="fill: #fef100; stroke: #000000"/>
    </g>
    <g clip-path="url(#p679cea35bc)">
     <use xlink:href="#C0_0_8aa246fa5f" x="347.54613" y="157.17606" style="fill: #00ff9d; stroke: #000000"/>
    </g>
    <g clip-path="url(#p679cea35bc)">
     <use xlink:href="#C0_0_8aa246fa5f" x="133.386168" y="146.102633" style="fill: #0086ff; stroke: #000000"/>
    </g>
    <g clip-path="url(#p679cea35bc)">
     <use xlink:href="#C0_0_8aa246fa5f" x="149.693044" y="208.616855" style="fill: #0074ff; stroke: #000000"/>
    </g>
    <g clip-path="url(#p679cea35bc)">
     <use xlink:href="#C0_0_8aa246fa5f" x="297.400458" y="310.823964" style="fill: #bf00ff; stroke: #000000"/>
    </g>
    <g clip-path="url(#p679cea35bc)">
     <use xlink:href="#C0_0_8aa246fa5f" x="351.026496" y="246.496243" style="fill: #04ff08; stroke: #000000"/>
    </g>
    <g clip-path="url(#p679cea35bc)">
     <use xlink:href="#C0_0_8aa246fa5f" x="63.646168" y="210.650037" style="fill: #ff0059; stroke: #000000"/>
    </g>
    <g clip-path="url(#p679cea35bc)">
     <use xlink:href="#C0_0_8aa246fa5f" x="384.174454" y="185.330761" style="fill: #1aff00; stroke: #000000"/>
    </g>
    <g clip-path="url(#p679cea35bc)">
     <use xlink:href="#C0_0_8aa246fa5f" x="139.471768" y="180.962858" style="fill: #004bff; stroke: #000000"/>
    </g>
    <g clip-path="url(#p679cea35bc)">
     <use xlink:href="#C0_0_8aa246fa5f" x="185.514043" y="203.093389" style="fill: #0069ff; stroke: #000000"/>
    </g>
    <g clip-path="url(#p679cea35bc)">
     <use xlink:href="#C0_0_8aa246fa5f" x="301.432307" y="211.801842" style="fill: #00ff1b; stroke: #000000"/>
    </g>
    <g clip-path="url(#p679cea35bc)">
     <use xlink:href="#C0_0_8aa246fa5f" x="263.154223" y="244.46241" style="fill: #ff00bd; stroke: #000000"/>
    </g>
    <g clip-path="url(#p679cea35bc)">
     <use xlink:href="#C0_0_8aa246fa5f" x="300.332494" y="90.49323" style="fill: #00c7ff; stroke: #000000"/>
    </g>
    <g clip-path="url(#p679cea35bc)">
     <use xlink:href="#C0_0_8aa246fa5f" x="258.52449" y="75.55694" style="fill: #00e5ff; stroke: #000000"/>
    </g>
    <g clip-path="url(#p679cea35bc)">
     <use xlink:href="#C0_0_8aa246fa5f" x="268.276058" y="383.143623" style="fill: #3100ff; stroke: #000000"/>
    </g>
    <g clip-path="url(#p679cea35bc)">
     <use xlink:href="#C0_0_8aa246fa5f" x="200.46842" y="325.575993" style="fill: #0800ff; stroke: #000000"/>
    </g>
    <g clip-path="url(#p679cea35bc)">
     <use xlink:href="#C0_0_8aa246fa5f" x="231.960681" y="281.982767" style="fill: #84ff00; stroke: #000000"/>
    </g>
    <g clip-path="url(#p679cea35bc)">
     <use xlink:href="#C0_0_8aa246fa5f" x="272.278354" y="296.948605" style="fill: #a100ff; stroke: #000000"/>
    </g>
    <g clip-path="url(#p679cea35bc)">
     <use xlink:href="#C0_0_8aa246fa5f" x="255.988698" y="334.275877" style="fill: #0016ff; stroke: #000000"/>
    </g>
    <g clip-path="url(#p679cea35bc)">
     <use xlink:href="#C0_0_8aa246fa5f" x="126.636793" y="227.932784" style="fill: #ff0047; stroke: #000000"/>
    </g>
    <g clip-path="url(#p679cea35bc)">
     <use xlink:href="#C0_0_8aa246fa5f" x="226.728354" y="125.896149" style="fill: #00ffd3; stroke: #000000"/>
    </g>
    <g clip-path="url(#p679cea35bc)">
     <use xlink:href="#C0_0_8aa246fa5f" x="299.21093" y="127.206687" style="fill: #00ffa9; stroke: #000000"/>
    </g>
    <g clip-path="url(#p679cea35bc)">
     <use xlink:href="#C0_0_8aa246fa5f" x="285.529372" y="41.183101" style="fill: #00ffb5; stroke: #000000"/>
    </g>
    <g clip-path="url(#p679cea35bc)">
     <use xlink:href="#C0_0_8aa246fa5f" x="265.733521" y="194.476415" style="fill: #f400ff; stroke: #000000"/>
    </g>
    <g clip-path="url(#p679cea35bc)">
     <use xlink:href="#C0_0_8aa246fa5f" x="114.670898" y="351.239995" style="fill: #f8fd00; stroke: #000000"/>
    </g>
    <g clip-path="url(#p679cea35bc)">
     <use xlink:href="#C0_0_8aa246fa5f" x="308.822195" y="185.085229" style="fill: #43ff00; stroke: #000000"/>
    </g>
    <g clip-path="url(#p679cea35bc)">
     <use xlink:href="#C0_0_8aa246fa5f" x="153.938915" y="330.347514" style="fill: #2500ff; stroke: #000000"/>
    </g>
    <g clip-path="url(#p679cea35bc)">
     <use xlink:href="#C0_0_8aa246fa5f" x="146.384876" y="277.490315" style="fill: #ff008e; stroke: #000000"/>
    </g>
    <g clip-path="url(#p679cea35bc)">
     <use xlink:href="#C0_0_8aa246fa5f" x="213.827725" y="196.486308" style="fill: #e800ff; stroke: #000000"/>
    </g>
    <g clip-path="url(#p679cea35bc)">
     <use xlink:href="#C0_0_8aa246fa5f" x="55.398774" y="125.612612" style="fill: #ff1800; stroke: #000000"/>
    </g>
    <g clip-path="url(#p679cea35bc)">
     <use xlink:href="#C0_0_8aa246fa5f" x="140.720431" y="308.790703" style="fill: #002dff; stroke: #000000"/>
    </g>
    <g clip-path="url(#p679cea35bc)">
     <use xlink:href="#C0_0_8aa246fa5f" x="275.266376" y="350.996086" style="fill: #0408ff; stroke: #000000"/>
    </g>
    <g clip-path="url(#p679cea35bc)">
     <use xlink:href="#C0_0_8aa246fa5f" x="206.932437" y="225.676381" style="fill: #fc00f5; stroke: #000000"/>
    </g>
    <g clip-path="url(#p679cea35bc)">
     <use xlink:href="#C0_0_8aa246fa5f" x="130.129344" y="257.944019" style="fill: #ff007c; stroke: #000000"/>
    </g>
    <g clip-path="url(#p679cea35bc)">
     <use xlink:href="#C0_0_8aa246fa5f" x="169.346126" y="255.089539" style="fill: #d7ff00; stroke: #000000"/>
    </g>
    <g clip-path="url(#p679cea35bc)">
     <use xlink:href="#C0_0_8aa246fa5f" x="85.254683" y="243.877121" style="fill: #ff0035; stroke: #000000"/>
    </g>
    <g clip-path="url(#p679cea35bc)">
     <use xlink:href="#C0_0_8aa246fa5f" x="200.471426" y="131.617436" style="fill: #00d9ff; stroke: #000000"/>
    </g>
   </g>
   <g id="matplotlib.axis_1">
    <g id="xtick_1">
     <g id="line2d_1">
      <path d="M 0 432 
L 0 0 
" clip-path="url(#p679cea35bc)" style="fill: none; stroke-dasharray: 1.85,0.8; stroke-dashoffset: 0; stroke: #808080; stroke-width: 0.5"/>
     </g>
     <g id="line2d_2">
      <defs>
       <path id="m4e0e385c3a" d="M 0 0 
L 0 3.5 
" style="stroke: #000000; stroke-width: 0.8"/>
      </defs>
      <g>
       <use xlink:href="#m4e0e385c3a" x="0" y="432" style="stroke: #000000; stroke-width: 0.8"/>
      </g>
     </g>
     <g id="text_1">
      <!-- −1.0 -->
      <g transform="translate(-12.141406 446.598437) scale(0.1 -0.1)">
       <defs>
        <path id="DejaVuSans-2212" d="M 678 2272 
L 4684 2272 
L 4684 1741 
L 678 1741 
L 678 2272 
z
" transform="scale(0.015625)"/>
        <path id="DejaVuSans-31" d="M 794 531 
L 1825 531 
L 1825 4091 
L 703 3866 
L 703 4441 
L 1819 4666 
L 2450 4666 
L 2450 531 
L 3481 531 
L 3481 0 
L 794 0 
L 794 531 
z
" transform="scale(0.015625)"/>
        <path id="DejaVuSans-2e" d="M 684 794 
L 1344 794 
L 1344 0 
L 684 0 
L 684 794 
z
" transform="scale(0.015625)"/>
        <path id="DejaVuSans-30" d="M 2034 4250 
Q 1547 4250 1301 3770 
Q 1056 3291 1056 2328 
Q 1056 1369 1301 889 
Q 1547 409 2034 409 
Q 2525 409 2770 889 
Q 3016 1369 3016 2328 
Q 3016 3291 2770 3770 
Q 2525 4250 2034 4250 
z
M 2034 4750 
Q 2819 4750 3233 4129 
Q 3647 3509 3647 2328 
Q 3647 1150 3233 529 
Q 2819 -91 2034 -91 
Q 1250 -91 836 529 
Q 422 1150 422 2328 
Q 422 3509 836 4129 
Q 1250 4750 2034 4750 
z
" transform="scale(0.015625)"/>
       </defs>
       <use xlink:href="#DejaVuSans-2212"/>
       <use xlink:href="#DejaVuSans-31" transform="translate(83.789062 0)"/>
       <use xlink:href="#DejaVuSans-2e" transform="translate(147.412109 0)"/>
       <use xlink:href="#DejaVuSans-30" transform="translate(179.199219 0)"/>
      </g>
     </g>
    </g>
    <g id="xtick_2">
     <g id="line2d_3">
      <path d="M 43.2 432 
L 43.2 0 
" clip-path="url(#p679cea35bc)" style="fill: none; stroke-dasharray: 1.85,0.8; stroke-dashoffset: 0; stroke: #808080; stroke-width: 0.5"/>
     </g>
     <g id="line2d_4">
      <g>
       <use xlink:href="#m4e0e385c3a" x="43.2" y="432" style="stroke: #000000; stroke-width: 0.8"/>
      </g>
     </g>
     <g id="text_2">
      <!-- −0.8 -->
      <g transform="translate(31.058594 446.598437) scale(0.1 -0.1)">
       <defs>
        <path id="DejaVuSans-38" d="M 2034 2216 
Q 1584 2216 1326 1975 
Q 1069 1734 1069 1313 
Q 1069 891 1326 650 
Q 1584 409 2034 409 
Q 2484 409 2743 651 
Q 3003 894 3003 1313 
Q 3003 1734 2745 1975 
Q 2488 2216 2034 2216 
z
M 1403 2484 
Q 997 2584 770 2862 
Q 544 3141 544 3541 
Q 544 4100 942 4425 
Q 1341 4750 2034 4750 
Q 2731 4750 3128 4425 
Q 3525 4100 3525 3541 
Q 3525 3141 3298 2862 
Q 3072 2584 2669 2484 
Q 3125 2378 3379 2068 
Q 3634 1759 3634 1313 
Q 3634 634 3220 271 
Q 2806 -91 2034 -91 
Q 1263 -91 848 271 
Q 434 634 434 1313 
Q 434 1759 690 2068 
Q 947 2378 1403 2484 
z
M 1172 3481 
Q 1172 3119 1398 2916 
Q 1625 2713 2034 2713 
Q 2441 2713 2670 2916 
Q 2900 3119 2900 3481 
Q 2900 3844 2670 4047 
Q 2441 4250 2034 4250 
Q 1625 4250 1398 4047 
Q 1172 3844 1172 3481 
z
" transform="scale(0.015625)"/>
       </defs>
       <use xlink:href="#DejaVuSans-2212"/>
       <use xlink:href="#DejaVuSans-30" transform="translate(83.789062 0)"/>
       <use xlink:href="#DejaVuSans-2e" transform="translate(147.412109 0)"/>
       <use xlink:href="#DejaVuSans-38" transform="translate(179.199219 0)"/>
      </g>
     </g>
    </g>
    <g id="xtick_3">
     <g id="line2d_5">
      <path d="M 86.4 432 
L 86.4 0 
" clip-path="url(#p679cea35bc)" style="fill: none; stroke-dasharray: 1.85,0.8; stroke-dashoffset: 0; stroke: #808080; stroke-width: 0.5"/>
     </g>
     <g id="line2d_6">
      <g>
       <use xlink:href="#m4e0e385c3a" x="86.4" y="432" style="stroke: #000000; stroke-width: 0.8"/>
      </g>
     </g>
     <g id="text_3">
      <!-- −0.6 -->
      <g transform="translate(74.258594 446.598437) scale(0.1 -0.1)">
       <defs>
        <path id="DejaVuSans-36" d="M 2113 2584 
Q 1688 2584 1439 2293 
Q 1191 2003 1191 1497 
Q 1191 994 1439 701 
Q 1688 409 2113 409 
Q 2538 409 2786 701 
Q 3034 994 3034 1497 
Q 3034 2003 2786 2293 
Q 2538 2584 2113 2584 
z
M 3366 4563 
L 3366 3988 
Q 3128 4100 2886 4159 
Q 2644 4219 2406 4219 
Q 1781 4219 1451 3797 
Q 1122 3375 1075 2522 
Q 1259 2794 1537 2939 
Q 1816 3084 2150 3084 
Q 2853 3084 3261 2657 
Q 3669 2231 3669 1497 
Q 3669 778 3244 343 
Q 2819 -91 2113 -91 
Q 1303 -91 875 529 
Q 447 1150 447 2328 
Q 447 3434 972 4092 
Q 1497 4750 2381 4750 
Q 2619 4750 2861 4703 
Q 3103 4656 3366 4563 
z
" transform="scale(0.015625)"/>
       </defs>
       <use xlink:href="#DejaVuSans-2212"/>
       <use xlink:href="#DejaVuSans-30" transform="translate(83.789062 0)"/>
       <use xlink:href="#DejaVuSans-2e" transform="translate(147.412109 0)"/>
       <use xlink:href="#DejaVuSans-36" transform="translate(179.199219 0)"/>
      </g>
     </g>
    </g>
    <g id="xtick_4">
     <g id="line2d_7">
      <path d="M 129.6 432 
L 129.6 0 
" clip-path="url(#p679cea35bc)" style="fill: none; stroke-dasharray: 1.85,0.8; stroke-dashoffset: 0; stroke: #808080; stroke-width: 0.5"/>
     </g>
     <g id="line2d_8">
      <g>
       <use xlink:href="#m4e0e385c3a" x="129.6" y="432" style="stroke: #000000; stroke-width: 0.8"/>
      </g>
     </g>
     <g id="text_4">
      <!-- −0.4 -->
      <g transform="translate(117.458594 446.598437) scale(0.1 -0.1)">
       <defs>
        <path id="DejaVuSans-34" d="M 2419 4116 
L 825 1625 
L 2419 1625 
L 2419 4116 
z
M 2253 4666 
L 3047 4666 
L 3047 1625 
L 3713 1625 
L 3713 1100 
L 3047 1100 
L 3047 0 
L 2419 0 
L 2419 1100 
L 313 1100 
L 313 1709 
L 2253 4666 
z
" transform="scale(0.015625)"/>
       </defs>
       <use xlink:href="#DejaVuSans-2212"/>
       <use xlink:href="#DejaVuSans-30" transform="translate(83.789062 0)"/>
       <use xlink:href="#DejaVuSans-2e" transform="translate(147.412109 0)"/>
       <use xlink:href="#DejaVuSans-34" transform="translate(179.199219 0)"/>
      </g>
     </g>
    </g>
    <g id="xtick_5">
     <g id="line2d_9">
      <path d="M 172.8 432 
L 172.8 0 
" clip-path="url(#p679cea35bc)" style="fill: none; stroke-dasharray: 1.85,0.8; stroke-dashoffset: 0; stroke: #808080; stroke-width: 0.5"/>
     </g>
     <g id="line2d_10">
      <g>
       <use xlink:href="#m4e0e385c3a" x="172.8" y="432" style="stroke: #000000; stroke-width: 0.8"/>
      </g>
     </g>
     <g id="text_5">
      <!-- −0.2 -->
      <g transform="translate(160.658594 446.598437) scale(0.1 -0.1)">
       <defs>
        <path id="DejaVuSans-32" d="M 1228 531 
L 3431 531 
L 3431 0 
L 469 0 
L 469 531 
Q 828 903 1448 1529 
Q 2069 2156 2228 2338 
Q 2531 2678 2651 2914 
Q 2772 3150 2772 3378 
Q 2772 3750 2511 3984 
Q 2250 4219 1831 4219 
Q 1534 4219 1204 4116 
Q 875 4013 500 3803 
L 500 4441 
Q 881 4594 1212 4672 
Q 1544 4750 1819 4750 
Q 2544 4750 2975 4387 
Q 3406 4025 3406 3419 
Q 3406 3131 3298 2873 
Q 3191 2616 2906 2266 
Q 2828 2175 2409 1742 
Q 1991 1309 1228 531 
z
" transform="scale(0.015625)"/>
       </defs>
       <use xlink:href="#DejaVuSans-2212"/>
       <use xlink:href="#DejaVuSans-30" transform="translate(83.789062 0)"/>
       <use xlink:href="#DejaVuSans-2e" transform="translate(147.412109 0)"/>
       <use xlink:href="#DejaVuSans-32" transform="translate(179.199219 0)"/>
      </g>
     </g>
    </g>
    <g id="xtick_6">
     <g id="line2d_11">
      <path d="M 216 432 
L 216 0 
" clip-path="url(#p679cea35bc)" style="fill: none; stroke-dasharray: 1.85,0.8; stroke-dashoffset: 0; stroke: #808080; stroke-width: 0.5"/>
     </g>
     <g id="line2d_12">
      <g>
       <use xlink:href="#m4e0e385c3a" x="216" y="432" style="stroke: #000000; stroke-width: 0.8"/>
      </g>
     </g>
     <g id="text_6">
      <!-- 0.0 -->
      <g transform="translate(208.048437 446.598437) scale(0.1 -0.1)">
       <use xlink:href="#DejaVuSans-30"/>
       <use xlink:href="#DejaVuSans-2e" transform="translate(63.623047 0)"/>
       <use xlink:href="#DejaVuSans-30" transform="translate(95.410156 0)"/>
      </g>
     </g>
    </g>
    <g id="xtick_7">
     <g id="line2d_13">
      <path d="M 259.2 432 
L 259.2 0 
" clip-path="url(#p679cea35bc)" style="fill: none; stroke-dasharray: 1.85,0.8; stroke-dashoffset: 0; stroke: #808080; stroke-width: 0.5"/>
     </g>
     <g id="line2d_14">
      <g>
       <use xlink:href="#m4e0e385c3a" x="259.2" y="432" style="stroke: #000000; stroke-width: 0.8"/>
      </g>
     </g>
     <g id="text_7">
      <!-- 0.2 -->
      <g transform="translate(251.248437 446.598437) scale(0.1 -0.1)">
       <use xlink:href="#DejaVuSans-30"/>
       <use xlink:href="#DejaVuSans-2e" transform="translate(63.623047 0)"/>
       <use xlink:href="#DejaVuSans-32" transform="translate(95.410156 0)"/>
      </g>
     </g>
    </g>
    <g id="xtick_8">
     <g id="line2d_15">
      <path d="M 302.4 432 
L 302.4 0 
" clip-path="url(#p679cea35bc)" style="fill: none; stroke-dasharray: 1.85,0.8; stroke-dashoffset: 0; stroke: #808080; stroke-width: 0.5"/>
     </g>
     <g id="line2d_16">
      <g>
       <use xlink:href="#m4e0e385c3a" x="302.4" y="432" style="stroke: #000000; stroke-width: 0.8"/>
      </g>
     </g>
     <g id="text_8">
      <!-- 0.4 -->
      <g transform="translate(294.448437 446.598437) scale(0.1 -0.1)">
       <use xlink:href="#DejaVuSans-30"/>
       <use xlink:href="#DejaVuSans-2e" transform="translate(63.623047 0)"/>
       <use xlink:href="#DejaVuSans-34" transform="translate(95.410156 0)"/>
      </g>
     </g>
    </g>
    <g id="xtick_9">
     <g id="line2d_17">
      <path d="M 345.6 432 
L 345.6 0 
" clip-path="url(#p679cea35bc)" style="fill: none; stroke-dasharray: 1.85,0.8; stroke-dashoffset: 0; stroke: #808080; stroke-width: 0.5"/>
     </g>
     <g id="line2d_18">
      <g>
       <use xlink:href="#m4e0e385c3a" x="345.6" y="432" style="stroke: #000000; stroke-width: 0.8"/>
      </g>
     </g>
     <g id="text_9">
      <!-- 0.6 -->
      <g transform="translate(337.648437 446.598437) scale(0.1 -0.1)">
       <use xlink:href="#DejaVuSans-30"/>
       <use xlink:href="#DejaVuSans-2e" transform="translate(63.623047 0)"/>
       <use xlink:href="#DejaVuSans-36" transform="translate(95.410156 0)"/>
      </g>
     </g>
    </g>
    <g id="xtick_10">
     <g id="line2d_19">
      <path d="M 388.8 432 
L 388.8 0 
" clip-path="url(#p679cea35bc)" style="fill: none; stroke-dasharray: 1.85,0.8; stroke-dashoffset: 0; stroke: #808080; stroke-width: 0.5"/>
     </g>
     <g id="line2d_20">
      <g>
       <use xlink:href="#m4e0e385c3a" x="388.8" y="432" style="stroke: #000000; stroke-width: 0.8"/>
      </g>
     </g>
     <g id="text_10">
      <!-- 0.8 -->
      <g transform="translate(380.848437 446.598437) scale(0.1 -0.1)">
       <use xlink:href="#DejaVuSans-30"/>
       <use xlink:href="#DejaVuSans-2e" transform="translate(63.623047 0)"/>
       <use xlink:href="#DejaVuSans-38" transform="translate(95.410156 0)"/>
      </g>
     </g>
    </g>
    <g id="xtick_11">
     <g id="line2d_21">
      <path d="M 432 432 
L 432 0 
" clip-path="url(#p679cea35bc)" style="fill: none; stroke-dasharray: 1.85,0.8; stroke-dashoffset: 0; stroke: #808080; stroke-width: 0.5"/>
     </g>
     <g id="line2d_22">
      <g>
       <use xlink:href="#m4e0e385c3a" x="432" y="432" style="stroke: #000000; stroke-width: 0.8"/>
      </g>
     </g>
     <g id="text_11">
      <!-- 1.0 -->
      <g transform="translate(424.048437 446.598437) scale(0.1 -0.1)">
       <use xlink:href="#DejaVuSans-31"/>
       <use xlink:href="#DejaVuSans-2e" transform="translate(63.623047 0)"/>
       <use xlink:href="#DejaVuSans-30" transform="translate(95.410156 0)"/>
      </g>
     </g>
    </g>
   </g>
   <g id="matplotlib.axis_2">
    <g id="ytick_1">
     <g id="line2d_23">
      <path d="M 0 432 
L 432 432 
" clip-path="url(#p679cea35bc)" style="fill: none; stroke-dasharray: 1.85,0.8; stroke-dashoffset: 0; stroke: #808080; stroke-width: 0.5"/>
     </g>
     <g id="line2d_24">
      <defs>
       <path id="m23a98f9cec" d="M 0 0 
L -3.5 0 
" style="stroke: #000000; stroke-width: 0.8"/>
      </defs>
      <g>
       <use xlink:href="#m23a98f9cec" x="0" y="432" style="stroke: #000000; stroke-width: 0.8"/>
      </g>
     </g>
     <g id="text_12">
      <!-- −1.0 -->
      <g transform="translate(-31.282813 435.799219) scale(0.1 -0.1)">
       <use xlink:href="#DejaVuSans-2212"/>
       <use xlink:href="#DejaVuSans-31" transform="translate(83.789062 0)"/>
       <use xlink:href="#DejaVuSans-2e" transform="translate(147.412109 0)"/>
       <use xlink:href="#DejaVuSans-30" transform="translate(179.199219 0)"/>
      </g>
     </g>
    </g>
    <g id="ytick_2">
     <g id="line2d_25">
      <path d="M 0 388.8 
L 432 388.8 
" clip-path="url(#p679cea35bc)" style="fill: none; stroke-dasharray: 1.85,0.8; stroke-dashoffset: 0; stroke: #808080; stroke-width: 0.5"/>
     </g>
     <g id="line2d_26">
      <g>
       <use xlink:href="#m23a98f9cec" x="0" y="388.8" style="stroke: #000000; stroke-width: 0.8"/>
      </g>
     </g>
     <g id="text_13">
      <!-- −0.8 -->
      <g transform="translate(-31.282813 392.599219) scale(0.1 -0.1)">
       <use xlink:href="#DejaVuSans-2212"/>
       <use xlink:href="#DejaVuSans-30" transform="translate(83.789062 0)"/>
       <use xlink:href="#DejaVuSans-2e" transform="translate(147.412109 0)"/>
       <use xlink:href="#DejaVuSans-38" transform="translate(179.199219 0)"/>
      </g>
     </g>
    </g>
    <g id="ytick_3">
     <g id="line2d_27">
      <path d="M 0 345.6 
L 432 345.6 
" clip-path="url(#p679cea35bc)" style="fill: none; stroke-dasharray: 1.85,0.8; stroke-dashoffset: 0; stroke: #808080; stroke-width: 0.5"/>
     </g>
     <g id="line2d_28">
      <g>
       <use xlink:href="#m23a98f9cec" x="0" y="345.6" style="stroke: #000000; stroke-width: 0.8"/>
      </g>
     </g>
     <g id="text_14">
      <!-- −0.6 -->
      <g transform="translate(-31.282813 349.399219) scale(0.1 -0.1)">
       <use xlink:href="#DejaVuSans-2212"/>
       <use xlink:href="#DejaVuSans-30" transform="translate(83.789062 0)"/>
       <use xlink:href="#DejaVuSans-2e" transform="translate(147.412109 0)"/>
       <use xlink:href="#DejaVuSans-36" transform="translate(179.199219 0)"/>
      </g>
     </g>
    </g>
    <g id="ytick_4">
     <g id="line2d_29">
      <path d="M 0 302.4 
L 432 302.4 
" clip-path="url(#p679cea35bc)" style="fill: none; stroke-dasharray: 1.85,0.8; stroke-dashoffset: 0; stroke: #808080; stroke-width: 0.5"/>
     </g>
     <g id="line2d_30">
      <g>
       <use xlink:href="#m23a98f9cec" x="0" y="302.4" style="stroke: #000000; stroke-width: 0.8"/>
      </g>
     </g>
     <g id="text_15">
      <!-- −0.4 -->
      <g transform="translate(-31.282813 306.199219) scale(0.1 -0.1)">
       <use xlink:href="#DejaVuSans-2212"/>
       <use xlink:href="#DejaVuSans-30" transform="translate(83.789062 0)"/>
       <use xlink:href="#DejaVuSans-2e" transform="translate(147.412109 0)"/>
       <use xlink:href="#DejaVuSans-34" transform="translate(179.199219 0)"/>
      </g>
     </g>
    </g>
    <g id="ytick_5">
     <g id="line2d_31">
      <path d="M 0 259.2 
L 432 259.2 
" clip-path="url(#p679cea35bc)" style="fill: none; stroke-dasharray: 1.85,0.8; stroke-dashoffset: 0; stroke: #808080; stroke-width: 0.5"/>
     </g>
     <g id="line2d_32">
      <g>
       <use xlink:href="#m23a98f9cec" x="0" y="259.2" style="stroke: #000000; stroke-width: 0.8"/>
      </g>
     </g>
     <g id="text_16">
      <!-- −0.2 -->
      <g transform="translate(-31.282813 262.999219) scale(0.1 -0.1)">
       <use xlink:href="#DejaVuSans-2212"/>
       <use xlink:href="#DejaVuSans-30" transform="translate(83.789062 0)"/>
       <use xlink:href="#DejaVuSans-2e" transform="translate(147.412109 0)"/>
       <use xlink:href="#DejaVuSans-32" transform="translate(179.199219 0)"/>
      </g>
     </g>
    </g>
    <g id="ytick_6">
     <g id="line2d_33">
      <path d="M 0 216 
L 432 216 
" clip-path="url(#p679cea35bc)" style="fill: none; stroke-dasharray: 1.85,0.8; stroke-dashoffset: 0; stroke: #808080; stroke-width: 0.5"/>
     </g>
     <g id="line2d_34">
      <g>
       <use xlink:href="#m23a98f9cec" x="0" y="216" style="stroke: #000000; stroke-width: 0.8"/>
      </g>
     </g>
     <g id="text_17">
      <!-- 0.0 -->
      <g transform="translate(-22.903125 219.799219) scale(0.1 -0.1)">
       <use xlink:href="#DejaVuSans-30"/>
       <use xlink:href="#DejaVuSans-2e" transform="translate(63.623047 0)"/>
       <use xlink:href="#DejaVuSans-30" transform="translate(95.410156 0)"/>
      </g>
     </g>
    </g>
    <g id="ytick_7">
     <g id="line2d_35">
      <path d="M 0 172.8 
L 432 172.8 
" clip-path="url(#p679cea35bc)" style="fill: none; stroke-dasharray: 1.85,0.8; stroke-dashoffset: 0; stroke: #808080; stroke-width: 0.5"/>
     </g>
     <g id="line2d_36">
      <g>
       <use xlink:href="#m23a98f9cec" x="0" y="172.8" style="stroke: #000000; stroke-width: 0.8"/>
      </g>
     </g>
     <g id="text_18">
      <!-- 0.2 -->
      <g transform="translate(-22.903125 176.599219) scale(0.1 -0.1)">
       <use xlink:href="#DejaVuSans-30"/>
       <use xlink:href="#DejaVuSans-2e" transform="translate(63.623047 0)"/>
       <use xlink:href="#DejaVuSans-32" transform="translate(95.410156 0)"/>
      </g>
     </g>
    </g>
    <g id="ytick_8">
     <g id="line2d_37">
      <path d="M 0 129.6 
L 432 129.6 
" clip-path="url(#p679cea35bc)" style="fill: none; stroke-dasharray: 1.85,0.8; stroke-dashoffset: 0; stroke: #808080; stroke-width: 0.5"/>
     </g>
     <g id="line2d_38">
      <g>
       <use xlink:href="#m23a98f9cec" x="0" y="129.6" style="stroke: #000000; stroke-width: 0.8"/>
      </g>
     </g>
     <g id="text_19">
      <!-- 0.4 -->
      <g transform="translate(-22.903125 133.399219) scale(0.1 -0.1)">
       <use xlink:href="#DejaVuSans-30"/>
       <use xlink:href="#DejaVuSans-2e" transform="translate(63.623047 0)"/>
       <use xlink:href="#DejaVuSans-34" transform="translate(95.410156 0)"/>
      </g>
     </g>
    </g>
    <g id="ytick_9">
     <g id="line2d_39">
      <path d="M 0 86.4 
L 432 86.4 
" clip-path="url(#p679cea35bc)" style="fill: none; stroke-dasharray: 1.85,0.8; stroke-dashoffset: 0; stroke: #808080; stroke-width: 0.5"/>
     </g>
     <g id="line2d_40">
      <g>
       <use xlink:href="#m23a98f9cec" x="0" y="86.4" style="stroke: #000000; stroke-width: 0.8"/>
      </g>
     </g>
     <g id="text_20">
      <!-- 0.6 -->
      <g transform="translate(-22.903125 90.199219) scale(0.1 -0.1)">
       <use xlink:href="#DejaVuSans-30"/>
       <use xlink:href="#DejaVuSans-2e" transform="translate(63.623047 0)"/>
       <use xlink:href="#DejaVuSans-36" transform="translate(95.410156 0)"/>
      </g>
     </g>
    </g>
    <g id="ytick_10">
     <g id="line2d_41">
      <path d="M 0 43.2 
L 432 43.2 
" clip-path="url(#p679cea35bc)" style="fill: none; stroke-dasharray: 1.85,0.8; stroke-dashoffset: 0; stroke: #808080; stroke-width: 0.5"/>
     </g>
     <g id="line2d_42">
      <g>
       <use xlink:href="#m23a98f9cec" x="0" y="43.2" style="stroke: #000000; stroke-width: 0.8"/>
      </g>
     </g>
     <g id="text_21">
      <!-- 0.8 -->
      <g transform="translate(-22.903125 46.999219) scale(0.1 -0.1)">
       <use xlink:href="#DejaVuSans-30"/>
       <use xlink:href="#DejaVuSans-2e" transform="translate(63.623047 0)"/>
       <use xlink:href="#DejaVuSans-38" transform="translate(95.410156 0)"/>
      </g>
     </g>
    </g>
    <g id="ytick_11">
     <g id="line2d_43">
      <path d="M 0 0 
L 432 0 
" clip-path="url(#p679cea35bc)" style="fill: none; stroke-dasharray: 1.85,0.8; stroke-dashoffset: 0; stroke: #808080; stroke-width: 0.5"/>
     </g>
     <g id="line2d_44">
      <g>
       <use xlink:href="#m23a98f9cec" x="0" y="0" style="stroke: #000000; stroke-width: 0.8"/>
      </g>
     </g>
     <g id="text_22">
      <!-- 1.0 -->
      <g transform="translate(-22.903125 3.799219) scale(0.1 -0.1)">
       <use xlink:href="#DejaVuSans-31"/>
       <use xlink:href="#DejaVuSans-2e" transform="translate(63.623047 0)"/>
       <use xlink:href="#DejaVuSans-30" transform="translate(95.410156 0)"/>
      </g>
     </g>
    </g>
   </g>
   <g id="patch_3">
    <path d="M 0 432 
L 0 0 
" style="fill: none; stroke: #000000; stroke-width: 0.8; stroke-linejoin: miter; stroke-linecap: square"/>
   </g>
   <g id="patch_4">
    <path d="M 432 432 
L 432 0 
" style="fill: none; stroke: #000000; stroke-width: 0.8; stroke-linejoin: miter; stroke-linecap: square"/>
   </g>
   <g id="patch_5">
    <path d="M 0 432 
L 432 432 
" style="fill: none; stroke: #000000; stroke-width: 0.8; stroke-linejoin: miter; stroke-linecap: square"/>
   </g>
   <g id="patch_6">
    <path d="M 0 0 
L 432 0 
" style="fill: none; stroke: #000000; stroke-width: 0.8; stroke-linejoin: miter; stroke-linecap: square"/>
   </g>
  </g>
 </g>
 <defs>
  <clipPath id="p679cea35bc">
   <rect x="0" y="0" width="432" height="432"/>
  </clipPath>
 </defs>
</svg>
