<?xml version="1.0" encoding="utf-8" standalone="no"?>
<!DOCTYPE svg PUBLIC "-//W3C//DTD SVG 1.1//EN"
  "http://www.w3.org/Graphics/SVG/1.1/DTD/svg11.dtd">
<svg xmlns:xlink="http://www.w3.org/1999/xlink" width="432pt" height="432pt" viewBox="0 0 432 432" xmlns="http://www.w3.org/2000/svg" version="1.1">
 <metadata>
  <rdf:RDF xmlns:dc="http://purl.org/dc/elements/1.1/" xmlns:cc="http://creativecommons.org/ns#" xmlns:rdf="http://www.w3.org/1999/02/22-rdf-syntax-ns#">
   <cc:Work>
    <dc:type rdf:resource="http://purl.org/dc/dcmitype/StillImage"/>
    <dc:date>2025-06-17T23:40:25.121430</dc:date>
    <dc:format>image/svg+xml</dc:format>
    <dc:creator>
     <cc:Agent>
      <dc:title>Matplotlib v3.10.1, https://matplotlib.org/</dc:title>
     </cc:Agent>
    </dc:creator>
   </cc:Work>
  </rdf:RDF>
 </metadata>
 <defs>
  <style type="text/css">*{stroke-linejoin: round; stroke-linecap: butt}</style>
 </defs>
 <g id="figure_1">
  <g id="patch_1">
   <path d="M 0 432 
L 432 432 
L 432 0 
L 0 0 
z
" style="fill: #ffffff"/>
  </g>
  <g id="axes_1">
   <g id="patch_2">
    <path d="M 0 432 
L 432 432 
L 432 0 
L 0 0 
z
" style="fill: #ffffff"/>
   </g>
   <g id="PathCollection_1">
    <defs>
     <path id="C0_0_c4c9d83c29" d="M 0 3.535534 
C 0.937635 3.535534 1.836992 3.163008 2.5 2.5 
C 3.163008 1.836992 3.535534 0.937635 3.535534 -0 
C 3.535534 -0.937635 3.163008 -1.836992 2.5 -2.5 
C 1.836992 -3.163008 0.937635 -3.535534 0 -3.535534 
C -0.937635 -3.535534 -1.836992 -3.163008 -2.5 -2.5 
C -3.163008 -1.836992 -3.535534 -0.937635 -3.535534 0 
C -3.535534 0.937635 -3.163008 1.836992 -2.5 2.5 
C -1.836992 3.163008 -0.937635 3.535534 0 3.535534 
z
"/>
    </defs>
    <g clip-path="url(#p6dbc8d522f)">
     <use xlink:href="#C0_0_c4c9d83c29" x="96.280249" y="129.674581" style="fill: #ff0000; stroke: #000000"/>
    </g>
    <g clip-path="url(#p6dbc8d522f)">
     <use xlink:href="#C0_0_c4c9d83c29" x="265.652771" y="194.493843" style="fill: #f400ff; stroke: #000000"/>
    </g>
    <g clip-path="url(#p6dbc8d522f)">
     <use xlink:href="#C0_0_c4c9d83c29" x="298.955137" y="161.396876" style="fill: #00ff2d; stroke: #000000"/>
    </g>
    <g clip-path="url(#p6dbc8d522f)">
     <use xlink:href="#C0_0_c4c9d83c29" x="158.576553" y="94.229273" style="fill: #ff5300; stroke: #000000"/>
    </g>
    <g clip-path="url(#p6dbc8d522f)">
     <use xlink:href="#C0_0_c4c9d83c29" x="243.265478" y="302.575707" style="fill: #e8ff00; stroke: #000000"/>
    </g>
    <g clip-path="url(#p6dbc8d522f)">
     <use xlink:href="#C0_0_c4c9d83c29" x="308.828381" y="185.080745" style="fill: #43ff00; stroke: #000000"/>
    </g>
    <g clip-path="url(#p6dbc8d522f)">
     <use xlink:href="#C0_0_c4c9d83c29" x="146.311517" y="277.455007" style="fill: #ff008e; stroke: #000000"/>
    </g>
    <g clip-path="url(#p6dbc8d522f)">
     <use xlink:href="#C0_0_c4c9d83c29" x="55.491536" y="125.650064" style="fill: #ff1800; stroke: #000000"/>
    </g>
    <g clip-path="url(#p6dbc8d522f)">
     <use xlink:href="#C0_0_c4c9d83c29" x="263.131061" y="244.466704" style="fill: #ff00bd; stroke: #000000"/>
    </g>
    <g clip-path="url(#p6dbc8d522f)">
     <use xlink:href="#C0_0_c4c9d83c29" x="336.282423" y="285.663011" style="fill: #7800ff; stroke: #000000"/>
    </g>
    <g clip-path="url(#p6dbc8d522f)">
     <use xlink:href="#C0_0_c4c9d83c29" x="260.048682" y="133.493343" style="fill: #00ff57; stroke: #000000"/>
    </g>
    <g clip-path="url(#p6dbc8d522f)">
     <use xlink:href="#C0_0_c4c9d83c29" x="232.447121" y="227.980044" style="fill: #ff00c9; stroke: #000000"/>
    </g>
    <g clip-path="url(#p6dbc8d522f)">
     <use xlink:href="#C0_0_c4c9d83c29" x="126.668606" y="227.978074" style="fill: #ff0047; stroke: #000000"/>
    </g>
    <g clip-path="url(#p6dbc8d522f)">
     <use xlink:href="#C0_0_c4c9d83c29" x="188.191777" y="299.580109" style="fill: #72ff00; stroke: #000000"/>
    </g>
    <g clip-path="url(#p6dbc8d522f)">
     <use xlink:href="#C0_0_c4c9d83c29" x="235.255609" y="251.256222" style="fill: #ff00e7; stroke: #000000"/>
    </g>
    <g clip-path="url(#p6dbc8d522f)">
     <use xlink:href="#C0_0_c4c9d83c29" x="180.892264" y="393.049716" style="fill: #ffd500; stroke: #000000"/>
    </g>
    <g clip-path="url(#p6dbc8d522f)">
     <use xlink:href="#C0_0_c4c9d83c29" x="236.042643" y="44.726449" style="fill: #00fff0; stroke: #000000"/>
    </g>
    <g clip-path="url(#p6dbc8d522f)">
     <use xlink:href="#C0_0_c4c9d83c29" x="266.760106" y="272.454891" style="fill: #9500ff; stroke: #000000"/>
    </g>
    <g clip-path="url(#p6dbc8d522f)">
     <use xlink:href="#C0_0_c4c9d83c29" x="191.066171" y="159.930556" style="fill: #0092ff; stroke: #000000"/>
    </g>
    <g clip-path="url(#p6dbc8d522f)">
     <use xlink:href="#C0_0_c4c9d83c29" x="384.466772" y="136.720124" style="fill: #00ff80; stroke: #000000"/>
    </g>
    <g clip-path="url(#p6dbc8d522f)">
     <use xlink:href="#C0_0_c4c9d83c29" x="347.621112" y="157.026386" style="fill: #00ff9d; stroke: #000000"/>
    </g>
    <g clip-path="url(#p6dbc8d522f)">
     <use xlink:href="#C0_0_c4c9d83c29" x="164.758773" y="60.179089" style="fill: #ff4100; stroke: #000000"/>
    </g>
    <g clip-path="url(#p6dbc8d522f)">
     <use xlink:href="#C0_0_c4c9d83c29" x="204.63416" y="78.759304" style="fill: #00ffc7; stroke: #000000"/>
    </g>
    <g clip-path="url(#p6dbc8d522f)">
     <use xlink:href="#C0_0_c4c9d83c29" x="256.175315" y="334.239017" style="fill: #0016ff; stroke: #000000"/>
    </g>
    <g clip-path="url(#p6dbc8d522f)">
     <use xlink:href="#C0_0_c4c9d83c29" x="109.289849" y="210.819494" style="fill: #ff0018; stroke: #000000"/>
    </g>
    <g clip-path="url(#p6dbc8d522f)">
     <use xlink:href="#C0_0_c4c9d83c29" x="80.070273" y="275.920979" style="fill: #ffc300; stroke: #000000"/>
    </g>
    <g clip-path="url(#p6dbc8d522f)">
     <use xlink:href="#C0_0_c4c9d83c29" x="299.289935" y="127.190658" style="fill: #00ffa9; stroke: #000000"/>
    </g>
    <g clip-path="url(#p6dbc8d522f)">
     <use xlink:href="#C0_0_c4c9d83c29" x="297.636636" y="310.793335" style="fill: #bf00ff; stroke: #000000"/>
    </g>
    <g clip-path="url(#p6dbc8d522f)">
     <use xlink:href="#C0_0_c4c9d83c29" x="139.442337" y="181.017357" style="fill: #004bff; stroke: #000000"/>
    </g>
    <g clip-path="url(#p6dbc8d522f)">
     <use xlink:href="#C0_0_c4c9d83c29" x="162.93141" y="227.505478" style="fill: #009eff; stroke: #000000"/>
    </g>
    <g clip-path="url(#p6dbc8d522f)">
     <use xlink:href="#C0_0_c4c9d83c29" x="305.425205" y="234.250175" style="fill: #0eff00; stroke: #000000"/>
    </g>
    <g clip-path="url(#p6dbc8d522f)">
     <use xlink:href="#C0_0_c4c9d83c29" x="392.606134" y="224.203611" style="fill: #4fff00; stroke: #000000"/>
    </g>
    <g clip-path="url(#p6dbc8d522f)">
     <use xlink:href="#C0_0_c4c9d83c29" x="94.772736" y="325.218028" style="fill: #ff9a00; stroke: #000000"/>
    </g>
    <g clip-path="url(#p6dbc8d522f)">
     <use xlink:href="#C0_0_c4c9d83c29" x="217.887772" y="302.41435" style="fill: #b9ff00; stroke: #000000"/>
    </g>
    <g clip-path="url(#p6dbc8d522f)">
     <use xlink:href="#C0_0_c4c9d83c29" x="110.695298" y="176.631987" style="fill: #00afff; stroke: #000000"/>
    </g>
    <g clip-path="url(#p6dbc8d522f)">
     <use xlink:href="#C0_0_c4c9d83c29" x="219.531757" y="367.636652" style="fill: #0022ff; stroke: #000000"/>
    </g>
    <g clip-path="url(#p6dbc8d522f)">
     <use xlink:href="#C0_0_c4c9d83c29" x="232.106769" y="282.097093" style="fill: #84ff00; stroke: #000000"/>
    </g>
    <g clip-path="url(#p6dbc8d522f)">
     <use xlink:href="#C0_0_c4c9d83c29" x="343.043096" y="191.603288" style="fill: #61ff00; stroke: #000000"/>
    </g>
    <g clip-path="url(#p6dbc8d522f)">
     <use xlink:href="#C0_0_c4c9d83c29" x="218.085142" y="168.501639" style="fill: #ff00ac; stroke: #000000"/>
    </g>
    <g clip-path="url(#p6dbc8d522f)">
     <use xlink:href="#C0_0_c4c9d83c29" x="269.574211" y="219.482748" style="fill: #ff00db; stroke: #000000"/>
    </g>
    <g clip-path="url(#p6dbc8d522f)">
     <use xlink:href="#C0_0_c4c9d83c29" x="85.299847" y="243.90297" style="fill: #ff0035; stroke: #000000"/>
    </g>
    <g clip-path="url(#p6dbc8d522f)">
     <use xlink:href="#C0_0_c4c9d83c29" x="271.133886" y="165.595037" style="fill: #00ff4b; stroke: #000000"/>
    </g>
    <g clip-path="url(#p6dbc8d522f)">
     <use xlink:href="#C0_0_c4c9d83c29" x="39.691076" y="171.521142" style="fill: #00ff74; stroke: #000000"/>
    </g>
    <g clip-path="url(#p6dbc8d522f)">
     <use xlink:href="#C0_0_c4c9d83c29" x="228.102686" y="403.99609" style="fill: #1300ff; stroke: #000000"/>
    </g>
    <g clip-path="url(#p6dbc8d522f)">
     <use xlink:href="#C0_0_c4c9d83c29" x="350.465047" y="307.988281" style="fill: #8400ff; stroke: #000000"/>
    </g>
    <g clip-path="url(#p6dbc8d522f)">
     <use xlink:href="#C0_0_c4c9d83c29" x="185.521308" y="203.034948" style="fill: #0069ff; stroke: #000000"/>
    </g>
    <g clip-path="url(#p6dbc8d522f)">
     <use xlink:href="#C0_0_c4c9d83c29" x="318.681514" y="373.14948" style="fill: #6c00ff; stroke: #000000"/>
    </g>
    <g clip-path="url(#p6dbc8d522f)">
     <use xlink:href="#C0_0_c4c9d83c29" x="301.300613" y="211.697221" style="fill: #00ff1b; stroke: #000000"/>
    </g>
    <g clip-path="url(#p6dbc8d522f)">
     <use xlink:href="#C0_0_c4c9d83c29" x="121.041671" y="61.440053" style="fill: #ff7c00; stroke: #000000"/>
    </g>
    <g clip-path="url(#p6dbc8d522f)">
     <use xlink:href="#C0_0_c4c9d83c29" x="327.266879" y="134.999846" style="fill: #00ff8c; stroke: #000000"/>
    </g>
    <g clip-path="url(#p6dbc8d522f)">
     <use xlink:href="#C0_0_c4c9d83c29" x="268.368846" y="383.134933" style="fill: #3100ff; stroke: #000000"/>
    </g>
    <g clip-path="url(#p6dbc8d522f)">
     <use xlink:href="#C0_0_c4c9d83c29" x="292.319882" y="263.378437" style="fill: #ad00ff; stroke: #000000"/>
    </g>
    <g clip-path="url(#p6dbc8d522f)">
     <use xlink:href="#C0_0_c4c9d83c29" x="300.403903" y="90.488827" style="fill: #00c7ff; stroke: #000000"/>
    </g>
    <g clip-path="url(#p6dbc8d522f)">
     <use xlink:href="#C0_0_c4c9d83c29" x="350.976478" y="246.572342" style="fill: #04ff08; stroke: #000000"/>
    </g>
    <g clip-path="url(#p6dbc8d522f)">
     <use xlink:href="#C0_0_c4c9d83c29" x="285.567829" y="41.246791" style="fill: #00ffb5; stroke: #000000"/>
    </g>
    <g clip-path="url(#p6dbc8d522f)">
     <use xlink:href="#C0_0_c4c9d83c29" x="191.53653" y="247.476493" style="fill: #96ff00; stroke: #000000"/>
    </g>
    <g clip-path="url(#p6dbc8d522f)">
     <use xlink:href="#C0_0_c4c9d83c29" x="176.82226" y="349.023645" style="fill: #3d00ff; stroke: #000000"/>
    </g>
    <g clip-path="url(#p6dbc8d522f)">
     <use xlink:href="#C0_0_c4c9d83c29" x="316.207176" y="269.507392" style="fill: #5a00ff; stroke: #000000"/>
    </g>
    <g clip-path="url(#p6dbc8d522f)">
     <use xlink:href="#C0_0_c4c9d83c29" x="309.385851" y="330.030773" style="fill: #cb00ff; stroke: #000000"/>
    </g>
    <g clip-path="url(#p6dbc8d522f)">
     <use xlink:href="#C0_0_c4c9d83c29" x="272.232289" y="296.854478" style="fill: #a100ff; stroke: #000000"/>
    </g>
    <g clip-path="url(#p6dbc8d522f)">
     <use xlink:href="#C0_0_c4c9d83c29" x="24.399369" y="217.758474" style="fill: #ffe600; stroke: #000000"/>
    </g>
    <g clip-path="url(#p6dbc8d522f)">
     <use xlink:href="#C0_0_c4c9d83c29" x="149.733735" y="208.491426" style="fill: #0074ff; stroke: #000000"/>
    </g>
    <g clip-path="url(#p6dbc8d522f)">
     <use xlink:href="#C0_0_c4c9d83c29" x="133.354072" y="113.743579" style="fill: #ff6a00; stroke: #000000"/>
    </g>
    <g clip-path="url(#p6dbc8d522f)">
     <use xlink:href="#C0_0_c4c9d83c29" x="209.567901" y="273.565119" style="fill: #a7ff00; stroke: #000000"/>
    </g>
    <g clip-path="url(#p6dbc8d522f)">
     <use xlink:href="#C0_0_c4c9d83c29" x="206.940515" y="225.622649" style="fill: #fc00f5; stroke: #000000"/>
    </g>
    <g clip-path="url(#p6dbc8d522f)">
     <use xlink:href="#C0_0_c4c9d83c29" x="382.402883" y="267.526177" style="fill: #25ff00; stroke: #000000"/>
    </g>
    <g clip-path="url(#p6dbc8d522f)">
     <use xlink:href="#C0_0_c4c9d83c29" x="133.463661" y="145.982597" style="fill: #0086ff; stroke: #000000"/>
    </g>
    <g clip-path="url(#p6dbc8d522f)">
     <use xlink:href="#C0_0_c4c9d83c29" x="140.683056" y="308.961723" style="fill: #002dff; stroke: #000000"/>
    </g>
    <g clip-path="url(#p6dbc8d522f)">
     <use xlink:href="#C0_0_c4c9d83c29" x="86.145721" y="204.074329" style="fill: #ff0024; stroke: #000000"/>
    </g>
    <g clip-path="url(#p6dbc8d522f)">
     <use xlink:href="#C0_0_c4c9d83c29" x="200.466067" y="131.624073" style="fill: #00d9ff; stroke: #000000"/>
    </g>
    <g clip-path="url(#p6dbc8d522f)">
     <use xlink:href="#C0_0_c4c9d83c29" x="275.525915" y="351.133368" style="fill: #0408ff; stroke: #000000"/>
    </g>
    <g clip-path="url(#p6dbc8d522f)">
     <use xlink:href="#C0_0_c4c9d83c29" x="83.267321" y="165.670565" style="fill: #003fff; stroke: #000000"/>
    </g>
    <g clip-path="url(#p6dbc8d522f)">
     <use xlink:href="#C0_0_c4c9d83c29" x="53.79971" y="306.195653" style="fill: #fef100; stroke: #000000"/>
    </g>
    <g clip-path="url(#p6dbc8d522f)">
     <use xlink:href="#C0_0_c4c9d83c29" x="258.525014" y="75.492077" style="fill: #00e5ff; stroke: #000000"/>
    </g>
    <g clip-path="url(#p6dbc8d522f)">
     <use xlink:href="#C0_0_c4c9d83c29" x="342.390688" y="221.520417" style="fill: #00ff10; stroke: #000000"/>
    </g>
    <g clip-path="url(#p6dbc8d522f)">
     <use xlink:href="#C0_0_c4c9d83c29" x="266.952775" y="106.654179" style="fill: #00fffc; stroke: #000000"/>
    </g>
    <g clip-path="url(#p6dbc8d522f)">
     <use xlink:href="#C0_0_c4c9d83c29" x="389.214269" y="311.973782" style="fill: #37ff00; stroke: #000000"/>
    </g>
    <g clip-path="url(#p6dbc8d522f)">
     <use xlink:href="#C0_0_c4c9d83c29" x="200.565967" y="325.572916" style="fill: #0800ff; stroke: #000000"/>
    </g>
    <g clip-path="url(#p6dbc8d522f)">
     <use xlink:href="#C0_0_c4c9d83c29" x="228.138076" y="95.456029" style="fill: #00f0ff; stroke: #000000"/>
    </g>
    <g clip-path="url(#p6dbc8d522f)">
     <use xlink:href="#C0_0_c4c9d83c29" x="169.329927" y="255.059531" style="fill: #d7ff00; stroke: #000000"/>
    </g>
    <g clip-path="url(#p6dbc8d522f)">
     <use xlink:href="#C0_0_c4c9d83c29" x="226.140993" y="333.622569" style="fill: #4f00ff; stroke: #000000"/>
    </g>
    <g clip-path="url(#p6dbc8d522f)">
     <use xlink:href="#C0_0_c4c9d83c29" x="107.086418" y="292.297435" style="fill: #ff8800; stroke: #000000"/>
    </g>
    <g clip-path="url(#p6dbc8d522f)">
     <use xlink:href="#C0_0_c4c9d83c29" x="384.101249" y="185.170063" style="fill: #1aff00; stroke: #000000"/>
    </g>
    <g clip-path="url(#p6dbc8d522f)">
     <use xlink:href="#C0_0_c4c9d83c29" x="40.60355" y="258.390603" style="fill: #ffa500; stroke: #000000"/>
    </g>
    <g clip-path="url(#p6dbc8d522f)">
     <use xlink:href="#C0_0_c4c9d83c29" x="213.798123" y="196.456967" style="fill: #e800ff; stroke: #000000"/>
    </g>
    <g clip-path="url(#p6dbc8d522f)">
     <use xlink:href="#C0_0_c4c9d83c29" x="63.695465" y="210.698379" style="fill: #ff0059; stroke: #000000"/>
    </g>
    <g clip-path="url(#p6dbc8d522f)">
     <use xlink:href="#C0_0_c4c9d83c29" x="181.133875" y="110.552422" style="fill: #ff0c00; stroke: #000000"/>
    </g>
    <g clip-path="url(#p6dbc8d522f)">
     <use xlink:href="#C0_0_c4c9d83c29" x="240.097253" y="195.548401" style="fill: #ff00a0; stroke: #000000"/>
    </g>
    <g clip-path="url(#p6dbc8d522f)">
     <use xlink:href="#C0_0_c4c9d83c29" x="162.173048" y="144.083972" style="fill: #00bbff; stroke: #000000"/>
    </g>
    <g clip-path="url(#p6dbc8d522f)">
     <use xlink:href="#C0_0_c4c9d83c29" x="194.729438" y="30.454179" style="fill: #ff5f00; stroke: #000000"/>
    </g>
    <g clip-path="url(#p6dbc8d522f)">
     <use xlink:href="#C0_0_c4c9d83c29" x="114.746002" y="351.207989" style="fill: #f8fd00; stroke: #000000"/>
    </g>
    <g clip-path="url(#p6dbc8d522f)">
     <use xlink:href="#C0_0_c4c9d83c29" x="328.54619" y="63.939052" style="fill: #00ffde; stroke: #000000"/>
    </g>
    <g clip-path="url(#p6dbc8d522f)">
     <use xlink:href="#C0_0_c4c9d83c29" x="169.268969" y="177.867784" style="fill: #0057ff; stroke: #000000"/>
    </g>
    <g clip-path="url(#p6dbc8d522f)">
     <use xlink:href="#C0_0_c4c9d83c29" x="153.858732" y="330.359191" style="fill: #2500ff; stroke: #000000"/>
    </g>
    <g clip-path="url(#p6dbc8d522f)">
     <use xlink:href="#C0_0_c4c9d83c29" x="175.338546" y="284.335362" style="fill: #cbff00; stroke: #000000"/>
    </g>
    <g clip-path="url(#p6dbc8d522f)">
     <use xlink:href="#C0_0_c4c9d83c29" x="130.123931" y="258.057306" style="fill: #ff007c; stroke: #000000"/>
    </g>
    <g clip-path="url(#p6dbc8d522f)">
     <use xlink:href="#C0_0_c4c9d83c29" x="334.688933" y="335.030265" style="fill: #d600ff; stroke: #000000"/>
    </g>
    <g clip-path="url(#p6dbc8d522f)">
     <use xlink:href="#C0_0_c4c9d83c29" x="139.782696" y="377.52185" style="fill: #ffb700; stroke: #000000"/>
    </g>
    <g clip-path="url(#p6dbc8d522f)">
     <use xlink:href="#C0_0_c4c9d83c29" x="348.926751" y="103.986227" style="fill: #00ff62; stroke: #000000"/>
    </g>
    <g clip-path="url(#p6dbc8d522f)">
     <use xlink:href="#C0_0_c4c9d83c29" x="243.29526" y="157.416912" style="fill: #00ff39; stroke: #000000"/>
    </g>
    <g clip-path="url(#p6dbc8d522f)">
     <use xlink:href="#C0_0_c4c9d83c29" x="226.841916" y="125.842224" style="fill: #00ffd3; stroke: #000000"/>
    </g>
   </g>
   <g id="matplotlib.axis_1">
    <g id="xtick_1">
     <g id="line2d_1">
      <path d="M 0 432 
L 0 0 
" clip-path="url(#p6dbc8d522f)" style="fill: none; stroke-dasharray: 1.85,0.8; stroke-dashoffset: 0; stroke: #808080; stroke-width: 0.5"/>
     </g>
     <g id="line2d_2">
      <defs>
       <path id="m0e023a3744" d="M 0 0 
L 0 3.5 
" style="stroke: #000000; stroke-width: 0.8"/>
      </defs>
      <g>
       <use xlink:href="#m0e023a3744" x="0" y="432" style="stroke: #000000; stroke-width: 0.8"/>
      </g>
     </g>
     <g id="text_1">
      <!-- −1.0 -->
      <g transform="translate(-12.141406 446.598437) scale(0.1 -0.1)">
       <defs>
        <path id="DejaVuSans-2212" d="M 678 2272 
L 4684 2272 
L 4684 1741 
L 678 1741 
L 678 2272 
z
" transform="scale(0.015625)"/>
        <path id="DejaVuSans-31" d="M 794 531 
L 1825 531 
L 1825 4091 
L 703 3866 
L 703 4441 
L 1819 4666 
L 2450 4666 
L 2450 531 
L 3481 531 
L 3481 0 
L 794 0 
L 794 531 
z
" transform="scale(0.015625)"/>
        <path id="DejaVuSans-2e" d="M 684 794 
L 1344 794 
L 1344 0 
L 684 0 
L 684 794 
z
" transform="scale(0.015625)"/>
        <path id="DejaVuSans-30" d="M 2034 4250 
Q 1547 4250 1301 3770 
Q 1056 3291 1056 2328 
Q 1056 1369 1301 889 
Q 1547 409 2034 409 
Q 2525 409 2770 889 
Q 3016 1369 3016 2328 
Q 3016 3291 2770 3770 
Q 2525 4250 2034 4250 
z
M 2034 4750 
Q 2819 4750 3233 4129 
Q 3647 3509 3647 2328 
Q 3647 1150 3233 529 
Q 2819 -91 2034 -91 
Q 1250 -91 836 529 
Q 422 1150 422 2328 
Q 422 3509 836 4129 
Q 1250 4750 2034 4750 
z
" transform="scale(0.015625)"/>
       </defs>
       <use xlink:href="#DejaVuSans-2212"/>
       <use xlink:href="#DejaVuSans-31" transform="translate(83.789062 0)"/>
       <use xlink:href="#DejaVuSans-2e" transform="translate(147.412109 0)"/>
       <use xlink:href="#DejaVuSans-30" transform="translate(179.199219 0)"/>
      </g>
     </g>
    </g>
    <g id="xtick_2">
     <g id="line2d_3">
      <path d="M 43.2 432 
L 43.2 0 
" clip-path="url(#p6dbc8d522f)" style="fill: none; stroke-dasharray: 1.85,0.8; stroke-dashoffset: 0; stroke: #808080; stroke-width: 0.5"/>
     </g>
     <g id="line2d_4">
      <g>
       <use xlink:href="#m0e023a3744" x="43.2" y="432" style="stroke: #000000; stroke-width: 0.8"/>
      </g>
     </g>
     <g id="text_2">
      <!-- −0.8 -->
      <g transform="translate(31.058594 446.598437) scale(0.1 -0.1)">
       <defs>
        <path id="DejaVuSans-38" d="M 2034 2216 
Q 1584 2216 1326 1975 
Q 1069 1734 1069 1313 
Q 1069 891 1326 650 
Q 1584 409 2034 409 
Q 2484 409 2743 651 
Q 3003 894 3003 1313 
Q 3003 1734 2745 1975 
Q 2488 2216 2034 2216 
z
M 1403 2484 
Q 997 2584 770 2862 
Q 544 3141 544 3541 
Q 544 4100 942 4425 
Q 1341 4750 2034 4750 
Q 2731 4750 3128 4425 
Q 3525 4100 3525 3541 
Q 3525 3141 3298 2862 
Q 3072 2584 2669 2484 
Q 3125 2378 3379 2068 
Q 3634 1759 3634 1313 
Q 3634 634 3220 271 
Q 2806 -91 2034 -91 
Q 1263 -91 848 271 
Q 434 634 434 1313 
Q 434 1759 690 2068 
Q 947 2378 1403 2484 
z
M 1172 3481 
Q 1172 3119 1398 2916 
Q 1625 2713 2034 2713 
Q 2441 2713 2670 2916 
Q 2900 3119 2900 3481 
Q 2900 3844 2670 4047 
Q 2441 4250 2034 4250 
Q 1625 4250 1398 4047 
Q 1172 3844 1172 3481 
z
" transform="scale(0.015625)"/>
       </defs>
       <use xlink:href="#DejaVuSans-2212"/>
       <use xlink:href="#DejaVuSans-30" transform="translate(83.789062 0)"/>
       <use xlink:href="#DejaVuSans-2e" transform="translate(147.412109 0)"/>
       <use xlink:href="#DejaVuSans-38" transform="translate(179.199219 0)"/>
      </g>
     </g>
    </g>
    <g id="xtick_3">
     <g id="line2d_5">
      <path d="M 86.4 432 
L 86.4 0 
" clip-path="url(#p6dbc8d522f)" style="fill: none; stroke-dasharray: 1.85,0.8; stroke-dashoffset: 0; stroke: #808080; stroke-width: 0.5"/>
     </g>
     <g id="line2d_6">
      <g>
       <use xlink:href="#m0e023a3744" x="86.4" y="432" style="stroke: #000000; stroke-width: 0.8"/>
      </g>
     </g>
     <g id="text_3">
      <!-- −0.6 -->
      <g transform="translate(74.258594 446.598437) scale(0.1 -0.1)">
       <defs>
        <path id="DejaVuSans-36" d="M 2113 2584 
Q 1688 2584 1439 2293 
Q 1191 2003 1191 1497 
Q 1191 994 1439 701 
Q 1688 409 2113 409 
Q 2538 409 2786 701 
Q 3034 994 3034 1497 
Q 3034 2003 2786 2293 
Q 2538 2584 2113 2584 
z
M 3366 4563 
L 3366 3988 
Q 3128 4100 2886 4159 
Q 2644 4219 2406 4219 
Q 1781 4219 1451 3797 
Q 1122 3375 1075 2522 
Q 1259 2794 1537 2939 
Q 1816 3084 2150 3084 
Q 2853 3084 3261 2657 
Q 3669 2231 3669 1497 
Q 3669 778 3244 343 
Q 2819 -91 2113 -91 
Q 1303 -91 875 529 
Q 447 1150 447 2328 
Q 447 3434 972 4092 
Q 1497 4750 2381 4750 
Q 2619 4750 2861 4703 
Q 3103 4656 3366 4563 
z
" transform="scale(0.015625)"/>
       </defs>
       <use xlink:href="#DejaVuSans-2212"/>
       <use xlink:href="#DejaVuSans-30" transform="translate(83.789062 0)"/>
       <use xlink:href="#DejaVuSans-2e" transform="translate(147.412109 0)"/>
       <use xlink:href="#DejaVuSans-36" transform="translate(179.199219 0)"/>
      </g>
     </g>
    </g>
    <g id="xtick_4">
     <g id="line2d_7">
      <path d="M 129.6 432 
L 129.6 0 
" clip-path="url(#p6dbc8d522f)" style="fill: none; stroke-dasharray: 1.85,0.8; stroke-dashoffset: 0; stroke: #808080; stroke-width: 0.5"/>
     </g>
     <g id="line2d_8">
      <g>
       <use xlink:href="#m0e023a3744" x="129.6" y="432" style="stroke: #000000; stroke-width: 0.8"/>
      </g>
     </g>
     <g id="text_4">
      <!-- −0.4 -->
      <g transform="translate(117.458594 446.598437) scale(0.1 -0.1)">
       <defs>
        <path id="DejaVuSans-34" d="M 2419 4116 
L 825 1625 
L 2419 1625 
L 2419 4116 
z
M 2253 4666 
L 3047 4666 
L 3047 1625 
L 3713 1625 
L 3713 1100 
L 3047 1100 
L 3047 0 
L 2419 0 
L 2419 1100 
L 313 1100 
L 313 1709 
L 2253 4666 
z
" transform="scale(0.015625)"/>
       </defs>
       <use xlink:href="#DejaVuSans-2212"/>
       <use xlink:href="#DejaVuSans-30" transform="translate(83.789062 0)"/>
       <use xlink:href="#DejaVuSans-2e" transform="translate(147.412109 0)"/>
       <use xlink:href="#DejaVuSans-34" transform="translate(179.199219 0)"/>
      </g>
     </g>
    </g>
    <g id="xtick_5">
     <g id="line2d_9">
      <path d="M 172.8 432 
L 172.8 0 
" clip-path="url(#p6dbc8d522f)" style="fill: none; stroke-dasharray: 1.85,0.8; stroke-dashoffset: 0; stroke: #808080; stroke-width: 0.5"/>
     </g>
     <g id="line2d_10">
      <g>
       <use xlink:href="#m0e023a3744" x="172.8" y="432" style="stroke: #000000; stroke-width: 0.8"/>
      </g>
     </g>
     <g id="text_5">
      <!-- −0.2 -->
      <g transform="translate(160.658594 446.598437) scale(0.1 -0.1)">
       <defs>
        <path id="DejaVuSans-32" d="M 1228 531 
L 3431 531 
L 3431 0 
L 469 0 
L 469 531 
Q 828 903 1448 1529 
Q 2069 2156 2228 2338 
Q 2531 2678 2651 2914 
Q 2772 3150 2772 3378 
Q 2772 3750 2511 3984 
Q 2250 4219 1831 4219 
Q 1534 4219 1204 4116 
Q 875 4013 500 3803 
L 500 4441 
Q 881 4594 1212 4672 
Q 1544 4750 1819 4750 
Q 2544 4750 2975 4387 
Q 3406 4025 3406 3419 
Q 3406 3131 3298 2873 
Q 3191 2616 2906 2266 
Q 2828 2175 2409 1742 
Q 1991 1309 1228 531 
z
" transform="scale(0.015625)"/>
       </defs>
       <use xlink:href="#DejaVuSans-2212"/>
       <use xlink:href="#DejaVuSans-30" transform="translate(83.789062 0)"/>
       <use xlink:href="#DejaVuSans-2e" transform="translate(147.412109 0)"/>
       <use xlink:href="#DejaVuSans-32" transform="translate(179.199219 0)"/>
      </g>
     </g>
    </g>
    <g id="xtick_6">
     <g id="line2d_11">
      <path d="M 216 432 
L 216 0 
" clip-path="url(#p6dbc8d522f)" style="fill: none; stroke-dasharray: 1.85,0.8; stroke-dashoffset: 0; stroke: #808080; stroke-width: 0.5"/>
     </g>
     <g id="line2d_12">
      <g>
       <use xlink:href="#m0e023a3744" x="216" y="432" style="stroke: #000000; stroke-width: 0.8"/>
      </g>
     </g>
     <g id="text_6">
      <!-- 0.0 -->
      <g transform="translate(208.048437 446.598437) scale(0.1 -0.1)">
       <use xlink:href="#DejaVuSans-30"/>
       <use xlink:href="#DejaVuSans-2e" transform="translate(63.623047 0)"/>
       <use xlink:href="#DejaVuSans-30" transform="translate(95.410156 0)"/>
      </g>
     </g>
    </g>
    <g id="xtick_7">
     <g id="line2d_13">
      <path d="M 259.2 432 
L 259.2 0 
" clip-path="url(#p6dbc8d522f)" style="fill: none; stroke-dasharray: 1.85,0.8; stroke-dashoffset: 0; stroke: #808080; stroke-width: 0.5"/>
     </g>
     <g id="line2d_14">
      <g>
       <use xlink:href="#m0e023a3744" x="259.2" y="432" style="stroke: #000000; stroke-width: 0.8"/>
      </g>
     </g>
     <g id="text_7">
      <!-- 0.2 -->
      <g transform="translate(251.248437 446.598437) scale(0.1 -0.1)">
       <use xlink:href="#DejaVuSans-30"/>
       <use xlink:href="#DejaVuSans-2e" transform="translate(63.623047 0)"/>
       <use xlink:href="#DejaVuSans-32" transform="translate(95.410156 0)"/>
      </g>
     </g>
    </g>
    <g id="xtick_8">
     <g id="line2d_15">
      <path d="M 302.4 432 
L 302.4 0 
" clip-path="url(#p6dbc8d522f)" style="fill: none; stroke-dasharray: 1.85,0.8; stroke-dashoffset: 0; stroke: #808080; stroke-width: 0.5"/>
     </g>
     <g id="line2d_16">
      <g>
       <use xlink:href="#m0e023a3744" x="302.4" y="432" style="stroke: #000000; stroke-width: 0.8"/>
      </g>
     </g>
     <g id="text_8">
      <!-- 0.4 -->
      <g transform="translate(294.448437 446.598437) scale(0.1 -0.1)">
       <use xlink:href="#DejaVuSans-30"/>
       <use xlink:href="#DejaVuSans-2e" transform="translate(63.623047 0)"/>
       <use xlink:href="#DejaVuSans-34" transform="translate(95.410156 0)"/>
      </g>
     </g>
    </g>
    <g id="xtick_9">
     <g id="line2d_17">
      <path d="M 345.6 432 
L 345.6 0 
" clip-path="url(#p6dbc8d522f)" style="fill: none; stroke-dasharray: 1.85,0.8; stroke-dashoffset: 0; stroke: #808080; stroke-width: 0.5"/>
     </g>
     <g id="line2d_18">
      <g>
       <use xlink:href="#m0e023a3744" x="345.6" y="432" style="stroke: #000000; stroke-width: 0.8"/>
      </g>
     </g>
     <g id="text_9">
      <!-- 0.6 -->
      <g transform="translate(337.648437 446.598437) scale(0.1 -0.1)">
       <use xlink:href="#DejaVuSans-30"/>
       <use xlink:href="#DejaVuSans-2e" transform="translate(63.623047 0)"/>
       <use xlink:href="#DejaVuSans-36" transform="translate(95.410156 0)"/>
      </g>
     </g>
    </g>
    <g id="xtick_10">
     <g id="line2d_19">
      <path d="M 388.8 432 
L 388.8 0 
" clip-path="url(#p6dbc8d522f)" style="fill: none; stroke-dasharray: 1.85,0.8; stroke-dashoffset: 0; stroke: #808080; stroke-width: 0.5"/>
     </g>
     <g id="line2d_20">
      <g>
       <use xlink:href="#m0e023a3744" x="388.8" y="432" style="stroke: #000000; stroke-width: 0.8"/>
      </g>
     </g>
     <g id="text_10">
      <!-- 0.8 -->
      <g transform="translate(380.848437 446.598437) scale(0.1 -0.1)">
       <use xlink:href="#DejaVuSans-30"/>
       <use xlink:href="#DejaVuSans-2e" transform="translate(63.623047 0)"/>
       <use xlink:href="#DejaVuSans-38" transform="translate(95.410156 0)"/>
      </g>
     </g>
    </g>
    <g id="xtick_11">
     <g id="line2d_21">
      <path d="M 432 432 
L 432 0 
" clip-path="url(#p6dbc8d522f)" style="fill: none; stroke-dasharray: 1.85,0.8; stroke-dashoffset: 0; stroke: #808080; stroke-width: 0.5"/>
     </g>
     <g id="line2d_22">
      <g>
       <use xlink:href="#m0e023a3744" x="432" y="432" style="stroke: #000000; stroke-width: 0.8"/>
      </g>
     </g>
     <g id="text_11">
      <!-- 1.0 -->
      <g transform="translate(424.048437 446.598437) scale(0.1 -0.1)">
       <use xlink:href="#DejaVuSans-31"/>
       <use xlink:href="#DejaVuSans-2e" transform="translate(63.623047 0)"/>
       <use xlink:href="#DejaVuSans-30" transform="translate(95.410156 0)"/>
      </g>
     </g>
    </g>
   </g>
   <g id="matplotlib.axis_2">
    <g id="ytick_1">
     <g id="line2d_23">
      <path d="M 0 432 
L 432 432 
" clip-path="url(#p6dbc8d522f)" style="fill: none; stroke-dasharray: 1.85,0.8; stroke-dashoffset: 0; stroke: #808080; stroke-width: 0.5"/>
     </g>
     <g id="line2d_24">
      <defs>
       <path id="mabb40cf949" d="M 0 0 
L -3.5 0 
" style="stroke: #000000; stroke-width: 0.8"/>
      </defs>
      <g>
       <use xlink:href="#mabb40cf949" x="0" y="432" style="stroke: #000000; stroke-width: 0.8"/>
      </g>
     </g>
     <g id="text_12">
      <!-- −1.0 -->
      <g transform="translate(-31.282813 435.799219) scale(0.1 -0.1)">
       <use xlink:href="#DejaVuSans-2212"/>
       <use xlink:href="#DejaVuSans-31" transform="translate(83.789062 0)"/>
       <use xlink:href="#DejaVuSans-2e" transform="translate(147.412109 0)"/>
       <use xlink:href="#DejaVuSans-30" transform="translate(179.199219 0)"/>
      </g>
     </g>
    </g>
    <g id="ytick_2">
     <g id="line2d_25">
      <path d="M 0 388.8 
L 432 388.8 
" clip-path="url(#p6dbc8d522f)" style="fill: none; stroke-dasharray: 1.85,0.8; stroke-dashoffset: 0; stroke: #808080; stroke-width: 0.5"/>
     </g>
     <g id="line2d_26">
      <g>
       <use xlink:href="#mabb40cf949" x="0" y="388.8" style="stroke: #000000; stroke-width: 0.8"/>
      </g>
     </g>
     <g id="text_13">
      <!-- −0.8 -->
      <g transform="translate(-31.282813 392.599219) scale(0.1 -0.1)">
       <use xlink:href="#DejaVuSans-2212"/>
       <use xlink:href="#DejaVuSans-30" transform="translate(83.789062 0)"/>
       <use xlink:href="#DejaVuSans-2e" transform="translate(147.412109 0)"/>
       <use xlink:href="#DejaVuSans-38" transform="translate(179.199219 0)"/>
      </g>
     </g>
    </g>
    <g id="ytick_3">
     <g id="line2d_27">
      <path d="M 0 345.6 
L 432 345.6 
" clip-path="url(#p6dbc8d522f)" style="fill: none; stroke-dasharray: 1.85,0.8; stroke-dashoffset: 0; stroke: #808080; stroke-width: 0.5"/>
     </g>
     <g id="line2d_28">
      <g>
       <use xlink:href="#mabb40cf949" x="0" y="345.6" style="stroke: #000000; stroke-width: 0.8"/>
      </g>
     </g>
     <g id="text_14">
      <!-- −0.6 -->
      <g transform="translate(-31.282813 349.399219) scale(0.1 -0.1)">
       <use xlink:href="#DejaVuSans-2212"/>
       <use xlink:href="#DejaVuSans-30" transform="translate(83.789062 0)"/>
       <use xlink:href="#DejaVuSans-2e" transform="translate(147.412109 0)"/>
       <use xlink:href="#DejaVuSans-36" transform="translate(179.199219 0)"/>
      </g>
     </g>
    </g>
    <g id="ytick_4">
     <g id="line2d_29">
      <path d="M 0 302.4 
L 432 302.4 
" clip-path="url(#p6dbc8d522f)" style="fill: none; stroke-dasharray: 1.85,0.8; stroke-dashoffset: 0; stroke: #808080; stroke-width: 0.5"/>
     </g>
     <g id="line2d_30">
      <g>
       <use xlink:href="#mabb40cf949" x="0" y="302.4" style="stroke: #000000; stroke-width: 0.8"/>
      </g>
     </g>
     <g id="text_15">
      <!-- −0.4 -->
      <g transform="translate(-31.282813 306.199219) scale(0.1 -0.1)">
       <use xlink:href="#DejaVuSans-2212"/>
       <use xlink:href="#DejaVuSans-30" transform="translate(83.789062 0)"/>
       <use xlink:href="#DejaVuSans-2e" transform="translate(147.412109 0)"/>
       <use xlink:href="#DejaVuSans-34" transform="translate(179.199219 0)"/>
      </g>
     </g>
    </g>
    <g id="ytick_5">
     <g id="line2d_31">
      <path d="M 0 259.2 
L 432 259.2 
" clip-path="url(#p6dbc8d522f)" style="fill: none; stroke-dasharray: 1.85,0.8; stroke-dashoffset: 0; stroke: #808080; stroke-width: 0.5"/>
     </g>
     <g id="line2d_32">
      <g>
       <use xlink:href="#mabb40cf949" x="0" y="259.2" style="stroke: #000000; stroke-width: 0.8"/>
      </g>
     </g>
     <g id="text_16">
      <!-- −0.2 -->
      <g transform="translate(-31.282813 262.999219) scale(0.1 -0.1)">
       <use xlink:href="#DejaVuSans-2212"/>
       <use xlink:href="#DejaVuSans-30" transform="translate(83.789062 0)"/>
       <use xlink:href="#DejaVuSans-2e" transform="translate(147.412109 0)"/>
       <use xlink:href="#DejaVuSans-32" transform="translate(179.199219 0)"/>
      </g>
     </g>
    </g>
    <g id="ytick_6">
     <g id="line2d_33">
      <path d="M 0 216 
L 432 216 
" clip-path="url(#p6dbc8d522f)" style="fill: none; stroke-dasharray: 1.85,0.8; stroke-dashoffset: 0; stroke: #808080; stroke-width: 0.5"/>
     </g>
     <g id="line2d_34">
      <g>
       <use xlink:href="#mabb40cf949" x="0" y="216" style="stroke: #000000; stroke-width: 0.8"/>
      </g>
     </g>
     <g id="text_17">
      <!-- 0.0 -->
      <g transform="translate(-22.903125 219.799219) scale(0.1 -0.1)">
       <use xlink:href="#DejaVuSans-30"/>
       <use xlink:href="#DejaVuSans-2e" transform="translate(63.623047 0)"/>
       <use xlink:href="#DejaVuSans-30" transform="translate(95.410156 0)"/>
      </g>
     </g>
    </g>
    <g id="ytick_7">
     <g id="line2d_35">
      <path d="M 0 172.8 
L 432 172.8 
" clip-path="url(#p6dbc8d522f)" style="fill: none; stroke-dasharray: 1.85,0.8; stroke-dashoffset: 0; stroke: #808080; stroke-width: 0.5"/>
     </g>
     <g id="line2d_36">
      <g>
       <use xlink:href="#mabb40cf949" x="0" y="172.8" style="stroke: #000000; stroke-width: 0.8"/>
      </g>
     </g>
     <g id="text_18">
      <!-- 0.2 -->
      <g transform="translate(-22.903125 176.599219) scale(0.1 -0.1)">
       <use xlink:href="#DejaVuSans-30"/>
       <use xlink:href="#DejaVuSans-2e" transform="translate(63.623047 0)"/>
       <use xlink:href="#DejaVuSans-32" transform="translate(95.410156 0)"/>
      </g>
     </g>
    </g>
    <g id="ytick_8">
     <g id="line2d_37">
      <path d="M 0 129.6 
L 432 129.6 
" clip-path="url(#p6dbc8d522f)" style="fill: none; stroke-dasharray: 1.85,0.8; stroke-dashoffset: 0; stroke: #808080; stroke-width: 0.5"/>
     </g>
     <g id="line2d_38">
      <g>
       <use xlink:href="#mabb40cf949" x="0" y="129.6" style="stroke: #000000; stroke-width: 0.8"/>
      </g>
     </g>
     <g id="text_19">
      <!-- 0.4 -->
      <g transform="translate(-22.903125 133.399219) scale(0.1 -0.1)">
       <use xlink:href="#DejaVuSans-30"/>
       <use xlink:href="#DejaVuSans-2e" transform="translate(63.623047 0)"/>
       <use xlink:href="#DejaVuSans-34" transform="translate(95.410156 0)"/>
      </g>
     </g>
    </g>
    <g id="ytick_9">
     <g id="line2d_39">
      <path d="M 0 86.4 
L 432 86.4 
" clip-path="url(#p6dbc8d522f)" style="fill: none; stroke-dasharray: 1.85,0.8; stroke-dashoffset: 0; stroke: #808080; stroke-width: 0.5"/>
     </g>
     <g id="line2d_40">
      <g>
       <use xlink:href="#mabb40cf949" x="0" y="86.4" style="stroke: #000000; stroke-width: 0.8"/>
      </g>
     </g>
     <g id="text_20">
      <!-- 0.6 -->
      <g transform="translate(-22.903125 90.199219) scale(0.1 -0.1)">
       <use xlink:href="#DejaVuSans-30"/>
       <use xlink:href="#DejaVuSans-2e" transform="translate(63.623047 0)"/>
       <use xlink:href="#DejaVuSans-36" transform="translate(95.410156 0)"/>
      </g>
     </g>
    </g>
    <g id="ytick_10">
     <g id="line2d_41">
      <path d="M 0 43.2 
L 432 43.2 
" clip-path="url(#p6dbc8d522f)" style="fill: none; stroke-dasharray: 1.85,0.8; stroke-dashoffset: 0; stroke: #808080; stroke-width: 0.5"/>
     </g>
     <g id="line2d_42">
      <g>
       <use xlink:href="#mabb40cf949" x="0" y="43.2" style="stroke: #000000; stroke-width: 0.8"/>
      </g>
     </g>
     <g id="text_21">
      <!-- 0.8 -->
      <g transform="translate(-22.903125 46.999219) scale(0.1 -0.1)">
       <use xlink:href="#DejaVuSans-30"/>
       <use xlink:href="#DejaVuSans-2e" transform="translate(63.623047 0)"/>
       <use xlink:href="#DejaVuSans-38" transform="translate(95.410156 0)"/>
      </g>
     </g>
    </g>
    <g id="ytick_11">
     <g id="line2d_43">
      <path d="M 0 0 
L 432 0 
" clip-path="url(#p6dbc8d522f)" style="fill: none; stroke-dasharray: 1.85,0.8; stroke-dashoffset: 0; stroke: #808080; stroke-width: 0.5"/>
     </g>
     <g id="line2d_44">
      <g>
       <use xlink:href="#mabb40cf949" x="0" y="0" style="stroke: #000000; stroke-width: 0.8"/>
      </g>
     </g>
     <g id="text_22">
      <!-- 1.0 -->
      <g transform="translate(-22.903125 3.799219) scale(0.1 -0.1)">
       <use xlink:href="#DejaVuSans-31"/>
       <use xlink:href="#DejaVuSans-2e" transform="translate(63.623047 0)"/>
       <use xlink:href="#DejaVuSans-30" transform="translate(95.410156 0)"/>
      </g>
     </g>
    </g>
   </g>
   <g id="patch_3">
    <path d="M 0 432 
L 0 0 
" style="fill: none; stroke: #000000; stroke-width: 0.8; stroke-linejoin: miter; stroke-linecap: square"/>
   </g>
   <g id="patch_4">
    <path d="M 432 432 
L 432 0 
" style="fill: none; stroke: #000000; stroke-width: 0.8; stroke-linejoin: miter; stroke-linecap: square"/>
   </g>
   <g id="patch_5">
    <path d="M 0 432 
L 432 432 
" style="fill: none; stroke: #000000; stroke-width: 0.8; stroke-linejoin: miter; stroke-linecap: square"/>
   </g>
   <g id="patch_6">
    <path d="M 0 0 
L 432 0 
" style="fill: none; stroke: #000000; stroke-width: 0.8; stroke-linejoin: miter; stroke-linecap: square"/>
   </g>
  </g>
 </g>
 <defs>
  <clipPath id="p6dbc8d522f">
   <rect x="0" y="0" width="432" height="432"/>
  </clipPath>
 </defs>
</svg>
