<?xml version="1.0" encoding="utf-8" standalone="no"?>
<!DOCTYPE svg PUBLIC "-//W3C//DTD SVG 1.1//EN"
  "http://www.w3.org/Graphics/SVG/1.1/DTD/svg11.dtd">
<svg xmlns:xlink="http://www.w3.org/1999/xlink" width="432pt" height="432pt" viewBox="0 0 432 432" xmlns="http://www.w3.org/2000/svg" version="1.1">
 <metadata>
  <rdf:RDF xmlns:dc="http://purl.org/dc/elements/1.1/" xmlns:cc="http://creativecommons.org/ns#" xmlns:rdf="http://www.w3.org/1999/02/22-rdf-syntax-ns#">
   <cc:Work>
    <dc:type rdf:resource="http://purl.org/dc/dcmitype/StillImage"/>
    <dc:date>2025-06-17T23:40:25.593398</dc:date>
    <dc:format>image/svg+xml</dc:format>
    <dc:creator>
     <cc:Agent>
      <dc:title>Matplotlib v3.10.1, https://matplotlib.org/</dc:title>
     </cc:Agent>
    </dc:creator>
   </cc:Work>
  </rdf:RDF>
 </metadata>
 <defs>
  <style type="text/css">*{stroke-linejoin: round; stroke-linecap: butt}</style>
 </defs>
 <g id="figure_1">
  <g id="patch_1">
   <path d="M 0 432 
L 432 432 
L 432 0 
L 0 0 
z
" style="fill: #ffffff"/>
  </g>
  <g id="axes_1">
   <g id="patch_2">
    <path d="M 0 432 
L 432 432 
L 432 0 
L 0 0 
z
" style="fill: #ffffff"/>
   </g>
   <g id="PathCollection_1">
    <defs>
     <path id="C0_0_4cb951b9fb" d="M 0 3.535534 
C 0.937635 3.535534 1.836992 3.163008 2.5 2.5 
C 3.163008 1.836992 3.535534 0.937635 3.535534 -0 
C 3.535534 -0.937635 3.163008 -1.836992 2.5 -2.5 
C 1.836992 -3.163008 0.937635 -3.535534 0 -3.535534 
C -0.937635 -3.535534 -1.836992 -3.163008 -2.5 -2.5 
C -3.163008 -1.836992 -3.535534 -0.937635 -3.535534 0 
C -3.535534 0.937635 -3.163008 1.836992 -2.5 2.5 
C -1.836992 3.163008 -0.937635 3.535534 0 3.535534 
z
"/>
    </defs>
    <g clip-path="url(#pdbaa169c12)">
     <use xlink:href="#C0_0_4cb951b9fb" x="149.591" y="208.52589" style="fill: #0074ff; stroke: #000000"/>
    </g>
    <g clip-path="url(#pdbaa169c12)">
     <use xlink:href="#C0_0_4cb951b9fb" x="348.90256" y="103.935887" style="fill: #00ff62; stroke: #000000"/>
    </g>
    <g clip-path="url(#pdbaa169c12)">
     <use xlink:href="#C0_0_4cb951b9fb" x="243.298449" y="157.407075" style="fill: #00ff39; stroke: #000000"/>
    </g>
    <g clip-path="url(#pdbaa169c12)">
     <use xlink:href="#C0_0_4cb951b9fb" x="80.047691" y="276.022604" style="fill: #ffc300; stroke: #000000"/>
    </g>
    <g clip-path="url(#pdbaa169c12)">
     <use xlink:href="#C0_0_4cb951b9fb" x="139.467629" y="377.476248" style="fill: #ffb700; stroke: #000000"/>
    </g>
    <g clip-path="url(#pdbaa169c12)">
     <use xlink:href="#C0_0_4cb951b9fb" x="133.459876" y="113.71438" style="fill: #ff6a00; stroke: #000000"/>
    </g>
    <g clip-path="url(#pdbaa169c12)">
     <use xlink:href="#C0_0_4cb951b9fb" x="39.713568" y="171.566468" style="fill: #00ff74; stroke: #000000"/>
    </g>
    <g clip-path="url(#pdbaa169c12)">
     <use xlink:href="#C0_0_4cb951b9fb" x="300.323547" y="90.525919" style="fill: #00c7ff; stroke: #000000"/>
    </g>
    <g clip-path="url(#pdbaa169c12)">
     <use xlink:href="#C0_0_4cb951b9fb" x="226.100305" y="333.579786" style="fill: #4f00ff; stroke: #000000"/>
    </g>
    <g clip-path="url(#pdbaa169c12)">
     <use xlink:href="#C0_0_4cb951b9fb" x="256.158875" y="334.20172" style="fill: #0016ff; stroke: #000000"/>
    </g>
    <g clip-path="url(#pdbaa169c12)">
     <use xlink:href="#C0_0_4cb951b9fb" x="266.855771" y="106.709785" style="fill: #00fffc; stroke: #000000"/>
    </g>
    <g clip-path="url(#pdbaa169c12)">
     <use xlink:href="#C0_0_4cb951b9fb" x="121.019018" y="61.416698" style="fill: #ff7c00; stroke: #000000"/>
    </g>
    <g clip-path="url(#pdbaa169c12)">
     <use xlink:href="#C0_0_4cb951b9fb" x="204.741525" y="78.667354" style="fill: #00ffc7; stroke: #000000"/>
    </g>
    <g clip-path="url(#pdbaa169c12)">
     <use xlink:href="#C0_0_4cb951b9fb" x="114.513191" y="351.128746" style="fill: #f8fd00; stroke: #000000"/>
    </g>
    <g clip-path="url(#pdbaa169c12)">
     <use xlink:href="#C0_0_4cb951b9fb" x="228.17346" y="95.393188" style="fill: #00f0ff; stroke: #000000"/>
    </g>
    <g clip-path="url(#pdbaa169c12)">
     <use xlink:href="#C0_0_4cb951b9fb" x="299.329582" y="127.123749" style="fill: #00ffa9; stroke: #000000"/>
    </g>
    <g clip-path="url(#pdbaa169c12)">
     <use xlink:href="#C0_0_4cb951b9fb" x="232.359364" y="227.938377" style="fill: #ff00c9; stroke: #000000"/>
    </g>
    <g clip-path="url(#pdbaa169c12)">
     <use xlink:href="#C0_0_4cb951b9fb" x="40.696016" y="258.598976" style="fill: #ffa500; stroke: #000000"/>
    </g>
    <g clip-path="url(#pdbaa169c12)">
     <use xlink:href="#C0_0_4cb951b9fb" x="185.48963" y="202.871514" style="fill: #0069ff; stroke: #000000"/>
    </g>
    <g clip-path="url(#pdbaa169c12)">
     <use xlink:href="#C0_0_4cb951b9fb" x="175.393543" y="284.404846" style="fill: #cbff00; stroke: #000000"/>
    </g>
    <g clip-path="url(#pdbaa169c12)">
     <use xlink:href="#C0_0_4cb951b9fb" x="94.752497" y="325.089951" style="fill: #ff9a00; stroke: #000000"/>
    </g>
    <g clip-path="url(#pdbaa169c12)">
     <use xlink:href="#C0_0_4cb951b9fb" x="169.328298" y="177.79653" style="fill: #0057ff; stroke: #000000"/>
    </g>
    <g clip-path="url(#pdbaa169c12)">
     <use xlink:href="#C0_0_4cb951b9fb" x="275.392225" y="350.927065" style="fill: #0408ff; stroke: #000000"/>
    </g>
    <g clip-path="url(#pdbaa169c12)">
     <use xlink:href="#C0_0_4cb951b9fb" x="328.543821" y="63.772674" style="fill: #00ffde; stroke: #000000"/>
    </g>
    <g clip-path="url(#pdbaa169c12)">
     <use xlink:href="#C0_0_4cb951b9fb" x="336.340475" y="285.789401" style="fill: #7800ff; stroke: #000000"/>
    </g>
    <g clip-path="url(#pdbaa169c12)">
     <use xlink:href="#C0_0_4cb951b9fb" x="194.682359" y="30.503012" style="fill: #ff5f00; stroke: #000000"/>
    </g>
    <g clip-path="url(#pdbaa169c12)">
     <use xlink:href="#C0_0_4cb951b9fb" x="260.006022" y="133.477926" style="fill: #00ff57; stroke: #000000"/>
    </g>
    <g clip-path="url(#pdbaa169c12)">
     <use xlink:href="#C0_0_4cb951b9fb" x="265.625248" y="194.514828" style="fill: #f400ff; stroke: #000000"/>
    </g>
    <g clip-path="url(#pdbaa169c12)">
     <use xlink:href="#C0_0_4cb951b9fb" x="24.321851" y="217.614278" style="fill: #ffe600; stroke: #000000"/>
    </g>
    <g clip-path="url(#pdbaa169c12)">
     <use xlink:href="#C0_0_4cb951b9fb" x="384.099781" y="185.00662" style="fill: #1aff00; stroke: #000000"/>
    </g>
    <g clip-path="url(#pdbaa169c12)">
     <use xlink:href="#C0_0_4cb951b9fb" x="139.460735" y="180.931319" style="fill: #004bff; stroke: #000000"/>
    </g>
    <g clip-path="url(#pdbaa169c12)">
     <use xlink:href="#C0_0_4cb951b9fb" x="305.293176" y="234.200028" style="fill: #0eff00; stroke: #000000"/>
    </g>
    <g clip-path="url(#pdbaa169c12)">
     <use xlink:href="#C0_0_4cb951b9fb" x="53.868628" y="306.302126" style="fill: #fef100; stroke: #000000"/>
    </g>
    <g clip-path="url(#pdbaa169c12)">
     <use xlink:href="#C0_0_4cb951b9fb" x="206.801672" y="225.615846" style="fill: #fc00f5; stroke: #000000"/>
    </g>
    <g clip-path="url(#pdbaa169c12)">
     <use xlink:href="#C0_0_4cb951b9fb" x="392.605001" y="224.324912" style="fill: #4fff00; stroke: #000000"/>
    </g>
    <g clip-path="url(#pdbaa169c12)">
     <use xlink:href="#C0_0_4cb951b9fb" x="347.49234" y="157.118324" style="fill: #00ff9d; stroke: #000000"/>
    </g>
    <g clip-path="url(#pdbaa169c12)">
     <use xlink:href="#C0_0_4cb951b9fb" x="140.651571" y="308.834013" style="fill: #002dff; stroke: #000000"/>
    </g>
    <g clip-path="url(#pdbaa169c12)">
     <use xlink:href="#C0_0_4cb951b9fb" x="228.13015" y="403.853903" style="fill: #1300ff; stroke: #000000"/>
    </g>
    <g clip-path="url(#pdbaa169c12)">
     <use xlink:href="#C0_0_4cb951b9fb" x="232.026517" y="281.95826" style="fill: #84ff00; stroke: #000000"/>
    </g>
    <g clip-path="url(#pdbaa169c12)">
     <use xlink:href="#C0_0_4cb951b9fb" x="219.638757" y="367.566756" style="fill: #0022ff; stroke: #000000"/>
    </g>
    <g clip-path="url(#pdbaa169c12)">
     <use xlink:href="#C0_0_4cb951b9fb" x="389.170122" y="311.958905" style="fill: #37ff00; stroke: #000000"/>
    </g>
    <g clip-path="url(#pdbaa169c12)">
     <use xlink:href="#C0_0_4cb951b9fb" x="162.252059" y="144.058738" style="fill: #00bbff; stroke: #000000"/>
    </g>
    <g clip-path="url(#pdbaa169c12)">
     <use xlink:href="#C0_0_4cb951b9fb" x="243.208871" y="302.586883" style="fill: #e8ff00; stroke: #000000"/>
    </g>
    <g clip-path="url(#pdbaa169c12)">
     <use xlink:href="#C0_0_4cb951b9fb" x="272.143119" y="296.985284" style="fill: #a100ff; stroke: #000000"/>
    </g>
    <g clip-path="url(#pdbaa169c12)">
     <use xlink:href="#C0_0_4cb951b9fb" x="85.208386" y="243.778502" style="fill: #ff0035; stroke: #000000"/>
    </g>
    <g clip-path="url(#pdbaa169c12)">
     <use xlink:href="#C0_0_4cb951b9fb" x="107.041679" y="292.106215" style="fill: #ff8800; stroke: #000000"/>
    </g>
    <g clip-path="url(#pdbaa169c12)">
     <use xlink:href="#C0_0_4cb951b9fb" x="226.793047" y="125.902986" style="fill: #00ffd3; stroke: #000000"/>
    </g>
    <g clip-path="url(#pdbaa169c12)">
     <use xlink:href="#C0_0_4cb951b9fb" x="258.561256" y="75.528036" style="fill: #00e5ff; stroke: #000000"/>
    </g>
    <g clip-path="url(#pdbaa169c12)">
     <use xlink:href="#C0_0_4cb951b9fb" x="316.131969" y="269.596407" style="fill: #5a00ff; stroke: #000000"/>
    </g>
    <g clip-path="url(#pdbaa169c12)">
     <use xlink:href="#C0_0_4cb951b9fb" x="190.95147" y="159.783437" style="fill: #0092ff; stroke: #000000"/>
    </g>
    <g clip-path="url(#pdbaa169c12)">
     <use xlink:href="#C0_0_4cb951b9fb" x="176.723245" y="348.945394" style="fill: #3d00ff; stroke: #000000"/>
    </g>
    <g clip-path="url(#pdbaa169c12)">
     <use xlink:href="#C0_0_4cb951b9fb" x="158.532959" y="94.28211" style="fill: #ff5300; stroke: #000000"/>
    </g>
    <g clip-path="url(#pdbaa169c12)">
     <use xlink:href="#C0_0_4cb951b9fb" x="200.412802" y="131.647717" style="fill: #00d9ff; stroke: #000000"/>
    </g>
    <g clip-path="url(#pdbaa169c12)">
     <use xlink:href="#C0_0_4cb951b9fb" x="298.907096" y="161.39893" style="fill: #00ff2d; stroke: #000000"/>
    </g>
    <g clip-path="url(#pdbaa169c12)">
     <use xlink:href="#C0_0_4cb951b9fb" x="126.68103" y="227.771533" style="fill: #ff0047; stroke: #000000"/>
    </g>
    <g clip-path="url(#pdbaa169c12)">
     <use xlink:href="#C0_0_4cb951b9fb" x="382.320472" y="267.634919" style="fill: #25ff00; stroke: #000000"/>
    </g>
    <g clip-path="url(#pdbaa169c12)">
     <use xlink:href="#C0_0_4cb951b9fb" x="384.530797" y="136.624234" style="fill: #00ff80; stroke: #000000"/>
    </g>
    <g clip-path="url(#pdbaa169c12)">
     <use xlink:href="#C0_0_4cb951b9fb" x="235.144183" y="251.228291" style="fill: #ff00e7; stroke: #000000"/>
    </g>
    <g clip-path="url(#pdbaa169c12)">
     <use xlink:href="#C0_0_4cb951b9fb" x="239.881607" y="195.573071" style="fill: #ff00a0; stroke: #000000"/>
    </g>
    <g clip-path="url(#pdbaa169c12)">
     <use xlink:href="#C0_0_4cb951b9fb" x="188.108524" y="299.622524" style="fill: #72ff00; stroke: #000000"/>
    </g>
    <g clip-path="url(#pdbaa169c12)">
     <use xlink:href="#C0_0_4cb951b9fb" x="292.247025" y="263.547471" style="fill: #ad00ff; stroke: #000000"/>
    </g>
    <g clip-path="url(#pdbaa169c12)">
     <use xlink:href="#C0_0_4cb951b9fb" x="180.843501" y="393.02958" style="fill: #ffd500; stroke: #000000"/>
    </g>
    <g clip-path="url(#pdbaa169c12)">
     <use xlink:href="#C0_0_4cb951b9fb" x="110.549081" y="176.576227" style="fill: #00afff; stroke: #000000"/>
    </g>
    <g clip-path="url(#pdbaa169c12)">
     <use xlink:href="#C0_0_4cb951b9fb" x="133.582641" y="146.051514" style="fill: #0086ff; stroke: #000000"/>
    </g>
    <g clip-path="url(#pdbaa169c12)">
     <use xlink:href="#C0_0_4cb951b9fb" x="318.738517" y="373.025614" style="fill: #6c00ff; stroke: #000000"/>
    </g>
    <g clip-path="url(#pdbaa169c12)">
     <use xlink:href="#C0_0_4cb951b9fb" x="351.017741" y="246.624742" style="fill: #04ff08; stroke: #000000"/>
    </g>
    <g clip-path="url(#pdbaa169c12)">
     <use xlink:href="#C0_0_4cb951b9fb" x="309.318408" y="330.078461" style="fill: #cb00ff; stroke: #000000"/>
    </g>
    <g clip-path="url(#pdbaa169c12)">
     <use xlink:href="#C0_0_4cb951b9fb" x="263.094121" y="244.435386" style="fill: #ff00bd; stroke: #000000"/>
    </g>
    <g clip-path="url(#pdbaa169c12)">
     <use xlink:href="#C0_0_4cb951b9fb" x="146.371828" y="277.511346" style="fill: #ff008e; stroke: #000000"/>
    </g>
    <g clip-path="url(#pdbaa169c12)">
     <use xlink:href="#C0_0_4cb951b9fb" x="130.153034" y="258.003464" style="fill: #ff007c; stroke: #000000"/>
    </g>
    <g clip-path="url(#pdbaa169c12)">
     <use xlink:href="#C0_0_4cb951b9fb" x="342.454637" y="221.356305" style="fill: #00ff10; stroke: #000000"/>
    </g>
    <g clip-path="url(#pdbaa169c12)">
     <use xlink:href="#C0_0_4cb951b9fb" x="301.338632" y="211.816464" style="fill: #00ff1b; stroke: #000000"/>
    </g>
    <g clip-path="url(#pdbaa169c12)">
     <use xlink:href="#C0_0_4cb951b9fb" x="334.570642" y="335.195369" style="fill: #d600ff; stroke: #000000"/>
    </g>
    <g clip-path="url(#pdbaa169c12)">
     <use xlink:href="#C0_0_4cb951b9fb" x="285.503385" y="41.253808" style="fill: #00ffb5; stroke: #000000"/>
    </g>
    <g clip-path="url(#pdbaa169c12)">
     <use xlink:href="#C0_0_4cb951b9fb" x="191.419278" y="247.362608" style="fill: #96ff00; stroke: #000000"/>
    </g>
    <g clip-path="url(#pdbaa169c12)">
     <use xlink:href="#C0_0_4cb951b9fb" x="217.965981" y="168.414948" style="fill: #ff00ac; stroke: #000000"/>
    </g>
    <g clip-path="url(#pdbaa169c12)">
     <use xlink:href="#C0_0_4cb951b9fb" x="63.71215" y="210.673209" style="fill: #ff0059; stroke: #000000"/>
    </g>
    <g clip-path="url(#pdbaa169c12)">
     <use xlink:href="#C0_0_4cb951b9fb" x="236.145077" y="44.77281" style="fill: #00fff0; stroke: #000000"/>
    </g>
    <g clip-path="url(#pdbaa169c12)">
     <use xlink:href="#C0_0_4cb951b9fb" x="209.492306" y="273.5026" style="fill: #a7ff00; stroke: #000000"/>
    </g>
    <g clip-path="url(#pdbaa169c12)">
     <use xlink:href="#C0_0_4cb951b9fb" x="96.287368" y="129.68987" style="fill: #ff0000; stroke: #000000"/>
    </g>
    <g clip-path="url(#pdbaa169c12)">
     <use xlink:href="#C0_0_4cb951b9fb" x="270.949399" y="165.535115" style="fill: #00ff4b; stroke: #000000"/>
    </g>
    <g clip-path="url(#pdbaa169c12)">
     <use xlink:href="#C0_0_4cb951b9fb" x="266.689341" y="272.48017" style="fill: #9500ff; stroke: #000000"/>
    </g>
    <g clip-path="url(#pdbaa169c12)">
     <use xlink:href="#C0_0_4cb951b9fb" x="213.689085" y="196.408476" style="fill: #e800ff; stroke: #000000"/>
    </g>
    <g clip-path="url(#pdbaa169c12)">
     <use xlink:href="#C0_0_4cb951b9fb" x="86.534483" y="204.101641" style="fill: #ff0024; stroke: #000000"/>
    </g>
    <g clip-path="url(#pdbaa169c12)">
     <use xlink:href="#C0_0_4cb951b9fb" x="164.790699" y="60.147044" style="fill: #ff4100; stroke: #000000"/>
    </g>
    <g clip-path="url(#pdbaa169c12)">
     <use xlink:href="#C0_0_4cb951b9fb" x="297.433539" y="310.881751" style="fill: #bf00ff; stroke: #000000"/>
    </g>
    <g clip-path="url(#pdbaa169c12)">
     <use xlink:href="#C0_0_4cb951b9fb" x="162.90969" y="227.663258" style="fill: #009eff; stroke: #000000"/>
    </g>
    <g clip-path="url(#pdbaa169c12)">
     <use xlink:href="#C0_0_4cb951b9fb" x="55.495398" y="125.653321" style="fill: #ff1800; stroke: #000000"/>
    </g>
    <g clip-path="url(#pdbaa169c12)">
     <use xlink:href="#C0_0_4cb951b9fb" x="342.859672" y="191.793124" style="fill: #61ff00; stroke: #000000"/>
    </g>
    <g clip-path="url(#pdbaa169c12)">
     <use xlink:href="#C0_0_4cb951b9fb" x="109.328157" y="210.703705" style="fill: #ff0018; stroke: #000000"/>
    </g>
    <g clip-path="url(#pdbaa169c12)">
     <use xlink:href="#C0_0_4cb951b9fb" x="268.316259" y="383.13528" style="fill: #3100ff; stroke: #000000"/>
    </g>
    <g clip-path="url(#pdbaa169c12)">
     <use xlink:href="#C0_0_4cb951b9fb" x="153.800893" y="330.374989" style="fill: #2500ff; stroke: #000000"/>
    </g>
    <g clip-path="url(#pdbaa169c12)">
     <use xlink:href="#C0_0_4cb951b9fb" x="269.471903" y="219.506475" style="fill: #ff00db; stroke: #000000"/>
    </g>
    <g clip-path="url(#pdbaa169c12)">
     <use xlink:href="#C0_0_4cb951b9fb" x="327.261961" y="135.069626" style="fill: #00ff8c; stroke: #000000"/>
    </g>
    <g clip-path="url(#pdbaa169c12)">
     <use xlink:href="#C0_0_4cb951b9fb" x="169.243596" y="255.135434" style="fill: #d7ff00; stroke: #000000"/>
    </g>
    <g clip-path="url(#pdbaa169c12)">
     <use xlink:href="#C0_0_4cb951b9fb" x="181.018535" y="110.567743" style="fill: #ff0c00; stroke: #000000"/>
    </g>
    <g clip-path="url(#pdbaa169c12)">
     <use xlink:href="#C0_0_4cb951b9fb" x="83.414439" y="165.697959" style="fill: #003fff; stroke: #000000"/>
    </g>
    <g clip-path="url(#pdbaa169c12)">
     <use xlink:href="#C0_0_4cb951b9fb" x="308.747013" y="185.130094" style="fill: #43ff00; stroke: #000000"/>
    </g>
    <g clip-path="url(#pdbaa169c12)">
     <use xlink:href="#C0_0_4cb951b9fb" x="200.627434" y="325.653421" style="fill: #0800ff; stroke: #000000"/>
    </g>
   </g>
   <g id="matplotlib.axis_1">
    <g id="xtick_1">
     <g id="line2d_1">
      <path d="M 0 432 
L 0 0 
" clip-path="url(#pdbaa169c12)" style="fill: none; stroke-dasharray: 1.85,0.8; stroke-dashoffset: 0; stroke: #808080; stroke-width: 0.5"/>
     </g>
     <g id="line2d_2">
      <defs>
       <path id="m5b4af69601" d="M 0 0 
L 0 3.5 
" style="stroke: #000000; stroke-width: 0.8"/>
      </defs>
      <g>
       <use xlink:href="#m5b4af69601" x="0" y="432" style="stroke: #000000; stroke-width: 0.8"/>
      </g>
     </g>
     <g id="text_1">
      <!-- −1.0 -->
      <g transform="translate(-12.141406 446.598437) scale(0.1 -0.1)">
       <defs>
        <path id="DejaVuSans-2212" d="M 678 2272 
L 4684 2272 
L 4684 1741 
L 678 1741 
L 678 2272 
z
" transform="scale(0.015625)"/>
        <path id="DejaVuSans-31" d="M 794 531 
L 1825 531 
L 1825 4091 
L 703 3866 
L 703 4441 
L 1819 4666 
L 2450 4666 
L 2450 531 
L 3481 531 
L 3481 0 
L 794 0 
L 794 531 
z
" transform="scale(0.015625)"/>
        <path id="DejaVuSans-2e" d="M 684 794 
L 1344 794 
L 1344 0 
L 684 0 
L 684 794 
z
" transform="scale(0.015625)"/>
        <path id="DejaVuSans-30" d="M 2034 4250 
Q 1547 4250 1301 3770 
Q 1056 3291 1056 2328 
Q 1056 1369 1301 889 
Q 1547 409 2034 409 
Q 2525 409 2770 889 
Q 3016 1369 3016 2328 
Q 3016 3291 2770 3770 
Q 2525 4250 2034 4250 
z
M 2034 4750 
Q 2819 4750 3233 4129 
Q 3647 3509 3647 2328 
Q 3647 1150 3233 529 
Q 2819 -91 2034 -91 
Q 1250 -91 836 529 
Q 422 1150 422 2328 
Q 422 3509 836 4129 
Q 1250 4750 2034 4750 
z
" transform="scale(0.015625)"/>
       </defs>
       <use xlink:href="#DejaVuSans-2212"/>
       <use xlink:href="#DejaVuSans-31" transform="translate(83.789062 0)"/>
       <use xlink:href="#DejaVuSans-2e" transform="translate(147.412109 0)"/>
       <use xlink:href="#DejaVuSans-30" transform="translate(179.199219 0)"/>
      </g>
     </g>
    </g>
    <g id="xtick_2">
     <g id="line2d_3">
      <path d="M 43.2 432 
L 43.2 0 
" clip-path="url(#pdbaa169c12)" style="fill: none; stroke-dasharray: 1.85,0.8; stroke-dashoffset: 0; stroke: #808080; stroke-width: 0.5"/>
     </g>
     <g id="line2d_4">
      <g>
       <use xlink:href="#m5b4af69601" x="43.2" y="432" style="stroke: #000000; stroke-width: 0.8"/>
      </g>
     </g>
     <g id="text_2">
      <!-- −0.8 -->
      <g transform="translate(31.058594 446.598437) scale(0.1 -0.1)">
       <defs>
        <path id="DejaVuSans-38" d="M 2034 2216 
Q 1584 2216 1326 1975 
Q 1069 1734 1069 1313 
Q 1069 891 1326 650 
Q 1584 409 2034 409 
Q 2484 409 2743 651 
Q 3003 894 3003 1313 
Q 3003 1734 2745 1975 
Q 2488 2216 2034 2216 
z
M 1403 2484 
Q 997 2584 770 2862 
Q 544 3141 544 3541 
Q 544 4100 942 4425 
Q 1341 4750 2034 4750 
Q 2731 4750 3128 4425 
Q 3525 4100 3525 3541 
Q 3525 3141 3298 2862 
Q 3072 2584 2669 2484 
Q 3125 2378 3379 2068 
Q 3634 1759 3634 1313 
Q 3634 634 3220 271 
Q 2806 -91 2034 -91 
Q 1263 -91 848 271 
Q 434 634 434 1313 
Q 434 1759 690 2068 
Q 947 2378 1403 2484 
z
M 1172 3481 
Q 1172 3119 1398 2916 
Q 1625 2713 2034 2713 
Q 2441 2713 2670 2916 
Q 2900 3119 2900 3481 
Q 2900 3844 2670 4047 
Q 2441 4250 2034 4250 
Q 1625 4250 1398 4047 
Q 1172 3844 1172 3481 
z
" transform="scale(0.015625)"/>
       </defs>
       <use xlink:href="#DejaVuSans-2212"/>
       <use xlink:href="#DejaVuSans-30" transform="translate(83.789062 0)"/>
       <use xlink:href="#DejaVuSans-2e" transform="translate(147.412109 0)"/>
       <use xlink:href="#DejaVuSans-38" transform="translate(179.199219 0)"/>
      </g>
     </g>
    </g>
    <g id="xtick_3">
     <g id="line2d_5">
      <path d="M 86.4 432 
L 86.4 0 
" clip-path="url(#pdbaa169c12)" style="fill: none; stroke-dasharray: 1.85,0.8; stroke-dashoffset: 0; stroke: #808080; stroke-width: 0.5"/>
     </g>
     <g id="line2d_6">
      <g>
       <use xlink:href="#m5b4af69601" x="86.4" y="432" style="stroke: #000000; stroke-width: 0.8"/>
      </g>
     </g>
     <g id="text_3">
      <!-- −0.6 -->
      <g transform="translate(74.258594 446.598437) scale(0.1 -0.1)">
       <defs>
        <path id="DejaVuSans-36" d="M 2113 2584 
Q 1688 2584 1439 2293 
Q 1191 2003 1191 1497 
Q 1191 994 1439 701 
Q 1688 409 2113 409 
Q 2538 409 2786 701 
Q 3034 994 3034 1497 
Q 3034 2003 2786 2293 
Q 2538 2584 2113 2584 
z
M 3366 4563 
L 3366 3988 
Q 3128 4100 2886 4159 
Q 2644 4219 2406 4219 
Q 1781 4219 1451 3797 
Q 1122 3375 1075 2522 
Q 1259 2794 1537 2939 
Q 1816 3084 2150 3084 
Q 2853 3084 3261 2657 
Q 3669 2231 3669 1497 
Q 3669 778 3244 343 
Q 2819 -91 2113 -91 
Q 1303 -91 875 529 
Q 447 1150 447 2328 
Q 447 3434 972 4092 
Q 1497 4750 2381 4750 
Q 2619 4750 2861 4703 
Q 3103 4656 3366 4563 
z
" transform="scale(0.015625)"/>
       </defs>
       <use xlink:href="#DejaVuSans-2212"/>
       <use xlink:href="#DejaVuSans-30" transform="translate(83.789062 0)"/>
       <use xlink:href="#DejaVuSans-2e" transform="translate(147.412109 0)"/>
       <use xlink:href="#DejaVuSans-36" transform="translate(179.199219 0)"/>
      </g>
     </g>
    </g>
    <g id="xtick_4">
     <g id="line2d_7">
      <path d="M 129.6 432 
L 129.6 0 
" clip-path="url(#pdbaa169c12)" style="fill: none; stroke-dasharray: 1.85,0.8; stroke-dashoffset: 0; stroke: #808080; stroke-width: 0.5"/>
     </g>
     <g id="line2d_8">
      <g>
       <use xlink:href="#m5b4af69601" x="129.6" y="432" style="stroke: #000000; stroke-width: 0.8"/>
      </g>
     </g>
     <g id="text_4">
      <!-- −0.4 -->
      <g transform="translate(117.458594 446.598437) scale(0.1 -0.1)">
       <defs>
        <path id="DejaVuSans-34" d="M 2419 4116 
L 825 1625 
L 2419 1625 
L 2419 4116 
z
M 2253 4666 
L 3047 4666 
L 3047 1625 
L 3713 1625 
L 3713 1100 
L 3047 1100 
L 3047 0 
L 2419 0 
L 2419 1100 
L 313 1100 
L 313 1709 
L 2253 4666 
z
" transform="scale(0.015625)"/>
       </defs>
       <use xlink:href="#DejaVuSans-2212"/>
       <use xlink:href="#DejaVuSans-30" transform="translate(83.789062 0)"/>
       <use xlink:href="#DejaVuSans-2e" transform="translate(147.412109 0)"/>
       <use xlink:href="#DejaVuSans-34" transform="translate(179.199219 0)"/>
      </g>
     </g>
    </g>
    <g id="xtick_5">
     <g id="line2d_9">
      <path d="M 172.8 432 
L 172.8 0 
" clip-path="url(#pdbaa169c12)" style="fill: none; stroke-dasharray: 1.85,0.8; stroke-dashoffset: 0; stroke: #808080; stroke-width: 0.5"/>
     </g>
     <g id="line2d_10">
      <g>
       <use xlink:href="#m5b4af69601" x="172.8" y="432" style="stroke: #000000; stroke-width: 0.8"/>
      </g>
     </g>
     <g id="text_5">
      <!-- −0.2 -->
      <g transform="translate(160.658594 446.598437) scale(0.1 -0.1)">
       <defs>
        <path id="DejaVuSans-32" d="M 1228 531 
L 3431 531 
L 3431 0 
L 469 0 
L 469 531 
Q 828 903 1448 1529 
Q 2069 2156 2228 2338 
Q 2531 2678 2651 2914 
Q 2772 3150 2772 3378 
Q 2772 3750 2511 3984 
Q 2250 4219 1831 4219 
Q 1534 4219 1204 4116 
Q 875 4013 500 3803 
L 500 4441 
Q 881 4594 1212 4672 
Q 1544 4750 1819 4750 
Q 2544 4750 2975 4387 
Q 3406 4025 3406 3419 
Q 3406 3131 3298 2873 
Q 3191 2616 2906 2266 
Q 2828 2175 2409 1742 
Q 1991 1309 1228 531 
z
" transform="scale(0.015625)"/>
       </defs>
       <use xlink:href="#DejaVuSans-2212"/>
       <use xlink:href="#DejaVuSans-30" transform="translate(83.789062 0)"/>
       <use xlink:href="#DejaVuSans-2e" transform="translate(147.412109 0)"/>
       <use xlink:href="#DejaVuSans-32" transform="translate(179.199219 0)"/>
      </g>
     </g>
    </g>
    <g id="xtick_6">
     <g id="line2d_11">
      <path d="M 216 432 
L 216 0 
" clip-path="url(#pdbaa169c12)" style="fill: none; stroke-dasharray: 1.85,0.8; stroke-dashoffset: 0; stroke: #808080; stroke-width: 0.5"/>
     </g>
     <g id="line2d_12">
      <g>
       <use xlink:href="#m5b4af69601" x="216" y="432" style="stroke: #000000; stroke-width: 0.8"/>
      </g>
     </g>
     <g id="text_6">
      <!-- 0.0 -->
      <g transform="translate(208.048437 446.598437) scale(0.1 -0.1)">
       <use xlink:href="#DejaVuSans-30"/>
       <use xlink:href="#DejaVuSans-2e" transform="translate(63.623047 0)"/>
       <use xlink:href="#DejaVuSans-30" transform="translate(95.410156 0)"/>
      </g>
     </g>
    </g>
    <g id="xtick_7">
     <g id="line2d_13">
      <path d="M 259.2 432 
L 259.2 0 
" clip-path="url(#pdbaa169c12)" style="fill: none; stroke-dasharray: 1.85,0.8; stroke-dashoffset: 0; stroke: #808080; stroke-width: 0.5"/>
     </g>
     <g id="line2d_14">
      <g>
       <use xlink:href="#m5b4af69601" x="259.2" y="432" style="stroke: #000000; stroke-width: 0.8"/>
      </g>
     </g>
     <g id="text_7">
      <!-- 0.2 -->
      <g transform="translate(251.248437 446.598437) scale(0.1 -0.1)">
       <use xlink:href="#DejaVuSans-30"/>
       <use xlink:href="#DejaVuSans-2e" transform="translate(63.623047 0)"/>
       <use xlink:href="#DejaVuSans-32" transform="translate(95.410156 0)"/>
      </g>
     </g>
    </g>
    <g id="xtick_8">
     <g id="line2d_15">
      <path d="M 302.4 432 
L 302.4 0 
" clip-path="url(#pdbaa169c12)" style="fill: none; stroke-dasharray: 1.85,0.8; stroke-dashoffset: 0; stroke: #808080; stroke-width: 0.5"/>
     </g>
     <g id="line2d_16">
      <g>
       <use xlink:href="#m5b4af69601" x="302.4" y="432" style="stroke: #000000; stroke-width: 0.8"/>
      </g>
     </g>
     <g id="text_8">
      <!-- 0.4 -->
      <g transform="translate(294.448437 446.598437) scale(0.1 -0.1)">
       <use xlink:href="#DejaVuSans-30"/>
       <use xlink:href="#DejaVuSans-2e" transform="translate(63.623047 0)"/>
       <use xlink:href="#DejaVuSans-34" transform="translate(95.410156 0)"/>
      </g>
     </g>
    </g>
    <g id="xtick_9">
     <g id="line2d_17">
      <path d="M 345.6 432 
L 345.6 0 
" clip-path="url(#pdbaa169c12)" style="fill: none; stroke-dasharray: 1.85,0.8; stroke-dashoffset: 0; stroke: #808080; stroke-width: 0.5"/>
     </g>
     <g id="line2d_18">
      <g>
       <use xlink:href="#m5b4af69601" x="345.6" y="432" style="stroke: #000000; stroke-width: 0.8"/>
      </g>
     </g>
     <g id="text_9">
      <!-- 0.6 -->
      <g transform="translate(337.648437 446.598437) scale(0.1 -0.1)">
       <use xlink:href="#DejaVuSans-30"/>
       <use xlink:href="#DejaVuSans-2e" transform="translate(63.623047 0)"/>
       <use xlink:href="#DejaVuSans-36" transform="translate(95.410156 0)"/>
      </g>
     </g>
    </g>
    <g id="xtick_10">
     <g id="line2d_19">
      <path d="M 388.8 432 
L 388.8 0 
" clip-path="url(#pdbaa169c12)" style="fill: none; stroke-dasharray: 1.85,0.8; stroke-dashoffset: 0; stroke: #808080; stroke-width: 0.5"/>
     </g>
     <g id="line2d_20">
      <g>
       <use xlink:href="#m5b4af69601" x="388.8" y="432" style="stroke: #000000; stroke-width: 0.8"/>
      </g>
     </g>
     <g id="text_10">
      <!-- 0.8 -->
      <g transform="translate(380.848437 446.598437) scale(0.1 -0.1)">
       <use xlink:href="#DejaVuSans-30"/>
       <use xlink:href="#DejaVuSans-2e" transform="translate(63.623047 0)"/>
       <use xlink:href="#DejaVuSans-38" transform="translate(95.410156 0)"/>
      </g>
     </g>
    </g>
    <g id="xtick_11">
     <g id="line2d_21">
      <path d="M 432 432 
L 432 0 
" clip-path="url(#pdbaa169c12)" style="fill: none; stroke-dasharray: 1.85,0.8; stroke-dashoffset: 0; stroke: #808080; stroke-width: 0.5"/>
     </g>
     <g id="line2d_22">
      <g>
       <use xlink:href="#m5b4af69601" x="432" y="432" style="stroke: #000000; stroke-width: 0.8"/>
      </g>
     </g>
     <g id="text_11">
      <!-- 1.0 -->
      <g transform="translate(424.048437 446.598437) scale(0.1 -0.1)">
       <use xlink:href="#DejaVuSans-31"/>
       <use xlink:href="#DejaVuSans-2e" transform="translate(63.623047 0)"/>
       <use xlink:href="#DejaVuSans-30" transform="translate(95.410156 0)"/>
      </g>
     </g>
    </g>
   </g>
   <g id="matplotlib.axis_2">
    <g id="ytick_1">
     <g id="line2d_23">
      <path d="M 0 432 
L 432 432 
" clip-path="url(#pdbaa169c12)" style="fill: none; stroke-dasharray: 1.85,0.8; stroke-dashoffset: 0; stroke: #808080; stroke-width: 0.5"/>
     </g>
     <g id="line2d_24">
      <defs>
       <path id="m5ef87e5c48" d="M 0 0 
L -3.5 0 
" style="stroke: #000000; stroke-width: 0.8"/>
      </defs>
      <g>
       <use xlink:href="#m5ef87e5c48" x="0" y="432" style="stroke: #000000; stroke-width: 0.8"/>
      </g>
     </g>
     <g id="text_12">
      <!-- −1.0 -->
      <g transform="translate(-31.282813 435.799219) scale(0.1 -0.1)">
       <use xlink:href="#DejaVuSans-2212"/>
       <use xlink:href="#DejaVuSans-31" transform="translate(83.789062 0)"/>
       <use xlink:href="#DejaVuSans-2e" transform="translate(147.412109 0)"/>
       <use xlink:href="#DejaVuSans-30" transform="translate(179.199219 0)"/>
      </g>
     </g>
    </g>
    <g id="ytick_2">
     <g id="line2d_25">
      <path d="M 0 388.8 
L 432 388.8 
" clip-path="url(#pdbaa169c12)" style="fill: none; stroke-dasharray: 1.85,0.8; stroke-dashoffset: 0; stroke: #808080; stroke-width: 0.5"/>
     </g>
     <g id="line2d_26">
      <g>
       <use xlink:href="#m5ef87e5c48" x="0" y="388.8" style="stroke: #000000; stroke-width: 0.8"/>
      </g>
     </g>
     <g id="text_13">
      <!-- −0.8 -->
      <g transform="translate(-31.282813 392.599219) scale(0.1 -0.1)">
       <use xlink:href="#DejaVuSans-2212"/>
       <use xlink:href="#DejaVuSans-30" transform="translate(83.789062 0)"/>
       <use xlink:href="#DejaVuSans-2e" transform="translate(147.412109 0)"/>
       <use xlink:href="#DejaVuSans-38" transform="translate(179.199219 0)"/>
      </g>
     </g>
    </g>
    <g id="ytick_3">
     <g id="line2d_27">
      <path d="M 0 345.6 
L 432 345.6 
" clip-path="url(#pdbaa169c12)" style="fill: none; stroke-dasharray: 1.85,0.8; stroke-dashoffset: 0; stroke: #808080; stroke-width: 0.5"/>
     </g>
     <g id="line2d_28">
      <g>
       <use xlink:href="#m5ef87e5c48" x="0" y="345.6" style="stroke: #000000; stroke-width: 0.8"/>
      </g>
     </g>
     <g id="text_14">
      <!-- −0.6 -->
      <g transform="translate(-31.282813 349.399219) scale(0.1 -0.1)">
       <use xlink:href="#DejaVuSans-2212"/>
       <use xlink:href="#DejaVuSans-30" transform="translate(83.789062 0)"/>
       <use xlink:href="#DejaVuSans-2e" transform="translate(147.412109 0)"/>
       <use xlink:href="#DejaVuSans-36" transform="translate(179.199219 0)"/>
      </g>
     </g>
    </g>
    <g id="ytick_4">
     <g id="line2d_29">
      <path d="M 0 302.4 
L 432 302.4 
" clip-path="url(#pdbaa169c12)" style="fill: none; stroke-dasharray: 1.85,0.8; stroke-dashoffset: 0; stroke: #808080; stroke-width: 0.5"/>
     </g>
     <g id="line2d_30">
      <g>
       <use xlink:href="#m5ef87e5c48" x="0" y="302.4" style="stroke: #000000; stroke-width: 0.8"/>
      </g>
     </g>
     <g id="text_15">
      <!-- −0.4 -->
      <g transform="translate(-31.282813 306.199219) scale(0.1 -0.1)">
       <use xlink:href="#DejaVuSans-2212"/>
       <use xlink:href="#DejaVuSans-30" transform="translate(83.789062 0)"/>
       <use xlink:href="#DejaVuSans-2e" transform="translate(147.412109 0)"/>
       <use xlink:href="#DejaVuSans-34" transform="translate(179.199219 0)"/>
      </g>
     </g>
    </g>
    <g id="ytick_5">
     <g id="line2d_31">
      <path d="M 0 259.2 
L 432 259.2 
" clip-path="url(#pdbaa169c12)" style="fill: none; stroke-dasharray: 1.85,0.8; stroke-dashoffset: 0; stroke: #808080; stroke-width: 0.5"/>
     </g>
     <g id="line2d_32">
      <g>
       <use xlink:href="#m5ef87e5c48" x="0" y="259.2" style="stroke: #000000; stroke-width: 0.8"/>
      </g>
     </g>
     <g id="text_16">
      <!-- −0.2 -->
      <g transform="translate(-31.282813 262.999219) scale(0.1 -0.1)">
       <use xlink:href="#DejaVuSans-2212"/>
       <use xlink:href="#DejaVuSans-30" transform="translate(83.789062 0)"/>
       <use xlink:href="#DejaVuSans-2e" transform="translate(147.412109 0)"/>
       <use xlink:href="#DejaVuSans-32" transform="translate(179.199219 0)"/>
      </g>
     </g>
    </g>
    <g id="ytick_6">
     <g id="line2d_33">
      <path d="M 0 216 
L 432 216 
" clip-path="url(#pdbaa169c12)" style="fill: none; stroke-dasharray: 1.85,0.8; stroke-dashoffset: 0; stroke: #808080; stroke-width: 0.5"/>
     </g>
     <g id="line2d_34">
      <g>
       <use xlink:href="#m5ef87e5c48" x="0" y="216" style="stroke: #000000; stroke-width: 0.8"/>
      </g>
     </g>
     <g id="text_17">
      <!-- 0.0 -->
      <g transform="translate(-22.903125 219.799219) scale(0.1 -0.1)">
       <use xlink:href="#DejaVuSans-30"/>
       <use xlink:href="#DejaVuSans-2e" transform="translate(63.623047 0)"/>
       <use xlink:href="#DejaVuSans-30" transform="translate(95.410156 0)"/>
      </g>
     </g>
    </g>
    <g id="ytick_7">
     <g id="line2d_35">
      <path d="M 0 172.8 
L 432 172.8 
" clip-path="url(#pdbaa169c12)" style="fill: none; stroke-dasharray: 1.85,0.8; stroke-dashoffset: 0; stroke: #808080; stroke-width: 0.5"/>
     </g>
     <g id="line2d_36">
      <g>
       <use xlink:href="#m5ef87e5c48" x="0" y="172.8" style="stroke: #000000; stroke-width: 0.8"/>
      </g>
     </g>
     <g id="text_18">
      <!-- 0.2 -->
      <g transform="translate(-22.903125 176.599219) scale(0.1 -0.1)">
       <use xlink:href="#DejaVuSans-30"/>
       <use xlink:href="#DejaVuSans-2e" transform="translate(63.623047 0)"/>
       <use xlink:href="#DejaVuSans-32" transform="translate(95.410156 0)"/>
      </g>
     </g>
    </g>
    <g id="ytick_8">
     <g id="line2d_37">
      <path d="M 0 129.6 
L 432 129.6 
" clip-path="url(#pdbaa169c12)" style="fill: none; stroke-dasharray: 1.85,0.8; stroke-dashoffset: 0; stroke: #808080; stroke-width: 0.5"/>
     </g>
     <g id="line2d_38">
      <g>
       <use xlink:href="#m5ef87e5c48" x="0" y="129.6" style="stroke: #000000; stroke-width: 0.8"/>
      </g>
     </g>
     <g id="text_19">
      <!-- 0.4 -->
      <g transform="translate(-22.903125 133.399219) scale(0.1 -0.1)">
       <use xlink:href="#DejaVuSans-30"/>
       <use xlink:href="#DejaVuSans-2e" transform="translate(63.623047 0)"/>
       <use xlink:href="#DejaVuSans-34" transform="translate(95.410156 0)"/>
      </g>
     </g>
    </g>
    <g id="ytick_9">
     <g id="line2d_39">
      <path d="M 0 86.4 
L 432 86.4 
" clip-path="url(#pdbaa169c12)" style="fill: none; stroke-dasharray: 1.85,0.8; stroke-dashoffset: 0; stroke: #808080; stroke-width: 0.5"/>
     </g>
     <g id="line2d_40">
      <g>
       <use xlink:href="#m5ef87e5c48" x="0" y="86.4" style="stroke: #000000; stroke-width: 0.8"/>
      </g>
     </g>
     <g id="text_20">
      <!-- 0.6 -->
      <g transform="translate(-22.903125 90.199219) scale(0.1 -0.1)">
       <use xlink:href="#DejaVuSans-30"/>
       <use xlink:href="#DejaVuSans-2e" transform="translate(63.623047 0)"/>
       <use xlink:href="#DejaVuSans-36" transform="translate(95.410156 0)"/>
      </g>
     </g>
    </g>
    <g id="ytick_10">
     <g id="line2d_41">
      <path d="M 0 43.2 
L 432 43.2 
" clip-path="url(#pdbaa169c12)" style="fill: none; stroke-dasharray: 1.85,0.8; stroke-dashoffset: 0; stroke: #808080; stroke-width: 0.5"/>
     </g>
     <g id="line2d_42">
      <g>
       <use xlink:href="#m5ef87e5c48" x="0" y="43.2" style="stroke: #000000; stroke-width: 0.8"/>
      </g>
     </g>
     <g id="text_21">
      <!-- 0.8 -->
      <g transform="translate(-22.903125 46.999219) scale(0.1 -0.1)">
       <use xlink:href="#DejaVuSans-30"/>
       <use xlink:href="#DejaVuSans-2e" transform="translate(63.623047 0)"/>
       <use xlink:href="#DejaVuSans-38" transform="translate(95.410156 0)"/>
      </g>
     </g>
    </g>
    <g id="ytick_11">
     <g id="line2d_43">
      <path d="M 0 0 
L 432 0 
" clip-path="url(#pdbaa169c12)" style="fill: none; stroke-dasharray: 1.85,0.8; stroke-dashoffset: 0; stroke: #808080; stroke-width: 0.5"/>
     </g>
     <g id="line2d_44">
      <g>
       <use xlink:href="#m5ef87e5c48" x="0" y="0" style="stroke: #000000; stroke-width: 0.8"/>
      </g>
     </g>
     <g id="text_22">
      <!-- 1.0 -->
      <g transform="translate(-22.903125 3.799219) scale(0.1 -0.1)">
       <use xlink:href="#DejaVuSans-31"/>
       <use xlink:href="#DejaVuSans-2e" transform="translate(63.623047 0)"/>
       <use xlink:href="#DejaVuSans-30" transform="translate(95.410156 0)"/>
      </g>
     </g>
    </g>
   </g>
   <g id="patch_3">
    <path d="M 0 432 
L 0 0 
" style="fill: none; stroke: #000000; stroke-width: 0.8; stroke-linejoin: miter; stroke-linecap: square"/>
   </g>
   <g id="patch_4">
    <path d="M 432 432 
L 432 0 
" style="fill: none; stroke: #000000; stroke-width: 0.8; stroke-linejoin: miter; stroke-linecap: square"/>
   </g>
   <g id="patch_5">
    <path d="M 0 432 
L 432 432 
" style="fill: none; stroke: #000000; stroke-width: 0.8; stroke-linejoin: miter; stroke-linecap: square"/>
   </g>
   <g id="patch_6">
    <path d="M 0 0 
L 432 0 
" style="fill: none; stroke: #000000; stroke-width: 0.8; stroke-linejoin: miter; stroke-linecap: square"/>
   </g>
  </g>
 </g>
 <defs>
  <clipPath id="pdbaa169c12">
   <rect x="0" y="0" width="432" height="432"/>
  </clipPath>
 </defs>
</svg>
