<?xml version="1.0" encoding="utf-8" standalone="no"?>
<!DOCTYPE svg PUBLIC "-//W3C//DTD SVG 1.1//EN"
  "http://www.w3.org/Graphics/SVG/1.1/DTD/svg11.dtd">
<svg xmlns:xlink="http://www.w3.org/1999/xlink" width="432pt" height="432pt" viewBox="0 0 432 432" xmlns="http://www.w3.org/2000/svg" version="1.1">
 <metadata>
  <rdf:RDF xmlns:dc="http://purl.org/dc/elements/1.1/" xmlns:cc="http://creativecommons.org/ns#" xmlns:rdf="http://www.w3.org/1999/02/22-rdf-syntax-ns#">
   <cc:Work>
    <dc:type rdf:resource="http://purl.org/dc/dcmitype/StillImage"/>
    <dc:date>2025-06-17T23:40:25.826987</dc:date>
    <dc:format>image/svg+xml</dc:format>
    <dc:creator>
     <cc:Agent>
      <dc:title>Matplotlib v3.10.1, https://matplotlib.org/</dc:title>
     </cc:Agent>
    </dc:creator>
   </cc:Work>
  </rdf:RDF>
 </metadata>
 <defs>
  <style type="text/css">*{stroke-linejoin: round; stroke-linecap: butt}</style>
 </defs>
 <g id="figure_1">
  <g id="patch_1">
   <path d="M 0 432 
L 432 432 
L 432 0 
L 0 0 
z
" style="fill: #ffffff"/>
  </g>
  <g id="axes_1">
   <g id="patch_2">
    <path d="M 0 432 
L 432 432 
L 432 0 
L 0 0 
z
" style="fill: #ffffff"/>
   </g>
   <g id="PathCollection_1">
    <defs>
     <path id="C0_0_00ddd45ae5" d="M 0 3.535534 
C 0.937635 3.535534 1.836992 3.163008 2.5 2.5 
C 3.163008 1.836992 3.535534 0.937635 3.535534 -0 
C 3.535534 -0.937635 3.163008 -1.836992 2.5 -2.5 
C 1.836992 -3.163008 0.937635 -3.535534 0 -3.535534 
C -0.937635 -3.535534 -1.836992 -3.163008 -2.5 -2.5 
C -3.163008 -1.836992 -3.535534 -0.937635 -3.535534 0 
C -3.535534 0.937635 -3.163008 1.836992 -2.5 2.5 
C -1.836992 3.163008 -0.937635 3.535534 0 3.535534 
z
"/>
    </defs>
    <g clip-path="url(#p8dac49f396)">
     <use xlink:href="#C0_0_00ddd45ae5" x="169.316666" y="177.790675" style="fill: #0051ff; stroke: #000000"/>
    </g>
    <g clip-path="url(#p8dac49f396)">
     <use xlink:href="#C0_0_00ddd45ae5" x="83.35819" y="165.694911" style="fill: #0033ff; stroke: #000000"/>
    </g>
    <g clip-path="url(#p8dac49f396)">
     <use xlink:href="#C0_0_00ddd45ae5" x="191.436873" y="247.454333" style="fill: #90ff00; stroke: #000000"/>
    </g>
    <g clip-path="url(#p8dac49f396)">
     <use xlink:href="#C0_0_00ddd45ae5" x="231.854622" y="281.977803" style="fill: #7eff00; stroke: #000000"/>
    </g>
    <g clip-path="url(#p8dac49f396)">
     <use xlink:href="#C0_0_00ddd45ae5" x="194.592884" y="30.436051" style="fill: #ff5f00; stroke: #000000"/>
    </g>
    <g clip-path="url(#p8dac49f396)">
     <use xlink:href="#C0_0_00ddd45ae5" x="24.24862" y="217.485515" style="fill: #ffe600; stroke: #000000"/>
    </g>
    <g clip-path="url(#p8dac49f396)">
     <use xlink:href="#C0_0_00ddd45ae5" x="79.899942" y="276.033818" style="fill: #ffc900; stroke: #000000"/>
    </g>
    <g clip-path="url(#p8dac49f396)">
     <use xlink:href="#C0_0_00ddd45ae5" x="384.508781" y="136.642928" style="fill: #00ff86; stroke: #000000"/>
    </g>
    <g clip-path="url(#p8dac49f396)">
     <use xlink:href="#C0_0_00ddd45ae5" x="292.30075" y="263.368453" style="fill: #bf00ff; stroke: #000000"/>
    </g>
    <g clip-path="url(#p8dac49f396)">
     <use xlink:href="#C0_0_00ddd45ae5" x="228.141803" y="95.416363" style="fill: #00eaff; stroke: #000000"/>
    </g>
    <g clip-path="url(#p8dac49f396)">
     <use xlink:href="#C0_0_00ddd45ae5" x="263.085128" y="244.45502" style="fill: #ff00ac; stroke: #000000"/>
    </g>
    <g clip-path="url(#p8dac49f396)">
     <use xlink:href="#C0_0_00ddd45ae5" x="206.885083" y="225.588249" style="fill: #ff00ed; stroke: #000000"/>
    </g>
    <g clip-path="url(#p8dac49f396)">
     <use xlink:href="#C0_0_00ddd45ae5" x="318.651542" y="373.256533" style="fill: #7800ff; stroke: #000000"/>
    </g>
    <g clip-path="url(#p8dac49f396)">
     <use xlink:href="#C0_0_00ddd45ae5" x="342.474425" y="221.465922" style="fill: #00ff16; stroke: #000000"/>
    </g>
    <g clip-path="url(#p8dac49f396)">
     <use xlink:href="#C0_0_00ddd45ae5" x="266.648847" y="272.379909" style="fill: #a100ff; stroke: #000000"/>
    </g>
    <g clip-path="url(#p8dac49f396)">
     <use xlink:href="#C0_0_00ddd45ae5" x="260.014738" y="133.539119" style="fill: #00ff5c; stroke: #000000"/>
    </g>
    <g clip-path="url(#p8dac49f396)">
     <use xlink:href="#C0_0_00ddd45ae5" x="270.897501" y="165.510869" style="fill: #00ff51; stroke: #000000"/>
    </g>
    <g clip-path="url(#p8dac49f396)">
     <use xlink:href="#C0_0_00ddd45ae5" x="298.997591" y="161.355124" style="fill: #00ff33; stroke: #000000"/>
    </g>
    <g clip-path="url(#p8dac49f396)">
     <use xlink:href="#C0_0_00ddd45ae5" x="226.763013" y="125.967558" style="fill: #00ffde; stroke: #000000"/>
    </g>
    <g clip-path="url(#p8dac49f396)">
     <use xlink:href="#C0_0_00ddd45ae5" x="176.856307" y="348.793769" style="fill: #4f00ff; stroke: #000000"/>
    </g>
    <g clip-path="url(#p8dac49f396)">
     <use xlink:href="#C0_0_00ddd45ae5" x="188.228769" y="299.615392" style="fill: #6cff00; stroke: #000000"/>
    </g>
    <g clip-path="url(#p8dac49f396)">
     <use xlink:href="#C0_0_00ddd45ae5" x="114.864713" y="351.436385" style="fill: #f8fd00; stroke: #000000"/>
    </g>
    <g clip-path="url(#p8dac49f396)">
     <use xlink:href="#C0_0_00ddd45ae5" x="175.342791" y="284.395995" style="fill: #c5ff00; stroke: #000000"/>
    </g>
    <g clip-path="url(#p8dac49f396)">
     <use xlink:href="#C0_0_00ddd45ae5" x="110.665551" y="176.624861" style="fill: #00a4ff; stroke: #000000"/>
    </g>
    <g clip-path="url(#p8dac49f396)">
     <use xlink:href="#C0_0_00ddd45ae5" x="266.905798" y="106.653085" style="fill: #00f6ff; stroke: #000000"/>
    </g>
    <g clip-path="url(#p8dac49f396)">
     <use xlink:href="#C0_0_00ddd45ae5" x="96.328644" y="129.745301" style="fill: #ff0000; stroke: #000000"/>
    </g>
    <g clip-path="url(#p8dac49f396)">
     <use xlink:href="#C0_0_00ddd45ae5" x="190.94426" y="159.891166" style="fill: #0086ff; stroke: #000000"/>
    </g>
    <g clip-path="url(#p8dac49f396)">
     <use xlink:href="#C0_0_00ddd45ae5" x="63.658605" y="210.717663" style="fill: #ff0047; stroke: #000000"/>
    </g>
    <g clip-path="url(#p8dac49f396)">
     <use xlink:href="#C0_0_00ddd45ae5" x="336.386321" y="285.834101" style="fill: #8400ff; stroke: #000000"/>
    </g>
    <g clip-path="url(#p8dac49f396)">
     <use xlink:href="#C0_0_00ddd45ae5" x="94.868407" y="325.198188" style="fill: #ff9a00; stroke: #000000"/>
    </g>
    <g clip-path="url(#p8dac49f396)">
     <use xlink:href="#C0_0_00ddd45ae5" x="139.574919" y="377.434869" style="fill: #ffb700; stroke: #000000"/>
    </g>
    <g clip-path="url(#p8dac49f396)">
     <use xlink:href="#C0_0_00ddd45ae5" x="53.912234" y="306.218293" style="fill: #fcf500; stroke: #000000"/>
    </g>
    <g clip-path="url(#p8dac49f396)">
     <use xlink:href="#C0_0_00ddd45ae5" x="236.055861" y="44.769025" style="fill: #00fff6; stroke: #000000"/>
    </g>
    <g clip-path="url(#p8dac49f396)">
     <use xlink:href="#C0_0_00ddd45ae5" x="268.332282" y="383.104767" style="fill: #3d00ff; stroke: #000000"/>
    </g>
    <g clip-path="url(#p8dac49f396)">
     <use xlink:href="#C0_0_00ddd45ae5" x="217.976933" y="168.479028" style="fill: #ff009a; stroke: #000000"/>
    </g>
    <g clip-path="url(#p8dac49f396)">
     <use xlink:href="#C0_0_00ddd45ae5" x="308.795705" y="185.181534" style="fill: #3dff00; stroke: #000000"/>
    </g>
    <g clip-path="url(#p8dac49f396)">
     <use xlink:href="#C0_0_00ddd45ae5" x="239.949858" y="195.633691" style="fill: #ff008e; stroke: #000000"/>
    </g>
    <g clip-path="url(#p8dac49f396)">
     <use xlink:href="#C0_0_00ddd45ae5" x="328.558421" y="63.83039" style="fill: #00ffea; stroke: #000000"/>
    </g>
    <g clip-path="url(#p8dac49f396)">
     <use xlink:href="#C0_0_00ddd45ae5" x="200.46303" y="131.64323" style="fill: #00cdff; stroke: #000000"/>
    </g>
    <g clip-path="url(#p8dac49f396)">
     <use xlink:href="#C0_0_00ddd45ae5" x="299.187678" y="127.260535" style="fill: #00ffaf; stroke: #000000"/>
    </g>
    <g clip-path="url(#p8dac49f396)">
     <use xlink:href="#C0_0_00ddd45ae5" x="300.256888" y="90.540403" style="fill: #00c1ff; stroke: #000000"/>
    </g>
    <g clip-path="url(#p8dac49f396)">
     <use xlink:href="#C0_0_00ddd45ae5" x="204.595865" y="78.751451" style="fill: #00ffcd; stroke: #000000"/>
    </g>
    <g clip-path="url(#p8dac49f396)">
     <use xlink:href="#C0_0_00ddd45ae5" x="269.469277" y="219.575845" style="fill: #ff00c9; stroke: #000000"/>
    </g>
    <g clip-path="url(#p8dac49f396)">
     <use xlink:href="#C0_0_00ddd45ae5" x="162.986951" y="227.455159" style="fill: #0098ff; stroke: #000000"/>
    </g>
    <g clip-path="url(#p8dac49f396)">
     <use xlink:href="#C0_0_00ddd45ae5" x="55.445638" y="125.640067" style="fill: #ff1800; stroke: #000000"/>
    </g>
    <g clip-path="url(#p8dac49f396)">
     <use xlink:href="#C0_0_00ddd45ae5" x="86.461638" y="204.163124" style="fill: #ff0018; stroke: #000000"/>
    </g>
    <g clip-path="url(#p8dac49f396)">
     <use xlink:href="#C0_0_00ddd45ae5" x="164.783451" y="60.150468" style="fill: #ff4100; stroke: #000000"/>
    </g>
    <g clip-path="url(#p8dac49f396)">
     <use xlink:href="#C0_0_00ddd45ae5" x="153.937473" y="330.355509" style="fill: #3100ff; stroke: #000000"/>
    </g>
    <g clip-path="url(#p8dac49f396)">
     <use xlink:href="#C0_0_00ddd45ae5" x="158.511131" y="94.294277" style="fill: #ff5300; stroke: #000000"/>
    </g>
    <g clip-path="url(#p8dac49f396)">
     <use xlink:href="#C0_0_00ddd45ae5" x="272.219163" y="296.9871" style="fill: #ad00ff; stroke: #000000"/>
    </g>
    <g clip-path="url(#p8dac49f396)">
     <use xlink:href="#C0_0_00ddd45ae5" x="146.387831" y="277.457968" style="fill: #ff007c; stroke: #000000"/>
    </g>
    <g clip-path="url(#p8dac49f396)">
     <use xlink:href="#C0_0_00ddd45ae5" x="285.691515" y="41.165874" style="fill: #00ffc1; stroke: #000000"/>
    </g>
    <g clip-path="url(#p8dac49f396)">
     <use xlink:href="#C0_0_00ddd45ae5" x="232.501841" y="227.92462" style="fill: #ff00bd; stroke: #000000"/>
    </g>
    <g clip-path="url(#p8dac49f396)">
     <use xlink:href="#C0_0_00ddd45ae5" x="301.37338" y="211.672155" style="fill: #00ff27; stroke: #000000"/>
    </g>
    <g clip-path="url(#p8dac49f396)">
     <use xlink:href="#C0_0_00ddd45ae5" x="185.57438" y="203.059114" style="fill: #005dff; stroke: #000000"/>
    </g>
    <g clip-path="url(#p8dac49f396)">
     <use xlink:href="#C0_0_00ddd45ae5" x="219.454034" y="367.446417" style="fill: #0016ff; stroke: #000000"/>
    </g>
    <g clip-path="url(#p8dac49f396)">
     <use xlink:href="#C0_0_00ddd45ae5" x="327.1284" y="135.054949" style="fill: #00ff97; stroke: #000000"/>
    </g>
    <g clip-path="url(#p8dac49f396)">
     <use xlink:href="#C0_0_00ddd45ae5" x="130.256636" y="258.153923" style="fill: #ff006b; stroke: #000000"/>
    </g>
    <g clip-path="url(#p8dac49f396)">
     <use xlink:href="#C0_0_00ddd45ae5" x="334.71673" y="335.019051" style="fill: #e800ff; stroke: #000000"/>
    </g>
    <g clip-path="url(#p8dac49f396)">
     <use xlink:href="#C0_0_00ddd45ae5" x="121.036231" y="61.431195" style="fill: #ff7c00; stroke: #000000"/>
    </g>
    <g clip-path="url(#p8dac49f396)">
     <use xlink:href="#C0_0_00ddd45ae5" x="305.394377" y="234.115903" style="fill: #08ff00; stroke: #000000"/>
    </g>
    <g clip-path="url(#p8dac49f396)">
     <use xlink:href="#C0_0_00ddd45ae5" x="107.002888" y="292.226606" style="fill: #ff8800; stroke: #000000"/>
    </g>
    <g clip-path="url(#p8dac49f396)">
     <use xlink:href="#C0_0_00ddd45ae5" x="40.597628" y="258.264751" style="fill: #ffab00; stroke: #000000"/>
    </g>
    <g clip-path="url(#p8dac49f396)">
     <use xlink:href="#C0_0_00ddd45ae5" x="265.582305" y="194.634457" style="fill: #fc00f5; stroke: #000000"/>
    </g>
    <g clip-path="url(#p8dac49f396)">
     <use xlink:href="#C0_0_00ddd45ae5" x="258.510067" y="75.444493" style="fill: #00dfff; stroke: #000000"/>
    </g>
    <g clip-path="url(#p8dac49f396)">
     <use xlink:href="#C0_0_00ddd45ae5" x="140.685978" y="308.800276" style="fill: #0028ff; stroke: #000000"/>
    </g>
    <g clip-path="url(#p8dac49f396)">
     <use xlink:href="#C0_0_00ddd45ae5" x="392.563442" y="224.047854" style="fill: #4fff00; stroke: #000000"/>
    </g>
    <g clip-path="url(#p8dac49f396)">
     <use xlink:href="#C0_0_00ddd45ae5" x="39.737231" y="171.513646" style="fill: #00ff7a; stroke: #000000"/>
    </g>
    <g clip-path="url(#p8dac49f396)">
     <use xlink:href="#C0_0_00ddd45ae5" x="316.222871" y="269.630042" style="fill: #6600ff; stroke: #000000"/>
    </g>
    <g clip-path="url(#p8dac49f396)">
     <use xlink:href="#C0_0_00ddd45ae5" x="309.375423" y="329.906482" style="fill: #d600ff; stroke: #000000"/>
    </g>
    <g clip-path="url(#p8dac49f396)">
     <use xlink:href="#C0_0_00ddd45ae5" x="384.129766" y="185.292713" style="fill: #14ff00; stroke: #000000"/>
    </g>
    <g clip-path="url(#p8dac49f396)">
     <use xlink:href="#C0_0_00ddd45ae5" x="126.742693" y="227.931551" style="fill: #ff0035; stroke: #000000"/>
    </g>
    <g clip-path="url(#p8dac49f396)">
     <use xlink:href="#C0_0_00ddd45ae5" x="235.248695" y="251.266574" style="fill: #ff00db; stroke: #000000"/>
    </g>
    <g clip-path="url(#p8dac49f396)">
     <use xlink:href="#C0_0_00ddd45ae5" x="133.573932" y="145.999128" style="fill: #007aff; stroke: #000000"/>
    </g>
    <g clip-path="url(#p8dac49f396)">
     <use xlink:href="#C0_0_00ddd45ae5" x="139.539804" y="180.89565" style="fill: #003fff; stroke: #000000"/>
    </g>
    <g clip-path="url(#p8dac49f396)">
     <use xlink:href="#C0_0_00ddd45ae5" x="256.031686" y="334.321016" style="fill: #020cff; stroke: #000000"/>
    </g>
    <g clip-path="url(#p8dac49f396)">
     <use xlink:href="#C0_0_00ddd45ae5" x="243.133658" y="157.407854" style="fill: #00ff3f; stroke: #000000"/>
    </g>
    <g clip-path="url(#p8dac49f396)">
     <use xlink:href="#C0_0_00ddd45ae5" x="85.298122" y="243.838539" style="fill: #ff0024; stroke: #000000"/>
    </g>
    <g clip-path="url(#p8dac49f396)">
     <use xlink:href="#C0_0_00ddd45ae5" x="243.218527" y="302.666647" style="fill: #e8ff00; stroke: #000000"/>
    </g>
    <g clip-path="url(#p8dac49f396)">
     <use xlink:href="#C0_0_00ddd45ae5" x="209.504352" y="273.485651" style="fill: #a2ff00; stroke: #000000"/>
    </g>
    <g clip-path="url(#p8dac49f396)">
     <use xlink:href="#C0_0_00ddd45ae5" x="169.302684" y="255.106562" style="fill: #d7ff00; stroke: #000000"/>
    </g>
    <g clip-path="url(#p8dac49f396)">
     <use xlink:href="#C0_0_00ddd45ae5" x="275.394002" y="351.089272" style="fill: #0800ff; stroke: #000000"/>
    </g>
    <g clip-path="url(#p8dac49f396)">
     <use xlink:href="#C0_0_00ddd45ae5" x="228.082479" y="403.914014" style="fill: #1f00ff; stroke: #000000"/>
    </g>
    <g clip-path="url(#p8dac49f396)">
     <use xlink:href="#C0_0_00ddd45ae5" x="297.470007" y="310.81958" style="fill: #cb00ff; stroke: #000000"/>
    </g>
    <g clip-path="url(#p8dac49f396)">
     <use xlink:href="#C0_0_00ddd45ae5" x="149.616923" y="208.419751" style="fill: #0069ff; stroke: #000000"/>
    </g>
    <g clip-path="url(#p8dac49f396)">
     <use xlink:href="#C0_0_00ddd45ae5" x="382.293539" y="267.718781" style="fill: #20ff00; stroke: #000000"/>
    </g>
    <g clip-path="url(#p8dac49f396)">
     <use xlink:href="#C0_0_00ddd45ae5" x="162.21096" y="144.175923" style="fill: #00afff; stroke: #000000"/>
    </g>
    <g clip-path="url(#p8dac49f396)">
     <use xlink:href="#C0_0_00ddd45ae5" x="389.249841" y="311.838843" style="fill: #31ff00; stroke: #000000"/>
    </g>
    <g clip-path="url(#p8dac49f396)">
     <use xlink:href="#C0_0_00ddd45ae5" x="350.963192" y="246.601252" style="fill: #02ff0c; stroke: #000000"/>
    </g>
    <g clip-path="url(#p8dac49f396)">
     <use xlink:href="#C0_0_00ddd45ae5" x="180.766556" y="393.05578" style="fill: #ffd500; stroke: #000000"/>
    </g>
    <g clip-path="url(#p8dac49f396)">
     <use xlink:href="#C0_0_00ddd45ae5" x="343.029179" y="191.696072" style="fill: #5bff00; stroke: #000000"/>
    </g>
    <g clip-path="url(#p8dac49f396)">
     <use xlink:href="#C0_0_00ddd45ae5" x="133.238947" y="113.818078" style="fill: #ff7000; stroke: #000000"/>
    </g>
    <g clip-path="url(#p8dac49f396)">
     <use xlink:href="#C0_0_00ddd45ae5" x="200.587399" y="325.606802" style="fill: #1300ff; stroke: #000000"/>
    </g>
    <g clip-path="url(#p8dac49f396)">
     <use xlink:href="#C0_0_00ddd45ae5" x="347.589543" y="157.07334" style="fill: #00ffa3; stroke: #000000"/>
    </g>
    <g clip-path="url(#p8dac49f396)">
     <use xlink:href="#C0_0_00ddd45ae5" x="348.793126" y="104.052711" style="fill: #00ff68; stroke: #000000"/>
    </g>
    <g clip-path="url(#p8dac49f396)">
     <use xlink:href="#C0_0_00ddd45ae5" x="74.356705" y="82.903381" style="fill: #ff3500; stroke: #000000"/>
    </g>
    <g clip-path="url(#p8dac49f396)">
     <use xlink:href="#C0_0_00ddd45ae5" x="213.75488" y="196.499719" style="fill: #f400ff; stroke: #000000"/>
    </g>
    <g clip-path="url(#p8dac49f396)">
     <use xlink:href="#C0_0_00ddd45ae5" x="181.049704" y="110.651177" style="fill: #ff0c00; stroke: #000000"/>
    </g>
    <g clip-path="url(#p8dac49f396)">
     <use xlink:href="#C0_0_00ddd45ae5" x="226.159882" y="333.593433" style="fill: #5a00ff; stroke: #000000"/>
    </g>
   </g>
   <g id="matplotlib.axis_1">
    <g id="xtick_1">
     <g id="line2d_1">
      <path d="M 0 432 
L 0 0 
" clip-path="url(#p8dac49f396)" style="fill: none; stroke-dasharray: 1.85,0.8; stroke-dashoffset: 0; stroke: #808080; stroke-width: 0.5"/>
     </g>
     <g id="line2d_2">
      <defs>
       <path id="m860ac3522b" d="M 0 0 
L 0 3.5 
" style="stroke: #000000; stroke-width: 0.8"/>
      </defs>
      <g>
       <use xlink:href="#m860ac3522b" x="0" y="432" style="stroke: #000000; stroke-width: 0.8"/>
      </g>
     </g>
     <g id="text_1">
      <!-- −1.0 -->
      <g transform="translate(-12.141406 446.598437) scale(0.1 -0.1)">
       <defs>
        <path id="DejaVuSans-2212" d="M 678 2272 
L 4684 2272 
L 4684 1741 
L 678 1741 
L 678 2272 
z
" transform="scale(0.015625)"/>
        <path id="DejaVuSans-31" d="M 794 531 
L 1825 531 
L 1825 4091 
L 703 3866 
L 703 4441 
L 1819 4666 
L 2450 4666 
L 2450 531 
L 3481 531 
L 3481 0 
L 794 0 
L 794 531 
z
" transform="scale(0.015625)"/>
        <path id="DejaVuSans-2e" d="M 684 794 
L 1344 794 
L 1344 0 
L 684 0 
L 684 794 
z
" transform="scale(0.015625)"/>
        <path id="DejaVuSans-30" d="M 2034 4250 
Q 1547 4250 1301 3770 
Q 1056 3291 1056 2328 
Q 1056 1369 1301 889 
Q 1547 409 2034 409 
Q 2525 409 2770 889 
Q 3016 1369 3016 2328 
Q 3016 3291 2770 3770 
Q 2525 4250 2034 4250 
z
M 2034 4750 
Q 2819 4750 3233 4129 
Q 3647 3509 3647 2328 
Q 3647 1150 3233 529 
Q 2819 -91 2034 -91 
Q 1250 -91 836 529 
Q 422 1150 422 2328 
Q 422 3509 836 4129 
Q 1250 4750 2034 4750 
z
" transform="scale(0.015625)"/>
       </defs>
       <use xlink:href="#DejaVuSans-2212"/>
       <use xlink:href="#DejaVuSans-31" transform="translate(83.789062 0)"/>
       <use xlink:href="#DejaVuSans-2e" transform="translate(147.412109 0)"/>
       <use xlink:href="#DejaVuSans-30" transform="translate(179.199219 0)"/>
      </g>
     </g>
    </g>
    <g id="xtick_2">
     <g id="line2d_3">
      <path d="M 43.2 432 
L 43.2 0 
" clip-path="url(#p8dac49f396)" style="fill: none; stroke-dasharray: 1.85,0.8; stroke-dashoffset: 0; stroke: #808080; stroke-width: 0.5"/>
     </g>
     <g id="line2d_4">
      <g>
       <use xlink:href="#m860ac3522b" x="43.2" y="432" style="stroke: #000000; stroke-width: 0.8"/>
      </g>
     </g>
     <g id="text_2">
      <!-- −0.8 -->
      <g transform="translate(31.058594 446.598437) scale(0.1 -0.1)">
       <defs>
        <path id="DejaVuSans-38" d="M 2034 2216 
Q 1584 2216 1326 1975 
Q 1069 1734 1069 1313 
Q 1069 891 1326 650 
Q 1584 409 2034 409 
Q 2484 409 2743 651 
Q 3003 894 3003 1313 
Q 3003 1734 2745 1975 
Q 2488 2216 2034 2216 
z
M 1403 2484 
Q 997 2584 770 2862 
Q 544 3141 544 3541 
Q 544 4100 942 4425 
Q 1341 4750 2034 4750 
Q 2731 4750 3128 4425 
Q 3525 4100 3525 3541 
Q 3525 3141 3298 2862 
Q 3072 2584 2669 2484 
Q 3125 2378 3379 2068 
Q 3634 1759 3634 1313 
Q 3634 634 3220 271 
Q 2806 -91 2034 -91 
Q 1263 -91 848 271 
Q 434 634 434 1313 
Q 434 1759 690 2068 
Q 947 2378 1403 2484 
z
M 1172 3481 
Q 1172 3119 1398 2916 
Q 1625 2713 2034 2713 
Q 2441 2713 2670 2916 
Q 2900 3119 2900 3481 
Q 2900 3844 2670 4047 
Q 2441 4250 2034 4250 
Q 1625 4250 1398 4047 
Q 1172 3844 1172 3481 
z
" transform="scale(0.015625)"/>
       </defs>
       <use xlink:href="#DejaVuSans-2212"/>
       <use xlink:href="#DejaVuSans-30" transform="translate(83.789062 0)"/>
       <use xlink:href="#DejaVuSans-2e" transform="translate(147.412109 0)"/>
       <use xlink:href="#DejaVuSans-38" transform="translate(179.199219 0)"/>
      </g>
     </g>
    </g>
    <g id="xtick_3">
     <g id="line2d_5">
      <path d="M 86.4 432 
L 86.4 0 
" clip-path="url(#p8dac49f396)" style="fill: none; stroke-dasharray: 1.85,0.8; stroke-dashoffset: 0; stroke: #808080; stroke-width: 0.5"/>
     </g>
     <g id="line2d_6">
      <g>
       <use xlink:href="#m860ac3522b" x="86.4" y="432" style="stroke: #000000; stroke-width: 0.8"/>
      </g>
     </g>
     <g id="text_3">
      <!-- −0.6 -->
      <g transform="translate(74.258594 446.598437) scale(0.1 -0.1)">
       <defs>
        <path id="DejaVuSans-36" d="M 2113 2584 
Q 1688 2584 1439 2293 
Q 1191 2003 1191 1497 
Q 1191 994 1439 701 
Q 1688 409 2113 409 
Q 2538 409 2786 701 
Q 3034 994 3034 1497 
Q 3034 2003 2786 2293 
Q 2538 2584 2113 2584 
z
M 3366 4563 
L 3366 3988 
Q 3128 4100 2886 4159 
Q 2644 4219 2406 4219 
Q 1781 4219 1451 3797 
Q 1122 3375 1075 2522 
Q 1259 2794 1537 2939 
Q 1816 3084 2150 3084 
Q 2853 3084 3261 2657 
Q 3669 2231 3669 1497 
Q 3669 778 3244 343 
Q 2819 -91 2113 -91 
Q 1303 -91 875 529 
Q 447 1150 447 2328 
Q 447 3434 972 4092 
Q 1497 4750 2381 4750 
Q 2619 4750 2861 4703 
Q 3103 4656 3366 4563 
z
" transform="scale(0.015625)"/>
       </defs>
       <use xlink:href="#DejaVuSans-2212"/>
       <use xlink:href="#DejaVuSans-30" transform="translate(83.789062 0)"/>
       <use xlink:href="#DejaVuSans-2e" transform="translate(147.412109 0)"/>
       <use xlink:href="#DejaVuSans-36" transform="translate(179.199219 0)"/>
      </g>
     </g>
    </g>
    <g id="xtick_4">
     <g id="line2d_7">
      <path d="M 129.6 432 
L 129.6 0 
" clip-path="url(#p8dac49f396)" style="fill: none; stroke-dasharray: 1.85,0.8; stroke-dashoffset: 0; stroke: #808080; stroke-width: 0.5"/>
     </g>
     <g id="line2d_8">
      <g>
       <use xlink:href="#m860ac3522b" x="129.6" y="432" style="stroke: #000000; stroke-width: 0.8"/>
      </g>
     </g>
     <g id="text_4">
      <!-- −0.4 -->
      <g transform="translate(117.458594 446.598437) scale(0.1 -0.1)">
       <defs>
        <path id="DejaVuSans-34" d="M 2419 4116 
L 825 1625 
L 2419 1625 
L 2419 4116 
z
M 2253 4666 
L 3047 4666 
L 3047 1625 
L 3713 1625 
L 3713 1100 
L 3047 1100 
L 3047 0 
L 2419 0 
L 2419 1100 
L 313 1100 
L 313 1709 
L 2253 4666 
z
" transform="scale(0.015625)"/>
       </defs>
       <use xlink:href="#DejaVuSans-2212"/>
       <use xlink:href="#DejaVuSans-30" transform="translate(83.789062 0)"/>
       <use xlink:href="#DejaVuSans-2e" transform="translate(147.412109 0)"/>
       <use xlink:href="#DejaVuSans-34" transform="translate(179.199219 0)"/>
      </g>
     </g>
    </g>
    <g id="xtick_5">
     <g id="line2d_9">
      <path d="M 172.8 432 
L 172.8 0 
" clip-path="url(#p8dac49f396)" style="fill: none; stroke-dasharray: 1.85,0.8; stroke-dashoffset: 0; stroke: #808080; stroke-width: 0.5"/>
     </g>
     <g id="line2d_10">
      <g>
       <use xlink:href="#m860ac3522b" x="172.8" y="432" style="stroke: #000000; stroke-width: 0.8"/>
      </g>
     </g>
     <g id="text_5">
      <!-- −0.2 -->
      <g transform="translate(160.658594 446.598437) scale(0.1 -0.1)">
       <defs>
        <path id="DejaVuSans-32" d="M 1228 531 
L 3431 531 
L 3431 0 
L 469 0 
L 469 531 
Q 828 903 1448 1529 
Q 2069 2156 2228 2338 
Q 2531 2678 2651 2914 
Q 2772 3150 2772 3378 
Q 2772 3750 2511 3984 
Q 2250 4219 1831 4219 
Q 1534 4219 1204 4116 
Q 875 4013 500 3803 
L 500 4441 
Q 881 4594 1212 4672 
Q 1544 4750 1819 4750 
Q 2544 4750 2975 4387 
Q 3406 4025 3406 3419 
Q 3406 3131 3298 2873 
Q 3191 2616 2906 2266 
Q 2828 2175 2409 1742 
Q 1991 1309 1228 531 
z
" transform="scale(0.015625)"/>
       </defs>
       <use xlink:href="#DejaVuSans-2212"/>
       <use xlink:href="#DejaVuSans-30" transform="translate(83.789062 0)"/>
       <use xlink:href="#DejaVuSans-2e" transform="translate(147.412109 0)"/>
       <use xlink:href="#DejaVuSans-32" transform="translate(179.199219 0)"/>
      </g>
     </g>
    </g>
    <g id="xtick_6">
     <g id="line2d_11">
      <path d="M 216 432 
L 216 0 
" clip-path="url(#p8dac49f396)" style="fill: none; stroke-dasharray: 1.85,0.8; stroke-dashoffset: 0; stroke: #808080; stroke-width: 0.5"/>
     </g>
     <g id="line2d_12">
      <g>
       <use xlink:href="#m860ac3522b" x="216" y="432" style="stroke: #000000; stroke-width: 0.8"/>
      </g>
     </g>
     <g id="text_6">
      <!-- 0.0 -->
      <g transform="translate(208.048437 446.598437) scale(0.1 -0.1)">
       <use xlink:href="#DejaVuSans-30"/>
       <use xlink:href="#DejaVuSans-2e" transform="translate(63.623047 0)"/>
       <use xlink:href="#DejaVuSans-30" transform="translate(95.410156 0)"/>
      </g>
     </g>
    </g>
    <g id="xtick_7">
     <g id="line2d_13">
      <path d="M 259.2 432 
L 259.2 0 
" clip-path="url(#p8dac49f396)" style="fill: none; stroke-dasharray: 1.85,0.8; stroke-dashoffset: 0; stroke: #808080; stroke-width: 0.5"/>
     </g>
     <g id="line2d_14">
      <g>
       <use xlink:href="#m860ac3522b" x="259.2" y="432" style="stroke: #000000; stroke-width: 0.8"/>
      </g>
     </g>
     <g id="text_7">
      <!-- 0.2 -->
      <g transform="translate(251.248437 446.598437) scale(0.1 -0.1)">
       <use xlink:href="#DejaVuSans-30"/>
       <use xlink:href="#DejaVuSans-2e" transform="translate(63.623047 0)"/>
       <use xlink:href="#DejaVuSans-32" transform="translate(95.410156 0)"/>
      </g>
     </g>
    </g>
    <g id="xtick_8">
     <g id="line2d_15">
      <path d="M 302.4 432 
L 302.4 0 
" clip-path="url(#p8dac49f396)" style="fill: none; stroke-dasharray: 1.85,0.8; stroke-dashoffset: 0; stroke: #808080; stroke-width: 0.5"/>
     </g>
     <g id="line2d_16">
      <g>
       <use xlink:href="#m860ac3522b" x="302.4" y="432" style="stroke: #000000; stroke-width: 0.8"/>
      </g>
     </g>
     <g id="text_8">
      <!-- 0.4 -->
      <g transform="translate(294.448437 446.598437) scale(0.1 -0.1)">
       <use xlink:href="#DejaVuSans-30"/>
       <use xlink:href="#DejaVuSans-2e" transform="translate(63.623047 0)"/>
       <use xlink:href="#DejaVuSans-34" transform="translate(95.410156 0)"/>
      </g>
     </g>
    </g>
    <g id="xtick_9">
     <g id="line2d_17">
      <path d="M 345.6 432 
L 345.6 0 
" clip-path="url(#p8dac49f396)" style="fill: none; stroke-dasharray: 1.85,0.8; stroke-dashoffset: 0; stroke: #808080; stroke-width: 0.5"/>
     </g>
     <g id="line2d_18">
      <g>
       <use xlink:href="#m860ac3522b" x="345.6" y="432" style="stroke: #000000; stroke-width: 0.8"/>
      </g>
     </g>
     <g id="text_9">
      <!-- 0.6 -->
      <g transform="translate(337.648437 446.598437) scale(0.1 -0.1)">
       <use xlink:href="#DejaVuSans-30"/>
       <use xlink:href="#DejaVuSans-2e" transform="translate(63.623047 0)"/>
       <use xlink:href="#DejaVuSans-36" transform="translate(95.410156 0)"/>
      </g>
     </g>
    </g>
    <g id="xtick_10">
     <g id="line2d_19">
      <path d="M 388.8 432 
L 388.8 0 
" clip-path="url(#p8dac49f396)" style="fill: none; stroke-dasharray: 1.85,0.8; stroke-dashoffset: 0; stroke: #808080; stroke-width: 0.5"/>
     </g>
     <g id="line2d_20">
      <g>
       <use xlink:href="#m860ac3522b" x="388.8" y="432" style="stroke: #000000; stroke-width: 0.8"/>
      </g>
     </g>
     <g id="text_10">
      <!-- 0.8 -->
      <g transform="translate(380.848437 446.598437) scale(0.1 -0.1)">
       <use xlink:href="#DejaVuSans-30"/>
       <use xlink:href="#DejaVuSans-2e" transform="translate(63.623047 0)"/>
       <use xlink:href="#DejaVuSans-38" transform="translate(95.410156 0)"/>
      </g>
     </g>
    </g>
    <g id="xtick_11">
     <g id="line2d_21">
      <path d="M 432 432 
L 432 0 
" clip-path="url(#p8dac49f396)" style="fill: none; stroke-dasharray: 1.85,0.8; stroke-dashoffset: 0; stroke: #808080; stroke-width: 0.5"/>
     </g>
     <g id="line2d_22">
      <g>
       <use xlink:href="#m860ac3522b" x="432" y="432" style="stroke: #000000; stroke-width: 0.8"/>
      </g>
     </g>
     <g id="text_11">
      <!-- 1.0 -->
      <g transform="translate(424.048437 446.598437) scale(0.1 -0.1)">
       <use xlink:href="#DejaVuSans-31"/>
       <use xlink:href="#DejaVuSans-2e" transform="translate(63.623047 0)"/>
       <use xlink:href="#DejaVuSans-30" transform="translate(95.410156 0)"/>
      </g>
     </g>
    </g>
   </g>
   <g id="matplotlib.axis_2">
    <g id="ytick_1">
     <g id="line2d_23">
      <path d="M 0 432 
L 432 432 
" clip-path="url(#p8dac49f396)" style="fill: none; stroke-dasharray: 1.85,0.8; stroke-dashoffset: 0; stroke: #808080; stroke-width: 0.5"/>
     </g>
     <g id="line2d_24">
      <defs>
       <path id="mee28461958" d="M 0 0 
L -3.5 0 
" style="stroke: #000000; stroke-width: 0.8"/>
      </defs>
      <g>
       <use xlink:href="#mee28461958" x="0" y="432" style="stroke: #000000; stroke-width: 0.8"/>
      </g>
     </g>
     <g id="text_12">
      <!-- −1.0 -->
      <g transform="translate(-31.282813 435.799219) scale(0.1 -0.1)">
       <use xlink:href="#DejaVuSans-2212"/>
       <use xlink:href="#DejaVuSans-31" transform="translate(83.789062 0)"/>
       <use xlink:href="#DejaVuSans-2e" transform="translate(147.412109 0)"/>
       <use xlink:href="#DejaVuSans-30" transform="translate(179.199219 0)"/>
      </g>
     </g>
    </g>
    <g id="ytick_2">
     <g id="line2d_25">
      <path d="M 0 388.8 
L 432 388.8 
" clip-path="url(#p8dac49f396)" style="fill: none; stroke-dasharray: 1.85,0.8; stroke-dashoffset: 0; stroke: #808080; stroke-width: 0.5"/>
     </g>
     <g id="line2d_26">
      <g>
       <use xlink:href="#mee28461958" x="0" y="388.8" style="stroke: #000000; stroke-width: 0.8"/>
      </g>
     </g>
     <g id="text_13">
      <!-- −0.8 -->
      <g transform="translate(-31.282813 392.599219) scale(0.1 -0.1)">
       <use xlink:href="#DejaVuSans-2212"/>
       <use xlink:href="#DejaVuSans-30" transform="translate(83.789062 0)"/>
       <use xlink:href="#DejaVuSans-2e" transform="translate(147.412109 0)"/>
       <use xlink:href="#DejaVuSans-38" transform="translate(179.199219 0)"/>
      </g>
     </g>
    </g>
    <g id="ytick_3">
     <g id="line2d_27">
      <path d="M 0 345.6 
L 432 345.6 
" clip-path="url(#p8dac49f396)" style="fill: none; stroke-dasharray: 1.85,0.8; stroke-dashoffset: 0; stroke: #808080; stroke-width: 0.5"/>
     </g>
     <g id="line2d_28">
      <g>
       <use xlink:href="#mee28461958" x="0" y="345.6" style="stroke: #000000; stroke-width: 0.8"/>
      </g>
     </g>
     <g id="text_14">
      <!-- −0.6 -->
      <g transform="translate(-31.282813 349.399219) scale(0.1 -0.1)">
       <use xlink:href="#DejaVuSans-2212"/>
       <use xlink:href="#DejaVuSans-30" transform="translate(83.789062 0)"/>
       <use xlink:href="#DejaVuSans-2e" transform="translate(147.412109 0)"/>
       <use xlink:href="#DejaVuSans-36" transform="translate(179.199219 0)"/>
      </g>
     </g>
    </g>
    <g id="ytick_4">
     <g id="line2d_29">
      <path d="M 0 302.4 
L 432 302.4 
" clip-path="url(#p8dac49f396)" style="fill: none; stroke-dasharray: 1.85,0.8; stroke-dashoffset: 0; stroke: #808080; stroke-width: 0.5"/>
     </g>
     <g id="line2d_30">
      <g>
       <use xlink:href="#mee28461958" x="0" y="302.4" style="stroke: #000000; stroke-width: 0.8"/>
      </g>
     </g>
     <g id="text_15">
      <!-- −0.4 -->
      <g transform="translate(-31.282813 306.199219) scale(0.1 -0.1)">
       <use xlink:href="#DejaVuSans-2212"/>
       <use xlink:href="#DejaVuSans-30" transform="translate(83.789062 0)"/>
       <use xlink:href="#DejaVuSans-2e" transform="translate(147.412109 0)"/>
       <use xlink:href="#DejaVuSans-34" transform="translate(179.199219 0)"/>
      </g>
     </g>
    </g>
    <g id="ytick_5">
     <g id="line2d_31">
      <path d="M 0 259.2 
L 432 259.2 
" clip-path="url(#p8dac49f396)" style="fill: none; stroke-dasharray: 1.85,0.8; stroke-dashoffset: 0; stroke: #808080; stroke-width: 0.5"/>
     </g>
     <g id="line2d_32">
      <g>
       <use xlink:href="#mee28461958" x="0" y="259.2" style="stroke: #000000; stroke-width: 0.8"/>
      </g>
     </g>
     <g id="text_16">
      <!-- −0.2 -->
      <g transform="translate(-31.282813 262.999219) scale(0.1 -0.1)">
       <use xlink:href="#DejaVuSans-2212"/>
       <use xlink:href="#DejaVuSans-30" transform="translate(83.789062 0)"/>
       <use xlink:href="#DejaVuSans-2e" transform="translate(147.412109 0)"/>
       <use xlink:href="#DejaVuSans-32" transform="translate(179.199219 0)"/>
      </g>
     </g>
    </g>
    <g id="ytick_6">
     <g id="line2d_33">
      <path d="M 0 216 
L 432 216 
" clip-path="url(#p8dac49f396)" style="fill: none; stroke-dasharray: 1.85,0.8; stroke-dashoffset: 0; stroke: #808080; stroke-width: 0.5"/>
     </g>
     <g id="line2d_34">
      <g>
       <use xlink:href="#mee28461958" x="0" y="216" style="stroke: #000000; stroke-width: 0.8"/>
      </g>
     </g>
     <g id="text_17">
      <!-- 0.0 -->
      <g transform="translate(-22.903125 219.799219) scale(0.1 -0.1)">
       <use xlink:href="#DejaVuSans-30"/>
       <use xlink:href="#DejaVuSans-2e" transform="translate(63.623047 0)"/>
       <use xlink:href="#DejaVuSans-30" transform="translate(95.410156 0)"/>
      </g>
     </g>
    </g>
    <g id="ytick_7">
     <g id="line2d_35">
      <path d="M 0 172.8 
L 432 172.8 
" clip-path="url(#p8dac49f396)" style="fill: none; stroke-dasharray: 1.85,0.8; stroke-dashoffset: 0; stroke: #808080; stroke-width: 0.5"/>
     </g>
     <g id="line2d_36">
      <g>
       <use xlink:href="#mee28461958" x="0" y="172.8" style="stroke: #000000; stroke-width: 0.8"/>
      </g>
     </g>
     <g id="text_18">
      <!-- 0.2 -->
      <g transform="translate(-22.903125 176.599219) scale(0.1 -0.1)">
       <use xlink:href="#DejaVuSans-30"/>
       <use xlink:href="#DejaVuSans-2e" transform="translate(63.623047 0)"/>
       <use xlink:href="#DejaVuSans-32" transform="translate(95.410156 0)"/>
      </g>
     </g>
    </g>
    <g id="ytick_8">
     <g id="line2d_37">
      <path d="M 0 129.6 
L 432 129.6 
" clip-path="url(#p8dac49f396)" style="fill: none; stroke-dasharray: 1.85,0.8; stroke-dashoffset: 0; stroke: #808080; stroke-width: 0.5"/>
     </g>
     <g id="line2d_38">
      <g>
       <use xlink:href="#mee28461958" x="0" y="129.6" style="stroke: #000000; stroke-width: 0.8"/>
      </g>
     </g>
     <g id="text_19">
      <!-- 0.4 -->
      <g transform="translate(-22.903125 133.399219) scale(0.1 -0.1)">
       <use xlink:href="#DejaVuSans-30"/>
       <use xlink:href="#DejaVuSans-2e" transform="translate(63.623047 0)"/>
       <use xlink:href="#DejaVuSans-34" transform="translate(95.410156 0)"/>
      </g>
     </g>
    </g>
    <g id="ytick_9">
     <g id="line2d_39">
      <path d="M 0 86.4 
L 432 86.4 
" clip-path="url(#p8dac49f396)" style="fill: none; stroke-dasharray: 1.85,0.8; stroke-dashoffset: 0; stroke: #808080; stroke-width: 0.5"/>
     </g>
     <g id="line2d_40">
      <g>
       <use xlink:href="#mee28461958" x="0" y="86.4" style="stroke: #000000; stroke-width: 0.8"/>
      </g>
     </g>
     <g id="text_20">
      <!-- 0.6 -->
      <g transform="translate(-22.903125 90.199219) scale(0.1 -0.1)">
       <use xlink:href="#DejaVuSans-30"/>
       <use xlink:href="#DejaVuSans-2e" transform="translate(63.623047 0)"/>
       <use xlink:href="#DejaVuSans-36" transform="translate(95.410156 0)"/>
      </g>
     </g>
    </g>
    <g id="ytick_10">
     <g id="line2d_41">
      <path d="M 0 43.2 
L 432 43.2 
" clip-path="url(#p8dac49f396)" style="fill: none; stroke-dasharray: 1.85,0.8; stroke-dashoffset: 0; stroke: #808080; stroke-width: 0.5"/>
     </g>
     <g id="line2d_42">
      <g>
       <use xlink:href="#mee28461958" x="0" y="43.2" style="stroke: #000000; stroke-width: 0.8"/>
      </g>
     </g>
     <g id="text_21">
      <!-- 0.8 -->
      <g transform="translate(-22.903125 46.999219) scale(0.1 -0.1)">
       <use xlink:href="#DejaVuSans-30"/>
       <use xlink:href="#DejaVuSans-2e" transform="translate(63.623047 0)"/>
       <use xlink:href="#DejaVuSans-38" transform="translate(95.410156 0)"/>
      </g>
     </g>
    </g>
    <g id="ytick_11">
     <g id="line2d_43">
      <path d="M 0 0 
L 432 0 
" clip-path="url(#p8dac49f396)" style="fill: none; stroke-dasharray: 1.85,0.8; stroke-dashoffset: 0; stroke: #808080; stroke-width: 0.5"/>
     </g>
     <g id="line2d_44">
      <g>
       <use xlink:href="#mee28461958" x="0" y="0" style="stroke: #000000; stroke-width: 0.8"/>
      </g>
     </g>
     <g id="text_22">
      <!-- 1.0 -->
      <g transform="translate(-22.903125 3.799219) scale(0.1 -0.1)">
       <use xlink:href="#DejaVuSans-31"/>
       <use xlink:href="#DejaVuSans-2e" transform="translate(63.623047 0)"/>
       <use xlink:href="#DejaVuSans-30" transform="translate(95.410156 0)"/>
      </g>
     </g>
    </g>
   </g>
   <g id="patch_3">
    <path d="M 0 432 
L 0 0 
" style="fill: none; stroke: #000000; stroke-width: 0.8; stroke-linejoin: miter; stroke-linecap: square"/>
   </g>
   <g id="patch_4">
    <path d="M 432 432 
L 432 0 
" style="fill: none; stroke: #000000; stroke-width: 0.8; stroke-linejoin: miter; stroke-linecap: square"/>
   </g>
   <g id="patch_5">
    <path d="M 0 432 
L 432 432 
" style="fill: none; stroke: #000000; stroke-width: 0.8; stroke-linejoin: miter; stroke-linecap: square"/>
   </g>
   <g id="patch_6">
    <path d="M 0 0 
L 432 0 
" style="fill: none; stroke: #000000; stroke-width: 0.8; stroke-linejoin: miter; stroke-linecap: square"/>
   </g>
  </g>
 </g>
 <defs>
  <clipPath id="p8dac49f396">
   <rect x="0" y="0" width="432" height="432"/>
  </clipPath>
 </defs>
</svg>
